<svg width="233" height="67" viewBox="0 0 233 67" fill="none" xmlns="http://www.w3.org/2000/svg">
<path d="M231.706 59.2727C231.706 62.8432 228.74 65.7354 225.071 65.7354H7.93857C4.2715 65.7354 1.29492 62.8432 1.29492 59.2727V7.7348C1.29492 4.16598 4.2715 1.26367 7.93857 1.26367H225.069C228.74 1.26367 231.704 4.16598 231.704 7.7348L231.706 59.2727Z" fill="black"/>
<path d="M224.37 1.34209C228.366 1.34209 231.617 4.49738 231.617 8.375V58.625C231.617 62.5026 228.366 65.6579 224.37 65.6579H8.62963C4.63411 65.6579 1.3829 62.5026 1.3829 58.625V8.375C1.3829 4.49738 4.63411 1.34209 8.62963 1.34209H224.37ZM224.37 0H8.62963C3.88549 0 0 3.77084 0 8.375V58.625C0 63.2292 3.88549 67 8.62963 67H224.37C229.115 67 233 63.2292 233 58.625V8.375C233 3.77084 229.115 0 224.37 0Z" fill="#A6A6A6"/>
<path d="M51.9989 33.1378C51.9489 27.7393 56.5537 25.1129 56.7642 24.9906C54.1564 21.3006 50.1142 20.7964 48.6938 20.7562C45.2989 20.4095 42.0058 22.7277 40.2765 22.7277C38.5126 22.7277 35.8495 20.7897 32.9792 20.8467C29.2858 20.9019 25.8305 22.9773 23.9354 26.2C20.0244 32.771 22.9413 42.4274 26.6882 47.7388C28.5626 50.3401 30.7528 53.2445 33.6196 53.1423C36.4242 53.0301 37.4718 51.407 40.8564 51.407C44.2098 51.407 45.1936 53.1423 48.1173 53.077C51.1273 53.0301 53.0224 50.464 54.8312 47.8393C56.9972 44.8578 57.8671 41.9215 57.9016 41.7708C57.8308 41.7473 52.0559 39.6083 51.9989 33.1378Z" fill="white"/>
<path d="M46.476 17.2622C47.9844 15.4314 49.0165 12.9407 48.73 10.4131C46.5467 10.5069 43.8163 11.8787 42.244 13.6693C40.8529 15.2471 39.6102 17.8333 39.9313 20.2654C42.3838 20.443 44.9019 19.0645 46.476 17.2622Z" fill="white"/>
<path d="M84.657 16.7648C84.657 18.7363 84.0477 20.2203 82.8309 21.217C81.7039 22.1365 80.1022 22.5972 78.0277 22.5972C76.999 22.5972 76.1188 22.5536 75.3818 22.4665V11.6946C76.3432 11.5438 77.3787 11.4668 78.4971 11.4668C80.4733 11.4668 81.9628 11.8839 82.9673 12.718C84.0926 13.661 84.657 15.0094 84.657 16.7648ZM82.7498 16.8134C82.7498 15.5354 82.4012 14.5555 81.7039 13.8721C81.0066 13.1904 79.9883 12.8487 78.6473 12.8487C78.0777 12.8487 77.5927 12.8855 77.1906 12.9626V21.1516C77.4133 21.1851 77.8206 21.2002 78.4126 21.2002C79.7968 21.2002 80.8651 20.8267 81.6176 20.0796C82.3701 19.3326 82.7498 18.2438 82.7498 16.8134Z" fill="white"/>
<path d="M94.7694 18.4868C94.7694 19.7012 94.4121 20.6961 93.6976 21.4767C92.9485 22.279 91.9561 22.6793 90.7169 22.6793C89.5226 22.6793 88.5716 22.2958 87.8622 21.5253C87.1546 20.7564 86.8008 19.7866 86.8008 18.6175C86.8008 17.3947 87.1649 16.3914 87.8967 15.6125C88.6285 14.8336 89.6123 14.4434 90.8515 14.4434C92.0459 14.4434 93.0055 14.8269 93.7321 15.5958C94.4225 16.3428 94.7694 17.3076 94.7694 18.4868ZM92.8933 18.5438C92.8933 17.8151 92.7311 17.1904 92.4083 16.6694C92.0286 16.0396 91.4884 15.7247 90.7859 15.7247C90.0593 15.7247 89.507 16.0396 89.1273 16.6694C88.8029 17.1904 88.6423 17.8252 88.6423 18.5756C88.6423 19.3042 88.8046 19.929 89.1273 20.4499C89.5191 21.0797 90.0645 21.3946 90.7687 21.3946C91.4591 21.3946 92.001 21.0747 92.3911 20.4332C92.7259 19.9022 92.8933 19.2724 92.8933 18.5438Z" fill="white"/>
<path d="M108.328 14.6045L105.782 22.5004H104.125L103.071 19.0717C102.803 18.2158 102.586 17.3649 102.417 16.5207H102.384C102.227 17.3883 102.009 18.2376 101.73 19.0717L100.61 22.5004H98.9339L96.54 14.6045H98.3989L99.3188 18.3582C99.5414 19.2459 99.7244 20.0918 99.8711 20.8924H99.9039C100.038 20.2325 100.261 19.3916 100.575 18.3749L101.73 14.6062H103.204L104.31 18.2945C104.578 19.194 104.795 20.06 104.963 20.8941H105.013C105.135 20.0817 105.32 19.2158 105.565 18.2945L106.552 14.6062H108.328V14.6045Z" fill="white"/>
<path d="M117.705 22.5003H115.896V17.9778C115.896 16.5842 115.351 15.8874 114.256 15.8874C113.72 15.8874 113.286 16.0783 112.95 16.4619C112.617 16.8455 112.448 17.2977 112.448 17.8153V22.4986H110.639V16.8605C110.639 16.1671 110.616 15.415 110.573 14.601H112.163L112.247 15.8354H112.297C112.508 15.4519 112.822 15.1353 113.235 14.8824C113.725 14.5876 114.274 14.4385 114.874 14.4385C115.634 14.4385 116.265 14.6763 116.768 15.1537C117.392 15.7383 117.705 16.611 117.705 17.7701V22.5003Z" fill="white"/>
<path d="M122.693 22.5004H120.886V10.9814H122.693V22.5004Z" fill="white"/>
<path d="M133.342 18.4868C133.342 19.7012 132.984 20.6961 132.27 21.4767C131.521 22.279 130.527 22.6793 129.289 22.6793C128.093 22.6793 127.142 22.2958 126.434 21.5253C125.727 20.7564 125.373 19.7866 125.373 18.6175C125.373 17.3947 125.737 16.3914 126.469 15.6125C127.201 14.8336 128.185 14.4434 129.422 14.4434C130.618 14.4434 131.576 14.8269 132.304 15.5958C132.995 16.3428 133.342 17.3076 133.342 18.4868ZM131.464 18.5438C131.464 17.8151 131.302 17.1904 130.979 16.6694C130.601 16.0396 130.059 15.7247 129.358 15.7247C128.63 15.7247 128.078 16.0396 127.7 16.6694C127.375 17.1904 127.215 17.8252 127.215 18.5756C127.215 19.3042 127.377 19.929 127.7 20.4499C128.091 21.0797 128.637 21.3946 129.341 21.3946C130.031 21.3946 130.572 21.0747 130.962 20.4332C131.298 19.9022 131.464 19.2724 131.464 18.5438Z" fill="white"/>
<path d="M142.095 22.5001H140.471L140.337 21.5906H140.287C139.731 22.3159 138.939 22.6793 137.91 22.6793C137.142 22.6793 136.521 22.4398 136.053 21.9641C135.628 21.532 135.416 20.9943 135.416 20.3561C135.416 19.3913 135.83 18.656 136.664 18.1468C137.496 17.6376 138.666 17.388 140.173 17.3997V17.2523C140.173 16.2122 139.61 15.6929 138.483 15.6929C137.68 15.6929 136.973 15.8889 136.362 16.2775L135.994 15.1251C136.75 14.6712 137.684 14.4434 138.785 14.4434C140.911 14.4434 141.978 15.5321 141.978 17.7096V20.6174C141.978 21.4063 142.018 22.0345 142.095 22.5001ZM140.218 19.7866V18.5689C138.222 18.5354 137.225 19.0664 137.225 20.1601C137.225 20.5722 137.339 20.8804 137.572 21.0864C137.805 21.2924 138.102 21.3946 138.455 21.3946C138.852 21.3946 139.223 21.2723 139.562 21.0295C139.902 20.7849 140.111 20.475 140.188 20.0948C140.207 20.0094 140.218 19.9055 140.218 19.7866Z" fill="white"/>
<path d="M152.374 22.5004H150.769L150.684 21.2324H150.634C150.122 22.1972 149.248 22.6796 148.021 22.6796C147.041 22.6796 146.225 22.3061 145.577 21.5591C144.93 20.812 144.607 19.8422 144.607 18.6513C144.607 17.3732 144.958 16.3381 145.662 15.5475C146.344 14.8105 147.179 14.442 148.173 14.442C149.266 14.442 150.03 14.7988 150.465 15.514H150.5V10.9814H152.31V20.3732C152.31 21.142 152.331 21.8505 152.374 22.5004ZM150.5 19.1705V17.854C150.5 17.6262 150.482 17.4419 150.45 17.3012C150.348 16.8791 150.129 16.524 149.796 16.2376C149.459 15.9512 149.053 15.8071 148.586 15.8071C147.911 15.8071 147.383 16.0667 146.994 16.5877C146.609 17.1086 146.414 17.7736 146.414 18.5859C146.414 19.3665 146.599 19.9996 146.97 20.4871C147.362 21.0063 147.89 21.2659 148.551 21.2659C149.145 21.2659 149.619 21.0499 149.98 20.616C150.329 20.2157 150.5 19.7333 150.5 19.1705Z" fill="white"/>
<path d="M167.844 18.4868C167.844 19.7012 167.486 20.6961 166.772 21.4767C166.023 22.279 165.032 22.6793 163.791 22.6793C162.599 22.6793 161.648 22.2958 160.936 21.5253C160.229 20.7564 159.875 19.7866 159.875 18.6175C159.875 17.3947 160.239 16.3914 160.971 15.6125C161.703 14.8336 162.687 14.4434 163.927 14.4434C165.12 14.4434 166.081 14.8269 166.806 15.5958C167.497 16.3428 167.844 17.3076 167.844 18.4868ZM165.969 18.5438C165.969 17.8151 165.807 17.1904 165.484 16.6694C165.103 16.0396 164.564 15.7247 163.86 15.7247C163.135 15.7247 162.583 16.0396 162.202 16.6694C161.877 17.1904 161.717 17.8252 161.717 18.5756C161.717 19.3042 161.879 19.929 162.202 20.4499C162.593 21.0797 163.139 21.3946 163.843 21.3946C164.533 21.3946 165.077 21.0747 165.467 20.4332C165.8 19.9022 165.969 19.2724 165.969 18.5438Z" fill="white"/>
<path d="M177.568 22.5003H175.761V17.9778C175.761 16.5842 175.216 15.8874 174.12 15.8874C173.583 15.8874 173.15 16.0783 172.815 16.4619C172.48 16.8455 172.313 17.2977 172.313 17.8153V22.4986H170.502V16.8605C170.502 16.1671 170.482 15.415 170.438 14.601H172.026L172.111 15.8354H172.161C172.373 15.4519 172.687 15.1353 173.098 14.8824C173.59 14.5876 174.137 14.4385 174.739 14.4385C175.497 14.4385 176.129 14.6763 176.631 15.1537C177.258 15.7383 177.568 16.611 177.568 17.7701V22.5003Z" fill="white"/>
<path d="M189.741 15.919H187.75V19.7548C187.75 20.7296 188.103 21.217 188.804 21.217C189.129 21.217 189.398 21.1902 189.61 21.135L189.657 22.4666C189.299 22.5972 188.83 22.6626 188.252 22.6626C187.537 22.6626 186.981 22.4515 186.579 22.0294C186.175 21.6073 185.975 20.8971 185.975 19.9005V15.919H184.786V14.6041H185.975V13.1569L187.748 12.6377V14.6025H189.74V15.919H189.741Z" fill="white"/>
<path d="M199.317 22.5004H197.506V18.0114C197.506 16.596 196.961 15.8875 195.869 15.8875C195.03 15.8875 194.457 16.2979 194.143 17.1186C194.089 17.2912 194.058 17.5022 194.058 17.7501V22.4987H192.251V10.9814H194.058V15.7401H194.093C194.662 14.8741 195.478 14.442 196.536 14.442C197.286 14.442 197.905 14.6798 198.397 15.1572C199.01 15.7518 199.317 16.6362 199.317 17.8054V22.5004Z" fill="white"/>
<path d="M209.194 18.179C209.194 18.4939 209.17 18.7586 209.127 18.9747H203.702C203.727 19.7552 203.985 20.3498 204.488 20.7619C204.947 21.1304 205.539 21.3146 206.264 21.3146C207.066 21.3146 207.798 21.1907 208.457 20.9411L208.74 22.1605C207.969 22.4855 207.061 22.6479 206.01 22.6479C204.75 22.6479 203.758 22.2878 203.04 21.5676C202.318 20.8473 201.961 19.8808 201.961 18.6681C201.961 17.4772 202.294 16.4856 202.965 15.695C203.666 14.8508 204.614 14.4287 205.81 14.4287C206.98 14.4287 207.869 14.8508 208.469 15.695C208.954 16.365 209.194 17.1941 209.194 18.179ZM207.468 17.7251C207.482 17.2042 207.363 16.7553 207.118 16.3767C206.804 15.8893 206.326 15.6448 205.679 15.6448C205.088 15.6448 204.607 15.8826 204.239 16.36C203.939 16.7402 203.761 17.1941 203.702 17.7251H207.468Z" fill="white"/>
<path d="M92.5871 52.7684H88.6675L86.5204 46.2209H79.0575L77.0123 52.7684H73.1963L80.5902 30.4775H85.1569L92.5871 52.7684ZM85.8732 43.4739L83.9315 37.6532C83.7262 37.0586 83.3413 35.6583 82.7734 33.454H82.7044C82.4783 34.4021 82.1141 35.8024 81.6136 37.6532L79.7065 43.4739H85.8732Z" fill="white"/>
<path d="M111.602 44.5342C111.602 47.2678 110.84 49.4286 109.318 51.0148C107.955 52.4268 106.262 53.132 104.241 53.132C102.059 53.132 100.492 52.3715 99.5374 50.8506H99.4684V59.3178H95.7887V41.9865C95.7887 40.268 95.7421 38.5042 95.6523 36.6952H98.8885L99.0938 39.2429H99.1629C100.39 37.3233 102.252 36.3652 104.751 36.3652C106.705 36.3652 108.336 37.114 109.641 38.6131C110.949 40.1139 111.602 42.087 111.602 44.5342ZM107.853 44.6649C107.853 43.1004 107.49 41.8107 106.762 40.7956C105.966 39.737 104.898 39.2077 103.559 39.2077C102.651 39.2077 101.826 39.5025 101.089 40.0837C100.35 40.67 99.867 41.4355 99.641 42.3835C99.527 42.8257 99.4701 43.1875 99.4701 43.4723V46.1523C99.4701 47.3214 99.8394 48.308 100.578 49.1137C101.317 49.9193 102.276 50.3213 103.457 50.3213C104.843 50.3213 105.922 49.8021 106.693 48.7669C107.466 47.7301 107.853 46.3633 107.853 44.6649Z" fill="white"/>
<path d="M130.651 44.5342C130.651 47.2678 129.89 49.4286 128.366 51.0148C127.004 52.4268 125.311 53.132 123.29 53.132C121.108 53.132 119.541 52.3715 118.588 50.8506H118.519V59.3178H114.839V41.9865C114.839 40.268 114.793 38.5042 114.703 36.6952H117.939L118.145 39.2429H118.214C119.439 37.3233 121.301 36.3652 123.802 36.3652C125.754 36.3652 127.385 37.114 128.693 38.6131C129.997 40.1139 130.651 42.087 130.651 44.5342ZM126.902 44.6649C126.902 43.1004 126.538 41.8107 125.809 40.7956C125.014 39.737 123.949 39.2077 122.608 39.2077C121.698 39.2077 120.875 39.5025 120.136 40.0837C119.398 40.67 118.916 41.4355 118.69 42.3835C118.578 42.8257 118.519 43.1875 118.519 43.4723V46.1523C118.519 47.3214 118.888 48.308 119.624 49.1137C120.362 49.9177 121.322 50.3213 122.506 50.3213C123.892 50.3213 124.971 49.8021 125.742 48.7669C126.515 47.7301 126.902 46.3633 126.902 44.6649Z" fill="white"/>
<path d="M151.948 46.5178C151.948 48.4139 151.27 49.9566 149.908 51.1475C148.412 52.449 146.329 53.0989 143.652 53.0989C141.18 53.0989 139.199 52.6366 137.699 51.7103L138.552 48.7338C140.167 49.6819 141.94 50.1576 143.871 50.1576C145.257 50.1576 146.336 49.8527 147.111 49.2464C147.882 48.64 148.267 47.826 148.267 46.8109C148.267 45.9064 147.949 45.1443 147.313 44.5262C146.679 43.9081 145.621 43.3336 144.144 42.8026C140.122 41.3471 138.113 39.2148 138.113 36.4108C138.113 34.5784 138.818 33.0759 140.228 31.9068C141.633 30.7359 143.507 30.1514 145.851 30.1514C147.941 30.1514 149.677 30.5048 151.063 31.21L150.143 34.1211C148.849 33.4377 147.385 33.096 145.747 33.096C144.453 33.096 143.441 33.4059 142.716 34.0223C142.104 34.5734 141.797 35.245 141.797 36.0407C141.797 36.9217 142.147 37.6503 142.851 38.2232C143.464 38.7525 144.577 39.3253 146.193 39.9434C148.169 40.7156 149.62 41.6184 150.554 42.6536C151.484 43.6854 151.948 44.9768 151.948 46.5178Z" fill="white"/>
<path d="M164.115 39.3754H160.059V47.1792C160.059 49.1641 160.773 50.1557 162.206 50.1557C162.863 50.1557 163.409 50.1004 163.84 49.9898L163.942 52.7017C163.217 52.9646 162.263 53.097 161.08 53.097C159.627 53.097 158.492 52.6665 157.672 51.8072C156.855 50.9463 156.445 49.5024 156.445 47.474V39.372H154.028V36.692H156.445V33.749L160.059 32.6904V36.692H164.115V39.3754Z" fill="white"/>
<path d="M182.414 44.5998C182.414 47.0704 181.686 49.0989 180.233 50.6851C178.709 52.3182 176.686 53.1323 174.164 53.1323C171.734 53.1323 169.8 52.35 168.357 50.7856C166.914 49.2211 166.192 47.2463 166.192 44.8661C166.192 42.3754 166.935 40.3353 168.424 38.749C169.91 37.1611 171.916 36.3672 174.437 36.3672C176.867 36.3672 178.823 37.1494 180.298 38.7155C181.71 40.2348 182.414 42.1962 182.414 44.5998ZM178.597 44.7154C178.597 43.233 178.27 41.9617 177.609 40.9014C176.838 39.6184 175.735 38.9785 174.306 38.9785C172.827 38.9785 171.703 39.62 170.932 40.9014C170.271 41.9634 169.945 43.2548 169.945 44.7824C169.945 46.2648 170.271 47.5361 170.932 48.5947C171.727 49.8777 172.839 50.5176 174.273 50.5176C175.678 50.5176 176.781 49.8643 177.577 48.5612C178.255 47.4808 178.597 46.1961 178.597 44.7154Z" fill="white"/>
<path d="M194.376 39.8358C194.011 39.7705 193.623 39.737 193.216 39.737C191.921 39.737 190.92 40.211 190.216 41.1608C189.603 41.9983 189.296 43.0569 189.296 44.3349V52.7685H185.618L185.653 41.7571C185.653 39.9045 185.606 38.2178 185.515 36.6969H188.72L188.854 39.7722H188.956C189.345 38.7153 189.957 37.8644 190.796 37.2262C191.616 36.6517 192.501 36.3652 193.456 36.3652C193.796 36.3652 194.103 36.3887 194.376 36.4306V39.8358Z" fill="white"/>
<path d="M210.832 43.9723C210.832 44.6121 210.789 45.1515 210.697 45.592H199.658C199.701 47.1799 200.235 48.3943 201.26 49.2318C202.19 49.9805 203.393 50.3557 204.871 50.3557C206.505 50.3557 207.996 50.1028 209.337 49.5952L209.914 52.0742C208.347 52.7375 206.496 53.0675 204.361 53.0675C201.793 53.0675 199.777 52.3339 198.31 50.8682C196.847 49.4026 196.113 47.4345 196.113 44.9655C196.113 42.5418 196.795 40.5234 198.16 38.9138C199.589 37.1952 201.521 36.3359 203.951 36.3359C206.338 36.3359 208.145 37.1952 209.372 38.9138C210.344 40.2789 210.832 41.9673 210.832 43.9723ZM207.323 43.046C207.347 41.9874 207.107 41.0728 206.609 40.3007C205.972 39.3074 204.993 38.8116 203.676 38.8116C202.473 38.8116 201.495 39.2957 200.747 40.2672C200.135 41.0393 199.771 41.9656 199.658 43.0443H207.323V43.046Z" fill="white"/>
</svg>
