<svg width="231" height="145" viewBox="0 0 231 145" fill="none" xmlns="http://www.w3.org/2000/svg">
<g clip-path="url(#clip0_747_9232)">
<g clip-path="url(#clip1_747_9232)">
<path d="M171.522 50.9477C171.522 50.9477 166.117 8.65271 134.226 39.0609C93.3447 78.0398 65.8647 0.568453 35.5378 32.1915C18.9696 49.4669 62.7509 88.1032 33.5111 108.436C4.27141 128.769 28.1656 143.991 28.1656 143.991H194.196C194.196 143.991 211.384 145.232 212.685 123.483C213.984 101.734 194.004 101.471 206.405 74.254C218.805 47.0374 175.418 68.2711 171.522 50.9477Z" fill="#F5FBFF"/>
<g opacity="0.5">
<path opacity="0.5" d="M114.179 73.8533C119.26 73.8533 123.379 69.7343 123.379 64.6532C123.379 59.5722 119.26 55.4531 114.179 55.4531C109.098 55.4531 104.979 59.5722 104.979 64.6532C104.979 69.7343 109.098 73.8533 114.179 73.8533Z" fill="white" stroke="#4D6173" stroke-width="0.484983" stroke-miterlimit="10"/>
<g opacity="0.5">
<path d="M114.178 61.4375C114.249 61.9726 114.296 62.5093 114.33 63.0444C114.351 63.3128 114.359 63.5795 114.373 63.8479C114.388 64.1162 114.391 64.383 114.401 64.6513L114.333 64.4913C114.689 64.8194 115.036 65.1573 115.382 65.4936C115.725 65.8347 116.069 66.1758 116.402 66.5266C116.572 66.6996 116.737 66.8758 116.9 67.0552C117.065 67.233 117.228 67.4109 117.388 67.5935C117.712 67.9557 118.027 68.3242 118.326 68.7106C117.935 68.4196 117.558 68.1125 117.19 67.7972C117.004 67.642 116.821 67.482 116.64 67.3203C116.457 67.1603 116.278 66.9986 116.1 66.8337C115.741 66.5088 115.393 66.1725 115.044 65.8379C114.7 65.4984 114.354 65.1589 114.019 64.8097L113.948 64.737L113.951 64.6497C113.961 64.3813 113.964 64.1146 113.979 63.8462C113.994 63.5779 114.002 63.3111 114.023 63.0428C114.06 62.5077 114.107 61.9726 114.178 61.4375Z" fill="#4D6173"/>
</g>
</g>
<g opacity="0.2">
<rect x="160.6" y="64.0781" width="20.7003" height="38.5255" fill="white" stroke="#A4B6C6" stroke-width="1.15002"/>
<rect x="160.6" y="97.4277" width="20.7003" height="5.17507" stroke="#A4B6C6" stroke-width="1.15002"/>
<rect x="160.6" y="92.2539" width="20.7003" height="5.17507" stroke="#A4B6C6" stroke-width="1.15002"/>
<rect x="160.6" y="87.0781" width="20.7003" height="5.17507" stroke="#A4B6C6" stroke-width="1.15002"/>
<rect x="160.6" y="81.9043" width="20.7003" height="5.17507" stroke="#A4B6C6" stroke-width="1.15002"/>
<rect x="160.6" y="76.7285" width="20.7003" height="5.17507" stroke="#A4B6C6" stroke-width="1.15002"/>
<rect x="160.6" y="71.5527" width="20.7003" height="5.17507" stroke="#A4B6C6" stroke-width="1.15002"/>
<rect x="160.6" y="67.5273" width="20.7003" height="4.02505" stroke="#A4B6C6" stroke-width="1.15002"/>
<rect x="139.899" y="64.0781" width="20.7003" height="38.5255" stroke="#A4B6C6" stroke-width="1.15002"/>
<rect x="142.199" y="67.5273" width="16.1002" height="31.6254" fill="white" stroke="#A4B6C6" stroke-width="1.15002"/>
</g>
<g opacity="0.2">
<path d="M60.0297 73.5579L59.542 75.491H67.4627L66.975 73.5579M60.0297 73.5579L62.2517 64.7513V61.3146H63.5024M60.0297 73.5579H66.975M66.975 73.5579L64.753 64.7513V61.3146H63.5024M63.5024 61.3146C63.2939 59.5962 63.5857 55.5581 66.4205 53.1523" stroke="#A4B6C6" stroke-width="1.15002"/>
<rect x="71.6318" y="66.6836" width="10.422" height="9.0214" rx="2.30003" fill="white" stroke="#A4B6C6" stroke-width="1.15002"/>
<path d="M71.6318 69.2617H82.0539" stroke="#A4B6C6" stroke-width="1.15002"/>
<path d="M76.8421 66.6838C75.5914 66.5406 72.4648 65.6098 72.4648 63.0323C74.5492 63.2471 75.383 63.6767 76.8421 66.6838ZM76.8421 66.6838C75.9388 65.1086 74.716 61.3569 77.0505 58.9512C79.2183 61.3569 77.8148 65.1086 76.8421 66.6838ZM76.8421 66.6838C76.8421 66.8986 78.5096 63.0323 81.8447 62.8175C81.8447 64.7077 78.5096 66.1826 76.8421 66.6838Z" stroke="#A4B6C6" stroke-width="1.15002"/>
<rect x="55.373" y="75.7051" width="33.3505" height="3.86631" stroke="#A4B6C6" stroke-width="1.15002"/>
</g>
<path d="M27.9561 143.734H186.164" stroke="#A4B6C6" stroke-width="1.15002" stroke-miterlimit="10"/>
<path d="M191.704 143.734H211.257" stroke="#A4B6C6" stroke-width="1.15002" stroke-miterlimit="10"/>
</g>
<rect x="102.641" y="101.438" width="57.3657" height="41.4308" rx="3.06596" fill="#CFD9E2" stroke="#A4B6C6" stroke-width="1.15002"/>
<rect x="99.4453" y="101.438" width="52.0541" height="41.4308" rx="3.06596" fill="white" stroke="#A4B6C6" stroke-width="1.15002"/>
<path d="M119.293 119.316C117.317 119.316 115.658 118.052 115.026 116.236C114.868 115.841 115.105 115.446 115.5 115.288C115.895 115.13 116.29 115.367 116.448 115.762C116.843 116.946 118.028 117.815 119.293 117.815C120.557 117.815 121.742 117.025 122.137 115.762C122.295 115.367 122.69 115.13 123.085 115.288C123.48 115.446 123.717 115.841 123.559 116.236C122.927 118.131 121.268 119.316 119.293 119.316Z" fill="#CFD9E2"/>
<path d="M131.222 119.316C129.247 119.316 127.588 118.052 126.956 116.236C126.798 115.841 127.035 115.446 127.43 115.288C127.825 115.13 128.22 115.367 128.378 115.762C128.773 116.946 129.958 117.815 131.222 117.815C132.486 117.815 133.671 117.025 134.067 115.762C134.225 115.367 134.62 115.13 135.015 115.288C135.41 115.446 135.647 115.841 135.489 116.236C134.857 118.131 133.197 119.316 131.222 119.316Z" fill="#CFD9E2"/>
<path d="M125.294 128.985C126.297 128.985 127.111 128.172 127.111 127.168C127.111 126.165 126.297 125.352 125.294 125.352C124.29 125.352 123.477 126.165 123.477 127.168C123.477 128.172 124.29 128.985 125.294 128.985Z" fill="#CFD9E2"/>
<rect x="102.633" y="104.625" width="45.6801" height="35.0568" rx="1.53298" stroke="#A4B6C6" stroke-width="0.383245" stroke-dasharray="0.77 0.77"/>
<path d="M57.6332 143.976H49.4558C49.2399 143.976 49.0526 143.833 48.9953 143.626L45.5379 131.112C45.4542 130.808 45.6833 130.506 45.9984 130.506H61.0884C61.4057 130.506 61.6349 130.808 61.5489 131.112L58.0916 143.626C58.0365 143.833 57.8492 143.976 57.6332 143.976Z" fill="white" stroke="#A4B6C6" stroke-width="1.15002" stroke-miterlimit="10"/>
<path d="M55.8608 130.506C55.8608 130.506 55.6625 125.136 59.9374 119.766" stroke="#A4B6C6" stroke-width="0.661067" stroke-miterlimit="10"/>
<path d="M45.5205 122.376C50.43 120.461 51.0867 130.504 51.0867 130.504" stroke="#A4B6C6" stroke-width="0.661067" stroke-miterlimit="10"/>
<path d="M53.3644 130.505L52.5469 123.258" stroke="#A4B6C6" stroke-width="0.661067" stroke-miterlimit="10"/>
<path d="M57.1225 121.096L57.1216 121.098C55.9449 122.762 57.2575 125.081 59.2655 124.83L57.1225 121.096ZM57.1225 121.096C57.1632 121.037 57.2078 120.978 57.2549 120.915C57.2668 120.9 57.2788 120.884 57.291 120.867C58.2821 119.597 59.4225 118.564 60.9505 118.072C62.464 117.585 64.3742 117.623 66.9219 118.514M57.1225 121.096L66.9219 118.514M66.9219 118.514C66.2157 118.527 65.0347 118.611 63.9722 118.98C62.8715 119.363 61.867 120.065 61.6888 121.343L61.6888 121.343C61.5195 122.568 61.1875 123.406 60.7631 123.953C60.3409 124.497 59.8233 124.759 59.2656 124.829L66.9219 118.514ZM66.9952 118.54C66.9952 118.54 66.9952 118.54 66.9952 118.54L66.9952 118.54Z" fill="#CFD9E2" stroke="#A4B6C6" stroke-width="0.220356"/>
<path d="M52.3471 112.152C52.3489 112.311 52.3523 112.517 52.3588 112.76C52.3744 113.342 52.4076 114.133 52.4782 114.966C52.5487 115.799 52.6569 116.677 52.8229 117.433C52.9875 118.183 53.2134 118.834 53.532 119.194C53.8122 119.511 54.0004 119.964 54.0941 120.469C54.1878 120.973 54.1858 121.521 54.0929 122.023C53.9998 122.526 53.817 122.973 53.5563 123.283C53.2981 123.59 52.9662 123.76 52.5599 123.724C52.163 123.689 51.6896 123.331 51.2667 122.676C50.848 122.027 50.4946 121.11 50.3286 120.007C50.0076 117.872 50.3897 115.05 52.3471 112.152Z" fill="#CFD9E2" stroke="#A4B6C6" stroke-width="0.220356"/>
<path d="M44.5522 121.732L44.5522 121.732C45.4231 121.461 45.9915 121.627 46.2845 121.998C46.5838 122.377 46.6346 123.016 46.3635 123.773C45.8316 125.257 44.084 127.108 40.903 127.987C40.9037 127.963 40.9045 127.935 40.9057 127.905C40.9111 127.759 40.9232 127.549 40.9494 127.292C41.0018 126.78 41.1108 126.085 41.3368 125.354C41.7898 123.89 42.7046 122.306 44.5522 121.732Z" fill="#CFD9E2" stroke="#A4B6C6" stroke-width="0.220356"/>
<path d="M102.542 81.6992L86.8516 97.3896" stroke="#A4B6C6" stroke-width="1.9613" stroke-linecap="round" stroke-linejoin="round"/>
<path d="M86.8516 81.6992L102.542 97.3896" stroke="#A4B6C6" stroke-width="1.9613" stroke-linecap="round" stroke-linejoin="round"/>
<path d="M79.4639 68.7773L63.7734 84.4678" stroke="#A4B6C6" stroke-width="1.9613" stroke-linecap="round" stroke-linejoin="round"/>
<path d="M63.7734 68.7773L79.4639 84.4678" stroke="#A4B6C6" stroke-width="1.9613" stroke-linecap="round" stroke-linejoin="round"/>
</g>
<defs>
<clipPath id="clip0_747_9232">
<rect width="230.003" height="143.752" fill="white" transform="translate(0 0.25)"/>
</clipPath>
<clipPath id="clip1_747_9232">
<rect width="193.956" height="119.662" fill="white" transform="translate(18.9688 24.4023)"/>
</clipPath>
</defs>
</svg>
