<svg width="33" height="33" viewBox="0 0 33 33" fill="none" xmlns="http://www.w3.org/2000/svg">
<path d="M16.3703 0C9.53811 0 7.53994 0.00704822 7.15153 0.0392687C5.74944 0.155816 4.87697 0.376576 3.92647 0.849814C3.19396 1.21355 2.61626 1.63519 2.04611 2.22623C1.00775 3.30411 0.37845 4.63018 0.150642 6.20646C0.0398839 6.9717 0.00766353 7.12777 0.00111876 11.0365C-0.00139846 12.3394 0.00111876 14.0542 0.00111876 16.3541C0.00111876 23.1808 0.00867042 25.177 0.0413943 25.5647C0.154669 26.929 0.368633 27.7874 0.821732 28.7263C1.68766 30.5236 3.34147 31.8728 5.2898 32.3763C5.96441 32.5499 6.70951 32.6456 7.66605 32.6909C8.07132 32.7085 12.2021 32.7211 16.3354 32.7211C20.4686 32.7211 24.6019 32.7161 24.9971 32.6959C26.1047 32.6438 26.7478 32.5575 27.4589 32.3737C28.425 32.126 29.3253 31.6704 30.0971 31.0386C30.8688 30.4069 31.4933 29.6143 31.927 28.7162C32.3713 27.7999 32.5966 26.9088 32.6985 25.6158C32.7207 25.3338 32.73 20.8388 32.73 16.3499C32.73 11.8601 32.7199 7.37345 32.6978 7.09152C32.5946 5.77753 32.3693 4.89398 31.9106 3.96009C31.5343 3.19561 31.1165 2.62471 30.5098 2.04096C29.4274 1.00689 28.1033 0.377583 26.5253 0.150026C25.7608 0.0395204 25.6085 0.0067965 21.6968 0H16.3703Z" fill="url(#paint0_radial_551_8786)"/>
<path d="M16.3703 0C9.53811 0 7.53994 0.00704822 7.15153 0.0392687C5.74944 0.155816 4.87697 0.376576 3.92647 0.849814C3.19396 1.21355 2.61626 1.63519 2.04611 2.22623C1.00775 3.30411 0.37845 4.63018 0.150642 6.20646C0.0398839 6.9717 0.00766353 7.12777 0.00111876 11.0365C-0.00139846 12.3394 0.00111876 14.0542 0.00111876 16.3541C0.00111876 23.1808 0.00867042 25.177 0.0413943 25.5647C0.154669 26.929 0.368633 27.7874 0.821732 28.7263C1.68766 30.5236 3.34147 31.8728 5.2898 32.3763C5.96441 32.5499 6.70951 32.6456 7.66605 32.6909C8.07132 32.7085 12.2021 32.7211 16.3354 32.7211C20.4686 32.7211 24.6019 32.7161 24.9971 32.6959C26.1047 32.6438 26.7478 32.5575 27.4589 32.3737C28.425 32.126 29.3253 31.6704 30.0971 31.0386C30.8688 30.4069 31.4933 29.6143 31.927 28.7162C32.3713 27.7999 32.5966 26.9088 32.6985 25.6158C32.7207 25.3338 32.73 20.8388 32.73 16.3499C32.73 11.8601 32.7199 7.37345 32.6978 7.09152C32.5946 5.77753 32.3693 4.89398 31.9106 3.96009C31.5343 3.19561 31.1165 2.62471 30.5098 2.04096C29.4274 1.00689 28.1033 0.377583 26.5253 0.150026C25.7608 0.0395204 25.6085 0.0067965 21.6968 0H16.3703Z" fill="url(#paint1_radial_551_8786)"/>
<path d="M16.3647 4.2793C13.0832 4.2793 12.6714 4.29365 11.3826 4.3523C10.0963 4.4112 9.21827 4.61484 8.45002 4.91364C7.65533 5.22225 6.98122 5.63507 6.30963 6.30692C5.63753 6.97851 5.2247 7.65263 4.91509 8.44706C4.61554 9.21557 4.41164 10.0938 4.35375 11.3796C4.29635 12.6684 4.28125 13.0805 4.28125 16.362C4.28125 19.6434 4.29585 20.054 4.35425 21.3428C4.4134 22.6291 4.61705 23.5071 4.91559 24.2754C5.22445 25.07 5.63728 25.7442 6.30912 26.4157C6.98046 27.0878 7.65458 27.5017 8.44876 27.8103C9.21752 28.1091 10.0958 28.3127 11.3818 28.3716C12.6706 28.4303 13.0822 28.4446 16.3634 28.4446C19.6451 28.4446 20.0557 28.4303 21.3445 28.3716C22.6308 28.3127 23.5098 28.1091 24.2785 27.8103C25.073 27.5017 25.7461 27.0878 26.4174 26.4157C27.0895 25.7442 27.5023 25.07 27.812 24.2756C28.109 23.5071 28.3129 22.6288 28.3733 21.343C28.4312 20.0542 28.4463 19.6434 28.4463 16.362C28.4463 13.0805 28.4312 12.6687 28.3733 11.3799C28.3129 10.0936 28.109 9.21557 27.812 8.44731C27.5023 7.65263 27.0895 6.97851 26.4174 6.30692C25.7453 5.63482 25.0732 5.222 24.2778 4.91364C23.5075 4.61484 22.629 4.4112 21.3427 4.3523C20.0539 4.29365 19.6436 4.2793 16.3611 4.2793H16.3647ZM15.2807 6.45669C15.6024 6.45619 15.9614 6.45669 16.3647 6.45669C19.5907 6.45669 19.9731 6.46827 21.2471 6.52617C22.4251 6.58004 23.0645 6.77688 23.4904 6.94227C24.0543 7.16126 24.4563 7.42306 24.8789 7.84595C25.3018 8.26884 25.5636 8.6716 25.7831 9.23545C25.9485 9.66086 26.1456 10.3002 26.1992 11.4783C26.2571 12.752 26.2697 13.1346 26.2697 16.3592C26.2697 19.5838 26.2571 19.9664 26.1992 21.2401C26.1453 22.4181 25.9485 23.0575 25.7831 23.4829C25.5641 24.0468 25.3018 24.4483 24.8789 24.8709C24.456 25.2938 24.0545 25.5556 23.4904 25.7746C23.065 25.9407 22.4251 26.1371 21.2471 26.191C19.9733 26.2489 19.5907 26.2614 16.3647 26.2614C13.1383 26.2614 12.756 26.2489 11.4823 26.191C10.3042 26.1366 9.66483 25.9397 9.23866 25.7744C8.6748 25.5554 8.27205 25.2936 7.84916 24.8707C7.42626 24.4478 7.16447 24.046 6.94497 23.4819C6.77959 23.0565 6.58249 22.4171 6.52888 21.2391C6.47098 19.9654 6.4594 19.5827 6.4594 16.3562C6.4594 13.1296 6.47098 12.749 6.52888 11.4753C6.58274 10.2972 6.77959 9.65784 6.94497 9.23193C7.16397 8.66807 7.42626 8.26532 7.84916 7.84242C8.27205 7.41953 8.6748 7.15774 9.23866 6.93824C9.66457 6.7721 10.3042 6.57576 11.4823 6.52164C12.5969 6.47129 13.0288 6.45619 15.2807 6.45367V6.45669ZM22.8143 8.46292C22.5275 8.46292 22.2471 8.54797 22.0087 8.70731C21.7702 8.86665 21.5844 9.09313 21.4747 9.3581C21.365 9.62306 21.3363 9.91462 21.3923 10.1959C21.4482 10.4772 21.5864 10.7355 21.7892 10.9383C21.992 11.141 22.2504 11.2791 22.5317 11.335C22.813 11.3908 23.1046 11.3621 23.3695 11.2522C23.6344 11.1424 23.8608 10.9565 24.0201 10.718C24.1793 10.4795 24.2643 10.1991 24.2642 9.91234C24.2642 9.11186 23.6147 8.46242 22.8143 8.46242V8.46292ZM16.3647 10.157C12.938 10.157 10.1597 12.9353 10.1597 16.362C10.1597 19.7887 12.938 22.5657 16.3647 22.5657C19.7913 22.5657 22.5688 19.7887 22.5688 16.362C22.5688 12.9353 19.7911 10.157 16.3644 10.157H16.3647ZM16.3647 12.3344C18.5889 12.3344 20.3922 14.1375 20.3922 16.362C20.3922 18.5862 18.5889 20.3895 16.3647 20.3895C14.1402 20.3895 12.3371 18.5862 12.3371 16.362C12.3371 14.1375 14.1402 12.3344 16.3647 12.3344Z" fill="white"/>
<defs>
<radialGradient id="paint0_radial_551_8786" cx="0" cy="0" r="1" gradientUnits="userSpaceOnUse" gradientTransform="translate(8.69395 35.2413) rotate(-90) scale(32.429 30.1697)">
<stop stop-color="#FFDD55"/>
<stop offset="0.1" stop-color="#FFDD55"/>
<stop offset="0.5" stop-color="#FF543E"/>
<stop offset="1" stop-color="#C837AB"/>
</radialGradient>
<radialGradient id="paint1_radial_551_8786" cx="0" cy="0" r="1" gradientUnits="userSpaceOnUse" gradientTransform="translate(-5.48245 2.35717) rotate(78.6777) scale(14.4961 59.7684)">
<stop stop-color="#3771C8"/>
<stop offset="0.128" stop-color="#3771C8"/>
<stop offset="1" stop-color="#6600FF" stop-opacity="0"/>
</radialGradient>
</defs>
</svg>
