<svg width="32" height="31" viewBox="0 0 32 31" fill="none" xmlns="http://www.w3.org/2000/svg">
<g clip-path="url(#clip0_551_8771)">
<path d="M31.6289 15.5008C31.6289 6.94038 24.6893 0.000804901 16.1289 0.000804901C7.56849 0.000804901 0.628906 6.94038 0.628906 15.5008C0.628906 23.2373 6.29703 29.6497 13.707 30.8125V19.9813H9.77148V15.5008H13.707V12.086C13.707 8.20127 16.0211 6.05549 19.5616 6.05549C21.2574 6.05549 23.0312 6.35822 23.0312 6.35822V10.1727H21.0767C19.1513 10.1727 18.5508 11.3675 18.5508 12.5933V15.5008H22.8496L22.1624 19.9813H18.5508V30.8125C25.9608 29.6497 31.6289 23.2373 31.6289 15.5008Z" fill="#1877F2"/>
<path d="M22.1644 19.9814L22.8516 15.501H18.5527V12.5934C18.5527 11.3677 19.1532 10.1729 21.0787 10.1729H23.0332V6.3584C23.0332 6.3584 21.2594 6.05566 19.5636 6.05566C16.023 6.05566 13.709 8.20145 13.709 12.0861V15.501H9.77344V19.9814H13.709V30.8127C14.4981 30.9365 15.3069 31.001 16.1309 31.001C16.9548 31.001 17.7636 30.9365 18.5527 30.8127V19.9814H22.1644Z" fill="white"/>
</g>
<defs>
<clipPath id="clip0_551_8771">
<rect width="31" height="31" fill="white" transform="translate(0.632812)"/>
</clipPath>
</defs>
</svg>
