<svg width="254" height="251" viewBox="0 0 254 251" fill="none" xmlns="http://www.w3.org/2000/svg">
<g clip-path="url(#clip0_598_26806)">
<path d="M216.136 214.009H178.55V155.727C178.55 141.829 178.299 123.938 159.001 123.938C139.425 123.938 136.43 139.081 136.43 154.715V214.005H98.8435V94.1541H134.926V110.533H135.431C139.042 104.42 144.26 99.3905 150.53 95.9812C156.799 92.572 163.885 90.9102 171.033 91.1729C209.128 91.1729 216.152 115.984 216.152 148.261L216.136 214.009ZM56.4339 77.7713C52.12 77.7721 47.9026 76.5062 44.3152 74.1337C40.7279 71.7613 37.9318 68.3888 36.2802 64.4428C34.6287 60.4967 34.1958 56.1544 35.0367 51.9649C35.8775 47.7753 37.9543 43.9268 41.0041 40.9059C44.054 37.885 47.9401 35.8274 52.171 34.9933C56.4019 34.1592 60.7875 34.5861 64.7734 36.22C68.7592 37.8539 72.1662 40.6214 74.5636 44.1726C76.9609 47.7238 78.241 51.8991 78.2418 56.1706C78.2423 59.0067 77.6785 61.8152 76.5829 64.4356C75.4872 67.0561 73.8811 69.4372 71.8561 71.443C69.8311 73.4488 67.4267 75.04 64.7806 76.1258C62.1344 77.2116 59.2983 77.7708 56.4339 77.7713ZM75.227 214.009H37.6017V94.1541H75.227V214.009ZM234.874 0.0171122H18.7148C13.8086 -0.037709 9.08088 1.83835 5.57094 5.23303C2.061 8.62771 0.0559713 13.2633 -0.00390625 18.1211V233.039C0.053922 237.9 2.05777 242.538 5.56759 245.936C9.07741 249.335 13.8062 251.214 18.7148 251.163H234.874C239.792 251.224 244.534 249.349 248.058 245.951C251.582 242.553 253.599 237.909 253.667 233.039V18.1056C253.597 13.2381 251.578 8.5973 248.054 5.2027C244.531 1.8081 239.79 -0.0625967 234.874 0.00159931" fill="#0A66C2"/>
</g>
<defs>
<clipPath id="clip0_598_26806">
<rect width="254" height="251" fill="white"/>
</clipPath>
</defs>
</svg>
