<svg width="21" height="20" viewBox="0 0 21 20" fill="none" xmlns="http://www.w3.org/2000/svg">
<path d="M1.66406 7.22335H19.1641M1.66406 7.22335C2.08073 12.2237 3.7474 14.307 6.2474 14.7234M1.66406 7.22335C2.08073 6.39036 2.91406 3.89002 6.2474 3.89002C7.05617 3.89011 9.04236 -0.819315 13.3487 3.47369C13.355 3.47995 13.3612 3.48623 13.3675 3.49252C13.6151 3.74045 13.9471 3.88604 14.2971 3.90114C15.2277 3.94127 16.1435 4.10193 16.9697 4.57043C17.825 5.05548 18.5842 5.87049 19.1641 7.22335M19.1641 7.22335C18.7474 12.6404 16.9697 14.307 14.9974 14.7234M14.9974 14.7234H6.2474M14.9974 14.7234V16.8067C14.9974 17.497 14.4378 18.0567 13.7474 18.0567H7.4974C6.80704 18.0567 6.2474 17.497 6.2474 16.8067V14.7234" stroke="#393B3D" stroke-width="1.78"/>
</svg>
