<svg width="223" height="240" viewBox="0 0 223 240" fill="none" xmlns="http://www.w3.org/2000/svg">
<g opacity="0.1">
<circle cx="-5" cy="12" r="12" fill="#B4D8FF"/>
<circle cx="-5" cy="48.001" r="12" fill="#B4D8FF"/>
<circle cx="-5" cy="83.9995" r="12" fill="#B4D8FF"/>
<circle cx="-5" cy="120" r="12" fill="#B4D8FF"/>
<circle cx="-5" cy="155.999" r="12" fill="#B4D8FF"/>
<circle cx="-5" cy="192" r="12" fill="#B4D8FF"/>
<circle cx="-5" cy="228.001" r="12" fill="#B4D8FF"/>
<circle cx="30.9961" cy="12" r="12" fill="#B4D8FF"/>
<circle cx="30.9961" cy="48.001" r="12" fill="#B4D8FF"/>
<circle cx="30.9961" cy="83.9995" r="12" fill="#B4D8FF"/>
<circle cx="30.9961" cy="120" r="12" fill="#B4D8FF"/>
<circle cx="30.9961" cy="155.999" r="12" fill="#B4D8FF"/>
<circle cx="30.9961" cy="192" r="12" fill="#B4D8FF"/>
<circle cx="30.9961" cy="228.001" r="12" fill="#B4D8FF"/>
<circle cx="67" cy="12" r="12" fill="#B4D8FF"/>
<circle cx="67" cy="48.001" r="12" fill="#B4D8FF"/>
<circle cx="67" cy="83.9995" r="12" fill="#B4D8FF"/>
<circle cx="67" cy="120" r="12" fill="#B4D8FF"/>
<circle cx="67" cy="155.999" r="12" fill="#B4D8FF"/>
<circle cx="67" cy="192" r="12" fill="#B4D8FF"/>
<circle cx="67" cy="228.001" r="12" fill="#B4D8FF"/>
<circle cx="103" cy="12" r="12" fill="#B4D8FF"/>
<circle cx="103" cy="48.001" r="12" fill="#B4D8FF"/>
<circle cx="103" cy="83.9995" r="12" fill="#B4D8FF"/>
<circle cx="103" cy="120" r="12" fill="#B4D8FF"/>
<circle cx="103" cy="155.999" r="12" fill="#B4D8FF"/>
<circle cx="103" cy="192" r="12" fill="#B4D8FF"/>
<circle cx="103" cy="228.001" r="12" fill="#B4D8FF"/>
<circle cx="139.004" cy="12" r="12" fill="#B4D8FF"/>
<circle cx="139.004" cy="48.001" r="12" fill="#B4D8FF"/>
<circle cx="139.004" cy="83.9995" r="12" fill="#B4D8FF"/>
<circle cx="139.004" cy="120" r="12" fill="#B4D8FF"/>
<circle cx="139.004" cy="155.999" r="12" fill="#B4D8FF"/>
<circle cx="139.004" cy="192" r="12" fill="#B4D8FF"/>
<circle cx="139.004" cy="228.001" r="12" fill="#B4D8FF"/>
<circle cx="175" cy="12" r="12" fill="#B4D8FF"/>
<circle cx="175" cy="48.001" r="12" fill="#B4D8FF"/>
<circle cx="175" cy="83.9995" r="12" fill="#B4D8FF"/>
<circle cx="175" cy="120" r="12" fill="#B4D8FF"/>
<circle cx="175" cy="155.999" r="12" fill="#B4D8FF"/>
<circle cx="175" cy="192" r="12" fill="#B4D8FF"/>
<circle cx="175" cy="228.001" r="12" fill="#B4D8FF"/>
<circle cx="210.996" cy="12" r="12" fill="#B4D8FF"/>
<circle cx="210.996" cy="48.001" r="12" fill="#B4D8FF"/>
<circle cx="210.996" cy="83.9995" r="12" fill="#B4D8FF"/>
<circle cx="210.996" cy="120" r="12" fill="#B4D8FF"/>
<circle cx="210.996" cy="155.999" r="12" fill="#B4D8FF"/>
<circle cx="210.996" cy="192" r="12" fill="#B4D8FF"/>
<circle cx="210.996" cy="228.001" r="12" fill="#B4D8FF"/>
</g>
</svg>
