<svg width="203" height="248" viewBox="0 0 203 248" fill="none" xmlns="http://www.w3.org/2000/svg">
<g opacity="0.1">
<circle cx="12.4" cy="12.4" r="12.4" fill="#B4D8FF"/>
<circle cx="12.4" cy="49.6012" r="12.4" fill="#B4D8FF"/>
<circle cx="12.4" cy="86.7994" r="12.4" fill="#B4D8FF"/>
<circle cx="12.4" cy="124.001" r="12.4" fill="#B4D8FF"/>
<circle cx="12.4" cy="161.199" r="12.4" fill="#B4D8FF"/>
<circle cx="12.4" cy="198.4" r="12.4" fill="#B4D8FF"/>
<circle cx="12.4" cy="235.601" r="12.4" fill="#B4D8FF"/>
<circle cx="49.5953" cy="12.4" r="12.4" fill="#B4D8FF"/>
<circle cx="49.5953" cy="49.6012" r="12.4" fill="#B4D8FF"/>
<circle cx="49.5953" cy="86.7994" r="12.4" fill="#B4D8FF"/>
<circle cx="49.5953" cy="124.001" r="12.4" fill="#B4D8FF"/>
<circle cx="49.5953" cy="161.199" r="12.4" fill="#B4D8FF"/>
<circle cx="49.5953" cy="198.4" r="12.4" fill="#B4D8FF"/>
<circle cx="49.5953" cy="235.601" r="12.4" fill="#B4D8FF"/>
<circle cx="86.8023" cy="12.4" r="12.4" fill="#B4D8FF"/>
<circle cx="86.8023" cy="49.6012" r="12.4" fill="#B4D8FF"/>
<circle cx="86.8023" cy="86.7994" r="12.4" fill="#B4D8FF"/>
<circle cx="86.8023" cy="124.001" r="12.4" fill="#B4D8FF"/>
<circle cx="86.8023" cy="161.199" r="12.4" fill="#B4D8FF"/>
<circle cx="86.8023" cy="198.4" r="12.4" fill="#B4D8FF"/>
<circle cx="86.8023" cy="235.601" r="12.4" fill="#B4D8FF"/>
<circle cx="123.998" cy="12.4" r="12.4" fill="#B4D8FF"/>
<circle cx="123.998" cy="49.6012" r="12.4" fill="#B4D8FF"/>
<circle cx="123.998" cy="86.7994" r="12.4" fill="#B4D8FF"/>
<circle cx="123.998" cy="124.001" r="12.4" fill="#B4D8FF"/>
<circle cx="123.998" cy="161.199" r="12.4" fill="#B4D8FF"/>
<circle cx="123.998" cy="198.4" r="12.4" fill="#B4D8FF"/>
<circle cx="123.998" cy="235.601" r="12.4" fill="#B4D8FF"/>
<circle cx="161.205" cy="12.4" r="12.4" fill="#B4D8FF"/>
<circle cx="161.205" cy="49.6012" r="12.4" fill="#B4D8FF"/>
<circle cx="161.205" cy="86.7994" r="12.4" fill="#B4D8FF"/>
<circle cx="161.205" cy="124.001" r="12.4" fill="#B4D8FF"/>
<circle cx="161.205" cy="161.199" r="12.4" fill="#B4D8FF"/>
<circle cx="161.205" cy="198.4" r="12.4" fill="#B4D8FF"/>
<circle cx="161.205" cy="235.601" r="12.4" fill="#B4D8FF"/>
<circle cx="198.4" cy="12.4" r="12.4" fill="#B4D8FF"/>
<circle cx="198.4" cy="49.6012" r="12.4" fill="#B4D8FF"/>
<circle cx="198.4" cy="86.7994" r="12.4" fill="#B4D8FF"/>
<circle cx="198.4" cy="124.001" r="12.4" fill="#B4D8FF"/>
<circle cx="198.4" cy="161.199" r="12.4" fill="#B4D8FF"/>
<circle cx="198.4" cy="198.4" r="12.4" fill="#B4D8FF"/>
<circle cx="198.4" cy="235.601" r="12.4" fill="#B4D8FF"/>
</g>
</svg>
