<svg width="74" height="74" viewBox="0 0 74 74" fill="none" xmlns="http://www.w3.org/2000/svg">
<g filter="url(#filter0_d_2041_18252)">
<circle cx="37" cy="36" r="16" fill="white"/>
<circle cx="37" cy="36" r="15.5" stroke="#0763C6" stroke-opacity="0.15"/>
</g>
<g clip-path="url(#clip0_2041_18252)">
<path d="M30.334 31.332H31.8155H43.6673" stroke="#0763C6" stroke-width="1.33333" stroke-linecap="round" stroke-linejoin="round"/>
<path d="M33.9517 31.6013V30.1346C33.9517 29.7457 34.1123 29.3726 34.398 29.0975C34.6838 28.8225 35.0714 28.668 35.4755 28.668H38.5232C38.9273 28.668 39.3149 28.8225 39.6007 29.0975C39.8864 29.3726 40.047 29.7457 40.047 30.1346V31.6013M42.3327 31.6013V41.868C42.3327 42.257 42.1721 42.63 41.8864 42.9051C41.6006 43.1801 41.213 43.3346 40.8089 43.3346H33.1898C32.7857 43.3346 32.3981 43.1801 32.1123 42.9051C31.8266 42.63 31.666 42.257 31.666 41.868V31.6013H42.3327Z" stroke="#0763C6" stroke-width="1.33333" stroke-linecap="round" stroke-linejoin="round"/>
<path d="M38.334 35.332V39.9987" stroke="#0763C6" stroke-width="1.33333" stroke-linecap="round" stroke-linejoin="round"/>
<path d="M35.666 35.332V39.9987" stroke="#0763C6" stroke-width="1.33333" stroke-linecap="round" stroke-linejoin="round"/>
</g>
<defs>
<filter id="filter0_d_2041_18252" x="0" y="0" width="74" height="74" filterUnits="userSpaceOnUse" color-interpolation-filters="sRGB">
<feFlood flood-opacity="0" result="BackgroundImageFix"/>
<feColorMatrix in="SourceAlpha" type="matrix" values="0 0 0 0 0 0 0 0 0 0 0 0 0 0 0 0 0 0 127 0" result="hardAlpha"/>
<feOffset dy="1"/>
<feGaussianBlur stdDeviation="10.5"/>
<feComposite in2="hardAlpha" operator="out"/>
<feColorMatrix type="matrix" values="0 0 0 0 0 0 0 0 0 0 0 0 0 0 0 0 0 0 0.02 0"/>
<feBlend mode="normal" in2="BackgroundImageFix" result="effect1_dropShadow_2041_18252"/>
<feBlend mode="normal" in="SourceGraphic" in2="effect1_dropShadow_2041_18252" result="shape"/>
</filter>
<clipPath id="clip0_2041_18252">
<rect width="16" height="16" fill="white" transform="translate(29 28)"/>
</clipPath>
</defs>
</svg>
