<svg width="230" height="68" viewBox="0 0 230 68" fill="none" xmlns="http://www.w3.org/2000/svg">
<path d="M221.481 67.48H8.51852C3.83546 67.48 0 63.7113 0 59.1097V8.88821C0 4.28666 3.83546 0.517958 8.51852 0.517958H221.481C226.165 0.517958 230 4.28666 230 8.88821V59.1097C230 63.7113 226.165 67.48 221.481 67.48Z" fill="black"/>
<path d="M221.481 1.85929C225.426 1.85929 228.635 5.01278 228.635 8.88821V59.1097C228.635 62.9852 225.426 66.1386 221.481 66.1386H8.51852C4.57444 66.1386 1.36509 62.9852 1.36509 59.1097V8.88821C1.36509 5.01278 4.57444 1.85929 8.51852 1.85929H221.481ZM221.481 0.517958H8.51852C3.83546 0.517958 0 4.28666 0 8.88821V59.1097C0 63.7113 3.83546 67.48 8.51852 67.48H221.481C226.165 67.48 230 63.7113 230 59.1097V8.88821C230 4.28666 226.165 0.517958 221.481 0.517958Z" fill="#A6A6A6"/>
<path d="M16.501 13.139C16.0006 13.6538 15.7109 14.4553 15.7109 15.4932V52.5148C15.7109 53.5527 16.0006 54.3542 16.501 54.8689L16.6245 54.9819L37.7377 34.2446V33.755L16.6245 13.0177L16.501 13.139Z" fill="white"/>
<path d="M47.3229 41.1606L40.293 34.2447V33.7551L47.3314 26.8391L47.489 26.9291L55.8244 31.5893C58.2032 32.9118 58.2032 35.088 55.8244 36.4189L47.489 41.0707L47.3229 41.1606Z" fill="white"/>
<path d="M46.2139 42.358L39.0179 35.2872L17.7812 56.1564C18.5713 56.9725 19.8598 57.0708 21.325 56.2547L46.2139 42.358Z" fill="white"/>
<path d="M46.2139 25.6407L21.325 11.7439C19.8598 10.9362 18.5713 11.0346 17.7812 11.8507L39.0179 32.7114L46.2139 25.6407Z" fill="white"/>
<path d="M80.7861 17.6674C80.7861 19.0653 80.3602 20.1848 79.5211 21.0197C78.5564 22.0095 77.2999 22.5075 75.7602 22.5075C74.2886 22.5075 73.0321 22.0011 72.0014 21.003C70.9685 19.9902 70.4531 18.7472 70.4531 17.2594C70.4531 15.7716 70.9685 14.5286 72.0014 13.5242C73.0321 12.5176 74.2886 12.0112 75.7602 12.0112C76.4928 12.0112 77.1913 12.1598 77.8578 12.436C78.5223 12.7143 79.0632 13.091 79.4551 13.5555L78.5649 14.4386C77.8813 13.6455 76.9506 13.2542 75.7602 13.2542C74.6868 13.2542 73.7562 13.6225 72.9661 14.3654C72.1845 15.1103 71.7927 16.075 71.7927 17.2594C71.7927 18.4438 72.1845 19.4168 72.9661 20.1618C73.7562 20.8963 74.6868 21.2729 75.7602 21.2729C76.8995 21.2729 77.8578 20.8963 78.6139 20.1534C79.1122 19.6616 79.3954 18.9837 79.47 18.1173H75.7602V16.9078H80.7094C80.769 17.1694 80.7861 17.4226 80.7861 17.6674Z" fill="white" stroke="white" stroke-width="0.116456" stroke-miterlimit="10"/>
<path d="M88.6409 13.4742H83.9919V16.6549H88.183V17.8644H83.9919V21.0451H88.6409V22.2776H82.6758V12.2417H88.6409V13.4742Z" fill="white" stroke="white" stroke-width="0.116456" stroke-miterlimit="10"/>
<path d="M94.1794 22.2776H92.8633V13.4742H90.0117V12.2417H97.0331V13.4742H94.1794V22.2776Z" fill="white" stroke="white" stroke-width="0.116456" stroke-miterlimit="10"/>
<path d="M102.113 22.2776V12.2417H103.427V22.2776H102.113Z" fill="white" stroke="white" stroke-width="0.116456" stroke-miterlimit="10"/>
<path d="M109.254 22.2776H107.948V13.4742H105.086V12.2417H112.116V13.4742H109.254V22.2776Z" fill="white" stroke="white" stroke-width="0.116456" stroke-miterlimit="10"/>
<path d="M125.408 20.9862C124.401 22.0011 123.153 22.5075 121.664 22.5075C120.167 22.5075 118.919 22.0011 117.912 20.9862C116.907 19.9734 116.406 18.7305 116.406 17.2594C116.406 15.7883 116.907 14.5453 117.912 13.5325C118.919 12.5176 120.167 12.0112 121.664 12.0112C123.144 12.0112 124.392 12.5176 125.4 13.5409C126.413 14.5621 126.914 15.7967 126.914 17.2594C126.914 18.7305 126.413 19.9734 125.408 20.9862ZM118.885 20.145C119.643 20.8963 120.565 21.2729 121.664 21.2729C122.755 21.2729 123.685 20.8963 124.435 20.145C125.191 19.3938 125.574 18.4291 125.574 17.2594C125.574 16.0896 125.191 15.125 124.435 14.3737C123.685 13.6225 122.755 13.2458 121.664 13.2458C120.565 13.2458 119.643 13.6225 118.885 14.3737C118.129 15.125 117.746 16.0896 117.746 17.2594C117.746 18.4291 118.129 19.3938 118.885 20.145Z" fill="white" stroke="white" stroke-width="0.116456" stroke-miterlimit="10"/>
<path d="M128.762 22.2776V12.2417H130.359L135.325 20.047H135.383L135.325 18.1176V12.2417H136.639V22.2776H135.268L130.067 14.0873H130.01L130.067 16.0251V22.2776H128.762Z" fill="white" stroke="white" stroke-width="0.116456" stroke-miterlimit="10"/>
<path d="M116.08 36.9333C112.078 36.9333 108.809 39.9256 108.809 44.0542C108.809 48.1494 112.078 51.1731 116.08 51.1731C120.09 51.1731 123.359 48.1494 123.359 44.0542C123.359 39.9256 120.09 36.9333 116.08 36.9333ZM116.08 48.3691C113.884 48.3691 111.995 46.5883 111.995 44.0542C111.995 41.4867 113.884 39.7373 116.08 39.7373C118.275 39.7373 120.173 41.4867 120.173 44.0542C120.173 46.5883 118.275 48.3691 116.08 48.3691ZM100.216 36.9333C96.2061 36.9333 92.9456 39.9256 92.9456 44.0542C92.9456 48.1494 96.2061 51.1731 100.216 51.1731C104.224 51.1731 107.487 48.1494 107.487 44.0542C107.487 39.9256 104.224 36.9333 100.216 36.9333ZM100.216 48.3691C98.0184 48.3691 96.1231 46.5883 96.1231 44.0542C96.1231 41.4867 98.0184 39.7373 100.216 39.7373C102.412 39.7373 104.301 41.4867 104.301 44.0542C104.301 46.5883 102.412 48.3691 100.216 48.3691ZM81.3392 39.1158V42.1416H88.6928C88.4777 43.8324 87.9027 45.0754 87.021 45.9417C85.9477 46.988 84.2759 48.1494 81.3392 48.1494C76.8137 48.1494 73.27 44.5606 73.27 40.1139C73.27 35.6673 76.8137 32.0785 81.3392 32.0785C83.7861 32.0785 85.5665 33.0181 86.8805 34.2359L89.0506 32.1036C87.2127 30.3793 84.7679 29.0547 81.3392 29.0547C75.1334 29.0547 69.918 34.0162 69.918 40.1139C69.918 46.2117 75.1334 51.1731 81.3392 51.1731C84.6933 51.1731 87.2127 50.0934 89.1932 48.0678C91.2228 46.0736 91.8553 43.2695 91.8553 41.0054C91.8553 40.3023 91.7956 39.6557 91.6892 39.1158H81.3392ZM158.53 41.4616C157.931 39.8691 156.085 36.9333 152.324 36.9333C148.597 36.9333 145.494 39.8189 145.494 44.0542C145.494 48.0427 148.565 51.1731 152.682 51.1731C156.01 51.1731 157.931 49.1789 158.721 48.0176L156.251 46.4C155.427 47.5844 154.305 48.3691 152.682 48.3691C151.07 48.3691 149.913 47.643 149.172 46.2117L158.864 42.2714L158.53 41.4616ZM148.648 43.8324C148.565 41.087 150.818 39.6808 152.433 39.6808C153.698 39.6808 154.771 40.3023 155.129 41.1916L148.648 43.8324ZM140.771 50.74H143.957V29.8144H140.771V50.74ZM135.553 38.5194H135.447C134.731 37.6866 133.366 36.9333 131.637 36.9333C128.008 36.9333 124.69 40.0637 124.69 44.0773C124.69 48.0678 128.008 51.1731 131.637 51.1731C133.366 51.1731 134.731 50.4135 135.447 49.5556H135.553V50.5768C135.553 53.2992 134.073 54.7619 131.686 54.7619C129.739 54.7619 128.532 53.3808 128.033 52.2194L125.263 53.3557C126.061 55.2432 128.176 57.5659 131.686 57.5659C135.421 57.5659 138.573 55.4064 138.573 50.152V37.3664H135.553V38.5194ZM131.909 48.3691C129.714 48.3691 127.876 46.5632 127.876 44.0773C127.876 41.5683 129.714 39.7373 131.909 39.7373C134.073 39.7373 135.779 41.5683 135.779 44.0773C135.779 46.5632 134.073 48.3691 131.909 48.3691ZM173.446 29.8144H165.826V50.74H169.003V42.8113H173.446C176.974 42.8113 180.435 40.3023 180.435 36.3118C180.435 32.3233 176.966 29.8144 173.446 29.8144ZM173.529 39.9005H169.003V32.7251H173.529C175.901 32.7251 177.256 34.6607 177.256 36.3118C177.256 37.9314 175.901 39.9005 173.529 39.9005ZM193.17 36.8935C190.874 36.8935 188.487 37.8895 187.505 40.0972L190.325 41.2586C190.932 40.0972 192.048 39.7205 193.228 39.7205C194.876 39.7205 196.548 40.6936 196.573 42.4116V42.6313C195.998 42.3049 194.767 41.8215 193.253 41.8215C190.216 41.8215 187.122 43.4641 187.122 46.5297C187.122 49.3338 189.609 51.1397 192.406 51.1397C194.544 51.1397 195.724 50.1917 196.465 49.0889H196.573V50.7065H199.642V42.6794C199.642 38.9693 196.823 36.8935 193.17 36.8935ZM192.787 48.3607C191.748 48.3607 190.299 47.8543 190.299 46.5883C190.299 44.9687 192.105 44.3472 193.669 44.3472C195.068 44.3472 195.724 44.6506 196.573 45.0503C196.324 46.988 194.627 48.3607 192.787 48.3607ZM210.823 37.3518L207.17 46.423H207.062L203.286 37.3518H199.859L205.533 50.0285L202.296 57.0825H205.616L214.358 37.3518H210.823ZM182.181 50.74H185.367V29.8144H182.181V50.74Z" fill="white"/>
</svg>
