<svg width="627" height="472" viewBox="0 0 627 472" fill="none" xmlns="http://www.w3.org/2000/svg">
<path opacity="0.3" d="M174.714 99.2119C121.582 113.569 79.6715 147.214 72.989 209.134C67.4176 261.316 75.2895 353.453 164.714 368.546C338.726 397.901 468.324 396.194 532.395 315.894C571.958 266.264 569.094 117.655 471.563 96.7069C402.641 81.9744 288.521 68.4787 174.714 99.2119Z" fill="#E6E6E6"/>
<path d="M400.701 107.509H239.475V358.932H400.701V107.509Z" fill="white"/>
<path d="M377.392 118.382L296.029 107.522L277.281 248.09L358.644 258.951L377.392 118.382Z" fill="#7DBCFF"/>
<path opacity="0.2" d="M367.589 125.35L303.662 116.817L287.083 241.122L351.01 249.655L367.589 125.35Z" fill="#7DBCFF"/>
<path opacity="0.2" d="M327.364 199.677C336.448 199.677 343.812 192.31 343.812 183.223C343.812 174.135 336.448 166.768 327.364 166.768C318.28 166.768 310.916 174.135 310.916 183.223C310.916 192.31 318.28 199.677 327.364 199.677Z" fill="#7DBCFF"/>
<path d="M375.082 50.2911L296.029 28.1807L257.86 164.757L336.913 186.868L375.082 50.2911Z" fill="#7DBCFF"/>
<path opacity="0.2" d="M364.403 55.8224L302.291 38.4502L268.538 159.225L330.65 176.597L364.403 55.8224Z" fill="#298BF5"/>
<path opacity="0.2" d="M316.485 123.964C325.569 123.964 332.933 116.597 332.933 107.509C332.933 98.4217 325.569 91.0547 316.485 91.0547C307.401 91.0547 300.037 98.4217 300.037 107.509C300.037 116.597 307.401 123.964 316.485 123.964Z" fill="white"/>
<path opacity="0.45" d="M317.458 434.427C421.099 434.427 505.117 424.494 505.117 412.242C505.117 399.99 421.099 390.057 317.458 390.057C213.817 390.057 129.799 399.99 129.799 412.242C129.799 424.494 213.817 434.427 317.458 434.427Z" fill="#E6E6E6"/>
<path d="M477.15 381.932H377.412V408.203H477.15V381.932Z" fill="#E6E6E6"/>
<path opacity="0.43" d="M455.349 356.24H355.611V382.511H455.349V356.24Z" fill="#E6E6E6"/>
<path opacity="0.58" d="M423.108 340.897C423.108 340.897 410.698 337.515 408.006 325.961C408.006 325.961 427.224 322.078 427.772 341.93L423.108 340.897Z" fill="#F9F9F9"/>
<path opacity="0.73" d="M424.63 339.691C424.63 339.691 415.96 325.976 423.597 313.169C423.597 313.169 438.198 322.454 431.704 339.785L424.63 339.691Z" fill="#F9F9F9"/>
<path d="M426.865 339.691C426.865 339.691 431.435 325.225 445.285 322.469C445.285 322.469 447.868 331.863 436.318 339.691H426.865Z" fill="#F9F9F9"/>
<path d="M417.865 339.378L420.369 356.584L436.207 356.647L438.539 339.456L417.865 339.378Z" fill="#24285B"/>
<path d="M232.369 98.6792V411.428H411.03V98.6792H232.369ZM395.129 348.991H247.158V116.637H395.067L395.129 348.991Z" fill="#E6E6E6"/>
<path opacity="0.56" d="M322.262 391.78C328.381 391.78 333.342 386.817 333.342 380.695C333.342 374.573 328.381 369.61 322.262 369.61C316.142 369.61 311.182 374.573 311.182 380.695C311.182 386.817 316.142 391.78 322.262 391.78Z" fill="white"/>
<path d="M453.045 180.471H372.588V246.258H453.045V180.471Z" fill="#F2B43C"/>
<path d="M321.66 263.336C304.374 263.209 290.258 277.124 290.131 294.417C290.003 311.71 303.913 325.832 321.199 325.96C338.485 326.087 352.601 312.172 352.729 294.879C352.856 277.586 338.947 263.464 321.66 263.336Z" fill="#24285B"/>
<path d="M321.435 312.935L336.287 294.679H327.836V276.362H315.034V294.679H306.583L321.435 312.935Z" fill="white"/>
<path d="M213.041 228.688C213.041 228.688 263.231 277.223 300.133 281.732L297.629 293.944C297.629 293.944 239.834 291.172 214.794 270.099L213.041 228.688Z" fill="#B5D8FF"/>
<path opacity="0.46" d="M213.041 228.688C213.041 228.688 263.231 277.223 300.133 281.732L297.629 293.944C297.629 293.944 239.834 291.172 214.794 270.099L213.041 228.688Z" fill="#B5D8FF"/>
<path d="M153.649 406.872C153.649 406.872 152.084 411.569 148.25 411.898C144.416 412.226 143.367 416.391 146.841 417.471C150.316 418.552 159.361 413.667 159.361 413.667L159.111 407.561L153.649 406.872Z" fill="#F9F9F9"/>
<path d="M206.796 406.872C206.796 406.872 208.361 411.569 212.195 411.898C216.03 412.226 217.078 416.391 213.604 417.471C210.13 418.552 201.084 413.667 201.084 413.667L201.334 407.561L206.796 406.872Z" fill="#F9F9F9"/>
<path d="M167.905 316.927L152.803 407.733H160.346L179.267 358.432C185.652 341.365 197.441 326.855 212.836 317.115L218.392 313.67L167.905 316.927Z" fill="#24285B"/>
<path d="M218.392 313.655L210.567 407.717H200.535C200.535 407.717 202.882 336.936 184.791 321.874L218.392 313.655Z" fill="#24285B"/>
<path d="M189.814 198.55C191.253 202.26 192.19 206.146 192.6 210.105C192.617 210.578 192.54 211.049 192.374 211.493C192.209 211.936 191.957 212.342 191.635 212.688C191.312 213.034 190.924 213.313 190.494 213.509C190.063 213.705 189.598 213.815 189.126 213.831C187.605 213.976 186.075 213.677 184.719 212.972C183.364 212.266 182.242 211.183 181.488 209.854L177.67 204.453C177.019 203.294 176.745 201.962 176.885 200.641C177.026 199.32 177.573 198.075 178.452 197.079C181.504 193.149 188.437 194.417 189.814 198.55Z" fill="#F4A28C"/>
<path d="M178.361 205.439L181.366 228.688L194.058 226.136L186.781 210.23L178.361 205.439Z" fill="#F4A28C"/>
<path d="M188.204 199.349C186.103 200.048 183.929 200.505 181.725 200.711C182.606 201.463 183.25 202.456 183.578 203.568C183.905 204.68 183.903 205.863 183.571 206.973C183.26 208.056 182.583 208.998 181.656 209.637C180.728 210.277 179.608 210.575 178.485 210.48L176.012 201.635C175.617 200.38 175.567 199.041 175.867 197.76C176.167 196.479 176.807 195.303 177.718 194.354C178.509 193.535 179.351 192.767 180.238 192.053C182.476 190.284 186.701 190.879 188.47 188.499C188.649 188.26 188.886 188.072 189.16 187.953C189.433 187.833 189.733 187.787 190.03 187.819C190.327 187.85 190.61 187.958 190.852 188.133C191.095 188.307 191.287 188.541 191.412 188.812C192.601 191.38 193.353 195.748 190.16 198.284C189.57 198.743 188.909 199.102 188.204 199.349Z" fill="#24285B"/>
<path d="M184.242 206.582C184.242 206.582 183.413 203.952 181.488 204.734C179.563 205.517 180.736 209.322 183.538 208.899L184.242 206.582Z" fill="#F4A28C"/>
<path d="M191.24 202.84L193.932 204.923C194.085 205.041 194.205 205.196 194.282 205.374C194.358 205.551 194.389 205.745 194.37 205.937C194.351 206.13 194.284 206.314 194.174 206.473C194.065 206.633 193.917 206.762 193.744 206.848L191.272 208.116L191.24 202.84Z" fill="#F4A28C"/>
<path opacity="0.31" d="M188.517 213.643C186.868 213.709 185.236 213.29 183.822 212.438C183.822 212.438 185.215 216.492 190.927 219.232L188.517 213.643Z" fill="#CE8172"/>
<path d="M218.391 314.531L196.622 316.097L167.904 318.242C167.294 317.349 142.755 281.951 143.256 254.897C143.506 240.634 150.752 228.688 172.146 225.354L180.972 225.04C183.121 224.987 185.264 224.799 187.389 224.477C194.196 223.459 214.604 222.191 225.684 241.511C239.096 264.948 218.391 314.531 218.391 314.531Z" fill="#F9F9F9"/>
<path opacity="0.08" d="M197.092 316.379L167.904 318.273C167.294 317.381 142.755 281.982 143.256 254.928C159.735 247.257 186.481 244.673 186.481 244.673C186.481 244.673 191.943 250.278 185.464 258.028C177.498 267.578 174.681 280.604 179.438 292.08C182.568 299.486 186.888 311.228 196.653 316.144C196.794 316.233 196.94 316.311 197.092 316.379Z" fill="black"/>
<path d="M184.199 235.311C181.587 231.89 177.951 229.393 173.821 228.185C169.691 226.977 165.283 227.12 161.24 228.594C146.013 233.996 119.94 246.897 117.139 272.432C113.164 308.77 171.194 316.723 171.194 316.723L173.072 307.486C173.072 307.486 112.96 273.857 171.194 256.932C171.194 256.948 194.481 249.245 184.199 235.311Z" fill="#B5D8FF"/>
<path opacity="0.46" d="M184.199 235.311C181.587 231.89 177.951 229.393 173.821 228.185C169.691 226.977 165.283 227.12 161.24 228.594C146.013 233.996 119.94 246.897 117.139 272.432C113.164 308.77 171.194 316.723 171.194 316.723L173.072 307.486C173.072 307.486 112.96 273.857 171.194 256.932C171.194 256.948 194.481 249.245 184.199 235.311Z" fill="#B5D8FF"/>
<path d="M173.15 308.848C173.15 308.848 183.087 309.02 181.35 315.252C179.613 321.483 171.193 316.739 171.193 316.739L173.15 308.848Z" fill="#F4A28C"/>
<path d="M299.77 283.438C299.77 283.438 314.873 281.779 313.949 283.016C313.026 284.253 308.268 285.818 308.268 285.818C308.268 285.818 309.693 287.979 305.984 290.703C304.828 291.502 303.52 292.054 302.141 292.324C300.762 292.593 299.342 292.574 297.971 292.269L299.77 283.438Z" fill="#F4A28C"/>
<path opacity="0.08" d="M419.12 356.647H411.061V408.203H419.12V356.647Z" fill="black"/>
<path d="M415.639 230.657C415.191 230.939 414.755 231.197 414.3 231.232C413.369 231.302 412.428 231.253 411.436 231.253C411.436 228.391 411.436 225.668 411.436 222.883C412.785 222.883 414.096 222.883 415.641 222.883C415.641 225.398 415.641 227.965 415.639 230.657Z" fill="white"/>
<path d="M430.345 212.375C430.671 213.693 430.864 215.006 431.078 216.455C427.984 216.455 425.174 216.455 422.318 216.455C422.318 215.148 422.318 213.836 422.318 212.37C424.949 212.37 427.58 212.37 430.345 212.375Z" fill="white"/>
<path d="M411.373 199.616C411.373 198.907 411.373 198.34 411.373 197.672C412.869 197.672 414.227 197.672 415.683 197.672C415.683 200.445 415.683 203.168 415.683 205.982C414.329 205.982 412.963 205.982 411.373 205.982C411.373 203.944 411.373 201.85 411.373 199.616Z" fill="white"/>
<path d="M403.95 226.323C405.098 224.407 406.189 222.585 407.3 220.73C408.523 221.412 409.702 222.068 411.002 222.792C409.6 225.142 408.172 227.533 406.705 229.992C405.464 229.303 404.314 228.665 403.061 227.969C403.367 227.398 403.63 226.907 403.95 226.323Z" fill="white"/>
<path d="M420.049 220.737C420.727 219.496 421.404 218.255 422.149 216.891C424.626 218.27 427.057 219.622 429.641 221.061C428.938 222.24 428.264 223.372 427.518 224.623C425.039 223.269 422.642 221.959 420.142 220.69C420.04 220.73 420.049 220.737 420.049 220.737Z" fill="white"/>
<path d="M407.192 208.284C406.564 207.069 405.964 205.84 405.3 204.643C404.623 203.422 403.884 202.233 403.107 200.92C404.344 200.224 405.487 199.581 406.741 198.875C408.202 201.311 409.618 203.672 411.034 206.035C409.757 206.734 408.522 207.41 407.23 208.184C407.171 208.283 407.192 208.284 407.192 208.284Z" fill="white"/>
<path d="M429.528 207.698C427.132 209.213 424.721 210.626 422.262 212.068C421.518 210.824 420.838 209.686 420.088 208.431C422.516 207.074 424.943 205.718 427.535 204.269C428.243 205.459 428.878 206.528 429.528 207.698Z" fill="white"/>
<path d="M407.175 208.273C406.442 209.448 405.707 210.632 404.897 211.938C402.518 210.614 400.094 209.265 397.486 207.814C398.179 206.638 398.849 205.501 399.594 204.238C402.097 205.611 404.537 206.95 407.085 208.286C407.194 208.284 407.173 208.283 407.175 208.273Z" fill="white"/>
<path d="M420.037 220.726C420.161 221.136 420.217 221.59 420.431 221.959C421.57 223.925 422.748 225.869 423.981 227.936C422.81 228.594 421.706 229.215 420.393 229.953C418.96 227.569 417.555 225.231 416.092 222.797C417.424 222.14 418.665 221.528 419.978 220.827C420.05 220.738 420.04 220.73 420.037 220.726Z" fill="white"/>
<path d="M419.287 207.911C418.222 207.28 417.253 206.709 416.143 206.055C417.519 203.734 418.911 201.386 420.389 198.893C421.614 199.562 422.756 200.187 424.103 200.922C422.841 203.051 421.64 205.121 420.383 207.159C420.172 207.501 419.722 207.703 419.287 207.911Z" fill="white"/>
<path d="M401.037 223.754C400.513 224.035 400.079 224.257 399.578 224.513C398.898 223.381 398.251 222.304 397.486 221.032C399.946 219.654 402.377 218.292 404.871 216.896C405.561 218.053 406.222 219.161 406.971 220.418C405.056 221.491 403.092 222.593 401.037 223.754Z" fill="white"/>
<path d="M400.581 212.329C402.064 212.329 403.397 212.329 404.801 212.329C404.801 213.68 404.801 214.953 404.801 216.334C402.005 216.334 399.205 216.334 396.311 216.334C396.311 215.064 396.311 213.79 396.311 212.329C397.696 212.329 399.064 212.329 400.581 212.329Z" fill="white"/>
<path d="M415.377 191.303C415.631 192.688 415.759 194.039 415.899 195.531C414.283 195.531 412.888 195.531 411.432 195.531C411.432 194.157 411.432 192.828 411.432 191.268C412.722 191.268 413.986 191.268 415.377 191.303Z" fill="white"/>
<path d="M412.112 233.281C413.28 233.28 414.315 233.28 415.462 233.28C415.462 234.733 415.462 236.095 415.462 237.542C414.136 237.542 412.777 237.542 411.27 237.542C411.27 236.332 411.232 235.143 411.302 233.961C411.316 233.723 411.743 233.508 412.112 233.281Z" fill="white"/>
<path d="M434.195 212.45C435.318 212.45 436.303 212.45 437.348 212.45C437.348 213.884 437.348 215.168 437.348 216.549C435.952 216.549 434.58 216.549 432.955 216.549C432.955 215.409 432.897 214.224 433.005 213.053C433.026 212.824 433.69 212.649 434.195 212.45Z" fill="white"/>
<path d="M394.593 201.408C395.661 202.019 396.641 202.578 397.703 203.183C396.982 204.392 396.318 205.506 395.588 206.731C394.309 206.026 393.113 205.366 391.752 204.615C392.406 203.52 392.993 202.478 393.657 201.484C393.76 201.329 394.213 201.393 394.593 201.408Z" fill="white"/>
<path d="M396.292 223.407C396.739 224.16 397.13 224.822 397.586 225.597C396.349 226.296 395.131 226.984 393.829 227.719C393.116 226.528 392.453 225.424 391.717 224.196C392.97 223.49 394.146 222.828 395.436 222.101C395.724 222.54 395.979 222.929 396.292 223.407Z" fill="white"/>
<path d="M431.516 227.013C430.744 226.568 430.065 226.184 429.283 225.743C429.994 224.544 430.673 223.4 431.406 222.164C432.694 222.888 433.874 223.55 435.228 224.311C434.519 225.504 433.846 226.635 433.13 227.839C432.552 227.549 432.08 227.311 431.516 227.013Z" fill="white"/>
<path d="M402.477 193.903C403.073 193.497 403.499 193.345 403.871 194.052C404.387 195.032 404.984 195.971 405.615 197.042C404.382 197.731 403.236 198.371 401.972 199.076C401.243 197.859 400.554 196.709 399.783 195.421C400.694 194.91 401.54 194.436 402.477 193.903Z" fill="white"/>
<path d="M402.302 234.944C401.401 234.438 400.595 233.976 399.643 233.43C400.356 232.222 401.05 231.047 401.824 229.737C403.095 230.442 404.267 231.092 405.523 231.789C404.894 232.858 404.296 233.785 403.791 234.759C403.396 235.521 402.945 235.391 402.302 234.944Z" fill="white"/>
<path d="M421.986 196.226C422.561 195.271 423.078 194.405 423.662 193.428C424.899 194.11 426.043 194.741 427.341 195.456C426.634 196.678 425.968 197.827 425.187 199.176C424.061 198.555 422.981 198.012 421.977 197.359C421.799 197.244 421.936 196.675 421.986 196.226Z" fill="white"/>
<path d="M434.456 203.277C434.743 203.788 434.983 204.205 435.295 204.746C434.045 205.448 432.822 206.134 431.507 206.872C430.787 205.692 430.113 204.589 429.342 203.326C430.603 202.611 431.811 201.926 433.158 201.163C433.611 201.894 434.01 202.539 434.456 203.277Z" fill="white"/>
<path d="M426.925 233.593C425.793 234.259 424.724 234.85 423.558 235.494C422.837 234.282 422.157 233.138 421.42 231.9C422.623 231.219 423.725 230.596 425.049 229.847C425.72 231.117 426.353 232.317 426.925 233.593Z" fill="white"/>
<path d="M393.874 216.291C392.438 216.397 391.097 216.397 389.549 216.397C389.549 215.7 389.549 215.044 389.549 214.387C389.549 213.766 389.549 213.145 389.549 212.428C391.05 212.428 392.459 212.428 393.969 212.428C393.969 213.702 393.969 214.944 393.874 216.291Z" fill="white"/>
</svg>
