<svg width="233" height="68" viewBox="0 0 233 68" fill="none" xmlns="http://www.w3.org/2000/svg">
<path d="M224.37 68H8.62963C3.88549 68 0 64.1729 0 59.5V8.5C0 3.82713 3.88549 2.86102e-06 8.62963 2.86102e-06H224.37C229.115 2.86102e-06 233 3.82713 233 8.5V59.5C233 64.1729 229.115 68 224.37 68Z" fill="black"/>
<path d="M224.37 1.36213C228.366 1.36213 231.617 4.5645 231.617 8.5V59.5C231.617 63.4355 228.366 66.6379 224.37 66.6379H8.62963C4.63411 66.6379 1.3829 63.4355 1.3829 59.5V8.5C1.3829 4.5645 4.63411 1.36213 8.62963 1.36213H224.37ZM224.37 2.86102e-06H8.62963C3.88549 2.86102e-06 0 3.82713 0 8.5V59.5C0 64.1729 3.88549 68 8.62963 68H224.37C229.115 68 233 64.1729 233 59.5V8.5C233 3.82713 229.115 2.86102e-06 224.37 2.86102e-06Z" fill="#A6A6A6"/>
<path d="M18.0104 12.8161C17.5034 13.3389 17.21 14.1527 17.21 15.2067V52.8022C17.21 53.8562 17.5034 54.6701 18.0104 55.1929L18.1355 55.3076L39.524 34.2489V33.7516L18.1355 12.6929L18.0104 12.8161Z" fill="url(#paint0_linear_551_7900)"/>
<path d="M46.646 41.2715L39.5244 34.2484V33.7511L46.6546 26.728L46.8143 26.8194L55.2584 31.5517C57.6682 32.8947 57.6682 35.1047 55.2584 36.4562L46.8143 41.1801L46.646 41.2715Z" fill="url(#paint1_linear_551_7900)"/>
<path d="M46.8143 41.1802L39.5244 33.9998L18.0107 55.1925C18.8111 56.0212 20.1164 56.1211 21.6007 55.2923L46.8143 41.1802Z" fill="url(#paint2_linear_551_7900)"/>
<path d="M46.8143 26.8196L21.6007 12.7075C20.1164 11.8873 18.8111 11.9871 18.0107 12.8159L39.5244 34L46.8143 26.8196Z" fill="url(#paint3_linear_551_7900)"/>
<path d="M81.8388 17.4138C81.8388 18.8333 81.4074 19.9702 80.5573 20.818C79.58 21.8232 78.3072 22.3289 76.7474 22.3289C75.2566 22.3289 73.9837 21.8147 72.9395 20.801C71.8932 19.7725 71.3711 18.5103 71.3711 16.9994C71.3711 15.4885 71.8932 14.2263 72.9395 13.2063C73.9837 12.1842 75.2566 11.6699 76.7474 11.6699C77.4895 11.6699 78.1971 11.8208 78.8724 12.1013C79.5455 12.3839 80.0935 12.7664 80.4905 13.2382L79.5887 14.1349C78.8961 13.3295 77.9533 12.9322 76.7474 12.9322C75.66 12.9322 74.7172 13.3062 73.9168 14.0605C73.1251 14.817 72.7281 15.7967 72.7281 16.9994C72.7281 18.2022 73.1251 19.1903 73.9168 19.9468C74.7172 20.6927 75.66 21.0752 76.7474 21.0752C77.9016 21.0752 78.8724 20.6927 79.6383 19.9383C80.1431 19.4389 80.4301 18.7504 80.5056 17.8707H76.7474V16.6424H81.7612C81.8216 16.908 81.8388 17.1652 81.8388 17.4138Z" fill="white" stroke="white" stroke-width="0.16" stroke-miterlimit="10"/>
<path d="M89.7929 13.1559H85.0833V16.3859H89.3291V17.6142H85.0833V20.8442H89.7929V22.0958H83.75V11.9043H89.7929V13.1559Z" fill="white" stroke="white" stroke-width="0.16" stroke-miterlimit="10"/>
<path d="M95.4066 22.0958H94.0733V13.1559H91.1846V11.9043H98.2975V13.1559H95.4066V22.0958Z" fill="white" stroke="white" stroke-width="0.16" stroke-miterlimit="10"/>
<path d="M103.445 22.0958V11.9043H104.776V22.0958H103.445Z" fill="white" stroke="white" stroke-width="0.16" stroke-miterlimit="10"/>
<path d="M110.677 22.0958H109.355V13.1559H106.455V11.9043H113.577V13.1559H110.677V22.0958Z" fill="white" stroke="white" stroke-width="0.16" stroke-miterlimit="10"/>
<path d="M127.043 20.784C126.023 21.8147 124.758 22.3289 123.25 22.3289C121.734 22.3289 120.47 21.8147 119.449 20.784C118.431 19.7555 117.924 18.4933 117.924 16.9994C117.924 15.5055 118.431 14.2433 119.449 13.2148C120.47 12.1842 121.734 11.6699 123.25 11.6699C124.75 11.6699 126.014 12.1842 127.035 13.2233C128.061 14.2603 128.568 15.514 128.568 16.9994C128.568 18.4933 128.061 19.7555 127.043 20.784ZM120.435 19.9298C121.203 20.6927 122.137 21.0752 123.25 21.0752C124.355 21.0752 125.298 20.6927 126.057 19.9298C126.823 19.1669 127.211 18.1873 127.211 16.9994C127.211 15.8115 126.823 14.8319 126.057 14.069C125.298 13.3062 124.355 12.9237 123.25 12.9237C122.137 12.9237 121.203 13.3062 120.435 14.069C119.669 14.8319 119.281 15.8115 119.281 16.9994C119.281 18.1873 119.669 19.1669 120.435 19.9298Z" fill="white" stroke="white" stroke-width="0.16" stroke-miterlimit="10"/>
<path d="M130.438 22.0958V11.9043H132.057L137.088 19.8305H137.146L137.088 17.8713V11.9043H138.419V22.0958H137.029L131.761 13.7785H131.703L131.761 15.7463V22.0958H130.438Z" fill="white" stroke="white" stroke-width="0.16" stroke-miterlimit="10"/>
<path d="M117.596 36.9791C113.542 36.9791 110.231 40.0179 110.231 44.2105C110.231 48.3691 113.542 51.4398 117.596 51.4398C121.658 51.4398 124.97 48.3691 124.97 44.2105C124.97 40.0179 121.658 36.9791 117.596 36.9791ZM117.596 48.5923C115.372 48.5923 113.458 46.7839 113.458 44.2105C113.458 41.6031 115.372 39.8266 117.596 39.8266C119.82 39.8266 121.743 41.6031 121.743 44.2105C121.743 46.7839 119.82 48.5923 117.596 48.5923ZM101.525 36.9791C97.4631 36.9791 94.1601 40.0179 94.1601 44.2105C94.1601 48.3691 97.4631 51.4398 101.525 51.4398C105.586 51.4398 108.891 48.3691 108.891 44.2105C108.891 40.0179 105.586 36.9791 101.525 36.9791ZM101.525 48.5923C99.299 48.5923 97.3789 46.7839 97.3789 44.2105C97.3789 41.6031 99.299 39.8266 101.525 39.8266C103.75 39.8266 105.663 41.6031 105.663 44.2105C105.663 46.7839 103.75 48.5923 101.525 48.5923ZM82.4022 39.1955V42.2683H89.8517C89.6338 43.9853 89.0513 45.2475 88.1582 46.1273C87.0708 47.1898 85.3773 48.3691 82.4022 48.3691C77.8177 48.3691 74.2278 44.7248 74.2278 40.2091C74.2278 35.6935 77.8177 32.0491 82.4022 32.0491C84.8811 32.0491 86.6847 33.0033 88.0158 34.24L90.2142 32.0746C88.3523 30.3236 85.8756 28.9785 82.4022 28.9785C76.1155 28.9785 70.832 34.0169 70.832 40.2091C70.832 46.4014 76.1155 51.4398 82.4022 51.4398C85.8001 51.4398 88.3523 50.3433 90.3587 48.2863C92.4147 46.2611 93.0555 43.4136 93.0555 41.1144C93.0555 40.4004 92.9951 39.7438 92.8872 39.1955H82.4022ZM160.6 41.5776C159.993 39.9605 158.123 36.9791 154.313 36.9791C150.537 36.9791 147.394 39.9095 147.394 44.2105C147.394 48.2608 150.505 51.4398 154.675 51.4398C158.047 51.4398 159.993 49.4146 160.794 48.2353L158.291 46.5926C157.456 47.7954 156.319 48.5923 154.675 48.5923C153.042 48.5923 151.871 47.8549 151.12 46.4014L160.938 42.4L160.6 41.5776ZM150.589 43.9853C150.505 41.1973 152.788 39.7693 154.423 39.7693C155.704 39.7693 156.792 40.4004 157.154 41.3035L150.589 43.9853ZM142.609 50.9999H145.836V29.7499H142.609V50.9999ZM137.323 38.5899H137.215C136.491 37.7441 135.108 36.9791 133.356 36.9791C129.68 36.9791 126.318 40.1581 126.318 44.2339C126.318 48.2863 129.68 51.4398 133.356 51.4398C135.108 51.4398 136.491 50.6684 137.215 49.7971H137.323V50.8341C137.323 53.5988 135.824 55.0841 133.405 55.0841C131.434 55.0841 130.21 53.6816 129.705 52.5023L126.899 53.6561C127.708 55.5729 129.85 57.9316 133.405 57.9316C137.19 57.9316 140.382 55.7386 140.382 50.4028V37.419H137.323V38.5899ZM133.632 48.5923C131.408 48.5923 129.546 46.7584 129.546 44.2339C129.546 41.686 131.408 39.8266 133.632 39.8266C135.824 39.8266 137.552 41.686 137.552 44.2339C137.552 46.7584 135.824 48.5923 133.632 48.5923ZM175.71 29.7499H167.991V50.9999H171.21V42.9483H175.71C179.285 42.9483 182.791 40.4004 182.791 36.348C182.791 32.2978 179.276 29.7499 175.71 29.7499ZM175.794 39.9924H171.21V32.7058H175.794C178.198 32.7058 179.57 34.6714 179.57 36.348C179.57 37.9928 178.198 39.9924 175.794 39.9924ZM195.692 36.9388C193.366 36.9388 190.948 37.9503 189.953 40.1921L192.81 41.3715C193.424 40.1921 194.555 39.8096 195.75 39.8096C197.42 39.8096 199.114 40.7978 199.139 42.5424V42.7655C198.557 42.434 197.31 41.9431 195.776 41.9431C192.7 41.9431 189.565 43.6113 189.565 46.7244C189.565 49.5719 192.085 51.4058 194.917 51.4058C197.083 51.4058 198.279 50.4431 199.029 49.3233H199.139V50.9659H202.248V42.8144C202.248 39.0468 199.392 36.9388 195.692 36.9388ZM195.304 48.5838C194.251 48.5838 192.784 48.0695 192.784 46.7839C192.784 45.1391 194.613 44.508 196.197 44.508C197.614 44.508 198.279 44.8161 199.139 45.222C198.887 47.1898 197.168 48.5838 195.304 48.5838ZM213.575 37.4041L209.875 46.616H209.765L205.94 37.4041H202.468L208.216 50.2774L204.936 57.4408H208.3L217.156 37.4041H213.575ZM184.56 50.9999H187.787V29.7499H184.56V50.9999Z" fill="white"/>
<defs>
<linearGradient id="paint0_linear_551_7900" x1="37.625" y1="53.1938" x2="9.09816" y2="24.2319" gradientUnits="userSpaceOnUse">
<stop stop-color="#00A0FF"/>
<stop offset="0.0066" stop-color="#00A1FF"/>
<stop offset="0.2601" stop-color="#00BEFF"/>
<stop offset="0.5122" stop-color="#00D2FF"/>
<stop offset="0.7604" stop-color="#00DFFF"/>
<stop offset="1" stop-color="#00E3FF"/>
</linearGradient>
<linearGradient id="paint1_linear_551_7900" x1="58.3964" y1="33.9974" x2="16.6343" y2="33.9974" gradientUnits="userSpaceOnUse">
<stop stop-color="#FFE000"/>
<stop offset="0.4087" stop-color="#FFBD00"/>
<stop offset="0.7754" stop-color="#FFA500"/>
<stop offset="1" stop-color="#FF9C00"/>
</linearGradient>
<linearGradient id="paint2_linear_551_7900" x1="42.8503" y1="30.0965" x2="4.16559" y2="-9.17817" gradientUnits="userSpaceOnUse">
<stop stop-color="#FF3A44"/>
<stop offset="1" stop-color="#C31162"/>
</linearGradient>
<linearGradient id="paint3_linear_551_7900" x1="12.5953" y1="67.7005" x2="29.8697" y2="50.1627" gradientUnits="userSpaceOnUse">
<stop stop-color="#32A071"/>
<stop offset="0.0685" stop-color="#2DA771"/>
<stop offset="0.4762" stop-color="#15CF74"/>
<stop offset="0.8009" stop-color="#06E775"/>
<stop offset="1" stop-color="#00F076"/>
</linearGradient>
</defs>
</svg>
