<svg width="26" height="26" viewBox="0 0 26 26" fill="none" xmlns="http://www.w3.org/2000/svg">
<path d="M19.9229 3.64453H5.68104C4.55738 3.64453 3.64648 4.55543 3.64648 5.67908V19.921C3.64648 21.0446 4.55738 21.9555 5.68104 21.9555H19.9229C21.0466 21.9555 21.9575 21.0446 21.9575 19.921V5.67908C21.9575 4.55543 21.0466 3.64453 19.9229 3.64453Z" stroke="white" stroke-width="2.03455" stroke-linecap="round" stroke-linejoin="round"/>
<path d="M21.9561 15.852L16.8697 10.7656L5.67969 21.9557" stroke="white" stroke-width="2.03455" stroke-linecap="round" stroke-linejoin="round"/>
<path d="M9.24076 10.7667C10.0835 10.7667 10.7667 10.0835 10.7667 9.24076C10.7667 8.39802 10.0835 7.71484 9.24076 7.71484C8.39802 7.71484 7.71484 8.39802 7.71484 9.24076C7.71484 10.0835 8.39802 10.7667 9.24076 10.7667Z" stroke="white" stroke-width="2.03455" stroke-linecap="round" stroke-linejoin="round"/>
</svg>
