<svg width="365" height="123" viewBox="0 0 365 123" fill="none" xmlns="http://www.w3.org/2000/svg">
<g clip-path="url(#clip0_305_25930)">
<path d="M206.995 88.1342C206.995 89.1514 206.995 89.9259 206.995 90.7698C204.421 90.7698 202.07 90.7698 199.492 90.7698C199.492 76.4826 199.492 62.2211 199.492 47.7812C201.67 47.7812 203.894 47.7812 206.21 47.7812C206.473 48.8549 206.738 49.9427 207.114 51.4817C210.586 47.4285 214.877 46.1436 219.842 47.0658C223.438 47.7339 226.321 49.5829 228.543 52.4592C233.418 58.7697 232.765 68.7738 227.137 74.2935C221.794 79.5326 213.973 79.6415 206.995 74.1715C206.995 78.9958 206.995 83.4437 206.995 88.1342ZM215.962 71.4004C220.764 70.4863 223.385 67.8524 223.727 63.6C224.086 59.1324 221.942 55.4163 218.204 54.206C214.846 53.1191 211.772 53.6752 209.324 56.3145C206.682 59.1627 206.302 62.6041 207.604 66.0895C208.925 69.6264 211.717 71.3825 215.962 71.4004Z" fill="#070707"/>
<path d="M340.104 48.7694C345.196 46.2995 350.204 46.0326 355.185 48.3699C361.153 51.17 364.299 57.8128 362.828 64.5134C355.491 64.5134 348.097 64.5134 340.53 64.5134C340.638 67.7537 342.097 69.8708 344.757 71.0484C347.482 72.2547 350.635 72.4985 352.53 70.1216C354.335 67.8585 356.323 68.1062 358.527 68.074C359.662 68.0574 360.797 68.071 361.942 68.071C361.25 73.2341 356.012 77.6149 349.868 78.2418C342.391 79.0049 335.873 75.2046 333.517 68.7089C330.811 61.2453 333.399 53.2493 340.104 48.7694ZM343.007 55.0604C342.127 56.3605 341.247 57.6605 340.093 59.3672C345.544 59.3672 350.254 59.3672 354.95 59.3672C354.987 59.0564 355.05 58.8792 355.022 58.7178C354.123 53.5613 348.637 51.73 343.007 55.0604Z" fill="#070707"/>
<path d="M133.292 46.8302C139.607 47.66 143.429 50.983 143.78 56.835C144.187 63.605 143.875 70.418 143.875 77.3842C141.502 77.3842 139.025 77.3842 136.263 77.3842C136.263 72.7848 136.267 68.2657 136.26 63.7467C136.259 62.5245 136.295 61.296 136.19 60.0811C135.819 55.7781 133.995 53.7269 130.494 53.5814C126.319 53.408 123.274 55.6877 122.883 59.8338C122.524 63.6469 122.698 67.5109 122.654 71.3526C122.633 73.272 122.65 75.1919 122.65 77.333C120.08 77.333 117.603 77.333 114.93 77.333C114.93 67.5787 114.93 57.7599 114.93 47.7728C117.156 47.7728 119.372 47.7728 121.649 47.7728C121.84 49.0587 122.016 50.2501 122.289 52.0926C125.168 48.2021 128.715 46.5883 133.292 46.8302Z" fill="#070707"/>
<path d="M255.047 65.3315C254.051 57.9671 256.954 51.7563 262.679 48.6704C268.338 45.6208 275.474 46.3371 280.344 50.4435C285.443 54.7441 287.085 62.7865 284.213 69.4042C281.562 75.5156 274.985 79.133 268.175 78.2265C261.19 77.2968 256.227 72.4865 255.047 65.3315ZM274.375 70.0325C277.825 66.9474 278.732 61.055 276.297 57.172C274.792 54.7723 272.584 53.4683 269.725 53.6958C266.778 53.9302 264.539 55.5053 263.657 58.3094C263.076 60.159 262.892 62.2505 263.046 64.1927C263.532 70.3079 268.541 73.0019 274.375 70.0325Z" fill="#070707"/>
<path d="M185.1 47.5238C195.731 51.2363 197.343 62.5723 193.968 69.8589C190.3 77.7763 179.96 80.7605 172.241 76.2627C165.701 72.4526 163 64.1833 165.803 56.5526C168.342 49.6398 175.649 45.6334 183.107 47.0681C183.708 47.1836 184.304 47.32 185.1 47.5238ZM187.462 60.9597C187.087 57.7961 185.71 55.3282 182.595 54.1367C178.949 52.7418 174.871 54.6699 173.469 58.4097C171.479 63.7151 173.478 69.6296 177.919 70.9752C179.311 71.3971 181.049 71.3645 182.449 70.943C186.129 69.835 187.624 66.7648 187.462 60.9597Z" fill="#070707"/>
<path d="M298.516 76.4243C297.812 76.9555 297.126 77.4644 296.409 77.5135C294.596 77.6374 292.77 77.5546 290.698 77.5546C290.698 69.7204 290.698 62.08 290.698 54.3048C289.256 54.2329 288.057 54.1732 286.727 54.1068C286.727 52.0203 286.727 49.968 286.727 47.711C287.93 47.642 289.107 47.5746 290.444 47.498C290.932 43.4111 289.933 38.8495 293.942 35.9611C296.997 33.7605 300.519 34.0299 304.156 34.2451C304.156 36.3782 304.156 38.425 304.156 40.462C298.246 41.7338 298 42.0502 298.816 47.6041C299.791 47.6041 300.812 47.6041 301.834 47.6041C302.781 47.6041 303.728 47.6041 304.831 47.6041C304.831 49.8549 304.831 51.8919 304.831 54.1267C302.812 54.1267 300.832 54.1267 298.521 54.1267C298.521 61.6085 298.521 68.9006 298.516 76.4243Z" fill="#070707"/>
<path d="M149.662 44.7695C150.079 36.068 153.735 33.3088 163.247 34.3267C163.247 36.3939 163.247 38.4683 163.247 40.5289C157.293 41.5408 157.179 41.684 157.748 47.5351C159.695 47.5351 161.668 47.5351 163.791 47.5351C163.791 49.7799 163.791 51.8428 163.791 54.0724C161.857 54.0724 159.885 54.0724 157.612 54.0724C157.612 61.9333 157.612 69.6392 157.612 77.4226C154.814 77.4226 152.319 77.4226 149.624 77.4226C149.624 69.6435 149.624 61.9941 149.624 54.1965C148.231 54.1965 147.036 54.1965 145.695 54.1965C145.695 51.9996 145.695 49.9525 145.695 47.7344C146.933 47.6632 148.133 47.5941 149.662 47.5061C149.662 46.6808 149.662 45.8503 149.662 44.7695Z" fill="#070707"/>
<path d="M320.893 75.5253C320.893 61.6641 320.893 48.0466 320.893 34.2856C323.506 34.2856 326.001 34.2856 328.644 34.2856C328.644 48.6047 328.644 62.9598 328.644 77.5539C326.508 77.5539 324.423 77.6756 322.371 77.4722C321.827 77.4182 321.383 76.3639 320.893 75.5253Z" fill="#070707"/>
<path d="M243.398 75.9563C242.936 76.645 242.501 77.4561 242.01 77.4909C239.942 77.6377 237.857 77.553 235.637 77.553C235.637 67.5582 235.637 57.8031 235.637 47.8256C237.803 47.8256 240.022 47.8256 242.422 47.8256C242.665 49.1961 242.928 50.6841 243.267 52.5953C246.127 48.7705 249.574 46.7898 254.117 46.8408C254.117 49.67 254.117 52.3404 254.117 55.1778C252.952 55.1778 251.907 55.1262 250.868 55.1867C246.184 55.4595 243.623 57.9006 243.442 62.6149C243.274 66.978 243.401 71.3523 243.398 75.9563Z" fill="#070707"/>
<path d="M312.888 77.554C311.26 77.5542 309.876 77.5542 308.352 77.5542C308.352 67.5395 308.352 57.7128 308.352 47.7446C310.837 47.7446 313.332 47.7446 315.963 47.7446C315.963 57.6279 315.963 67.4543 315.963 77.5539C315.012 77.5539 314.073 77.5539 312.888 77.554Z" fill="#070707"/>
<path d="M101.973 60.4803C101.973 56.1241 101.973 52.0304 101.973 47.771C104.604 47.771 107.09 47.771 109.673 47.771C109.673 57.67 109.673 67.4937 109.673 77.4363C107.158 77.4363 104.745 77.4363 101.973 77.4363C101.973 71.8277 101.973 66.2852 101.973 60.4803Z" fill="#070707"/>
<path d="M47.977 91.0977C47.1926 91.6085 46.4267 92.0756 45.629 92.138C43.9958 92.2658 42.3456 92.1763 40.6055 92.1763C40.6055 86.9921 40.6055 82.0598 40.6055 77.0146C42.9714 77.0146 45.2709 77.0146 47.9811 77.0146C47.9811 81.571 47.9811 86.2209 47.977 91.0977Z" fill="#CE076A"/>
<path d="M73.7739 57.981C74.3461 60.3685 74.6855 62.7477 75.06 65.3727C69.6341 65.3727 64.7055 65.3727 59.6973 65.3727C59.6973 63.0044 59.6973 60.6286 59.6973 57.9727C64.3103 57.9727 68.9257 57.9727 73.7739 57.981Z" fill="#2E7B55"/>
<path d="M40.4981 34.8682C40.4981 33.5852 40.4981 32.5573 40.4981 31.3472C43.1223 31.3472 45.5041 31.3472 48.0568 31.3472C48.0568 36.3701 48.0568 41.3023 48.0568 46.4002C45.6821 46.4002 43.2871 46.4002 40.498 46.4002C40.498 42.7095 40.498 38.9164 40.4981 34.8682Z" fill="#FBB240"/>
<path d="M27.4819 83.247C29.4956 79.7759 31.4088 76.4759 33.3563 73.1167C35.5018 74.3506 37.5706 75.5403 39.8502 76.8512C37.3901 81.1082 34.8869 85.4397 32.3132 89.8933C30.1365 88.6453 28.1194 87.4889 25.9219 86.2291C26.4595 85.1936 26.9205 84.3059 27.4819 83.247Z" fill="#0875BE"/>
<path d="M55.7152 73.1287C56.9037 70.8809 58.0922 68.6331 59.3987 66.1621C63.7427 68.6592 68.0054 71.1095 72.5381 73.715C71.3051 75.8517 70.1219 77.9018 68.8142 80.1677C64.4658 77.7146 60.262 75.3431 55.8785 73.0433C55.6987 73.1151 55.7152 73.1287 55.7152 73.1287Z" fill="#CE076A"/>
<path d="M33.1655 50.5709C32.0641 48.3699 31.0113 46.1429 29.8477 43.9753C28.6603 41.7633 27.3641 39.6096 26.002 37.2321C28.1705 35.9713 30.1754 34.8056 32.3748 33.5269C34.9362 37.939 37.4198 42.217 39.904 46.4963C37.6639 47.7631 35.4989 48.9875 33.2315 50.39C33.1291 50.5681 33.1655 50.5709 33.1655 50.5709Z" fill="#3AB54A"/>
<path d="M72.3395 49.5093C68.137 52.2537 63.9088 54.8141 59.5958 57.4258C58.2913 55.1718 57.0983 53.1105 55.7832 50.8382C60.0408 48.38 64.2979 45.9221 68.8439 43.2974C70.0854 45.4543 71.1996 47.3898 72.3395 49.5093Z" fill="#FBB240"/>
<path d="M33.1322 50.5505C31.8464 52.6784 30.5577 54.8243 29.1372 57.1899C24.9646 54.7911 20.7131 52.347 16.1406 49.7184C17.3559 47.5891 18.5313 45.5296 19.8374 43.2412C24.2263 45.7285 28.5054 48.1537 32.9752 50.575C33.1659 50.5713 33.1294 50.5685 33.1322 50.5505Z" fill="#F15E29"/>
<path d="M55.6919 73.1064C55.9106 73.8494 56.0084 74.6725 56.383 75.3404C58.3805 78.9016 60.4474 82.4239 62.6105 86.1678C60.5565 87.3599 58.6189 88.4845 56.3165 89.8209C53.8034 85.502 51.3394 81.2676 48.7734 76.858C51.1094 75.6687 53.2866 74.5601 55.5895 73.2901C55.7152 73.1286 55.6987 73.1149 55.6919 73.1064Z" fill="#0875BE"/>
<path d="M54.3738 49.8947C52.5064 48.7527 50.8063 47.7184 48.8594 46.534C51.2729 42.3294 53.715 38.075 56.3072 33.5591C58.4555 34.7719 60.4589 35.9029 62.8199 37.2358C60.6077 41.0922 58.5004 44.842 56.296 48.5339C55.9268 49.1522 55.1367 49.5192 54.3738 49.8947Z" fill="#8CC63E"/>
<path d="M22.3671 78.5929C21.4487 79.1022 20.6884 79.5044 19.8096 79.9691C18.616 77.9173 17.4812 75.9666 16.1406 73.6621C20.455 71.1667 24.7188 68.7004 29.0921 66.1709C30.3026 68.2671 31.4611 70.2734 32.7757 72.5499C29.417 74.4948 25.9711 76.4902 22.3671 78.5929Z" fill="#CE076A"/>
<path d="M21.5705 57.8975C24.1702 57.8975 26.5089 57.8975 28.97 57.8975C28.97 60.3461 28.97 62.6508 28.97 65.1528C24.0678 65.1528 19.1565 65.1528 14.0801 65.1528C14.0801 62.8523 14.0801 60.5453 14.0801 57.8975C16.5094 57.8975 18.9094 57.8975 21.5705 57.8975Z" fill="#0875BE"/>
<path d="M308.995 42.1148C308.452 39.457 308.148 36.8035 307.82 33.9526C310.74 33.9526 313.214 33.9526 315.852 33.9526C315.852 36.5703 315.852 39.1525 315.852 42.1192C313.695 42.1192 311.464 42.1192 308.995 42.1148Z" fill="#070707"/>
<path d="M105.583 33.793C107.038 33.793 108.241 33.793 109.611 33.793C109.611 36.5657 109.611 39.204 109.611 41.9829C107.162 41.9829 104.684 41.9829 102.047 41.9829C102.047 39.3794 102.047 36.7382 102.047 33.793C103.138 33.793 104.235 33.793 105.583 33.793Z" fill="#070707"/>
<path d="M47.519 19.8103C47.9653 22.3195 48.1883 24.766 48.4347 27.4693C45.6002 27.4693 43.1535 27.4693 40.5996 27.4693C40.5996 24.9806 40.5996 22.5724 40.5996 19.7476C42.862 19.7476 45.0789 19.7476 47.519 19.8103Z" fill="#FBB240"/>
<path d="M41.795 95.8516C43.8439 95.8501 45.6596 95.8501 47.6703 95.8501C47.6703 98.4811 47.6703 100.948 47.6703 103.571C45.3445 103.571 42.9619 103.571 40.319 103.571C40.319 101.377 40.2519 99.2244 40.3753 97.0824C40.4001 96.6514 41.1475 96.2618 41.795 95.8516Z" fill="#CE076A"/>
<path d="M80.5222 58.1167C82.4911 58.1168 84.2192 58.1168 86.0517 58.1168C86.0517 60.7142 86.0517 63.0415 86.0517 65.5422C83.6045 65.5422 81.198 65.5422 78.3477 65.5422C78.3477 63.4778 78.2457 61.3309 78.4352 59.21C78.4724 58.7939 79.6368 58.4784 80.5222 58.1167Z" fill="#2E7B55"/>
<path d="M11.065 38.1165C12.9386 39.2235 14.6565 40.235 16.5186 41.3314C15.2544 43.5219 14.0902 45.5392 12.8096 47.7581C10.5673 46.4808 8.46986 45.286 6.08203 43.9258C7.22869 41.9413 8.25848 40.0541 9.42266 38.2537C9.60405 37.9732 10.3984 38.0887 11.065 38.1165Z" fill="#F15E29"/>
<path d="M14.049 77.9651C14.8339 79.3279 15.5188 80.5285 16.3191 81.9315C14.1496 83.1973 12.0139 84.4435 9.73055 85.7757C8.4785 83.619 7.31652 81.6174 6.02539 79.3934C8.22381 78.1147 10.2852 76.9156 12.5487 75.5991C13.0535 76.3937 13.5013 77.0983 14.049 77.9651Z" fill="#CE076A"/>
<path d="M75.826 84.4968C74.4722 83.6908 73.2806 82.9953 71.9102 82.1954C73.1564 80.0252 74.3471 77.9518 75.6331 75.7124C77.8926 77.0239 79.9615 78.2247 82.3355 79.6026C81.0919 81.7636 79.9127 83.8128 78.6576 85.9938C77.6431 85.4669 76.8157 85.0371 75.826 84.4968Z" fill="#CE076A"/>
<path d="M24.9005 24.5214C25.9458 23.7847 26.6918 23.5097 27.3452 24.7907C28.2501 26.5649 29.2977 28.2663 30.403 30.2074C28.2413 31.4542 26.2305 32.614 24.0152 33.8918C22.7364 31.6867 21.5278 29.6026 20.1758 27.2712C21.7738 26.3455 23.2565 25.4866 24.9005 24.5214Z" fill="#3AB54A"/>
<path d="M24.5875 98.8629C23.0072 97.9466 21.5943 97.1099 19.9238 96.1207C21.1755 93.9322 22.3921 91.8049 23.7499 89.4307C25.9782 90.7076 28.0339 91.8857 30.2376 93.1486C29.1337 95.0845 28.0842 96.7644 27.2001 98.5271C26.5074 99.9082 25.7161 99.6719 24.5875 98.8629Z" fill="#0875BE"/>
<path d="M59.1155 28.7291C60.1249 26.9995 61.0319 25.4304 62.055 23.6606C64.2255 24.8961 66.2319 26.0381 68.5082 27.3338C67.2673 29.5469 66.0999 31.6288 64.73 34.0719C62.7545 32.9478 60.8614 31.9635 59.1008 30.7818C58.7887 30.5723 59.0284 29.5413 59.1155 28.7291Z" fill="#8CC63E"/>
<path d="M80.9811 41.5C81.485 42.4252 81.9061 43.1807 82.4523 44.1607C80.26 45.4319 78.1146 46.6758 75.8093 48.0125C74.5459 45.8753 73.3649 43.8773 72.0117 41.5881C74.223 40.2936 76.3423 39.0529 78.7047 37.6699C79.4988 38.995 80.1986 40.1626 80.9811 41.5Z" fill="#FBB240"/>
<path d="M67.7712 96.4168C65.7867 97.6238 63.9111 98.6942 61.8675 99.8606C60.6032 97.6655 59.4092 95.5922 58.1172 93.3489C60.228 92.1158 62.1591 90.9877 64.4826 89.6304C65.658 91.931 66.7692 94.1056 67.7712 96.4168Z" fill="#0875BE"/>
<path d="M9.80898 65.0752C7.29031 65.2667 4.93727 65.2667 2.22266 65.2667C2.22266 64.0048 2.22266 62.8152 2.22266 61.6255C2.22266 60.5012 2.22266 59.3769 2.22266 58.0776C4.85627 58.0776 7.3263 58.0776 9.97461 58.0776C9.97461 60.3843 9.97461 62.634 9.80898 65.0752Z" fill="#0875BE"/>
</g>
<defs>
<clipPath id="clip0_305_25930">
<rect width="365" height="123" fill="white"/>
</clipPath>
</defs>
</svg>
