<svg width="20" height="20" viewBox="0 0 20 20" fill="none" xmlns="http://www.w3.org/2000/svg">
<mask id="path-1-inside-1_2421_3734" fill="white">
<path fill-rule="evenodd" clip-rule="evenodd" d="M13.7449 11.6172C13.7449 11.8842 13.9286 12.1289 14.1866 12.1975C15.6116 12.5762 16.6616 13.8751 16.6616 15.4193C16.6616 17.2602 15.1692 18.7526 13.3282 18.7526C12.493 18.7526 11.7295 18.4454 11.1446 17.9379C10.828 17.6631 10.4178 17.5017 9.9986 17.5017C9.57652 17.5017 9.16322 17.6641 8.84411 17.9404C8.25958 18.4464 7.49725 18.7526 6.66341 18.7526C4.82246 18.7526 3.33008 17.2602 3.33008 15.4193C3.33008 13.8758 4.37909 12.5774 5.80304 12.198C6.06118 12.1293 6.24488 11.8843 6.24488 11.6172C6.24488 9.805 7.92382 8.33594 9.99488 8.33594C12.066 8.33594 13.7449 9.805 13.7449 11.6172Z"/>
</mask>
<path d="M8.84411 17.9404L7.91686 16.8693L8.84411 17.9404ZM11.1446 17.9379L12.0731 16.8679L11.1446 17.9379ZM14.1866 12.1975L13.8228 13.5667L14.1866 12.1975ZM18.0782 15.4193C18.0782 13.2169 16.5806 11.3679 14.5505 10.8284L13.8228 13.5667C14.6426 13.7845 15.2449 14.5334 15.2449 15.4193H18.0782ZM13.3282 20.1693C15.9516 20.1693 18.0782 18.0426 18.0782 15.4193H15.2449C15.2449 16.4778 14.3868 17.3359 13.3282 17.3359V20.1693ZM10.2161 19.0078C11.0489 19.7305 12.1391 20.1693 13.3282 20.1693V17.3359C12.8469 17.3359 12.4102 17.1604 12.0731 16.8679L10.2161 19.0078ZM6.66341 20.1693C7.85057 20.1693 8.93914 19.7319 9.77136 19.0114L7.91686 16.8693C7.58001 17.161 7.14392 17.3359 6.66341 17.3359V20.1693ZM1.91341 15.4193C1.91341 18.0426 4.04006 20.1693 6.66341 20.1693V17.3359C5.60487 17.3359 4.74674 16.4778 4.74674 15.4193H1.91341ZM5.43835 10.8291C3.40968 11.3696 1.91341 13.2179 1.91341 15.4193H4.74674C4.74674 14.5338 5.3485 13.7852 6.16774 13.567L5.43835 10.8291ZM9.99488 6.91927C7.32502 6.91927 4.82822 8.85082 4.82822 11.6172H7.66155C7.66155 10.7592 8.52261 9.7526 9.99488 9.7526V6.91927ZM15.1616 11.6172C15.1616 8.85082 12.6647 6.91927 9.99488 6.91927V9.7526C11.4672 9.7526 12.3282 10.7592 12.3282 11.6172H15.1616ZM9.9986 16.085C9.21728 16.085 8.479 16.3827 7.91686 16.8693L9.77136 19.0114C9.84744 18.9456 9.93575 18.9183 9.9986 18.9183V16.085ZM6.16774 13.567C7.06204 13.3287 7.66155 12.5097 7.66155 11.6172H4.82822C4.82822 11.2589 5.06032 10.9298 5.43835 10.8291L6.16774 13.567ZM12.0731 16.8679C11.5132 16.382 10.7774 16.085 9.9986 16.085V18.9183C10.0581 18.9183 10.1428 18.9443 10.2161 19.0078L12.0731 16.8679ZM12.3282 11.6172C12.3282 12.5099 12.9281 13.3289 13.8228 13.5667L14.5505 10.8284C14.929 10.929 15.1616 11.2585 15.1616 11.6172H12.3282Z" fill="#393B3D" mask="url(#path-1-inside-1_2421_3734)"/>
<circle cx="2.25" cy="8.08203" r="1.54167" stroke="#393B3D" stroke-width="1.41667"/>
<circle cx="7.33398" cy="4.75" r="1.54167" stroke="#393B3D" stroke-width="1.41667"/>
<circle cx="12.418" cy="4.75" r="1.54167" stroke="#393B3D" stroke-width="1.41667"/>
<circle cx="17.502" cy="8.08203" r="1.54167" stroke="#393B3D" stroke-width="1.41667"/>
</svg>
