<svg width="560" height="477" viewBox="0 0 560 477" fill="none" xmlns="http://www.w3.org/2000/svg">
<path opacity="0.45" d="M317.956 450.677C439.76 450.677 538.502 438.325 538.502 423.088C538.502 407.851 439.76 395.499 317.956 395.499C196.152 395.499 97.4102 407.851 97.4102 423.088C97.4102 438.325 196.152 450.677 317.956 450.677Z" fill="#E6E6E6"/>
<path d="M335.265 197.451C353.271 213.503 364.91 235.491 368.061 259.406C373.334 299.558 424.379 269.324 439.042 225.371L453.125 234.76C453.125 234.76 431.471 309.691 368.061 312.782C304.651 315.873 281.939 214.114 335.265 197.451Z" fill="#7DBCFF"/>
<path opacity="0.46" d="M335.265 197.451C353.271 213.503 364.91 235.491 368.061 259.406C373.334 299.558 424.379 269.324 439.042 225.371L453.125 234.76C453.125 234.76 431.471 309.691 368.061 312.782C304.651 315.873 281.939 214.114 335.265 197.451Z" fill="#7DBCFF"/>
<path opacity="0.3" d="M208.059 128.518C174.999 144.42 151.51 182.456 148.319 227.467C145.625 265.487 159.229 320.169 217.945 329.839C332.201 348.601 451.797 358.072 476.493 294.596C501.189 231.121 473.468 104.119 415.679 99.408C369.725 95.6887 272.593 97.4409 208.059 128.518Z" fill="#E6E6E6"/>
<path d="M313.844 141.513C316.188 145.929 317.934 150.638 319.035 155.514C319.129 156.103 319.105 156.704 318.965 157.284C318.826 157.863 318.572 158.409 318.22 158.89C317.868 159.371 317.425 159.778 316.915 160.087C316.405 160.395 315.839 160.6 315.249 160.688C313.369 161.106 311.409 160.967 309.606 160.289C307.804 159.611 306.238 158.423 305.1 156.87L299.529 150.704C298.543 149.352 298.001 147.728 297.977 146.055C297.954 144.383 298.45 142.744 299.397 141.365C302.653 136.009 311.497 136.538 313.844 141.513Z" fill="#F4A28C"/>
<path d="M303.708 151.861L296.633 180.508L312.7 183.269L311.427 161.862L303.708 151.861Z" fill="#F4A28C"/>
<path d="M316.258 146.687L319.944 148.885C320.149 149.017 320.317 149.198 320.434 149.412C320.55 149.625 320.611 149.865 320.611 150.108C320.611 150.352 320.55 150.591 320.434 150.805C320.317 151.019 320.149 151.2 319.944 151.332L317.101 153.299L316.258 146.687Z" fill="#F4A28C"/>
<path opacity="0.31" d="M311.512 160.737C311.512 160.737 305.611 159.465 303.66 157.613C303.66 157.613 304.206 171.036 312.074 172.788L311.512 160.737Z" fill="#CE8172"/>
<path d="M301.067 149.15C301.067 149.15 296.24 147.597 295.414 151.349C294.587 155.101 299.959 156.688 302.72 153.895C301.622 152.56 301.035 150.878 301.067 149.15Z" fill="#F4A28C"/>
<path d="M235.29 415.964H339.629V341.397H235.29V415.964Z" fill="#E6E6E6"/>
<path opacity="0.08" d="M312.09 415.98L317.098 350.322L338.042 353.513L339.53 373.431L339.629 415.98H312.09Z" fill="black"/>
<path d="M314.702 407.352C314.702 407.352 316.95 413.567 322.554 414.046C328.158 414.526 329.645 420.014 324.604 421.435C319.562 422.857 306.52 416.377 306.52 416.377L306.883 408.277L314.702 407.352Z" fill="#298BF5"/>
<path d="M385.667 408.013C385.667 408.013 391.832 410.343 395.849 406.36C399.866 402.376 404.99 404.839 402.792 409.666C400.593 414.492 387.22 420.129 387.22 420.129L379.914 413.302L385.667 408.013Z" fill="#298BF5"/>
<path d="M314.073 182.954L298.006 180.177C298.006 180.177 244.564 180.177 235.191 198.559C225.819 216.94 227.802 284.979 258.714 340.9L322.008 342.719C322.008 342.719 318.487 301.658 330.273 279.292C342.059 256.927 378.756 209.403 314.073 182.954Z" fill="#298BF5"/>
<path d="M258.727 340.9L289.688 336.222C294.158 335.547 298.723 335.905 303.034 337.267C307.345 338.629 311.287 340.96 314.558 344.081C317.829 347.202 320.342 351.03 321.905 355.272C323.468 359.514 324.039 364.058 323.574 368.555L319.541 407.864H304.35L305.656 371.051C305.733 368.992 305.353 366.941 304.542 365.046C303.731 363.151 302.51 361.46 300.967 360.094C299.424 358.728 297.597 357.721 295.618 357.146C293.639 356.571 291.557 356.442 289.522 356.769C276.348 358.918 260.032 357.992 258.727 340.9Z" fill="#24285B"/>
<path opacity="0.08" d="M264.152 205.122C264.152 205.122 281.707 220.495 278.186 237.488C277.607 240.232 277.012 243.538 276.417 247.174C274.136 261.26 274.994 275.675 278.928 289.391C282.863 303.107 289.778 315.785 299.179 326.519L310.221 339.165L258.73 340.901L254.316 332.272L230.281 292.318L264.152 205.122Z" fill="black"/>
<path d="M234.319 200.245C222.599 216.775 212.169 253.141 221.227 304.517C222.58 312.102 226.437 319.014 232.182 324.147C237.927 329.281 245.227 332.339 252.916 332.833L301.283 335.892V320.105L264.536 314.799C262.525 314.511 260.6 313.791 258.893 312.688C257.187 311.586 255.739 310.127 254.649 308.412C253.559 306.697 252.853 304.767 252.58 302.754C252.306 300.74 252.472 298.692 253.064 296.748C259.544 275.424 269.595 236.81 266.983 209.287C265.462 192.575 244.039 186.558 234.319 200.245Z" fill="#7DBCFF"/>
<path opacity="0.46" d="M234.319 200.245C222.599 216.775 212.169 253.141 221.227 304.517C222.58 312.102 226.437 319.014 232.182 324.147C237.927 329.281 245.227 332.339 252.916 332.833L301.283 335.892V320.105L264.536 314.799C262.525 314.511 260.6 313.791 258.893 312.688C257.187 311.586 255.739 310.127 254.649 308.412C253.559 306.697 252.853 304.767 252.58 302.754C252.306 300.74 252.472 298.692 253.064 296.748C259.544 275.424 269.595 236.81 266.983 209.287C265.462 192.575 244.039 186.558 234.319 200.245Z" fill="#7DBCFF"/>
<path d="M301.348 323.941C301.348 323.941 320.969 323.445 318.175 333.677C315.382 343.909 301.348 335.892 301.348 335.892V323.941Z" fill="#F4A28C"/>
<path d="M366.637 339.562L374.555 294.781H318.369L313.492 332.966L287.738 333.313V339.562H366.637Z" fill="#F2B43C"/>
<path d="M344.261 321.874C347.365 321.874 349.881 319.358 349.881 316.254C349.881 313.15 347.365 310.634 344.261 310.634C341.157 310.634 338.641 313.15 338.641 316.254C338.641 319.358 341.157 321.874 344.261 321.874Z" fill="white"/>
<path opacity="0.58" d="M185.932 398.359C185.932 398.359 170.542 394.161 167.203 379.829C167.203 379.829 191.04 375.019 191.717 399.665L185.932 398.359Z" fill="#298BF5"/>
<path opacity="0.73" d="M187.818 396.822C187.818 396.822 177.074 379.829 186.529 363.944C186.529 363.944 204.712 375.515 196.596 396.872L187.818 396.822Z" fill="#298BF5"/>
<path d="M190.594 396.839C190.594 396.839 196.264 378.887 213.438 375.498C213.438 375.498 216.662 387.152 202.314 396.888L190.594 396.839Z" fill="#298BF5"/>
<path d="M179.434 396.442L182.541 417.782L202.196 417.865L205.088 396.541L179.434 396.442Z" fill="#24285B"/>
<path d="M302.205 160.853C302.205 160.853 286.931 156.803 291.758 146.637C291.758 146.637 286.353 138.025 295.329 133.628C300.618 131.033 308.454 129.661 314.008 128.967C314.761 128.876 315.525 128.998 316.213 129.321C316.9 129.643 317.483 130.152 317.895 130.79C318.307 131.428 318.531 132.168 318.542 132.927C318.554 133.686 318.351 134.433 317.958 135.083C316.439 137.637 314.366 139.817 311.891 141.462C309.416 143.108 306.603 144.176 303.66 144.588C304.661 147.233 305.051 150.07 304.799 152.887C304.547 155.705 303.66 158.428 302.205 160.853Z" fill="#24285B"/>
<path d="M305.991 151.018C305.991 151.018 304.569 147.861 302.271 149.134C299.974 150.407 302.023 154.986 305.462 154.093L305.991 151.018Z" fill="#F4A28C"/>
<path d="M441.352 226.859C441.352 226.859 447.335 206.312 451.733 206.014C456.13 205.717 451.733 217.751 451.733 217.751C451.733 217.751 467.866 221.85 453.204 234.76L441.352 226.859Z" fill="#F4A28C"/>
<path d="M460.153 141.81C485.615 141.81 506.256 121.17 506.256 95.7077C506.256 70.2459 485.615 49.605 460.153 49.605C434.692 49.605 414.051 70.2459 414.051 95.7077C414.051 121.17 434.692 141.81 460.153 141.81Z" fill="#F2B43C"/>
<path opacity="0.46" d="M470.532 112.404C483.541 112.404 494.088 101.857 494.088 88.848C494.088 75.8386 483.541 65.2925 470.532 65.2925C457.523 65.2925 446.977 75.8386 446.977 88.848C446.977 101.857 457.523 112.404 470.532 112.404Z" fill="white"/>
<path opacity="0.46" d="M478.447 98.2863C485.559 98.2863 491.324 92.521 491.324 85.4092C491.324 78.2975 485.559 72.5322 478.447 72.5322C471.336 72.5322 465.57 78.2975 465.57 85.4092C465.57 92.521 471.336 98.2863 478.447 98.2863Z" fill="white"/>
<path d="M487.034 132.95H433.277V174.904H487.034V132.95Z" fill="#24285B"/>
<path d="M472.747 174.904H446.977V191.732H472.747V174.904Z" fill="#24285B"/>
<path opacity="0.75" d="M472.747 174.904H446.977V191.732H472.747V174.904Z" fill="white"/>
<path d="M394.424 65.2926C394.424 65.2926 243.603 16.4294 205.088 83.6411C179.201 128.785 231.42 154.175 259.521 149.993" stroke="#E6E6E6" stroke-width="3.30604" stroke-linecap="round" stroke-linejoin="round" stroke-dasharray="3.31 16.53"/>
<path d="M338.864 338.867L388.157 405.599L378.536 414.476C378.536 414.476 335.657 364.406 312.647 350.306L304.613 339.544L338.864 338.867Z" fill="#24285B"/>
<path d="M245.777 136.576C246.806 139.56 246.913 142.785 246.085 145.831C244.45 152.541 239.031 158.667 232.827 162.217C223.767 167.362 213.161 168.946 203.561 172.997C194.612 176.788 186.706 182.675 180.511 190.163C173.821 198.285 167.381 209.221 156.793 209.127C147.807 209.078 140.729 198.396 144.182 190.073C130.634 192.109 117.814 197.518 106.904 205.805C102.543 209.118 98.4224 212.949 93.2507 214.726C88.0789 216.503 81.4298 215.551 78.6357 210.865C75.4645 205.59 78.6965 198.594 83.3375 194.504C85.7557 192.489 88.3172 190.651 91.0018 189.007C93.5321 187.404 95.8745 185.521 97.9851 183.395C99.0401 182.262 99.9196 180.978 100.595 179.585C102.747 175.258 102.978 169.996 99.5227 166.857C97.6653 165.307 95.3729 164.372 92.9617 164.181C85.3588 163.305 77.8666 166.715 70.215 166.761C62.5635 166.806 53.6567 160.447 56.0668 153.125C58.2302 146.762 65.7746 144.888 74.5102 143.93C83.9825 142.863 94.8278 142.921 101.622 139.485C105.655 137.444 108.262 134.176 108.324 128.719C108.42 119.146 89.6551 110.543 101.023 100.054C108.349 93.3164 120.903 102.48 128.871 96.2335C134.503 91.8069 133.095 83.0691 131.467 76.0907C129.838 69.1124 129.564 59.9489 135.97 56.7107C140.678 54.3353 146.681 57.0718 149.738 61.378C150.718 62.7665 151.509 64.2793 152.089 65.8766C153.295 69.259 154.136 72.7609 154.597 76.3223C155.028 78.912 155.528 81.6329 157.241 83.5734C160.057 86.7539 164.198 86.4495 167.989 84.4075C171.276 82.6053 174.006 79.9362 175.881 76.6905C179.688 69.9378 183.04 61.1515 190.715 59.8496C195.978 58.9559 200.247 62.1153 203.032 66.7704C205.353 70.6984 206.621 75.1586 206.714 79.7198C206.811 89.4233 204.139 99.9401 209.068 108.301C217.099 121.988 240.57 121.636 245.777 136.576Z" fill="#7DBCFF"/>
<path d="M245.774 136.577C246.802 139.561 246.909 142.785 246.082 145.831C244.393 147.133 242.588 148.275 240.689 149.243C231.507 153.938 220.962 155.747 211.293 159.542C202.476 162.979 194.458 168.188 187.734 174.847C180.734 181.863 173.871 191.215 163.468 191.678C154.601 192.063 148.084 183.561 151.837 176.523C138.443 178.809 125.666 183.837 114.304 191.29C109.875 194.231 105.593 197.59 100.404 199.305C95.2152 201.019 90.035 204.781 87.4953 201.059C85.0283 197.45 87.2339 192.616 90.8902 189.07C91.5055 188.419 92.181 187.828 92.9076 187.304C95.7084 184.973 98.2785 182.378 100.583 179.554C102.471 177.296 104.489 175.149 106.626 173.125C110.973 169.207 113.156 162.613 108.898 159.368C107.24 158.087 104.884 157.572 102.544 157.452C95.0572 157.095 87.5347 160.271 79.9762 160.658C72.4177 161.044 63.8964 156.221 66.6428 150.132C67.9497 147.227 70.8045 145.323 74.5263 144.034C83.9985 142.966 94.8439 143.024 101.638 139.589C111.104 138.074 118.865 135.282 119.409 127.47C119.952 119.658 101.815 113.358 113.529 104.14C121.08 98.2245 133.07 105.201 141.2 99.6684C146.994 95.714 145.988 88.5742 144.742 82.8745C143.496 77.1748 143.587 69.536 150.048 66.5911C150.709 66.2897 151.404 66.0693 152.118 65.9349C153.309 69.2999 154.139 72.7822 154.593 76.3228C155.024 78.9125 155.525 81.6334 157.237 83.574C160.054 86.7544 164.194 86.45 167.986 84.408C168.267 85.6803 168.903 86.847 169.82 87.7731C174.611 92.2979 184.439 86.9768 188.515 81.1834C192.422 75.653 195.973 68.6035 203.013 66.7751C205.333 70.7031 206.601 75.1633 206.694 79.7246C206.792 89.428 204.12 99.9449 209.049 108.306C217.096 121.989 240.566 121.636 245.774 136.577Z" fill="url(#paint0_linear_551_9030)"/>
<path d="M99.8566 83.1443C97.2754 81.9572 94.6807 79.9575 94.3558 77.1471C94.2611 76.3675 94.3497 75.5767 94.6144 74.8374C94.8791 74.098 95.3126 73.4307 95.8805 72.8884C96.4485 72.3461 97.1351 71.9438 97.8858 71.7134C98.6366 71.4831 99.4307 71.4311 100.205 71.5617C103.005 72.0227 104.915 74.7506 105.671 77.4933C106.067 78.9433 107.393 83.3798 106.024 84.5281C104.654 85.6763 101.142 83.735 99.8566 83.1443Z" fill="#7DBCFF"/>
<path d="M65.2464 177.171C64.3855 177.857 63.8312 178.856 63.7047 179.949C62.9998 183.473 64.4391 187.713 67.7986 189.004C72.99 190.995 80.8664 188.048 79.7599 181.577C78.8464 176.12 69.3827 174.469 65.2464 177.171Z" fill="#7DBCFF"/>
<path d="M80.1611 81.8203C79.5937 80.4423 78.0606 79.7691 76.665 79.2334C74.2451 78.3022 71.0224 77.5733 69.466 79.6555C68.4157 81.0582 68.8231 83.163 69.9128 84.5319C71.1114 85.8327 72.5815 86.8538 74.2189 87.5228C75.4139 88.2293 76.7547 88.6529 78.1387 88.7613C79.5267 88.7493 81.0119 87.9028 81.2579 86.5445C81.5039 85.1862 80.7173 83.3098 81.9621 82.712" fill="#7DBCFF"/>
<path d="M54.4417 126.861C53.9781 126.582 53.4499 126.429 52.9091 126.417C52.3683 126.405 51.8337 126.534 51.3581 126.792C50.8824 127.049 50.4822 127.426 50.1968 127.886C49.9115 128.345 49.7509 128.871 49.7309 129.412C49.6618 130.93 50.7065 132.287 51.921 133.197C52.7432 133.893 53.7963 134.256 54.873 134.216C56.7106 133.99 57.8343 131.909 57.7568 130.097C57.7434 129.085 57.3569 128.114 56.6713 127.369C56.3362 127.01 55.9049 126.755 55.4288 126.633C54.9527 126.512 54.4518 126.53 53.9857 126.686" fill="#7DBCFF"/>
<path d="M83.3568 96.5324C83.0433 96.3466 82.6873 96.2447 82.3231 96.2364C81.9588 96.2282 81.5985 96.3139 81.277 96.4853C80.9554 96.6567 80.6834 96.908 80.4872 97.215C80.291 97.522 80.1771 97.8744 80.1566 98.2382C80.1795 98.756 80.3273 99.2606 80.5874 99.709C80.8475 100.157 81.2121 100.536 81.6502 100.813C82.2093 101.291 82.9288 101.538 83.6633 101.505C84.9138 101.356 85.6772 99.9398 85.6173 98.6816C85.6132 97.992 85.3491 97.3292 84.8779 96.8257C84.6417 96.5809 84.3397 96.4098 84.0083 96.3332C83.6769 96.2565 83.3304 96.2774 83.0107 96.3935" fill="#7DBCFF"/>
<path d="M166.252 160.29C166.252 160.29 170.32 162.654 171.834 162.433C173.349 162.211 183.378 155.886 184.075 154.838C184.772 153.79 184.179 148.653 184.179 148.653L166.252 160.29Z" fill="url(#paint1_linear_551_9030)"/>
<path d="M177.18 129.143C177.25 129.378 177.369 129.596 177.529 129.781C180.162 132.562 171.599 159.722 154.366 146.228C152.886 145.052 151.505 143.757 150.236 142.356C150.236 142.356 112.887 119.219 114.858 97.5809C116.82 76.0616 142.965 61.8423 163.238 76.8897C178.245 87.9919 175.06 123.323 177.18 129.143Z" fill="#79B5F7"/>
<path d="M177.18 129.143C177.25 129.378 177.369 129.596 177.529 129.781C180.162 132.562 171.599 159.722 154.366 146.228C152.886 145.052 151.505 143.757 150.236 142.356C150.236 142.356 112.887 119.219 114.858 97.5809C116.82 76.0616 142.965 61.8423 163.238 76.8897C178.245 87.9919 175.06 123.323 177.18 129.143Z" fill="url(#paint2_linear_551_9030)"/>
<path d="M177.537 129.78C180.17 132.561 171.607 159.721 154.373 146.227C156.518 141.749 159.717 137.859 163.694 134.888C167.672 131.917 172.31 129.955 177.212 129.169C177.278 129.392 177.388 129.6 177.537 129.78Z" fill="url(#paint3_linear_551_9030)"/>
<path d="M158.766 151.319C159.047 151.484 159.277 151.724 159.43 152.013C159.513 152.311 159.524 152.625 159.463 152.928C159.41 153.751 159.612 154.57 160.041 155.274C160.47 155.979 161.105 156.534 161.861 156.864C160.754 157.999 161.684 160.128 163.169 160.715C164.653 161.301 166.33 160.852 167.823 160.278C173.774 158.167 179.203 154.803 183.743 150.414C185.474 148.726 187.187 146.484 186.659 144.121C185.963 143.773 185.198 143.589 184.421 143.581C184.593 142.535 184.583 141.121 183.554 140.802C183.219 140.702 182.852 140.76 182.511 140.67C182.119 140.511 181.782 140.242 181.54 139.896C181.298 139.549 181.161 139.14 181.145 138.718C181.116 137.872 180.934 137.039 180.607 136.257C180.316 135.798 179.872 135.457 179.353 135.294C178.835 135.13 178.275 135.155 177.773 135.364C174.208 140.285 170.117 145.566 164.178 146.819C161.431 147.377 152.972 146.968 158.766 151.319Z" fill="#7DBCFF"/>
<path d="M158.766 151.319C159.047 151.484 159.277 151.724 159.43 152.013C159.513 152.311 159.524 152.625 159.463 152.928C159.41 153.751 159.612 154.57 160.041 155.274C160.47 155.979 161.105 156.534 161.861 156.864C160.754 157.999 161.684 160.128 163.169 160.715C164.653 161.301 166.33 160.852 167.823 160.278C173.774 158.167 179.203 154.803 183.743 150.414C185.474 148.726 187.187 146.484 186.659 144.121C185.963 143.773 185.198 143.589 184.421 143.581C184.593 142.535 184.583 141.121 183.554 140.802C183.219 140.702 182.852 140.76 182.511 140.67C182.119 140.511 181.782 140.242 181.54 139.896C181.298 139.549 181.161 139.14 181.145 138.718C181.116 137.872 180.934 137.039 180.607 136.257C180.316 135.798 179.872 135.457 179.353 135.294C178.835 135.13 178.275 135.155 177.773 135.364C174.208 140.285 170.117 145.566 164.178 146.819C161.431 147.377 152.972 146.968 158.766 151.319Z" fill="url(#paint4_linear_551_9030)"/>
<path d="M174.061 140.74L172.184 141.369L169.024 131.984C163.066 114.257 160.172 111.131 158.977 110.841C158.889 110.823 158.781 110.794 158.55 110.957C158.276 111.239 158.069 111.58 157.947 111.955C158.91 112.41 159.796 113.012 160.575 113.737C162.081 115.167 162.666 116.732 162.187 118.029C162.077 118.448 161.839 118.821 161.507 119.098C161.175 119.376 160.765 119.542 160.334 119.576C158.744 119.61 157.222 117.725 156.473 115.955C156.1 115.106 155.886 114.197 155.841 113.271C155.148 113.052 154.403 113.065 153.718 113.308C152.854 113.652 152.419 114.653 152.421 116.219C152.417 116.833 152.454 117.446 152.53 118.055C155.055 118.516 157.747 120.598 157.887 122.426C157.948 122.808 157.887 123.199 157.714 123.545C157.541 123.891 157.264 124.174 156.922 124.355C156.447 124.613 155.911 124.739 155.37 124.721C154.829 124.703 154.303 124.541 153.846 124.253C153.094 123.849 151.629 122.724 150.882 120.013C150.254 120.184 149.634 120.753 149.53 122.389C149.185 127.231 161.919 139.928 166.84 144.409L165.506 145.872C163.623 144.161 147.121 128.919 147.555 122.261C147.745 119.294 149.302 118.344 150.526 118.069C150.461 117.449 150.43 116.826 150.434 116.203C150.442 113.177 151.777 111.963 152.929 111.482C153.943 111.094 155.054 111.033 156.105 111.307C156.332 110.652 156.705 110.058 157.197 109.569C157.483 109.268 157.843 109.048 158.241 108.931C158.639 108.813 159.06 108.803 159.464 108.9C161.451 109.375 164.569 112.348 170.923 131.341L174.061 140.74ZM153.02 120.246C153.313 121.193 153.936 122.005 154.776 122.533C154.929 122.641 155.106 122.713 155.291 122.742C155.477 122.771 155.667 122.756 155.846 122.699C155.826 122.013 154.513 120.805 153.02 120.246ZM157.951 114.228C158.025 114.553 158.128 114.87 158.26 115.177C158.923 116.753 159.921 117.573 160.238 117.603C160.238 117.603 160.281 117.516 160.34 117.367C160.522 116.875 160.083 116.029 159.209 115.176C158.821 114.821 158.399 114.503 157.951 114.228Z" fill="white"/>
<defs>
<linearGradient id="paint0_linear_551_9030" x1="176.456" y1="164.436" x2="0.272407" y2="-7.5564" gradientUnits="userSpaceOnUse">
<stop stop-color="#010101" stop-opacity="0"/>
<stop offset="0.54" stop-color="#010101" stop-opacity="0.54"/>
<stop offset="0.95" stop-color="#010101"/>
</linearGradient>
<linearGradient id="paint1_linear_551_9030" x1="167.617" y1="162.446" x2="185.656" y2="150.987" gradientUnits="userSpaceOnUse">
<stop stop-color="#010101" stop-opacity="0"/>
<stop offset="0.95" stop-color="#010101"/>
</linearGradient>
<linearGradient id="paint2_linear_551_9030" x1="127.149" y1="125.68" x2="176.034" y2="94.627" gradientUnits="userSpaceOnUse">
<stop stop-color="white" stop-opacity="0"/>
<stop offset="0.95" stop-color="white"/>
</linearGradient>
<linearGradient id="paint3_linear_551_9030" x1="163.065" y1="134.918" x2="194.588" y2="167.08" gradientUnits="userSpaceOnUse">
<stop stop-color="#010101" stop-opacity="0"/>
<stop offset="0.95" stop-color="#010101"/>
</linearGradient>
<linearGradient id="paint4_linear_551_9030" x1="170.594" y1="156.071" x2="177.075" y2="106.452" gradientUnits="userSpaceOnUse">
<stop stop-color="#010101" stop-opacity="0"/>
<stop offset="0.95" stop-color="#010101"/>
</linearGradient>
</defs>
</svg>
