<svg width="674" height="586" viewBox="0 0 674 586" fill="none" xmlns="http://www.w3.org/2000/svg">
<g opacity="0.4">
<path d="M344.065 47.3031L388.993 160.398C391.461 166.612 392.681 173.251 392.583 179.937C392.485 186.623 391.07 193.224 388.42 199.363C385.77 205.502 381.936 211.058 377.138 215.715C372.339 220.371 366.67 224.037 360.455 226.502L351.971 229.872L371.727 279.603L326.146 240.132L129.813 318.127C123.601 320.594 116.964 321.814 110.281 321.717C103.597 321.62 96.9986 320.207 90.8612 317.559C84.7238 314.912 79.168 311.081 74.511 306.287C69.8539 301.492 66.1869 295.827 63.7191 289.615L18.7914 176.521C16.3198 170.309 15.0967 163.671 15.1921 156.987C15.2876 150.302 16.6996 143.702 19.3475 137.564C21.9954 131.426 25.8272 125.869 30.6239 121.213C35.4206 116.556 41.0881 112.891 47.3023 110.427L277.944 18.8021C284.157 16.33 290.796 15.1063 297.482 15.2008C304.168 15.2953 310.769 16.7063 316.91 19.3531C323.05 21.9998 328.609 25.8305 333.268 30.6263C337.927 35.4221 341.596 41.0889 344.065 47.3031Z" fill="#E5EEFE"/>
<path d="M299.64 57.7184L57.2852 153.996L62.6693 167.549L305.024 71.2716L299.64 57.7184Z" fill="#D2E8FF"/>
<path d="M313.843 93.4703L71.4883 189.748L76.8724 203.301L319.227 107.024L313.843 93.4703Z" fill="#D2E8FF"/>
<path d="M328.046 129.221L85.6914 225.499L91.0755 239.052L333.43 142.774L328.046 129.221Z" fill="#D2E8FF"/>
</g>
<path opacity="0.24" d="M133.659 133.366C122.997 160.437 121.058 190.002 115.581 218.574C109.202 251.748 97.9716 283.801 82.2515 313.702C71.1905 334.751 57.8198 354.942 51.417 377.832C45.9011 397.556 45.8524 418.585 49.6044 438.718C54.128 462.854 63.9392 485.69 78.3339 505.586C86.1302 516.305 95.6125 526.44 107.784 531.78C116.77 535.678 126.691 536.857 136.455 537.861C267.494 551.337 399.639 549.906 530.355 533.592C547.312 531.478 564.464 529.051 580.252 522.552C603.134 513.148 621.709 495.861 639.699 478.924C650.886 468.429 662.357 457.535 668.604 443.522C678.018 422.424 673.993 397.566 665.124 376.283C656.256 355 642.895 335.794 632.965 314.94C619.852 287.299 612.962 257.118 612.782 226.526C612.655 200.907 617.119 174.323 608.231 150.293C598.934 125.171 576.47 107.25 553.081 94.192C515.025 72.9936 472.413 61.2966 428.867 60.0951C366.847 58.4775 306.493 78.0449 244.513 76.9535C193.758 76.057 155.634 77.6064 133.659 133.366Z" fill="#B2CDFC"/>
<path opacity="0.18" d="M574.592 228.796C574.592 241.018 570.968 252.965 564.178 263.128C557.387 273.29 547.736 281.21 536.444 285.888C525.153 290.565 512.728 291.789 500.74 289.404C488.753 287.02 477.742 281.134 469.1 272.492C460.457 263.85 454.572 252.839 452.187 240.851C449.803 228.864 451.027 216.439 455.704 205.147C460.381 193.855 468.302 184.204 478.464 177.414C488.626 170.624 500.574 167 512.796 167C529.184 167.005 544.899 173.517 556.487 185.105C568.075 196.693 574.587 212.408 574.592 228.796Z" fill="#034970"/>
<path d="M552.937 265.18C552.212 267.432 549.45 268.225 547.061 268.372C543.51 268.595 539.949 268.15 536.562 267.06C536.151 266.57 535.309 267.677 535.142 268.294C533.469 274.618 532.358 281.077 531.822 287.597C516.713 292.471 500.309 291.367 485.989 284.512C486.107 280.17 486.368 275.835 486.773 271.506C486.946 270.663 486.807 269.786 486.381 269.038C485.852 268.362 484.589 267.745 484.422 268.578C483.107 269.394 481.673 270.002 480.172 270.38C479.419 270.617 478.623 270.683 477.842 270.572C477.06 270.462 476.313 270.178 475.656 269.741C474.999 269.304 474.447 268.726 474.043 268.049C473.638 267.371 473.39 266.612 473.317 265.826C473.077 264.281 473.077 262.709 473.317 261.164C474.492 251.371 477.234 241.774 480.094 232.294C480.49 230.629 481.151 229.038 482.052 227.583C484.334 224.263 488.604 223.058 492.561 222.373C504.557 220.306 516.065 222.49 528.248 222.823C532.067 222.931 536.405 223.313 538.736 226.349C539.26 227.079 539.71 227.86 540.078 228.68C541.253 231.158 542.438 233.576 543.613 236.074C546.551 242.175 549.489 248.315 551.301 254.828C552.001 257.316 552.531 259.848 552.888 262.408C553.11 263.317 553.126 264.264 552.937 265.18Z" fill="#F2B43C"/>
<path d="M537.09 236.443H484.676V272.042H537.09V236.443Z" fill="white"/>
<path d="M486.499 245.669C486.99 245.683 487.455 245.891 487.792 246.247C487.947 246.474 488.037 246.739 488.053 247.013C488.068 247.288 488.009 247.561 487.88 247.804C487.614 248.288 487.247 248.709 486.803 249.038C485.788 249.886 484.685 250.621 483.512 251.232C484.481 250.296 485.605 249.534 486.832 248.979C487.254 248.755 487.725 248.64 488.203 248.646C488.443 248.655 488.675 248.738 488.866 248.884C489.057 249.029 489.198 249.23 489.271 249.459C489.285 249.702 489.248 249.944 489.16 250.171C489.072 250.398 488.936 250.602 488.761 250.771C487.426 252.4 485.716 253.681 483.777 254.503C484.769 253.744 485.945 253.261 487.185 253.102C487.703 253.006 488.238 253.078 488.712 253.308C488.943 253.431 489.121 253.635 489.213 253.88C489.305 254.125 489.305 254.395 489.212 254.64C489.063 254.873 488.858 255.065 488.614 255.198C487.384 255.972 486.105 256.666 484.785 257.274C485.864 256.95 486.997 256.854 488.115 256.99C488.287 256.996 488.453 257.05 488.595 257.147C488.673 257.226 488.733 257.321 488.768 257.426C488.804 257.532 488.815 257.644 488.801 257.754C488.732 258.733 487.723 259.37 486.842 259.811C485.997 260.298 485.045 260.567 484.07 260.594C483.585 260.593 483.115 260.425 482.738 260.118C482.362 259.812 482.103 259.385 482.004 258.91C482.028 258.579 481.988 258.246 481.886 257.93C481.77 257.757 481.628 257.601 481.465 257.47C481.17 257.131 481.02 256.689 481.048 256.24C481.075 255.791 481.278 255.371 481.612 255.071C481.265 255.006 480.948 254.833 480.704 254.578C480.46 254.323 480.303 253.997 480.254 253.648C480.206 253.298 480.268 252.942 480.433 252.63C480.597 252.317 480.856 252.065 481.172 251.907C480.721 250.942 480.535 249.874 480.633 248.813C481.005 246.864 484.746 245.493 486.499 245.669Z" fill="url(#paint0_linear_551_9091)"/>
<path d="M534.436 245.563C533.894 245.512 533.348 245.555 532.82 245.69C532.557 245.76 532.316 245.896 532.119 246.084C531.922 246.272 531.776 246.507 531.694 246.767C531.479 247.747 532.419 248.501 533.241 249.03L535.122 250.224C534.433 250.236 533.744 250.183 533.065 250.068C532.38 250.068 531.567 250.411 531.488 251.096C531.41 251.782 532.047 252.242 532.624 252.536C533.298 252.872 534.012 253.119 534.75 253.27C533.585 253.327 532.445 253.623 531.4 254.142C531.243 254.198 531.11 254.309 531.028 254.455C530.891 254.788 531.283 255.082 531.616 255.219C532.454 255.561 533.333 255.795 534.231 255.914C533.212 256.083 532.248 256.492 531.42 257.109C531.423 257.297 531.48 257.48 531.584 257.636C531.688 257.792 531.835 257.915 532.007 257.991C532.353 258.127 532.722 258.197 533.095 258.196L536.033 258.382C536.814 258.476 537.605 258.436 538.373 258.265C538.756 258.168 539.109 257.976 539.397 257.705C539.685 257.434 539.899 257.094 540.018 256.717C540.175 256.032 539.705 255.17 539.039 255.209C539.267 255.053 539.457 254.848 539.595 254.609C539.734 254.37 539.819 254.104 539.842 253.828C539.856 253.55 539.786 253.275 539.644 253.036C539.501 252.797 539.29 252.606 539.039 252.487C539.172 252.476 539.3 252.438 539.418 252.376C539.535 252.314 539.639 252.228 539.722 252.125C539.806 252.021 539.867 251.902 539.903 251.774C539.939 251.646 539.948 251.512 539.93 251.38C539.907 251.248 539.857 251.122 539.784 251.01C539.71 250.899 539.615 250.803 539.503 250.73C539.391 250.656 539.265 250.606 539.133 250.584C539.001 250.561 538.866 250.565 538.735 250.597C539.356 249.951 539.706 249.093 539.715 248.197C539.813 245.063 536.542 245.631 534.436 245.563Z" fill="url(#paint1_linear_551_9091)"/>
<path d="M502.795 224.683C503.466 226.148 504.402 227.476 505.556 228.6C506.693 230.045 508.272 231.077 510.052 231.538C511.747 231.704 513.446 231.248 514.831 230.256C516.017 229.558 517.023 228.592 517.769 227.435C518.131 226.858 518.372 226.212 518.476 225.539C518.58 224.865 518.546 224.178 518.376 223.518C517.779 221.491 516.319 219.493 516.123 217.397C515.928 215.301 516.476 213.078 514.625 212.06C513.635 211.578 512.521 211.411 511.432 211.58C509.229 211.834 505.635 212.373 505.674 214.596C505.791 221.02 502.638 224.311 502.795 224.683Z" fill="url(#paint2_linear_551_9091)"/>
<path d="M505.578 217.974C505.578 217.974 508.007 224.751 512.296 224.055C516.586 223.36 516.586 219.766 516.586 219.766L516.126 215.849L505.578 217.974Z" fill="url(#paint3_linear_551_9091)"/>
<path d="M525.716 206.722C525.515 207.282 525.206 207.797 524.806 208.238C524.406 208.678 523.923 209.035 523.385 209.288C523.093 209.427 522.777 209.507 522.454 209.523C521.972 211.443 521.142 213.259 520.006 214.88C518.37 217.26 515.94 218.978 513.151 219.728C511.763 220.088 510.311 220.122 508.908 219.828C507.504 219.534 506.188 218.92 505.061 218.034C503.103 216.378 501.967 213.901 501.144 211.443C501.056 211.178 500.978 210.904 500.889 210.64C500.767 210.746 500.623 210.826 500.468 210.875C500.004 211.031 499.505 211.061 499.025 210.961C498.545 210.861 498.1 210.635 497.736 210.307C497.517 210.092 497.32 209.856 497.148 209.601C496.578 208.904 496.197 208.07 496.042 207.183C496.005 206.898 496.039 206.609 496.14 206.34C496.364 206.026 496.683 205.793 497.05 205.675C497.417 205.557 497.812 205.56 498.177 205.684C498.692 205.779 499.186 205.965 499.636 206.233C499.135 204.242 498.852 202.203 498.794 200.151C498.794 197.389 502.466 194.118 504.67 192.923C507.1 191.806 509.815 191.464 512.446 191.944C513.921 192.085 515.353 192.521 516.657 193.227C518.39 194.433 519.807 196.039 520.79 197.908C521.596 199.121 522.232 200.439 522.68 201.826C522.892 202.562 523.014 203.322 523.042 204.088C523.45 203.604 523.977 203.233 524.57 203.011C524.746 202.939 524.943 202.939 525.118 203.011C525.259 203.095 525.369 203.222 525.432 203.373C525.953 204.411 526.055 205.611 525.716 206.722Z" fill="url(#paint4_linear_551_9091)"/>
<path d="M497.749 193.777C498.019 192.152 498.838 190.668 500.07 189.575C500.954 188.969 501.955 188.555 503.008 188.361C507.792 187.206 512.753 186.987 517.62 187.715C519.251 187.818 520.803 188.454 522.037 189.526C523.663 191.24 523.016 193.924 523.251 196.284C523.976 204.784 522.399 203.883 522.154 206.077C521.332 203.707 520.666 197.88 518.413 196.793C517.169 196.298 515.834 196.071 514.496 196.127C512.312 196.078 505.946 195.745 503.224 198.448C500.119 201.533 500.785 207.742 500.795 208.3C500.795 209.485 497.426 202.101 497.269 200.671C497.027 198.363 497.189 196.029 497.749 193.777Z" fill="#3E3E54"/>
<path d="M510.353 256.012C509.812 256.012 509.331 255.919 508.908 255.734C508.488 255.548 508.153 255.29 507.905 254.96C507.659 254.627 507.526 254.241 507.504 253.802H508.535C508.557 254.072 508.65 254.305 508.814 254.502C508.977 254.695 509.192 254.845 509.456 254.952C509.721 255.058 510.014 255.112 510.336 255.112C510.697 255.112 511.016 255.049 511.294 254.923C511.573 254.798 511.791 254.623 511.949 254.399C512.107 254.176 512.187 253.916 512.187 253.622C512.187 253.313 512.11 253.042 511.957 252.807C511.804 252.57 511.581 252.384 511.286 252.25C510.991 252.117 510.631 252.05 510.205 252.05H509.534V251.149H510.205C510.538 251.149 510.83 251.089 511.081 250.969C511.335 250.849 511.533 250.68 511.675 250.462C511.819 250.243 511.892 249.987 511.892 249.692C511.892 249.408 511.829 249.161 511.703 248.951C511.578 248.741 511.401 248.577 511.171 248.46C510.945 248.343 510.677 248.284 510.369 248.284C510.08 248.284 509.807 248.337 509.55 248.444C509.297 248.547 509.089 248.699 508.928 248.898C508.767 249.094 508.68 249.332 508.666 249.61H507.684C507.7 249.171 507.833 248.786 508.081 248.456C508.329 248.123 508.654 247.864 509.055 247.678C509.459 247.493 509.902 247.4 510.385 247.4C510.904 247.4 511.349 247.505 511.72 247.715C512.091 247.922 512.376 248.197 512.575 248.538C512.775 248.879 512.874 249.247 512.874 249.643C512.874 250.115 512.75 250.517 512.502 250.85C512.256 251.183 511.922 251.414 511.499 251.542V251.608C512.028 251.695 512.442 251.92 512.739 252.283C513.037 252.643 513.185 253.089 513.185 253.622C513.185 254.077 513.061 254.487 512.813 254.85C512.567 255.21 512.232 255.494 511.806 255.701C511.38 255.908 510.896 256.012 510.353 256.012Z" fill="#F2B43C"/>
<path opacity="0.18" d="M299.877 179.753C330.184 179.753 354.753 155.184 354.753 124.877C354.753 94.5691 330.184 70 299.877 70C269.569 70 245 94.5691 245 124.877C245 155.184 269.569 179.753 299.877 179.753Z" fill="#034970"/>
<path d="M334.569 147.046C334.569 145.237 334.734 143.167 333.43 141.915C333.16 142.254 333.873 142.654 334.178 142.341C334.298 142.159 334.371 141.95 334.39 141.733C334.41 141.516 334.376 141.298 334.291 141.097L333.186 136.592C332.879 135.62 332.764 134.598 332.847 133.583C332.894 133.077 333.082 132.594 333.389 132.19C333.697 131.786 334.111 131.476 334.586 131.296C335.065 131.165 335.569 131.217 336.056 131.104C337.943 130.669 338.43 127.913 337.291 126.338C336.152 124.764 334.099 124.173 332.177 123.886C327.044 123.13 321.802 123.817 317.036 125.869C316.897 127.686 318.897 129.182 318.697 131C318.541 132.478 316.958 133.426 315.462 133.496C313.984 133.424 312.522 133.158 311.114 132.704C307.952 132.022 304.652 132.414 301.738 133.818C301.973 136.009 303.556 137.81 305.217 139.218C306.878 140.627 308.826 141.828 310.131 143.619C312.992 147.507 312.74 153.699 316.862 156.151C319.471 157.691 323.254 157.195 325.202 159.534C326.168 160.682 326.429 162.274 327.316 163.483C328.103 164.463 329.245 165.093 330.494 165.236C331.743 165.379 332.998 165.024 333.986 164.248C333.925 164.7 333.758 165.131 333.5 165.507C333.242 165.883 332.899 166.194 332.499 166.414L333.291 167.509C333.438 167.718 337.822 163.822 338.213 163.422C340.248 161.361 340.013 161.056 338.396 158.813C335.915 155.39 334.576 151.273 334.569 147.046Z" fill="url(#paint5_linear_551_9091)"/>
<path d="M264.504 166.371C266.243 158.083 266.4 153.091 268.104 144.803C268.285 143.33 268.816 141.923 269.652 140.698C270.798 139.499 272.256 138.643 273.862 138.228C290.048 132.65 307.537 132.065 324.059 136.55C325.164 136.767 326.198 137.254 327.069 137.967C328.121 138.985 328.434 140.576 328.669 141.994C330.009 150.28 330.73 158.655 330.826 167.049C330.888 167.753 330.784 168.463 330.521 169.119C330.199 169.754 321.824 179.781 296.378 179.477C283.559 179.32 267.191 170.78 264.504 166.371Z" fill="#F2B43C"/>
<path d="M291.005 134.706C290.75 135.405 290.638 136.147 290.675 136.889C290.834 137.658 291.181 138.375 291.684 138.977L293.936 142.221C294.414 143.022 295.058 143.713 295.824 144.247C296.58 144.663 297.441 144.851 298.302 144.786C299.477 144.694 300.619 144.353 301.652 143.787C302.685 143.22 303.585 142.44 304.294 141.499C305.7 139.6 306.615 137.383 306.956 135.046C307.068 134.615 307.068 134.163 306.956 133.732C306.806 133.423 306.622 133.131 306.408 132.863C304.92 130.654 305.825 127.158 303.738 125.514C303.013 125.023 302.186 124.705 301.32 124.583C299.531 124.113 297.67 123.977 295.832 124.183C294.093 124.47 291.693 125.575 291.432 127.523C291.319 128.393 291.719 129.567 291.675 130.506C291.609 131.927 291.385 133.336 291.005 134.706Z" fill="url(#paint6_linear_551_9091)"/>
<path d="M292.23 129.845C292.23 129.845 292.778 135.472 296.414 135.472C300.049 135.472 305.337 131.349 305.537 129.384C305.737 127.418 292.23 129.845 292.23 129.845Z" fill="url(#paint7_linear_551_9091)"/>
<path d="M287.454 124.972C287.746 126.018 288.207 127.008 288.82 127.903C290.246 129.791 292.724 130.512 295.064 130.878C297.297 131.304 299.588 131.33 301.83 130.956C304.086 130.566 306.133 129.396 307.614 127.651C308.586 126.287 309.297 124.753 309.71 123.129C310.57 120.319 311.207 117.446 311.614 114.536C312.081 112.157 311.976 109.701 311.31 107.37C309.814 103.091 305.144 100.578 300.63 100.265C296.116 99.9516 291.681 101.421 287.411 102.943C285.889 103.491 283.828 104.213 283.636 106.092C283.48 107.692 284.167 109.883 284.375 111.51C284.974 116.085 286.005 120.592 287.454 124.972Z" fill="url(#paint8_linear_551_9091)"/>
<path d="M312.983 114.807C313.692 113.864 314.172 112.768 314.383 111.607C314.749 110.089 314.999 108.545 315.131 106.989C315.348 104.38 314.896 101.188 312.522 100.083C312.207 99.9662 311.913 99.7988 311.652 99.5876C311.389 99.2852 311.201 98.9245 311.104 98.5353C310.234 95.8653 307.625 94.1868 305.208 92.7431C303.845 91.8763 302.386 91.1728 300.859 90.6472C296.78 89.4122 292.415 90.6472 288.336 91.8474C284.257 93.0475 279.839 94.2042 275.812 92.8127C275.555 93.4434 275.484 94.1342 275.605 94.8042C275.727 95.4743 276.037 96.0957 276.499 96.5959C276.286 96.6875 276.094 96.8225 275.936 96.9925C275.778 97.1624 275.657 97.3634 275.581 97.5828C275.504 97.8021 275.475 98.0349 275.494 98.2663C275.513 98.4977 275.58 98.7226 275.69 98.9266C276.184 99.7339 276.903 100.378 277.76 100.779C276.96 100.779 276.438 101.744 276.595 102.518C276.827 103.294 277.31 103.97 277.969 104.44C278.937 105.286 279.979 106.042 281.083 106.702C280.332 109.235 280.415 111.942 281.318 114.425C282.221 116.908 283.898 119.036 286.101 120.495C286.528 116.076 286.273 111.617 285.344 107.276L289.536 105.032C289.287 105.15 289.066 105.32 288.888 105.53C288.709 105.739 288.578 105.985 288.501 106.249C291.727 105.823 294.963 105.38 298.215 105.275C299.833 105.214 301.459 105.223 303.077 105.232C304.14 105.155 305.205 105.337 306.182 105.762C307.156 106.378 307.904 107.294 308.312 108.371C309.243 110.433 309.182 112.363 309.582 114.459C309.982 116.529 311.722 116.286 312.983 114.807Z" fill="#3E3E54"/>
<path d="M283.086 116.528C282.928 116.749 282.819 117.002 282.766 117.269C282.714 117.536 282.719 117.811 282.782 118.076C282.911 118.603 283.168 119.09 283.53 119.494C284.26 120.355 285.243 120.964 286.339 121.233L285.2 117.911C285.069 117.511 284.913 116.398 284.608 116.128C284.304 115.858 283.365 116.171 283.086 116.528Z" fill="url(#paint9_linear_551_9091)"/>
<path d="M312.175 115.278C312.367 115.132 312.6 115.053 312.841 115.053C313.081 115.053 313.315 115.132 313.506 115.278C313.616 115.439 313.687 115.623 313.714 115.816C313.741 116.009 313.724 116.206 313.663 116.391C313.598 116.828 313.469 117.253 313.28 117.652C312.997 118.145 312.643 118.594 312.228 118.983C311.723 119.536 311.137 120.008 310.488 120.383L311.358 117.348C311.593 116.478 311.393 115.747 312.175 115.278Z" fill="url(#paint10_linear_551_9091)"/>
<path d="M329.003 122.678H325.359V138.28H329.003V122.678Z" fill="#3E3E54"/>
<path d="M323.089 146.56C322.332 142.464 320.958 138.428 321.114 134.271C321.086 133.197 321.39 132.14 321.984 131.245C323.071 129.801 325.124 129.592 326.924 129.505C328.142 129.345 329.382 129.51 330.516 129.984C332.455 131.001 332.951 133.506 333.238 135.68L333.977 141.437C334.141 142.22 334.102 143.031 333.864 143.794C333.629 144.368 333.16 144.829 332.899 145.394C332.578 146.344 332.547 147.367 332.812 148.334L335.038 161.24C335.472 162.93 335.49 164.699 335.09 166.397C334.316 168.763 332.072 170.267 329.968 171.615C328.509 172.706 326.814 173.439 325.019 173.755C318.601 174.39 320.671 167.893 322.41 164.806C325.15 159.822 324.063 151.917 323.089 146.56Z" fill="url(#paint11_linear_551_9091)"/>
<path d="M325.359 141.313H329.003V155.098C329.003 155.58 328.812 156.042 328.471 156.383C328.13 156.724 327.668 156.915 327.186 156.915C326.704 156.915 326.241 156.724 325.9 156.383C325.56 156.042 325.368 155.58 325.368 155.098V141.313H325.359Z" fill="#3E3E54"/>
<path d="M339.509 110.946H315.105V127.879H339.509V110.946Z" fill="white"/>
<path d="M324.142 123.06V122.405L326.599 119.715C326.887 119.4 327.125 119.126 327.311 118.894C327.498 118.659 327.636 118.438 327.726 118.232C327.818 118.024 327.864 117.806 327.864 117.578C327.864 117.316 327.801 117.09 327.675 116.898C327.551 116.707 327.382 116.559 327.166 116.455C326.95 116.351 326.708 116.298 326.439 116.298C326.153 116.298 325.903 116.358 325.69 116.477C325.479 116.593 325.316 116.756 325.2 116.967C325.086 117.178 325.029 117.425 325.029 117.709H324.171C324.171 117.273 324.271 116.89 324.473 116.56C324.674 116.231 324.947 115.974 325.294 115.79C325.643 115.605 326.034 115.513 326.468 115.513C326.904 115.513 327.291 115.605 327.628 115.79C327.965 115.974 328.229 116.222 328.42 116.535C328.612 116.847 328.707 117.195 328.707 117.578C328.707 117.852 328.658 118.12 328.558 118.381C328.461 118.641 328.292 118.93 328.049 119.25C327.809 119.568 327.476 119.955 327.05 120.413L325.378 122.202V122.26H328.838V123.06H324.142Z" fill="#F2B43C"/>
<path opacity="0.18" d="M205.455 325.052C207.121 335.589 205.937 346.38 202.025 356.305C198.114 366.231 191.617 374.928 183.21 381.495C181.608 382.757 179.939 383.933 178.212 385.018C167.325 391.862 154.521 395.013 141.701 394.004C128.881 392.995 116.728 387.881 107.045 379.419C97.3612 370.958 90.6635 359.6 87.9452 347.031C85.2269 334.462 86.633 321.352 91.9547 309.645C97.2764 297.938 106.23 288.259 117.488 282.043C128.745 275.827 141.707 273.406 154.449 275.139C167.191 276.872 179.035 282.666 188.224 291.662C197.413 300.659 203.457 312.377 205.459 325.08L205.455 325.052Z" fill="#034970"/>
<path d="M156.583 350.942C162.256 354.4 168.221 357.355 174.409 359.772C175.253 360.169 176.173 360.377 177.105 360.383C177.91 360.275 178.672 359.954 179.311 359.454C179.95 358.953 180.444 358.291 180.742 357.535C181.311 356.014 181.599 354.402 181.593 352.777L182.268 341.256C182.213 340.512 182.439 339.775 182.901 339.189C183.732 338.377 185.203 338.826 186.09 339.645C189.836 342.958 188.532 349.034 190.08 353.797C191.27 357.446 200.103 360.234 199.28 362.186C197.837 365.561 195.236 369.99 192.492 372.419C188.603 375.853 180.162 380.294 174.97 380.337C169.557 380.376 164.754 376.75 161.407 372.502C157.592 367.647 155.122 361.874 154.246 355.762" fill="url(#paint12_linear_551_9091)"/>
<path d="M178.519 326.875L174.598 327.494L177.249 344.284L181.17 343.665L178.519 326.875Z" fill="#305354"/>
<path d="M158.689 349.134C157.682 352.171 154.829 354.271 151.968 355.778C149.234 357.169 146.229 358.373 143.169 358.127C141.684 357.97 140.253 357.483 138.981 356.701C137.709 355.919 136.628 354.862 135.818 353.609C134.82 351.831 134.112 349.906 133.718 347.906C132.473 342.875 131.372 337.725 131.821 332.551C132.394 327.68 133.904 322.966 136.268 318.669L136.581 318.044C137.689 317.466 136.507 310.036 137.766 309.627C139.187 309.153 147.496 310.133 144.398 315.179C145.7 317.352 145.575 320.327 146.263 322.741C147.063 325.559 148.765 328.015 150.439 330.417L154.728 336.56C156.107 338.388 157.272 340.366 158.201 342.458C159.13 344.56 159.303 346.919 158.689 349.134Z" fill="#305354"/>
<path d="M183.305 380.357C183.316 380.738 183.286 381.119 183.216 381.493C181.614 382.755 179.945 383.931 178.218 385.016C168.176 391.321 156.486 394.501 144.634 394.152C132.781 393.803 121.299 389.942 111.644 383.057C111.714 380.523 111.351 377.981 111.398 375.422C111.673 366.467 117.795 358.22 125.897 354.428C130.722 352.179 136.218 352.117 141.349 350.712C143.914 350.01 146.546 349.306 149.178 349.63C152.111 349.982 154.693 351.569 157.055 353.288C160.178 355.576 163.047 358.191 165.615 361.087C167.76 363.492 169.7 366.121 172.192 368.174C174.245 369.874 176.633 371.147 178.733 372.781L179.183 373.142C181.417 374.957 183.305 377.499 183.305 380.357Z" fill="#F2B43C"/>
<path d="M147.024 330.934C147.479 334.479 146.51 338.431 143.704 340.648C141.223 342.613 137.4 343.246 136.171 346.154C135.412 347.914 135.902 349.919 136.284 351.796C136.978 354.385 137.002 357.108 136.354 359.708C135.556 362.252 133.403 364.529 130.74 364.739C129.704 364.758 128.676 364.545 127.733 364.114C126.79 363.684 125.956 363.047 125.292 362.251C123.975 360.655 122.948 358.839 122.258 356.888C118.969 348.814 116.851 340.31 115.969 331.636C115.671 328.652 115.529 325.566 116.485 322.749C117.352 320.568 118.613 318.564 120.204 316.838C124.255 312.121 134.039 304.764 139.786 311.521C141.352 313.355 141.238 316.279 142.082 318.468C143.746 322.685 146.43 326.318 147.024 330.934Z" fill="url(#paint13_linear_551_9091)"/>
<path d="M139.246 314.534C137.215 318.142 133.986 320.926 130.118 322.402C129.454 322.662 128.814 322.981 128.207 323.356C123.568 326.237 120.943 329.357 121.493 335.15C121.8 338.373 122.975 341.439 124.007 344.509C125.162 347.615 125.833 350.88 125.996 354.19C126.138 357.532 125.044 360.81 122.921 363.395C121.762 364.626 120.403 365.651 118.901 366.428C116.242 367.998 113.225 368.864 110.138 368.944C108.597 368.975 107.067 368.68 105.649 368.077C104.231 367.474 102.957 366.578 101.912 365.446C101.435 364.956 101.071 364.368 100.843 363.723C100.616 363.079 100.53 362.393 100.593 361.712C100.766 360.866 101.129 360.071 101.655 359.386C103.75 356.254 106.427 353.155 106.513 349.391C106.425 347.272 105.858 345.2 104.856 343.331C102.795 338.966 100.19 334.677 99.5582 329.884C98.6987 323.468 101.598 316.92 106.167 312.323C108.206 310.293 110.708 308.517 113.567 308.277C114.302 308.29 115.034 308.175 115.729 307.935C116.206 307.662 116.63 307.306 116.982 306.884C120.89 302.84 125.874 299.999 131.345 298.698C136.792 297.415 143.273 298.061 146.833 302.382C148.099 303.921 148.883 305.799 149.086 307.781C149.269 309.197 149.018 310.635 148.365 311.905C147.457 313.362 146.085 314.471 144.469 315.052L144.733 314.109C144.656 313.647 144.421 313.225 144.068 312.917C143.715 312.608 143.265 312.432 142.797 312.42C141.849 312.418 140.932 312.757 140.214 313.374C139.811 313.687 139.481 314.082 139.246 314.534Z" fill="#305354"/>
<path d="M192.55 372.423C189.786 375.776 186.663 378.816 183.238 381.491C181.636 382.752 179.967 383.928 178.24 385.014C177.623 380.315 177.955 375.063 178.598 373.302L178.781 372.765C180.568 367.006 178.144 359.004 176.241 353.578C174.732 349.308 172.567 345.189 172.029 340.689C171.815 339.538 171.963 338.349 172.45 337.284C173.375 335.546 175.539 334.974 177.471 334.573C178.755 334.193 180.117 334.16 181.418 334.478C183.679 335.252 184.637 337.854 185.307 340.156C185.894 342.174 186.491 344.19 187.078 346.208C187.395 347.023 187.495 347.906 187.367 348.771C187.203 349.43 186.774 349.997 186.6 350.657C186.412 351.733 186.553 352.841 187.006 353.835C188.529 358.334 190.058 362.837 191.595 367.346C192.249 368.958 192.574 370.684 192.55 372.423Z" fill="url(#paint14_linear_551_9091)"/>
<path d="M177.766 347.548L181.687 346.929L184.029 361.763C184.07 362.02 184.059 362.282 183.999 362.535C183.938 362.788 183.828 363.026 183.675 363.237C183.522 363.447 183.329 363.625 183.107 363.761C182.885 363.897 182.639 363.987 182.382 364.028C181.863 364.11 181.333 363.982 180.908 363.673C180.484 363.364 180.199 362.899 180.117 362.381L177.775 347.546L177.766 347.548Z" fill="#305354"/>
<path d="M187.859 312.464L161.598 316.61L164.475 334.833L190.737 330.686L187.859 312.464Z" fill="white"/>
<path d="M174.788 319.778L176.053 327.789L175.083 327.942L173.978 320.948L173.931 320.956L172.18 322.563L172.025 321.577L173.818 319.931L174.788 319.778Z" fill="#F2B43C"/>
<path d="M316.692 373.387C315.675 375.867 314.374 378.346 314.423 381.073C314.625 383.893 315.856 386.54 317.882 388.511C319.867 390.679 322.327 392.358 325.069 393.418C327.811 394.478 330.76 394.89 333.687 394.623C336.609 394.291 339.389 393.18 341.735 391.407C344.081 389.635 345.908 387.264 347.026 384.544C347.417 383.591 347.627 382.574 347.646 381.544C347.545 380.223 347.248 378.923 346.766 377.689C344.983 372.166 344.222 366.365 344.522 360.569C344.72 356.962 345.043 352.648 342.179 350.441C341.298 349.825 340.31 349.38 339.266 349.127C334.209 347.689 328.852 347.689 323.795 349.127C318.068 350.751 319.667 353.826 319.642 358.66C319.605 363.712 318.604 368.711 316.692 373.387Z" fill="url(#paint15_linear_551_9091)"/>
<path d="M329.218 369.718C332.937 371.242 337.512 371.106 340.375 368.391C343.239 365.676 343.735 361.623 344.094 357.805L344.627 352.561C344.703 352.182 344.665 351.789 344.516 351.433C344.325 351.196 344.083 351.006 343.808 350.877C343.533 350.749 343.232 350.684 342.929 350.689C338.402 350.184 333.84 350.068 329.293 350.342C326.268 350.528 321.942 350.342 320.38 353.515C317.528 359.466 324.136 367.573 329.218 369.718Z" fill="url(#paint16_linear_551_9091)"/>
<path d="M302.46 338.516C304.26 342.978 306.772 347.119 309.898 350.776C317.584 359.193 330.39 362.02 341.348 358.871C352.307 355.722 361.319 347.193 366.278 336.954C371.236 326.714 372.587 314.925 371.397 303.583C370.728 297.384 369.228 290.913 365.348 285.955C362.164 282.108 358.001 279.192 353.298 277.513C344.866 274.26 335.565 274.036 326.985 276.878C318.405 279.72 311.078 285.452 306.254 293.095C297.118 307.599 295.531 322.872 302.46 338.516Z" fill="url(#paint17_linear_551_9091)"/>
<path d="M292.079 320.231C291.532 321.023 291.166 321.926 291.007 322.875C290.849 323.824 290.902 324.796 291.162 325.723C291.703 327.572 292.632 329.284 293.889 330.744C294.245 331.31 294.716 331.796 295.271 332.169C295.826 332.543 296.453 332.796 297.112 332.913C297.753 332.882 298.377 332.695 298.93 332.369C299.483 332.043 299.948 331.587 300.286 331.041C304.302 325.537 297.236 313.525 292.079 320.231Z" fill="url(#paint18_linear_551_9091)"/>
<path d="M373.209 316.387C374.16 316.349 375.102 316.577 375.93 317.046C376.758 317.514 377.439 318.205 377.895 319.04C378.769 320.745 378.951 322.721 378.403 324.556C377.838 326.379 376.906 328.066 375.664 329.515C374.613 330.972 373.168 332.099 371.499 332.763C370.66 333.07 369.746 333.109 368.884 332.874C368.022 332.638 367.255 332.14 366.689 331.449C366.319 330.855 366.059 330.2 365.92 329.515C364.817 325.064 367.78 316.883 373.209 316.387Z" fill="url(#paint19_linear_551_9091)"/>
<path d="M304.518 345.097C305.183 347.36 306.155 349.52 307.407 351.519C309.799 355.089 313.605 357.519 317.423 359.428C319.467 360.486 321.62 361.317 323.844 361.907C326.99 362.562 330.204 362.828 333.414 362.7C340.232 362.638 347.051 362.242 353.856 361.795C355.353 361.829 356.834 361.479 358.158 360.779C359.301 359.919 360.209 358.785 360.798 357.481C364.637 350.807 367.024 343.398 367.802 335.738C367.868 333.048 368.071 330.362 368.41 327.693C369.116 323.751 371.013 319.883 370.468 315.916C368.757 316.362 367.827 318.147 367.12 319.759C365.695 323.044 364.356 326.366 362.757 329.565C361.844 331.556 360.632 333.395 359.162 335.019C355.555 338.738 350.075 339.978 344.894 340.374C340.937 340.639 336.969 340.705 333.005 340.573C326.807 340.449 320.113 340.126 314.993 336.544C308.795 332.18 306.601 323.503 300.117 319.623C299.411 320.862 300.489 322.87 300.589 324.197C300.762 326.676 300.96 329.044 301.32 331.449C301.994 336.081 303.064 340.648 304.518 345.097Z" fill="#606161"/>
<path d="M304.518 345.097C305.183 347.36 306.155 349.52 307.407 351.519C309.799 355.089 313.605 357.519 317.423 359.428C319.467 360.486 321.62 361.317 323.844 361.907C326.99 362.562 330.204 362.828 333.414 362.7C340.232 362.638 347.051 362.242 353.856 361.795C355.353 361.829 356.834 361.479 358.158 360.779C359.301 359.919 360.209 358.785 360.798 357.481C364.637 350.807 367.024 343.398 367.802 335.738C367.868 333.048 368.071 330.362 368.41 327.693C369.116 323.751 371.013 319.883 370.468 315.916C368.757 316.362 367.827 318.147 367.12 319.759C365.695 323.044 364.356 326.366 362.757 329.565C361.844 331.556 360.632 333.395 359.162 335.019C355.555 338.738 350.075 339.978 344.894 340.374C340.937 340.639 336.969 340.705 333.005 340.573C326.807 340.449 320.113 340.126 314.993 336.544C308.795 332.18 306.601 323.503 300.117 319.623C299.411 320.862 300.489 322.87 300.589 324.197C300.762 326.676 300.96 329.044 301.32 331.449C301.994 336.081 303.064 340.648 304.518 345.097Z" fill="url(#paint20_linear_551_9091)"/>
<path d="M339.407 345.321L331.3 345.049C330.05 344.922 328.787 345.04 327.581 345.396C326.977 345.579 326.438 345.928 326.023 346.404C325.609 346.88 325.337 347.463 325.238 348.086C325.245 349.099 325.6 350.079 326.242 350.863C326.564 351.4 326.985 351.871 327.482 352.251C328.523 352.804 329.708 353.025 330.879 352.883L345.457 352.573C345.851 352.596 346.244 352.515 346.597 352.338C346.941 352.091 347.187 351.731 347.292 351.321C347.634 350.284 347.667 349.169 347.388 348.112C347.108 347.056 346.528 346.104 345.717 345.371C344.18 344.206 341.329 345.383 339.407 345.321Z" fill="url(#paint21_linear_551_9091)"/>
<path d="M300.575 322.599C302.037 322.215 302.186 320.219 302.099 318.707C301.654 311.047 303.313 303.412 306.897 296.629C309.512 299.009 313.603 297.657 316.95 296.505C331.243 291.546 346.826 293.182 361.875 294.509C362.404 294.43 362.943 294.541 363.397 294.823C363.851 295.104 364.19 295.538 364.354 296.046C367.881 303.378 369.804 311.378 369.995 319.512C371.235 318.521 373.999 317.74 374.842 316.562C375.437 315.744 375.35 313.463 375.784 312.372C377.024 309.347 379.627 307.141 380.371 303.843C381.759 297.645 376.28 291.67 377.247 285.447C377.705 282.459 379.602 279.906 380.519 277.03C381.169 274.958 381.314 272.762 380.943 270.623C380.572 268.484 379.696 266.464 378.387 264.732C376.602 262.427 373.429 260.654 370.813 261.894C369.945 262.29 369.239 262.984 368.334 263.406C364.54 265.265 360.636 261.46 356.879 259.538C351.003 256.526 343.69 258.299 338.062 261.745C336.289 262.836 334.429 264.15 332.347 264.063C331.052 263.881 329.795 263.487 328.628 262.898C320.706 259.761 311.149 262.414 305.136 268.439C299.124 274.464 296.459 283.315 296.955 291.856C297.128 294.831 297.649 297.905 296.682 300.719C295.095 305.38 293.719 312.273 295.628 317.132C296.075 318.285 299.62 322.835 300.575 322.599Z" fill="#606161"/>
<path d="M300.575 322.599C302.037 322.215 302.186 320.219 302.099 318.707C301.654 311.047 303.313 303.412 306.897 296.629C309.512 299.009 313.603 297.657 316.95 296.505C331.243 291.546 346.826 293.182 361.875 294.509C362.404 294.43 362.943 294.541 363.397 294.823C363.851 295.104 364.19 295.538 364.354 296.046C367.881 303.378 369.804 311.378 369.995 319.512C371.235 318.521 373.999 317.74 374.842 316.562C375.437 315.744 375.35 313.463 375.784 312.372C377.024 309.347 379.627 307.141 380.371 303.843C381.759 297.645 376.28 291.67 377.247 285.447C377.705 282.459 379.602 279.906 380.519 277.03C381.169 274.958 381.314 272.762 380.943 270.623C380.572 268.484 379.696 266.464 378.387 264.732C376.602 262.427 373.429 260.654 370.813 261.894C369.945 262.29 369.239 262.984 368.334 263.406C364.54 265.265 360.636 261.46 356.879 259.538C351.003 256.526 343.69 258.299 338.062 261.745C336.289 262.836 334.429 264.15 332.347 264.063C331.052 263.881 329.795 263.487 328.628 262.898C320.706 259.761 311.149 262.414 305.136 268.439C299.124 274.464 296.459 283.315 296.955 291.856C297.128 294.831 297.649 297.905 296.682 300.719C295.095 305.38 293.719 312.273 295.628 317.132C296.075 318.285 299.62 322.835 300.575 322.599Z" fill="url(#paint22_linear_551_9091)"/>
<path d="M427.967 409.015C428.462 408.123 429.163 407.362 430.012 406.796C430.868 406.372 431.809 406.151 432.764 406.151C436.939 405.866 441.132 406.028 445.272 406.635C446.209 406.683 447.108 407.025 447.838 407.614C448.855 408.618 448.706 410.279 448.458 411.68C445.533 428.783 439.834 445.294 431.587 460.56C431.169 461.527 430.485 462.357 429.616 462.952C428.748 463.436 429.727 463.646 428.723 463.696C419.959 464.117 406.682 463.696 393.207 464.117C395.587 461.824 400.149 458.936 402.12 456.084C405.368 451.386 407.227 445.151 409.818 440.043C415.229 429.34 421.29 418.978 427.967 409.015Z" fill="white"/>
<path d="M433.331 397.486C435.393 393.584 438.719 390.498 442.764 388.734C446.012 387.495 449.582 387.433 453.066 387.395L479.495 387.197C479.841 387.148 480.192 387.172 480.528 387.268C480.863 387.364 481.175 387.53 481.441 387.755C482.123 388.524 481.59 389.726 480.958 390.544C475.578 397.511 465.45 398.056 457.516 401.887C452.942 404.094 449 407.478 444.326 409.474C440.88 410.949 434.322 412.275 431.347 409.003C428.372 405.73 431.583 400.561 433.331 397.486Z" fill="url(#paint23_linear_551_9091)"/>
<path d="M408.184 463.262C391.362 466.286 367.71 466.981 350.652 468.642C323.38 471.381 293.876 461.613 266.517 463.472C265.278 444.878 266.369 418.994 268.699 411.134C271.439 401.527 276.967 392.54 285 386.688C286.513 386.688 290.641 383.255 292.153 382.499C294.843 381.3 297.604 380.269 300.422 379.412C305.445 377.801 310.556 376.48 315.731 375.457C327.248 373.065 340.871 375.631 352.636 376.151C359.85 376.449 367.301 376.796 373.71 379.994C379.474 382.846 383.949 387.68 387.619 392.912C394.362 402.457 406.263 439.522 408.184 463.262Z" fill="white"/>
<path opacity="0.46" d="M361 586C506.803 586 625 579.956 625 572.5C625 565.044 506.803 559 361 559C215.197 559 97 565.044 97 572.5C97 579.956 215.197 586 361 586Z" fill="#8A9CC0"/>
<defs>
<linearGradient id="paint0_linear_551_9091" x1="480.261" y1="253.132" x2="489.32" y2="253.132" gradientUnits="userSpaceOnUse">
<stop stop-color="#E5C5D5"/>
<stop offset="0.42" stop-color="#EAD4D1"/>
<stop offset="1" stop-color="#F0E9CB"/>
</linearGradient>
<linearGradient id="paint1_linear_551_9091" x1="530.969" y1="251.987" x2="539.979" y2="251.987" gradientUnits="userSpaceOnUse">
<stop stop-color="#E5C5D5"/>
<stop offset="0.42" stop-color="#EAD4D1"/>
<stop offset="1" stop-color="#F0E9CB"/>
</linearGradient>
<linearGradient id="paint2_linear_551_9091" x1="502.785" y1="221.53" x2="518.542" y2="221.53" gradientUnits="userSpaceOnUse">
<stop stop-color="#E5C5D5"/>
<stop offset="0.42" stop-color="#EAD4D1"/>
<stop offset="1" stop-color="#F0E9CB"/>
</linearGradient>
<linearGradient id="paint3_linear_551_9091" x1="511.856" y1="230.46" x2="509.691" y2="198.005" gradientUnits="userSpaceOnUse">
<stop stop-opacity="0"/>
<stop offset="0.99"/>
</linearGradient>
<linearGradient id="paint4_linear_551_9091" x1="496.061" y1="205.87" x2="525.96" y2="205.87" gradientUnits="userSpaceOnUse">
<stop stop-color="#E5C5D5"/>
<stop offset="0.42" stop-color="#EAD4D1"/>
<stop offset="1" stop-color="#F0E9CB"/>
</linearGradient>
<linearGradient id="paint5_linear_551_9091" x1="341.579" y1="75.4616" x2="273.647" y2="310.13" gradientUnits="userSpaceOnUse">
<stop stop-opacity="0"/>
<stop offset="0.99"/>
</linearGradient>
<linearGradient id="paint6_linear_551_9091" x1="290.649" y1="134.428" x2="307.034" y2="134.428" gradientUnits="userSpaceOnUse">
<stop stop-color="#E5C5D5"/>
<stop offset="0.42" stop-color="#EAD4D1"/>
<stop offset="1" stop-color="#F0E9CB"/>
</linearGradient>
<linearGradient id="paint7_linear_551_9091" x1="295.909" y1="143.064" x2="304.423" y2="104.502" gradientUnits="userSpaceOnUse">
<stop stop-opacity="0"/>
<stop offset="0.99"/>
</linearGradient>
<linearGradient id="paint8_linear_551_9091" x1="283.619" y1="115.728" x2="311.884" y2="115.728" gradientUnits="userSpaceOnUse">
<stop stop-color="#E5C5D5"/>
<stop offset="0.42" stop-color="#EAD4D1"/>
<stop offset="1" stop-color="#F0E9CB"/>
</linearGradient>
<linearGradient id="paint9_linear_551_9091" x1="282.73" y1="118.581" x2="286.339" y2="118.581" gradientUnits="userSpaceOnUse">
<stop stop-color="#E5C5D5"/>
<stop offset="0.42" stop-color="#EAD4D1"/>
<stop offset="1" stop-color="#F0E9CB"/>
</linearGradient>
<linearGradient id="paint10_linear_551_9091" x1="310.523" y1="117.696" x2="313.715" y2="117.696" gradientUnits="userSpaceOnUse">
<stop stop-color="#E5C5D5"/>
<stop offset="0.42" stop-color="#EAD4D1"/>
<stop offset="1" stop-color="#F0E9CB"/>
</linearGradient>
<linearGradient id="paint11_linear_551_9091" x1="320.636" y1="151.621" x2="335.351" y2="151.621" gradientUnits="userSpaceOnUse">
<stop stop-color="#E5C5D5"/>
<stop offset="0.42" stop-color="#EAD4D1"/>
<stop offset="1" stop-color="#F0E9CB"/>
</linearGradient>
<linearGradient id="paint12_linear_551_9091" x1="164.259" y1="326.104" x2="219.669" y2="475.285" gradientUnits="userSpaceOnUse">
<stop stop-opacity="0"/>
<stop offset="0.99"/>
</linearGradient>
<linearGradient id="paint13_linear_551_9091" x1="117.011" y1="339.146" x2="147.569" y2="334.321" gradientUnits="userSpaceOnUse">
<stop stop-color="#E5C5D5"/>
<stop offset="0.42" stop-color="#EAD4D1"/>
<stop offset="1" stop-color="#F0E9CB"/>
</linearGradient>
<linearGradient id="paint14_linear_551_9091" x1="174.344" y1="360.333" x2="190.442" y2="357.792" gradientUnits="userSpaceOnUse">
<stop stop-color="#E5C5D5"/>
<stop offset="0.42" stop-color="#EAD4D1"/>
<stop offset="1" stop-color="#F0E9CB"/>
</linearGradient>
<linearGradient id="paint15_linear_551_9091" x1="314.448" y1="371.33" x2="347.671" y2="371.33" gradientUnits="userSpaceOnUse">
<stop stop-color="#E5C6D6"/>
<stop offset="0.42" stop-color="#EAD4D0"/>
<stop offset="1" stop-color="#F0E9CB"/>
</linearGradient>
<linearGradient id="paint16_linear_551_9091" x1="327.433" y1="371.23" x2="343.226" y2="325.4" gradientUnits="userSpaceOnUse">
<stop stop-color="#010101" stop-opacity="0"/>
<stop offset="0.95" stop-color="#010101"/>
</linearGradient>
<linearGradient id="paint17_linear_551_9091" x1="298.171" y1="317.516" x2="371.831" y2="317.516" gradientUnits="userSpaceOnUse">
<stop stop-color="#E5C6D6"/>
<stop offset="0.42" stop-color="#EAD4D0"/>
<stop offset="1" stop-color="#F0E9CB"/>
</linearGradient>
<linearGradient id="paint18_linear_551_9091" x1="290.939" y1="325.587" x2="301.476" y2="325.587" gradientUnits="userSpaceOnUse">
<stop stop-color="#E5C6D6"/>
<stop offset="0.42" stop-color="#EAD4D0"/>
<stop offset="1" stop-color="#F0E9CB"/>
</linearGradient>
<linearGradient id="paint19_linear_551_9091" x1="365.697" y1="324.68" x2="378.701" y2="324.68" gradientUnits="userSpaceOnUse">
<stop stop-color="#E5C6D6"/>
<stop offset="0.42" stop-color="#EAD4D0"/>
<stop offset="1" stop-color="#F0E9CB"/>
</linearGradient>
<linearGradient id="paint20_linear_551_9091" x1="299.857" y1="339.308" x2="370.567" y2="339.308" gradientUnits="userSpaceOnUse">
<stop stop-color="#010101" stop-opacity="0"/>
<stop offset="0.95" stop-color="#010101"/>
</linearGradient>
<linearGradient id="paint21_linear_551_9091" x1="325.213" y1="348.867" x2="347.564" y2="348.867" gradientUnits="userSpaceOnUse">
<stop stop-color="#E5C6D6"/>
<stop offset="0.42" stop-color="#EAD4D0"/>
<stop offset="1" stop-color="#F0E9CB"/>
</linearGradient>
<linearGradient id="paint22_linear_551_9091" x1="294.686" y1="290.294" x2="381.102" y2="290.294" gradientUnits="userSpaceOnUse">
<stop stop-color="#010101" stop-opacity="0"/>
<stop offset="0.95" stop-color="#010101"/>
</linearGradient>
<linearGradient id="paint23_linear_551_9091" x1="430.145" y1="399.11" x2="481.764" y2="399.11" gradientUnits="userSpaceOnUse">
<stop stop-color="#E5C6D6"/>
<stop offset="0.42" stop-color="#EAD4D0"/>
<stop offset="1" stop-color="#F0E9CB"/>
</linearGradient>
</defs>
</svg>
