<svg width="301" height="722" viewBox="0 0 301 722" fill="none" xmlns="http://www.w3.org/2000/svg">
<path d="M301 437C301 295.063 185.937 180 44 180H16C-125.937 180 -241 295.063 -241 437V465C-241 606.937 -125.937 722 16 722H44C185.937 722 301 606.937 301 465V437Z" fill="url(#paint0_linear_551_9152)"/>
<path d="M219 180C219 80.5887 138.411 0 39 0C-60.4113 0 -141 80.5887 -141 180C-141 279.411 -60.4113 360 39 360C138.411 360 219 279.411 219 180Z" fill="url(#paint1_linear_551_9152)"/>
<defs>
<linearGradient id="paint0_linear_551_9152" x1="-246.917" y1="445.494" x2="324.878" y2="404.442" gradientUnits="userSpaceOnUse">
<stop stop-color="#3B82F6" stop-opacity="0.2"/>
<stop offset="1" stop-color="#3B82F6" stop-opacity="0"/>
</linearGradient>
<linearGradient id="paint1_linear_551_9152" x1="-144.93" y1="176.343" x2="234.86" y2="149.076" gradientUnits="userSpaceOnUse">
<stop stop-color="#3B82F6" stop-opacity="0.2"/>
<stop offset="1" stop-color="#3B82F6" stop-opacity="0"/>
</linearGradient>
</defs>
</svg>
