<svg width="24" height="24" viewBox="0 0 24 24" fill="none" xmlns="http://www.w3.org/2000/svg">
<path d="M22.9632 16.2888C23.1057 15.8051 22.8292 15.2975 22.3455 15.1549C21.8618 15.0124 21.3542 15.2889 21.2116 15.7726L22.9632 16.2888ZM18.68 20.9497L19.2321 21.6769L19.2321 21.6769L18.68 20.9497ZM12.9693 22.9527L12.9946 23.8654L12.9946 23.8654L12.9693 22.9527ZM7.15231 21.2693L6.64197 22.0264L6.64197 22.0264L7.15231 21.2693ZM3.46671 16.547L2.6072 16.855L2.6072 16.855L3.46671 16.547ZM3.33035 10.6025L2.45767 10.3341L2.45767 10.3341L3.33035 10.6025ZM12.5297 3.78454L12.5446 4.69743L12.5297 3.78454ZM21.2116 15.7726C20.6921 17.5358 19.6135 19.0947 18.1279 20.2225L19.2321 21.6769C21.0243 20.3163 22.3322 18.4302 22.9632 16.2888L21.2116 15.7726ZM18.1279 20.2225C16.6421 21.3504 14.8269 21.9879 12.944 22.0401L12.9946 23.8654C15.2558 23.8027 17.4401 23.0373 19.2321 21.6769L18.1279 20.2225ZM12.944 22.0401C11.0612 22.0923 9.21165 21.5564 7.66265 20.5123L6.64197 22.0264C8.50899 23.2849 10.7335 23.9281 12.9946 23.8654L12.944 22.0401ZM7.66265 20.5123C6.11391 19.4683 4.94678 17.971 4.32622 16.2391L2.6072 16.855C3.36055 18.9576 4.7747 20.7677 6.64197 22.0264L7.66265 20.5123ZM4.32622 16.2391C3.70574 14.5074 3.66268 12.6279 4.20303 10.8709L2.45767 10.3341C1.80131 12.4683 1.85375 14.7522 2.6072 16.855L4.32622 16.2391ZM4.20303 10.8709C4.74345 9.1137 5.84047 7.56699 7.33934 6.45611L6.25206 4.98907C4.44395 6.32913 3.11396 8.20016 2.45767 10.3341L4.20303 10.8709ZM7.33934 6.45611C8.83848 5.34504 10.6612 4.72825 12.5446 4.69743L12.5147 2.87164C10.253 2.90865 8.0599 3.64921 6.25206 4.98907L7.33934 6.45611ZM12.5446 4.69743C14.428 4.66662 16.2709 5.22344 17.8074 6.28507L18.8454 4.78277C16.9933 3.50302 14.7764 2.83464 12.5147 2.87164L12.5446 4.69743Z" fill="#393B3D"/>
<line x1="17.0728" y1="1.44785" x2="18.7418" y2="5.40932" stroke="#393B3D" stroke-width="1.82603" stroke-linecap="round"/>
<line x1="14.6278" y1="6.38973" x2="18.8749" y2="5.71566" stroke="#393B3D" stroke-width="1.82603" stroke-linecap="round"/>
<path d="M8.84151 13.6421H7.16704L6.89861 14.4346H5.7546L7.37795 9.948H8.64339L10.2667 14.4346H9.10994L8.84151 13.6421ZM8.5603 12.7984L8.00428 11.1559L7.45464 12.7984H8.5603ZM12.1157 10.8172C12.3671 10.8172 12.5865 10.8683 12.774 10.9706C12.9657 11.0728 13.1127 11.2071 13.215 11.3732V10.8683H14.3079V14.4282C14.3079 14.7563 14.2418 15.0524 14.1097 15.3165C13.9819 15.585 13.7838 15.798 13.5154 15.9557C13.2512 16.1133 12.921 16.1921 12.5247 16.1921C11.9964 16.1921 11.5682 16.0664 11.2401 15.8151C10.9121 15.5679 10.7246 15.2313 10.6777 14.8053H11.7578C11.7919 14.9416 11.8729 15.0481 12.0007 15.1248C12.1285 15.2058 12.2861 15.2462 12.4736 15.2462C12.6994 15.2462 12.8784 15.1802 13.0105 15.0481C13.1468 14.9203 13.215 14.7136 13.215 14.4282V13.9233C13.1085 14.0894 12.9615 14.2258 12.774 14.3323C12.5865 14.4346 12.3671 14.4857 12.1157 14.4857C11.8217 14.4857 11.5554 14.4111 11.3168 14.262C11.0782 14.1086 10.8886 13.8935 10.748 13.6165C10.6117 13.3353 10.5435 13.0115 10.5435 12.6451C10.5435 12.2786 10.6117 11.9569 10.748 11.68C10.8886 11.403 11.0782 11.19 11.3168 11.0409C11.5554 10.8918 11.8217 10.8172 12.1157 10.8172ZM13.215 12.6514C13.215 12.3788 13.1383 12.1636 12.9849 12.0059C12.8358 11.8483 12.6526 11.7695 12.4353 11.7695C12.218 11.7695 12.0326 11.8483 11.8792 12.0059C11.7301 12.1593 11.6556 12.3724 11.6556 12.6451C11.6556 12.9177 11.7301 13.135 11.8792 13.297C12.0326 13.4546 12.218 13.5334 12.4353 13.5334C12.6526 13.5334 12.8358 13.4546 12.9849 13.297C13.1383 13.1393 13.215 12.9241 13.215 12.6514ZM18.4603 12.5939C18.4603 12.6962 18.4539 12.8027 18.4411 12.9135H15.9677C15.9848 13.135 16.0551 13.3055 16.1786 13.4248C16.3064 13.5398 16.462 13.5973 16.6452 13.5973C16.9179 13.5973 17.1075 13.4823 17.214 13.2522H18.3772C18.3175 13.4866 18.2089 13.6975 18.0512 13.8849C17.8978 14.0724 17.704 14.2194 17.4696 14.3259C17.2353 14.4324 16.9733 14.4857 16.6835 14.4857C16.3341 14.4857 16.0231 14.4111 15.7504 14.262C15.4777 14.1129 15.2647 13.8998 15.1113 13.6229C14.9579 13.3459 14.8812 13.0221 14.8812 12.6514C14.8812 12.2808 14.9558 11.9569 15.1049 11.68C15.2583 11.403 15.4713 11.19 15.744 11.0409C16.0167 10.8918 16.3299 10.8172 16.6835 10.8172C17.0286 10.8172 17.3354 10.8896 17.6038 11.0345C17.8723 11.1794 18.081 11.386 18.2302 11.6544C18.3836 11.9229 18.4603 12.236 18.4603 12.5939ZM17.3418 12.3063C17.3418 12.1189 17.2779 11.9697 17.1501 11.8589C17.0222 11.7482 16.8625 11.6928 16.6707 11.6928C16.4875 11.6928 16.332 11.746 16.2042 11.8526C16.0806 11.9591 16.0039 12.1103 15.9741 12.3063H17.3418Z" fill="#393B3D"/>
</svg>
