<svg width="60" height="60" viewBox="0 0 60 60" fill="none" xmlns="http://www.w3.org/2000/svg">
<g filter="url(#filter0_d_1307_14278)">
<rect x="9" y="9" width="42" height="42" rx="21" fill="white" shape-rendering="crispEdges"/>
<path d="M39.6713 34.085C39.0033 35.6649 37.9584 37.057 36.6281 38.1397C35.2978 39.2224 33.7224 39.9627 32.0399 40.296C30.3573 40.6292 28.6187 40.5452 26.9761 40.0513C25.3335 39.5574 23.8369 38.6687 22.6171 37.4628C21.3974 36.2568 20.4916 34.7705 19.9789 33.1336C19.4663 31.4968 19.3625 29.7593 19.6765 28.073C19.9905 26.3867 20.7128 24.8031 21.7803 23.4604C22.8477 22.1178 24.2278 21.0571 25.7999 20.3711" stroke="#0763C6" stroke-width="2.10015" stroke-linecap="round" stroke-linejoin="round"/>
<path d="M40.5007 29.9988C40.5007 28.6198 40.2291 27.2543 39.7014 25.9803C39.1737 24.7063 38.4002 23.5487 37.4251 22.5736C36.4501 21.5986 35.2925 20.8251 34.0185 20.2974C32.7444 19.7697 31.379 19.498 30 19.498V29.9988H40.5007Z" stroke="#0763C6" stroke-width="2.10015" stroke-linecap="round" stroke-linejoin="round"/>
<rect x="9.20309" y="9.20309" width="41.5938" height="41.5938" rx="20.7969" stroke="#0763C6" stroke-opacity="0.15" stroke-width="0.40619" shape-rendering="crispEdges"/>
</g>
<defs>
<filter id="filter0_d_1307_14278" x="0.470019" y="0.876209" width="59.06" height="59.06" filterUnits="userSpaceOnUse" color-interpolation-filters="sRGB">
<feFlood flood-opacity="0" result="BackgroundImageFix"/>
<feColorMatrix in="SourceAlpha" type="matrix" values="0 0 0 0 0 0 0 0 0 0 0 0 0 0 0 0 0 0 127 0" result="hardAlpha"/>
<feOffset dy="0.40619"/>
<feGaussianBlur stdDeviation="4.26499"/>
<feComposite in2="hardAlpha" operator="out"/>
<feColorMatrix type="matrix" values="0 0 0 0 0 0 0 0 0 0 0 0 0 0 0 0 0 0 0.02 0"/>
<feBlend mode="normal" in2="BackgroundImageFix" result="effect1_dropShadow_1307_14278"/>
<feBlend mode="normal" in="SourceGraphic" in2="effect1_dropShadow_1307_14278" result="shape"/>
</filter>
</defs>
</svg>
