<svg width="24" height="24" viewBox="0 0 24 24" fill="none" xmlns="http://www.w3.org/2000/svg">
<g clip-path="url(#clip0_1509_35247)">
<path d="M1 21.8C1 21.2477 1.44772 20.8 2 20.8H22C22.5523 20.8 23 21.2477 23 21.8V22C23 22.5523 22.5523 23 22 23H2C1.44772 23 1 22.5523 1 22V21.8ZM3.2 13C3.2 12.4477 3.64772 12 4.2 12H4.4C4.95229 12 5.4 12.4477 5.4 13V18.7C5.4 19.2523 4.95229 19.7 4.4 19.7H4.2C3.64772 19.7 3.2 19.2523 3.2 18.7V13ZM8.7 13C8.7 12.4477 9.14772 12 9.7 12H9.9C10.4523 12 10.9 12.4477 10.9 13V18.7C10.9 19.2523 10.4523 19.7 9.9 19.7H9.7C9.14772 19.7 8.7 19.2523 8.7 18.7V13ZM13.1 13C13.1 12.4477 13.5477 12 14.1 12H14.3C14.8523 12 15.3 12.4477 15.3 13V18.7C15.3 19.2523 14.8523 19.7 14.3 19.7H14.1C13.5477 19.7 13.1 19.2523 13.1 18.7V13ZM18.6 13C18.6 12.4477 19.0477 12 19.6 12H19.8C20.3523 12 20.8 12.4477 20.8 13V18.7C20.8 19.2523 20.3523 19.7 19.8 19.7H19.6C19.0477 19.7 18.6 19.2523 18.6 18.7V13ZM1 7.11803C1 6.73926 1.214 6.393 1.55279 6.22361L11.5528 1.22361C11.8343 1.08284 12.1657 1.08284 12.4472 1.22361L22.4472 6.22361C22.786 6.393 23 6.73926 23 7.11803V9.9C23 10.4523 22.5523 10.9 22 10.9H2C1.44772 10.9 1 10.4523 1 9.9V7.11803ZM3.48711 7.71604C3.31115 7.80402 3.2 7.98387 3.2 8.1806C3.2 8.46746 3.43254 8.7 3.7194 8.7H20.2806C20.5675 8.7 20.8 8.46746 20.8 8.1806C20.8 7.98387 20.6888 7.80402 20.5129 7.71604L12.4472 3.68321C12.1657 3.54244 11.8343 3.54244 11.5528 3.68321L3.48711 7.71604ZM12 7.6C11.7083 7.6 11.4285 7.48411 11.2222 7.27782C11.0159 7.07153 10.9 6.79174 10.9 6.5C10.9 6.20826 11.0159 5.92847 11.2222 5.72218C11.4285 5.51589 11.7083 5.4 12 5.4C12.2917 5.4 12.5715 5.51589 12.7778 5.72218C12.9841 5.92847 13.1 6.20826 13.1 6.5C13.1 6.79174 12.9841 7.07153 12.7778 7.27782C12.5715 7.48411 12.2917 7.6 12 7.6Z" fill="#393B3D"/>
</g>
<defs>
<clipPath id="clip0_1509_35247">
<rect width="24" height="24" fill="white"/>
</clipPath>
</defs>
</svg>
