<svg width="24" height="24" viewBox="0 0 24 24" fill="none" xmlns="http://www.w3.org/2000/svg">
<g clip-path="url(#clip0_2209_20407)">
<path d="M0.75 1C0.75 0.861929 0.861929 0.75 1 0.75H23C23.1381 0.75 23.25 0.861929 23.25 1V23C23.25 23.1381 23.1381 23.25 23 23.25H1C0.861929 23.25 0.75 23.1381 0.75 23V1Z" stroke="#393939" stroke-width="1.5"/>
<path d="M14.94 11.86C15.6867 11.9933 16.32 12.3867 16.84 13.04C17.36 13.6933 17.62 14.4333 17.62 15.26C17.62 15.9667 17.4333 16.6067 17.06 17.18C16.7 17.74 16.1733 18.1867 15.48 18.52C14.7867 18.84 13.98 19 13.06 19H7.5V5.1H12.8C13.7467 5.1 14.56 5.26 15.24 5.58C15.92 5.9 16.4333 6.33333 16.78 6.88C17.1267 7.41333 17.3 8.01333 17.3 8.68C17.3 9.48 17.0867 10.1467 16.66 10.68C16.2333 11.2133 15.66 11.6067 14.94 11.86ZM9.78 10.94H12.6C13.3467 10.94 13.9267 10.7733 14.34 10.44C14.7667 10.0933 14.98 9.6 14.98 8.96C14.98 8.33333 14.7667 7.84667 14.34 7.5C13.9267 7.14 13.3467 6.96 12.6 6.96H9.78V10.94ZM12.86 17.14C13.6333 17.14 14.24 16.9533 14.68 16.58C15.12 16.2067 15.34 15.6867 15.34 15.02C15.34 14.34 15.1067 13.8 14.64 13.4C14.1733 13 13.5533 12.8 12.78 12.8H9.78V17.14H12.86Z" fill="#393B3D"/>
</g>
<defs>
<clipPath id="clip0_2209_20407">
<rect width="24" height="24" fill="white"/>
</clipPath>
</defs>
</svg>
