<svg width="32" height="32" viewBox="0 0 32 32" fill="none" xmlns="http://www.w3.org/2000/svg">
<circle cx="15.9997" cy="16.0016" r="13.3324" stroke="#0763C6" stroke-width="2.66649"/>
<path d="M19.333 20C19.1435 20.7628 18.7131 21.4388 18.1096 21.9216C17.5061 22.4044 16.7639 22.6665 15.9999 22.6665C15.2359 22.6665 14.4937 22.4044 13.8902 21.9216C13.2867 21.4388 12.8563 20.7628 12.6668 20" fill="white"/>
<path d="M19.333 20C19.1435 20.7628 18.7131 21.4388 18.1096 21.9216C17.5061 22.4044 16.7639 22.6665 15.9999 22.6665C15.2359 22.6665 14.4937 22.4044 13.8902 21.9216C13.2867 21.4388 12.8563 20.7628 12.6668 20" stroke="#0763C6" stroke-width="2.26651" stroke-linecap="round" stroke-linejoin="round"/>
<path d="M8.19531 14.6641C8.3661 13.9969 8.75409 13.4055 9.2981 12.9832C9.84212 12.5608 10.5112 12.3316 11.1999 12.3315C11.8886 12.3315 12.5578 12.5607 13.1018 12.983C13.6459 13.4052 14.034 13.9965 14.2048 14.6637" stroke="#0763C6" stroke-width="2.26651" stroke-linecap="round" stroke-linejoin="round"/>
<path d="M18 14.6641C18.1708 13.9969 18.5588 13.4055 19.1028 12.9832C19.6468 12.5608 20.3159 12.3316 21.0046 12.3315C21.6933 12.3315 22.3625 12.5607 22.9065 12.983C23.4506 13.4052 23.8386 13.9965 24.0095 14.6637" stroke="#0763C6" stroke-width="2.26651" stroke-linecap="round" stroke-linejoin="round"/>
<path d="M13.3329 3.33594C12.0001 6.00242 14.0001 9.33553 18 7.33567" stroke="#0763C6" stroke-width="2.26651"/>
</svg>
