<svg width="24" height="24" viewBox="0 0 24 24" fill="none" xmlns="http://www.w3.org/2000/svg">
<path d="M15.5875 20.1695H8.40234L8.94667 19.0808V12.0045C11.4724 7.99828 14.136 10.3353 15.152 12.0045V19.0808L15.5875 20.1695Z" stroke="#393B3D" stroke-width="1.28"/>
<circle cx="12.104" cy="6.45316" r="1.75505" stroke="#393B3D" stroke-width="1.28"/>
<path d="M21.4054 3.18604L16.2887 8.62933C15.9403 11.3292 18.0305 12.1493 19.1192 12.2219C19.9901 11.4961 21.8191 9.89218 22.1674 9.28253C22.5158 8.67288 22.1674 8.30274 21.9497 8.19387L19.6635 9.28253C20.2441 8.91964 21.5143 8.10678 21.9497 7.75841C22.3852 7.41004 22.1312 6.23428 21.9497 5.68995L19.6635 7.43181C20.1716 6.99634 21.3401 5.90768 21.9497 5.03676C22.5594 4.16583 21.8408 3.44006 21.4054 3.18604Z" stroke="#393B3D" stroke-width="1.28"/>
<path d="M8.11561 8.41205L2.99825 2.96875C2.56273 3.22277 1.84413 3.94854 2.45385 4.81947C3.06358 5.6904 4.23222 6.77906 4.74033 7.21452L2.5 5C2.31853 5.54433 2.01833 7.19275 2.45385 7.54112C2.88937 7.88949 4.15964 8.70236 4.74033 9.06524L2.43023 7.52081C2.21247 7.62967 1.88768 8.4556 2.23609 9.06524C2.58451 9.67489 4.41369 11.2789 5.28473 12.0046C6.37353 11.932 8.46402 11.1119 8.11561 8.41205Z" stroke="#393B3D" stroke-width="1.28"/>
</svg>
