
<svg width="60" height="60" viewBox="0 0 60 60" fill="none" xmlns="http://www.w3.org/2000/svg">
<g filter="url(#filter0_d_1307_14296)">
<rect x="9" y="9" width="42" height="42" rx="21" fill="white" shape-rendering="crispEdges"/>
<path d="M33.7678 38.5783H26.2229L26.7945 37.4351V30.0045C29.4466 25.7976 32.2436 28.2516 33.3106 30.0045V37.4351L33.7678 38.5783Z" stroke="#0763C6" stroke-width="1.34409"/>
<circle cx="30.1085" cy="24.1751" r="1.84293" stroke="#0763C6" stroke-width="1.34409"/>
<path d="M39.8767 20.7461L34.5038 26.462C34.1379 29.297 36.3328 30.1582 37.476 30.2344C38.3905 29.4723 40.3111 27.788 40.6769 27.1479C41.0427 26.5077 40.6769 26.119 40.4483 26.0047L38.0476 27.1479C38.6573 26.7668 39.991 25.9132 40.4483 25.5474C40.9055 25.1816 40.6388 23.947 40.4483 23.3754L38.0476 25.2045C38.5811 24.7472 39.8081 23.604 40.4483 22.6895C41.0884 21.7749 40.3339 21.0128 39.8767 20.7461Z" stroke="#0763C6" stroke-width="1.34409"/>
<path d="M25.921 26.2315L20.5474 20.5156C20.0901 20.7824 19.3355 21.5445 19.9758 22.459C20.616 23.3736 21.8432 24.5167 22.3768 24.974L20.0242 22.6486C19.8337 23.2202 19.5185 24.9511 19.9758 25.3169C20.4331 25.6828 21.767 26.5363 22.3768 26.9174L19.951 25.2956C19.7223 25.4099 19.3813 26.2772 19.7471 26.9174C20.113 27.5576 22.0338 29.2418 22.9484 30.004C24.0917 29.9277 26.2869 29.0666 25.921 26.2315Z" stroke="#0763C6" stroke-width="1.34409"/>
<rect x="9.20309" y="9.20309" width="41.5938" height="41.5938" rx="20.7969" stroke="#0763C6" stroke-opacity="0.15" stroke-width="0.40619" shape-rendering="crispEdges"/>
</g>
<defs>
<filter id="filter0_d_1307_14296" x="0.470019" y="0.876209" width="59.06" height="59.06" filterUnits="userSpaceOnUse" color-interpolation-filters="sRGB">
<feFlood flood-opacity="0" result="BackgroundImageFix"/>
<feColorMatrix in="SourceAlpha" type="matrix" values="0 0 0 0 0 0 0 0 0 0 0 0 0 0 0 0 0 0 127 0" result="hardAlpha"/>
<feOffset dy="0.40619"/>
<feGaussianBlur stdDeviation="4.26499"/>
<feComposite in2="hardAlpha" operator="out"/>
<feColorMatrix type="matrix" values="0 0 0 0 0 0 0 0 0 0 0 0 0 0 0 0 0 0 0.02 0"/>
<feBlend mode="normal" in2="BackgroundImageFix" result="effect1_dropShadow_1307_14296"/>
<feBlend mode="normal" in="SourceGraphic" in2="effect1_dropShadow_1307_14296" result="shape"/>
</filter>
</defs>
</svg>
