<svg width="15" height="15" viewBox="0 0 15 15" fill="none" xmlns="http://www.w3.org/2000/svg">
<path d="M11.2053 1.22298C11.3739 1.05445 11.5739 0.920765 11.7941 0.829558C12.0143 0.73835 12.2503 0.691406 12.4887 0.691406C12.727 0.691406 12.963 0.73835 13.1832 0.829558C13.4034 0.920765 13.6035 1.05445 13.772 1.22298C13.9405 1.39151 14.0742 1.59158 14.1654 1.81178C14.2566 2.03197 14.3036 2.26798 14.3036 2.50631C14.3036 2.74465 14.2566 2.98065 14.1654 3.20085C14.0742 3.42104 13.9405 3.62112 13.772 3.78965L5.10949 12.4521L1.58032 13.4146L2.54282 9.88548L11.2053 1.22298Z" stroke="white" stroke-width="1.28333" stroke-linecap="round" stroke-linejoin="round"/>
</svg>
