<svg width="322" height="201" viewBox="0 0 322 201" fill="none" xmlns="http://www.w3.org/2000/svg">
<g clip-path="url(#clip0_3363_31599)">
<g clip-path="url(#clip1_3363_31599)">
<path d="M239.56 70.8006C239.56 70.8006 232.011 11.7302 187.472 54.1992C130.376 108.638 91.9963 0.439449 49.6408 44.6051C26.5011 68.7325 87.6474 122.693 46.8103 151.09C5.97326 179.488 39.3445 200.748 39.3445 200.748H271.228C271.228 200.748 295.233 202.481 297.05 172.106C298.864 141.731 270.96 141.363 288.279 103.351C305.597 65.3393 245.002 94.995 239.56 70.8006Z" fill="#F5FBFF"/>
<g opacity="0.5">
<path opacity="0.5" d="M159.47 102.792C166.567 102.792 172.319 97.0393 172.319 89.9429C172.319 82.8465 166.567 77.0938 159.47 77.0938C152.374 77.0938 146.621 82.8465 146.621 89.9429C146.621 97.0393 152.374 102.792 159.47 102.792Z" fill="white" stroke="#4D6173" stroke-width="0.677341" stroke-miterlimit="10"/>
<g opacity="0.5">
<path d="M159.471 85.4609C159.57 86.2083 159.636 86.9579 159.683 87.7052C159.713 88.08 159.724 88.4525 159.744 88.8273C159.765 89.2021 159.769 89.5747 159.783 89.9494L159.688 89.7259C160.184 90.1843 160.67 90.6561 161.153 91.1258C161.632 91.6022 162.113 92.0786 162.578 92.5685C162.815 92.8101 163.045 93.0562 163.273 93.3068C163.503 93.5552 163.731 93.8035 163.955 94.0586C164.407 94.5644 164.847 95.0792 165.265 95.6188C164.718 95.2124 164.192 94.7834 163.677 94.3431C163.418 94.1264 163.163 93.9029 162.91 93.6771C162.654 93.4536 162.404 93.2278 162.156 92.9975C161.654 92.5437 161.169 92.074 160.681 91.6067C160.2 91.1325 159.717 90.6584 159.25 90.1707L159.15 90.0691L159.155 89.9472C159.168 89.5724 159.173 89.1999 159.193 88.8251C159.214 88.4503 159.225 88.0777 159.254 87.7029C159.306 86.9556 159.372 86.2083 159.471 85.4609Z" fill="#4D6173"/>
</g>
</g>
<g opacity="0.2">
<rect x="224.305" y="89.1328" width="28.9106" height="53.8059" fill="white" stroke="#A4B6C6" stroke-width="1.60615"/>
<rect x="224.305" y="135.711" width="28.9106" height="7.22766" stroke="#A4B6C6" stroke-width="1.60615"/>
<rect x="224.305" y="128.484" width="28.9106" height="7.22766" stroke="#A4B6C6" stroke-width="1.60615"/>
<rect x="224.305" y="121.258" width="28.9106" height="7.22766" stroke="#A4B6C6" stroke-width="1.60615"/>
<rect x="224.305" y="114.031" width="28.9106" height="7.22766" stroke="#A4B6C6" stroke-width="1.60615"/>
<rect x="224.305" y="106.797" width="28.9106" height="7.22766" stroke="#A4B6C6" stroke-width="1.60615"/>
<rect x="224.305" y="99.5703" width="28.9106" height="7.22766" stroke="#A4B6C6" stroke-width="1.60615"/>
<rect x="224.305" y="93.9531" width="28.9106" height="5.62151" stroke="#A4B6C6" stroke-width="1.60615"/>
<rect x="195.395" y="89.1328" width="28.9106" height="53.8059" stroke="#A4B6C6" stroke-width="1.60615"/>
<rect x="198.607" y="93.9531" width="22.486" height="44.169" fill="white" stroke="#A4B6C6" stroke-width="1.60615"/>
</g>
<g opacity="0.2">
<path d="M83.8453 102.374L83.1641 105.074H94.2264L93.5452 102.374M83.8453 102.374L86.9485 90.0744V85.2746H88.6952M83.8453 102.374H93.5452M93.5452 102.374L90.4419 90.0744V85.2746H88.6952M88.6952 85.2746C88.4041 82.8747 88.8117 77.2349 92.7708 73.875" stroke="#A4B6C6" stroke-width="1.60615"/>
<rect x="100.049" y="92.7734" width="14.5557" height="12.5996" rx="3.21229" fill="white" stroke="#A4B6C6" stroke-width="1.60615"/>
<path d="M100.049 96.375H114.605" stroke="#A4B6C6" stroke-width="1.60615"/>
<path d="M107.326 92.7762C105.58 92.5762 101.213 91.2762 101.213 87.6764C104.124 87.9763 105.288 88.5763 107.326 92.7762ZM107.326 92.7762C106.065 90.5763 104.357 85.3364 107.617 81.9766C110.645 85.3364 108.685 90.5763 107.326 92.7762ZM107.326 92.7762C107.326 93.0762 109.655 87.6764 114.313 87.3764C114.313 90.0163 109.655 92.0762 107.326 92.7762Z" stroke="#A4B6C6" stroke-width="1.60615"/>
<rect x="77.3418" y="105.375" width="46.5782" height="5.39981" stroke="#A4B6C6" stroke-width="1.60615"/>
</g>
<path d="M39.0508 200.391H260.009" stroke="#A4B6C6" stroke-width="1.60615" stroke-miterlimit="10"/>
<path d="M267.746 200.391H295.054" stroke="#A4B6C6" stroke-width="1.60615" stroke-miterlimit="10"/>
</g>
<rect x="127.322" y="141.344" width="80.1186" height="57.8635" rx="4.28201" fill="#CFD9E2" stroke="#A4B6C6" stroke-width="1.60615"/>
<rect x="122.871" y="141.344" width="72.7002" height="57.8635" rx="4.28201" fill="white" stroke="#A4B6C6" stroke-width="1.60615"/>
<path d="M150.582 166.312C147.824 166.312 145.507 164.547 144.624 162.01C144.403 161.458 144.734 160.907 145.286 160.686C145.838 160.466 146.389 160.797 146.61 161.348C147.162 163.003 148.817 164.216 150.582 164.216C152.348 164.216 154.003 163.113 154.555 161.348C154.776 160.797 155.327 160.466 155.879 160.686C156.431 160.907 156.762 161.458 156.541 162.01C155.658 164.658 153.341 166.312 150.582 166.312Z" fill="#CFD9E2"/>
<path d="M167.245 166.312C164.486 166.312 162.169 164.547 161.286 162.01C161.065 161.458 161.396 160.907 161.948 160.686C162.5 160.466 163.051 160.797 163.272 161.348C163.824 163.003 165.479 164.216 167.245 164.216C169.01 164.216 170.665 163.113 171.217 161.348C171.438 160.797 171.989 160.466 172.541 160.686C173.093 160.907 173.424 161.458 173.203 162.01C172.321 164.658 170.003 166.312 167.245 166.312Z" fill="#CFD9E2"/>
<path d="M158.97 179.817C160.371 179.817 161.508 178.681 161.508 177.279C161.508 175.878 160.371 174.742 158.97 174.742C157.568 174.742 156.432 175.878 156.432 177.279C156.432 178.681 157.568 179.817 158.97 179.817Z" fill="#CFD9E2"/>
<rect x="127.322" y="145.797" width="63.7982" height="48.9614" rx="2.141" stroke="#A4B6C6" stroke-width="0.535251" stroke-dasharray="1.07 1.07"/>
<path d="M174.799 170.278C174.799 166.591 177.788 163.602 181.475 163.602H207.44V176.955H181.475C177.788 176.955 174.799 173.965 174.799 170.278Z" fill="white" stroke="#A4B6C6" stroke-width="1.0705"/>
<circle cx="182.959" cy="170.28" r="3.7092" fill="#CFD9E2" stroke="#A4B6C6" stroke-width="1.0705"/>
<path d="M101.697 107.328V103.594H116.128V107.328L106.281 119.209H116.298V122.943H101.188V119.209L111.035 107.328H101.697Z" fill="#A4B6C6"/>
<path d="M119.998 127.65V125.273H129.336V127.65L123.054 135.287H129.505V137.664H119.658V135.287L125.94 127.65H119.998Z" fill="#A4B6C6"/>
<path d="M80.499 200.735H69.0782C68.7766 200.735 68.515 200.535 68.435 200.246L63.6063 182.768C63.4894 182.343 63.8094 181.922 64.2495 181.922H85.3246C85.7678 181.922 86.0878 182.343 85.9678 182.768L81.1391 200.246C81.0622 200.535 80.8006 200.735 80.499 200.735Z" fill="white" stroke="#A4B6C6" stroke-width="1.60615" stroke-miterlimit="10"/>
<path d="M78.0254 181.922C78.0254 181.922 77.7485 174.422 83.7189 166.922" stroke="#A4B6C6" stroke-width="0.923266" stroke-miterlimit="10"/>
<path d="M63.582 170.566C70.4388 167.891 71.3559 181.919 71.3559 181.919" stroke="#A4B6C6" stroke-width="0.923266" stroke-miterlimit="10"/>
<path d="M74.5363 181.919L73.3945 171.797" stroke="#A4B6C6" stroke-width="0.923266" stroke-miterlimit="10"/>
<path d="M79.7838 168.776L79.7851 168.774C79.8419 168.691 79.9042 168.608 79.97 168.521C79.9866 168.499 80.0034 168.477 80.0204 168.454C81.4046 166.679 82.9974 165.237 85.1314 164.55C87.2452 163.87 89.913 163.923 93.4711 165.168C92.4848 165.185 90.8354 165.302 89.3515 165.818C87.8142 166.353 86.4114 167.334 86.1625 169.118L86.1625 169.118C85.9261 170.829 85.4624 171.999 84.8696 172.763C84.28 173.523 83.5569 173.889 82.778 173.987C79.9736 174.339 78.1403 171.101 79.7838 168.776Z" fill="#CFD9E2" stroke="#A4B6C6" stroke-width="0.307755"/>
<path d="M73.1143 156.285C73.1168 156.507 73.1216 156.795 73.1307 157.134C73.1524 157.947 73.1988 159.051 73.2974 160.215C73.396 161.378 73.547 162.604 73.7789 163.66C74.0088 164.707 74.3242 165.617 74.7692 166.119C75.1606 166.563 75.4234 167.195 75.5543 167.9C75.6851 168.604 75.6823 169.369 75.5526 170.07C75.4226 170.773 75.1672 171.398 74.8031 171.831C74.4426 172.26 73.979 172.497 73.4116 172.447C72.8572 172.397 72.1961 171.898 71.6054 170.983C71.0206 170.077 70.527 168.796 70.2953 167.255C69.847 164.274 70.3806 160.331 73.1143 156.285Z" fill="#CFD9E2" stroke="#A4B6C6" stroke-width="0.307755"/>
<path d="M62.2315 169.661L62.2315 169.661C63.4478 169.283 64.2417 169.514 64.6509 170.033C65.0689 170.562 65.1399 171.454 64.7612 172.511C64.0184 174.584 61.5776 177.169 57.135 178.397C57.1359 178.363 57.1371 178.324 57.1387 178.282C57.1463 178.078 57.1631 177.784 57.1997 177.427C57.2729 176.71 57.4251 175.74 57.7408 174.719C58.3734 172.674 59.6511 170.462 62.2315 169.661Z" fill="#CFD9E2" stroke="#A4B6C6" stroke-width="0.307755"/>
</g>
<defs>
<clipPath id="clip0_3363_31599">
<rect width="321.229" height="200.768" fill="white"/>
</clipPath>
<clipPath id="clip1_3363_31599">
<rect width="270.884" height="167.123" fill="white" transform="translate(26.5 33.7266)"/>
</clipPath>
</defs>
</svg>
