<svg width="311" height="195" viewBox="0 0 311 195" fill="none" xmlns="http://www.w3.org/2000/svg">
<g clip-path="url(#clip0_1321_20948)">
<g clip-path="url(#clip1_1321_20948)">
<path d="M231.773 68.5067C231.773 68.5067 224.47 11.3547 181.377 52.4445C126.135 105.116 89.0021 0.430637 48.0221 43.1619C25.6339 66.5058 84.7944 118.714 45.2835 146.189C5.7727 173.664 38.0602 194.234 38.0602 194.234H262.413C262.413 194.234 285.638 195.911 287.397 166.522C289.152 137.133 262.154 136.777 278.91 99.9999C295.666 63.2228 237.039 91.9154 231.773 68.5067Z" fill="#F5FBFF"/>
<g opacity="0.5">
<path opacity="0.5" d="M154.285 99.4575C161.151 99.4575 166.717 93.8915 166.717 87.0256C166.717 80.1597 161.151 74.5938 154.285 74.5938C147.419 74.5938 141.853 80.1597 141.853 87.0256C141.853 93.8915 147.419 99.4575 154.285 99.4575Z" fill="white" stroke="#4D6173" stroke-width="0.655344" stroke-miterlimit="10"/>
<g opacity="0.5">
<path d="M154.286 82.6836C154.382 83.4067 154.445 84.1319 154.491 84.855C154.519 85.2176 154.53 85.578 154.55 85.9406C154.57 86.3033 154.574 86.6637 154.587 87.0263L154.495 86.8101C154.976 87.2535 155.445 87.7101 155.913 88.1644C156.376 88.6254 156.841 89.0863 157.291 89.5603C157.521 89.7941 157.744 90.0322 157.964 90.2747C158.187 90.5149 158.408 90.7552 158.624 91.0021C159.061 91.4914 159.487 91.9895 159.891 92.5116C159.362 92.1184 158.853 91.7033 158.355 91.2773C158.104 91.0676 157.857 90.8514 157.612 90.6329C157.366 90.4166 157.123 90.1982 156.883 89.9754C156.398 89.5363 155.928 89.0819 155.456 88.6297C154.991 88.171 154.524 87.7123 154.071 87.2404L153.975 87.1421L153.98 87.0241C153.993 86.6615 153.997 86.3011 154.017 85.9385C154.037 85.5758 154.047 85.2154 154.076 84.8528C154.126 84.1297 154.189 83.4067 154.286 82.6836Z" fill="#4D6173"/>
</g>
</g>
<g opacity="0.2">
<rect x="217.014" y="86.25" width="27.9717" height="52.0585" fill="white" stroke="#A4B6C6" stroke-width="1.55398"/>
<rect x="217.014" y="131.316" width="27.9717" height="6.99293" stroke="#A4B6C6" stroke-width="1.55398"/>
<rect x="217.014" y="124.324" width="27.9717" height="6.99293" stroke="#A4B6C6" stroke-width="1.55398"/>
<rect x="217.014" y="117.328" width="27.9717" height="6.99293" stroke="#A4B6C6" stroke-width="1.55398"/>
<rect x="217.014" y="110.336" width="27.9717" height="6.99293" stroke="#A4B6C6" stroke-width="1.55398"/>
<rect x="217.014" y="103.344" width="27.9717" height="6.99293" stroke="#A4B6C6" stroke-width="1.55398"/>
<rect x="217.014" y="96.3516" width="27.9717" height="6.99293" stroke="#A4B6C6" stroke-width="1.55398"/>
<rect x="217.014" y="90.9102" width="27.9717" height="5.43895" stroke="#A4B6C6" stroke-width="1.55398"/>
<rect x="189.042" y="86.25" width="27.9717" height="52.0585" stroke="#A4B6C6" stroke-width="1.55398"/>
<rect x="192.15" y="90.9102" width="21.7558" height="42.7346" fill="white" stroke="#A4B6C6" stroke-width="1.55398"/>
</g>
<g opacity="0.2">
<path d="M81.1166 99.0578L80.4575 101.67H91.1606L90.5015 99.0578M81.1166 99.0578L84.1191 87.1577V82.5138H85.8091M81.1166 99.0578H90.5015M90.5015 99.0578L87.499 87.1577V82.5138H85.8091M85.8091 82.5138C85.5274 80.1918 85.9217 74.7351 89.7523 71.4844" stroke="#A4B6C6" stroke-width="1.55398"/>
<rect x="96.7935" y="89.7695" width="14.083" height="12.1904" rx="3.10797" fill="white" stroke="#A4B6C6" stroke-width="1.55398"/>
<path d="M96.7935 93.25H110.876" stroke="#A4B6C6" stroke-width="1.55398"/>
<path d="M103.835 89.7692C102.145 89.5757 97.9199 88.318 97.9199 84.835C100.737 85.1253 101.863 85.7057 103.835 89.7692ZM103.835 89.7692C102.614 87.6407 100.962 82.5711 104.116 79.3203C107.046 82.5711 105.149 87.6407 103.835 89.7692ZM103.835 89.7692C103.835 90.0594 106.088 84.835 110.595 84.5448C110.595 87.0989 106.088 89.092 103.835 89.7692Z" stroke="#A4B6C6" stroke-width="1.55398"/>
<rect x="74.8242" y="101.961" width="45.0655" height="5.22444" stroke="#A4B6C6" stroke-width="1.55398"/>
</g>
<path d="M37.7756 193.887H251.558" stroke="#A4B6C6" stroke-width="1.55398" stroke-miterlimit="10"/>
<path d="M259.044 193.887H285.465" stroke="#A4B6C6" stroke-width="1.55398" stroke-miterlimit="10"/>
</g>
<rect x="138.698" y="136.73" width="77.5167" height="55.9843" rx="4.14295" fill="#CFD9E2" stroke="#A4B6C6" stroke-width="1.55398"/>
<rect x="134.38" y="136.73" width="70.3392" height="55.9843" rx="4.14295" fill="white" stroke="#A4B6C6" stroke-width="1.55398"/>
<path d="M161.199 160.889C158.529 160.889 156.287 159.181 155.433 156.727C155.22 156.193 155.54 155.659 156.074 155.446C156.608 155.232 157.142 155.552 157.355 156.086C157.889 157.687 159.49 158.861 161.199 158.861C162.907 158.861 164.508 157.794 165.042 156.086C165.255 155.552 165.789 155.232 166.323 155.446C166.857 155.659 167.177 156.193 166.964 156.727C166.11 159.288 163.868 160.889 161.199 160.889Z" fill="#CFD9E2"/>
<path d="M177.319 160.889C174.65 160.889 172.408 159.181 171.554 156.727C171.34 156.193 171.66 155.659 172.194 155.446C172.728 155.232 173.262 155.552 173.475 156.086C174.009 157.687 175.611 158.861 177.319 158.861C179.027 158.861 180.628 157.794 181.162 156.086C181.376 155.552 181.91 155.232 182.443 155.446C182.977 155.659 183.298 156.193 183.084 156.727C182.23 159.288 179.988 160.889 177.319 160.889Z" fill="#CFD9E2"/>
<path d="M169.308 173.953C170.664 173.953 171.763 172.853 171.763 171.498C171.763 170.142 170.664 169.043 169.308 169.043C167.952 169.043 166.852 170.142 166.852 171.498C166.852 172.853 167.952 173.953 169.308 173.953Z" fill="#CFD9E2"/>
<rect x="138.688" y="141.039" width="61.7263" height="47.3713" rx="2.07147" stroke="#A4B6C6" stroke-width="0.517868" stroke-dasharray="1.04 1.04"/>
<path d="M77.8783 194.214H66.8284C66.5366 194.214 66.2835 194.02 66.2061 193.74L61.5342 176.831C61.4211 176.42 61.7308 176.012 62.1566 176.012H82.5472C82.976 176.012 83.2857 176.42 83.1695 176.831L78.4977 193.74C78.4232 194.02 78.1701 194.214 77.8783 194.214Z" fill="white" stroke="#A4B6C6" stroke-width="1.55398" stroke-miterlimit="10"/>
<path d="M75.4841 176.013C75.4841 176.013 75.2161 168.756 80.9927 161.5" stroke="#A4B6C6" stroke-width="0.893282" stroke-miterlimit="10"/>
<path d="M61.5107 165.027C68.1448 162.44 69.0322 176.012 69.0322 176.012" stroke="#A4B6C6" stroke-width="0.893282" stroke-miterlimit="10"/>
<path d="M72.1106 176.012L71.0059 166.219" stroke="#A4B6C6" stroke-width="0.893282" stroke-miterlimit="10"/>
<path d="M77.1881 163.297L77.1869 163.299C75.5968 165.548 77.3705 168.681 80.0839 168.342L77.1881 163.297ZM77.1881 163.297C77.2431 163.217 77.3033 163.137 77.367 163.053C77.3831 163.031 77.3994 163.01 77.4158 162.988C78.755 161.27 80.2961 159.875 82.3608 159.211C84.406 158.552 86.9871 158.604 90.4297 159.808M77.1881 163.297L90.4297 159.808M90.4297 159.808C89.4754 159.825 87.8796 159.938 86.4439 160.438C84.9565 160.955 83.5992 161.904 83.3584 163.63L83.3584 163.63C83.1297 165.286 82.6811 166.417 82.1075 167.157C81.5371 167.892 80.8376 168.247 80.084 168.342L90.4297 159.808Z" fill="#CFD9E2" stroke="#A4B6C6" stroke-width="0.297761"/>
<path d="M70.7344 151.211C70.7368 151.425 70.7414 151.704 70.7502 152.032C70.7712 152.818 70.8161 153.887 70.9115 155.013C71.0069 156.138 71.153 157.325 71.3773 158.346C71.5998 159.359 71.905 160.239 72.3356 160.726C72.7142 161.155 72.9684 161.766 73.0951 162.448C73.2216 163.129 73.219 163.87 73.0935 164.548C72.9676 165.228 72.7206 165.833 72.3683 166.252C72.0195 166.666 71.571 166.896 71.022 166.848C70.4856 166.8 69.8459 166.316 69.2745 165.431C68.7087 164.555 68.2311 163.315 68.0069 161.824C67.5732 158.94 68.0895 155.126 70.7344 151.211Z" fill="#CFD9E2" stroke="#A4B6C6" stroke-width="0.297761"/>
<path d="M60.2027 164.158L60.2028 164.158C61.3795 163.792 62.1477 164.016 62.5436 164.517C62.948 165.029 63.0167 165.893 62.6503 166.915C61.9316 168.921 59.5701 171.422 55.2717 172.61C55.2726 172.577 55.2738 172.54 55.2753 172.499C55.2827 172.301 55.2989 172.017 55.3343 171.671C55.4051 170.978 55.5524 170.039 55.8579 169.052C56.47 167.073 57.7062 164.933 60.2027 164.158Z" fill="#CFD9E2" stroke="#A4B6C6" stroke-width="0.297761"/>
<g clip-path="url(#clip2_1321_20948)">
<path d="M138.565 110.059L117.363 131.261" stroke="#A4B6C6" stroke-width="2.65025" stroke-linecap="round" stroke-linejoin="round"/>
<path d="M117.363 110.059L138.565 131.261" stroke="#A4B6C6" stroke-width="2.65025" stroke-linecap="round" stroke-linejoin="round"/>
</g>
<g clip-path="url(#clip3_1321_20948)">
<path d="M107.379 92.5977L86.1765 113.8" stroke="#A4B6C6" stroke-width="2.65025" stroke-linecap="round" stroke-linejoin="round"/>
<path d="M86.1765 92.5977L107.379 113.8" stroke="#A4B6C6" stroke-width="2.65025" stroke-linecap="round" stroke-linejoin="round"/>
</g>
</g>
<defs>
<clipPath id="clip0_1321_20948">
<rect width="310.797" height="194.248" fill="white"/>
</clipPath>
<clipPath id="clip1_1321_20948">
<rect width="262.087" height="161.695" fill="white" transform="translate(25.6328 32.6367)"/>
</clipPath>
<clipPath id="clip2_1321_20948">
<rect width="42.4041" height="42.4041" fill="white" transform="translate(106.763 99.4609)"/>
</clipPath>
<clipPath id="clip3_1321_20948">
<rect width="42.4041" height="42.4041" fill="white" transform="translate(75.5779 82)"/>
</clipPath>
</defs>
</svg>
