<svg width="322" height="201" viewBox="0 0 322 201" fill="none" xmlns="http://www.w3.org/2000/svg">
<g clip-path="url(#clip0_2209_23755)">
<g clip-path="url(#clip1_2209_23755)">
<path d="M238.755 75.6209C238.755 75.6209 231.206 16.5505 186.667 59.0195C129.571 113.459 91.1916 5.25976 48.8361 49.4254C25.6964 73.5528 86.8427 127.513 46.0056 155.911C5.16857 184.308 38.5398 205.568 38.5398 205.568H270.423C270.423 205.568 294.428 207.301 296.246 176.926C298.06 146.551 270.155 146.183 287.474 108.171C304.792 70.1596 244.197 99.8153 238.755 75.6209Z" fill="#F5FBFF"/>
<g opacity="0.2">
<rect x="51.8108" y="157.402" width="64.2458" height="43.2505" fill="white" stroke="#A4B6C6" stroke-width="1.60615"/>
<path d="M57.6895 200.653H65.2478L63.9702 204.167C63.7288 204.83 63.098 205.272 62.3917 205.272H60.5455C59.8392 205.272 59.2084 204.83 58.967 204.167L57.6895 200.653Z" fill="white" stroke="#A4B6C6" stroke-width="1.60615"/>
<path d="M102.2 200.653H109.758L108.48 204.167C108.239 204.83 107.608 205.272 106.902 205.272H105.056C104.35 205.272 103.719 204.83 103.477 204.167L102.2 200.653Z" fill="white" stroke="#A4B6C6" stroke-width="1.60615"/>
<rect x="55.1702" y="160.342" width="28.5537" height="37.3718" fill="white" stroke="#A4B6C6" stroke-width="0.803073"/>
<rect x="83.7239" y="160.342" width="28.5537" height="37.3718" fill="white" stroke="#A4B6C6" stroke-width="0.803073"/>
<rect x="83.7239" y="178.818" width="28.5537" height="18.8958" fill="white" stroke="#A4B6C6" stroke-width="0.803073"/>
<circle cx="98.2107" cy="163.911" r="0.803073" stroke="#A4B6C6" stroke-width="0.493391"/>
<circle cx="80.5744" cy="179.027" r="0.803073" stroke="#A4B6C6" stroke-width="0.493391"/>
<circle cx="98.2107" cy="181.967" r="0.803073" stroke="#A4B6C6" stroke-width="0.493391"/>
</g>
<g opacity="0.5">
<path opacity="0.5" d="M91.1612 109.218C98.2576 109.218 104.01 103.465 104.01 96.3687C104.01 89.2723 98.2576 83.5195 91.1612 83.5195C84.0648 83.5195 78.312 89.2723 78.312 96.3687C78.312 103.465 84.0648 109.218 91.1612 109.218Z" fill="white" stroke="#4D6173" stroke-width="0.677341" stroke-miterlimit="10"/>
<g opacity="0.5">
<path d="M91.1614 91.8809C91.2608 92.6282 91.3262 93.3778 91.3737 94.1251C91.403 94.4999 91.4143 94.8724 91.4346 95.2472C91.4549 95.622 91.4595 95.9946 91.473 96.3694L91.3782 96.1458C91.8749 96.6042 92.3603 97.0761 92.8435 97.5457C93.3221 98.0221 93.8031 98.4985 94.2682 98.9884C94.5052 99.23 94.7355 99.4761 94.9636 99.7267C95.1939 99.9751 95.4219 100.223 95.6454 100.479C96.097 100.984 96.5373 101.499 96.9549 102.039C96.4086 101.632 95.8825 101.203 95.3677 100.763C95.1081 100.546 94.8529 100.323 94.6001 100.097C94.3449 99.8735 94.0943 99.6477 93.846 99.4174C93.3447 98.9636 92.8593 98.494 92.3716 98.0266C91.8907 97.5525 91.4075 97.0783 90.9402 96.5906L90.8408 96.489L90.8453 96.3671C90.8589 95.9923 90.8634 95.6198 90.8837 95.245C90.904 94.8702 90.9153 94.4976 90.9447 94.1229C90.9966 93.3755 91.0621 92.6282 91.1614 91.8809Z" fill="#4D6173"/>
</g>
</g>
<g opacity="0.2">
<rect x="202.789" y="120.36" width="77.095" height="3.07015" fill="white" stroke="#A4B6C6" stroke-width="1.20461"/>
<rect x="260.439" y="111.668" width="9.89272" height="8.56324" rx="1.36451" fill="white" stroke="#A4B6C6" stroke-width="1.20461"/>
<path d="M260.439 114.115H270.332" stroke="#A4B6C6" stroke-width="0.602305"/>
<path d="M265.385 111.668C264.198 111.532 261.23 110.649 261.23 108.202C263.046 108.389 263.862 108.748 265.054 111.011C264.289 109.296 263.646 106.324 265.583 104.328C267.641 106.612 266.308 110.173 265.385 111.668C265.391 111.666 265.398 111.664 265.404 111.662C265.59 111.424 267.167 108.189 270.134 107.998C270.134 109.785 266.993 111.181 265.404 111.662C265.391 111.678 265.385 111.681 265.385 111.668Z" fill="white"/>
<path d="M265.385 111.668C264.198 111.532 261.23 110.649 261.23 108.202C263.209 108.406 264 108.814 265.385 111.668ZM265.385 111.668C264.528 110.173 263.367 106.612 265.583 104.328C267.641 106.612 266.308 110.173 265.385 111.668ZM265.385 111.668C265.385 111.872 266.968 108.202 270.134 107.998C270.134 109.792 266.968 111.192 265.385 111.668Z" stroke="#A4B6C6" stroke-width="1.20461"/>
<rect x="208.442" y="141.724" width="9.89272" height="8.56324" rx="1.36451" fill="white" stroke="#A4B6C6" stroke-width="1.20461"/>
<path d="M208.442 144.171H218.335" stroke="#A4B6C6" stroke-width="1.20461"/>
<path d="M213.388 141.724C212.201 141.588 209.233 140.704 209.233 138.258C211.049 138.445 211.865 138.804 213.057 141.067C212.292 139.352 211.649 136.38 213.586 134.384C215.644 136.667 214.312 140.229 213.388 141.724C213.395 141.722 213.401 141.72 213.407 141.718C213.594 141.48 215.17 138.245 218.137 138.054C218.137 139.841 214.996 141.237 213.407 141.718C213.395 141.734 213.388 141.737 213.388 141.724Z" fill="white"/>
<path d="M213.388 141.724C212.201 141.588 209.233 140.704 209.233 138.258C211.212 138.462 212.003 138.869 213.388 141.724ZM213.388 141.724C212.531 140.229 211.37 136.667 213.586 134.384C215.644 136.667 214.312 140.229 213.388 141.724ZM213.388 141.724C213.388 141.928 214.971 138.258 218.137 138.054C218.137 139.848 214.971 141.248 213.388 141.724Z" stroke="#A4B6C6" stroke-width="1.20461"/>
<rect x="208.588" y="98.8701" width="18.7621" height="21.4911" fill="white" stroke="#A4B6C6" stroke-width="1.20461"/>
<rect x="210.976" y="100.917" width="13.9863" height="17.3975" fill="white" stroke="#A4B6C6" stroke-width="0.803073"/>
<rect x="231.784" y="115.927" width="19.7854" height="4.43467" fill="white" stroke="#A4B6C6" stroke-width="1.20461"/>
<line x1="246.413" y1="115.927" x2="246.413" y2="120.361" stroke="#A4B6C6" stroke-width="0.602305"/>
<line x1="244.366" y1="115.927" x2="244.366" y2="120.361" stroke="#A4B6C6" stroke-width="0.602305"/>
<line x1="248.459" y1="115.927" x2="248.459" y2="120.361" stroke="#A4B6C6" stroke-width="0.602305"/>
<rect x="232.808" y="107.057" width="19.7854" height="4.43467" fill="white" stroke="#A4B6C6" stroke-width="1.20461"/>
<rect x="247.568" y="108.414" width="3.21229" height="1.60615" fill="white" stroke="#A4B6C6" stroke-width="0.602305"/>
<line x1="246.413" y1="107.057" x2="246.413" y2="111.491" stroke="#A4B6C6" stroke-width="0.602305"/>
<line x1="244.707" y1="107.057" x2="244.707" y2="111.491" stroke="#A4B6C6" stroke-width="0.602305"/>
<rect x="229.397" y="111.492" width="19.7854" height="4.43467" fill="white" stroke="#A4B6C6" stroke-width="1.20461"/>
<rect x="237.925" y="112.856" width="2.04677" height="1.70564" fill="white" stroke="#A4B6C6" stroke-width="0.602305"/>
<line x1="231.785" y1="112.897" x2="236.219" y2="112.897" stroke="#A4B6C6" stroke-width="0.602305"/>
<line x1="231.785" y1="114.261" x2="236.219" y2="114.261" stroke="#A4B6C6" stroke-width="0.602305"/>
<rect x="227.008" y="150.323" width="19.7854" height="4.43467" transform="rotate(-85.661 227.008 150.323)" fill="white" stroke="#A4B6C6" stroke-width="1.20461"/>
<line x1="227.594" y1="144.777" x2="232.018" y2="145.085" stroke="#A4B6C6" stroke-width="0.602305"/>
<line x1="227.499" y1="146.138" x2="231.923" y2="146.446" stroke="#A4B6C6" stroke-width="0.602305"/>
<rect x="202.789" y="150.38" width="77.095" height="3.07015" fill="white" stroke="#A4B6C6" stroke-width="1.20461"/>
<rect x="242.018" y="130.596" width="19.7854" height="4.43467" transform="rotate(90 242.018 130.596)" fill="white" stroke="#A4B6C6" stroke-width="1.20461"/>
<line x1="242.018" y1="145.224" x2="237.583" y2="145.224" stroke="#A4B6C6" stroke-width="0.602305"/>
<line x1="242.018" y1="143.177" x2="237.583" y2="143.177" stroke="#A4B6C6" stroke-width="0.602305"/>
<line x1="242.018" y1="147.271" x2="237.583" y2="147.271" stroke="#A4B6C6" stroke-width="0.602305"/>
<rect x="246.453" y="132.983" width="17.3975" height="4.43467" transform="rotate(90 246.453 132.983)" fill="white" stroke="#A4B6C6" stroke-width="1.20461"/>
<line x1="246.453" y1="145.906" x2="242.018" y2="145.906" stroke="#A4B6C6" stroke-width="0.602305"/>
<line x1="246.453" y1="149.277" x2="242.018" y2="149.277" stroke="#A4B6C6" stroke-width="1.20461"/>
<rect x="250.888" y="129.23" width="21.15" height="4.43467" transform="rotate(90 250.888 129.23)" fill="white" stroke="#A4B6C6" stroke-width="1.20461"/>
<line x1="250.888" y1="136.66" x2="246.454" y2="136.66" stroke="#A4B6C6" stroke-width="0.602305"/>
<line x1="250.888" y1="134.472" x2="246.454" y2="134.472" stroke="#A4B6C6" stroke-width="0.602305"/>
<rect x="255.322" y="134.007" width="16.3742" height="4.43467" transform="rotate(90 255.322 134.007)" fill="white" stroke="#A4B6C6" stroke-width="1.20461"/>
<line x1="255.322" y1="146.164" x2="250.888" y2="146.164" stroke="#A4B6C6" stroke-width="0.602305"/>
<line x1="255.322" y1="144.471" x2="250.888" y2="144.471" stroke="#A4B6C6" stroke-width="0.602305"/>
<line x1="255.322" y1="147.859" x2="250.888" y2="147.859" stroke="#A4B6C6" stroke-width="0.602305"/>
<rect x="255.322" y="145.946" width="19.7854" height="4.43467" fill="white" stroke="#A4B6C6" stroke-width="1.20461"/>
<rect x="269.251" y="147.766" width="4.01536" height="0.803073" fill="white" stroke="#A4B6C6" stroke-width="0.602305"/>
<line x1="267.242" y1="145.946" x2="267.242" y2="150.381" stroke="#A4B6C6" stroke-width="0.602305"/>
<line x1="265.537" y1="145.946" x2="265.536" y2="150.381" stroke="#A4B6C6" stroke-width="0.602305"/>
<rect x="255.323" y="141.512" width="16.7153" height="4.43467" fill="white" stroke="#A4B6C6" stroke-width="1.20461"/>
<line x1="260.741" y1="141.512" x2="260.741" y2="145.946" stroke="#A4B6C6" stroke-width="0.602305"/>
<line x1="259.035" y1="141.512" x2="259.035" y2="145.946" stroke="#A4B6C6" stroke-width="0.602305"/>
<rect x="233.149" y="150.381" width="18.0798" height="4.43467" transform="rotate(-90 233.149 150.381)" fill="white" stroke="#A4B6C6" stroke-width="1.20461"/>
<line x1="234.553" y1="147.993" x2="234.553" y2="143.559" stroke="#A4B6C6" stroke-width="0.602305"/>
<line x1="235.918" y1="147.993" x2="235.918" y2="143.559" stroke="#A4B6C6" stroke-width="0.602305"/>
</g>
</g>
<path d="M227.194 204.747H215.774C215.472 204.747 215.21 204.547 215.13 204.257L210.302 186.78C210.185 186.355 210.505 185.934 210.945 185.934H232.02C232.463 185.934 232.783 186.355 232.663 186.78L227.834 204.257C227.758 204.547 227.496 204.747 227.194 204.747Z" fill="white" stroke="#A4B6C6" stroke-width="1.60615" stroke-miterlimit="10"/>
<path d="M224.72 185.934C224.72 185.934 224.443 178.434 230.413 170.934" stroke="#A4B6C6" stroke-width="0.923266" stroke-miterlimit="10"/>
<path d="M210.277 174.58C217.134 171.906 218.051 185.933 218.051 185.933" stroke="#A4B6C6" stroke-width="0.923266" stroke-miterlimit="10"/>
<path d="M221.233 185.934L220.092 175.812" stroke="#A4B6C6" stroke-width="0.923266" stroke-miterlimit="10"/>
<path d="M226.48 172.795L226.481 172.793C226.538 172.71 226.6 172.628 226.666 172.541C226.683 172.519 226.7 172.496 226.717 172.474C228.101 170.699 229.694 169.256 231.828 168.57C233.942 167.889 236.609 167.943 240.167 169.187C239.181 169.205 237.532 169.321 236.048 169.838C234.511 170.372 233.108 171.353 232.859 173.137L232.859 173.138C232.622 174.849 232.159 176.018 231.566 176.782C230.976 177.542 230.253 177.909 229.474 178.007C226.67 178.358 224.837 175.12 226.48 172.795Z" fill="#CFD9E2" stroke="#A4B6C6" stroke-width="0.307755"/>
<path d="M219.811 160.3C219.814 160.521 219.818 160.81 219.827 161.148C219.849 161.961 219.896 163.066 219.994 164.23C220.093 165.393 220.244 166.619 220.476 167.675C220.706 168.722 221.021 169.631 221.466 170.134C221.857 170.578 222.12 171.209 222.251 171.915C222.382 172.618 222.379 173.384 222.249 174.085C222.119 174.787 221.864 175.413 221.5 175.846C221.139 176.274 220.676 176.512 220.108 176.462C219.554 176.412 218.893 175.912 218.302 174.997C217.717 174.092 217.224 172.81 216.992 171.269C216.544 168.288 217.077 164.346 219.811 160.3Z" fill="#CFD9E2" stroke="#A4B6C6" stroke-width="0.307755"/>
<path d="M208.925 173.681L208.925 173.681C210.142 173.303 210.936 173.535 211.345 174.053C211.763 174.582 211.834 175.475 211.455 176.532C210.712 178.605 208.271 181.189 203.829 182.418C203.83 182.383 203.831 182.345 203.833 182.302C203.84 182.099 203.857 181.805 203.894 181.447C203.967 180.731 204.119 179.76 204.435 178.74C205.067 176.695 206.345 174.483 208.925 173.681Z" fill="#CFD9E2" stroke="#A4B6C6" stroke-width="0.307755"/>
<path d="M144.197 126.891C142.723 127.562 140.986 126.911 140.317 125.441L139.581 123.825C138.91 122.352 139.561 120.614 141.031 119.946C142.504 119.275 144.242 119.926 144.911 121.396L145.647 123.012C146.318 124.482 145.67 126.22 144.197 126.891Z" fill="#C2CDD6" stroke="#A4B6C6" stroke-width="1.60615" stroke-miterlimit="10"/>
<path d="M139.381 173.02L139.582 174.01L140.501 173.591L181.863 154.746L182.78 154.328L182.167 153.527L181.53 154.015C182.167 153.527 182.167 153.527 182.167 153.527L182.167 153.526L182.165 153.524L182.157 153.513L182.124 153.471L181.999 153.308L181.522 152.685L179.806 150.443C178.379 148.579 176.457 146.07 174.482 143.489C170.53 138.33 166.361 132.886 165.492 131.755L165.491 131.754C158.481 122.64 149.368 120.228 142.509 123.274C135.636 126.326 131.45 134.666 133.897 146.159C134.194 147.56 135.565 154.272 136.862 160.64C137.511 163.823 138.14 166.918 138.608 169.217L139.17 171.981L139.326 172.749L139.367 172.951L139.378 173.003L139.38 173.016L139.381 173.019L139.381 173.02C139.381 173.02 139.381 173.02 140.168 172.86L139.381 173.02Z" fill="white" stroke="#A4B6C6" stroke-width="1.60615" stroke-miterlimit="10"/>
<path d="M138.043 180.974C138.043 180.974 137.235 174.319 138.313 173.07C147.013 162.979 170.044 152.752 182.905 152.752C184.552 152.752 189.045 157.735 189.045 157.735L138.043 180.974Z" fill="#C2CDD6" stroke="#A4B6C6" stroke-width="1.60615" stroke-miterlimit="10"/>
<path d="M137.456 188.016C137.456 188.016 135.147 182.043 136.392 180.718C146.452 170.007 175.766 156.918 189.941 156.321C191.755 156.244 194.75 161.913 194.75 161.913L137.456 188.016Z" fill="white" stroke="#A4B6C6" stroke-width="1.60615" stroke-miterlimit="10"/>
<path d="M163.163 168.519C178.985 161.312 193.123 158.352 194.744 161.912C196.365 165.473 184.855 174.199 169.033 181.409C153.212 188.615 139.074 191.576 137.453 188.015C135.834 184.455 147.344 175.726 163.163 168.519Z" fill="#F5FBFF" stroke="#A4B6C6" stroke-width="1.60615" stroke-miterlimit="10"/>
<mask id="mask0_2209_23755" style="mask-type:alpha" maskUnits="userSpaceOnUse" x="137" y="160" width="58" height="30">
<path d="M162.916 169.619C178.45 162.362 192.29 158.879 193.958 162.295C195.625 165.711 184.385 174.36 168.851 181.62C153.317 188.878 139.375 191.996 137.708 188.581C136.043 185.165 147.385 176.877 162.916 169.619Z" fill="#F5FBFF"/>
</mask>
<g mask="url(#mask0_2209_23755)">
<path d="M163.111 178.194C167.497 178.194 171.053 174.638 171.053 170.251C171.053 165.865 167.497 162.309 163.111 162.309C158.724 162.309 155.168 165.865 155.168 170.251C155.168 174.638 158.724 178.194 163.111 178.194Z" fill="#C2CDD6"/>
<path d="M164.54 178.106C168.927 178.106 172.483 174.55 172.483 170.163C172.483 165.777 168.927 162.221 164.54 162.221C160.154 162.221 156.598 165.777 156.598 170.163C156.598 174.55 160.154 178.106 164.54 178.106Z" stroke="#A4B6C6" stroke-width="1.60615" stroke-miterlimit="10"/>
</g>
<path d="M143.732 151.456H110.362C109.173 151.456 108.209 150.492 108.209 149.303V140.014C108.209 138.825 109.173 137.861 110.362 137.861H143.732C144.92 137.861 145.885 138.825 145.885 140.014V149.303C145.882 150.492 144.92 151.456 143.732 151.456Z" fill="#C2CDD6" stroke="#A4B6C6" stroke-width="1.60615" stroke-miterlimit="10"/>
<path d="M121.793 143.25H142.427" stroke="white" stroke-width="1.42204" stroke-miterlimit="10" stroke-linecap="round"/>
<path d="M121.793 146.918H131.523" stroke="white" stroke-width="1.42204" stroke-miterlimit="10" stroke-linecap="round"/>
<path d="M114.833 147.657C116.264 147.657 117.424 146.497 117.424 145.066C117.424 143.635 116.264 142.475 114.833 142.475C113.402 142.475 112.242 143.635 112.242 145.066C112.242 146.497 113.402 147.657 114.833 147.657Z" fill="white"/>
</g>
<defs>
<clipPath id="clip0_2209_23755">
<rect width="321.229" height="200.768" fill="white"/>
</clipPath>
<clipPath id="clip1_2209_23755">
<rect width="270.884" height="167.123" fill="white" transform="translate(25.6953 38.5469)"/>
</clipPath>
</defs>
</svg>
