<svg width="60" height="60" viewBox="0 0 60 60" fill="none" xmlns="http://www.w3.org/2000/svg">
<g filter="url(#filter0_d_1307_14266)">
<rect x="9" y="9" width="42" height="42" rx="21" fill="white" shape-rendering="crispEdges"/>
<g clip-path="url(#clip0_1307_14266)">
<path d="M41.5506 39.451V37.3509C41.5499 36.4202 41.2402 35.5162 40.67 34.7806C40.0998 34.0451 39.3015 33.5198 38.4004 33.2871" stroke="#0763C6" stroke-width="2.10015" stroke-linecap="round" stroke-linejoin="round"/>
<path d="M35.2504 39.4508V37.3507C35.2504 36.2367 34.8079 35.1683 34.0201 34.3806C33.2324 33.5929 32.1641 33.1504 31.0501 33.1504H22.6495C21.5355 33.1504 20.4672 33.5929 19.6795 34.3806C18.8917 35.1683 18.4492 36.2367 18.4492 37.3507V39.4508" stroke="#0763C6" stroke-width="2.10015" stroke-linecap="round" stroke-linejoin="round"/>
<path d="M34.2002 20.6836C35.1037 20.9149 35.9045 21.4404 36.4764 22.1771C37.0482 22.9139 37.3586 23.82 37.3586 24.7526C37.3586 25.6853 37.0482 26.5914 36.4764 27.3281C35.9045 28.0649 35.1037 28.5903 34.2002 28.8217" stroke="#0763C6" stroke-width="2.10015" stroke-linecap="round" stroke-linejoin="round"/>
<path d="M26.8497 28.9494C29.1695 28.9494 31.05 27.0689 31.05 24.7491C31.05 22.4294 29.1695 20.5488 26.8497 20.5488C24.5299 20.5488 22.6494 22.4294 22.6494 24.7491C22.6494 27.0689 24.5299 28.9494 26.8497 28.9494Z" stroke="#0763C6" stroke-width="2.10015" stroke-linecap="round" stroke-linejoin="round"/>
</g>
<rect x="9.20309" y="9.20309" width="41.5938" height="41.5938" rx="20.7969" stroke="#0763C6" stroke-opacity="0.15" stroke-width="0.40619" shape-rendering="crispEdges"/>
</g>
<defs>
<filter id="filter0_d_1307_14266" x="0.470019" y="0.876209" width="59.06" height="59.06" filterUnits="userSpaceOnUse" color-interpolation-filters="sRGB">
<feFlood flood-opacity="0" result="BackgroundImageFix"/>
<feColorMatrix in="SourceAlpha" type="matrix" values="0 0 0 0 0 0 0 0 0 0 0 0 0 0 0 0 0 0 127 0" result="hardAlpha"/>
<feOffset dy="0.40619"/>
<feGaussianBlur stdDeviation="4.26499"/>
<feComposite in2="hardAlpha" operator="out"/>
<feColorMatrix type="matrix" values="0 0 0 0 0 0 0 0 0 0 0 0 0 0 0 0 0 0 0.02 0"/>
<feBlend mode="normal" in2="BackgroundImageFix" result="effect1_dropShadow_1307_14266"/>
<feBlend mode="normal" in="SourceGraphic" in2="effect1_dropShadow_1307_14266" result="shape"/>
</filter>
<clipPath id="clip0_1307_14266">
<rect width="25.2017" height="25.2017" fill="white" transform="translate(17.3989 17.3984)"/>
</clipPath>
</defs>
</svg>
