<svg width="322" height="201" viewBox="0 0 322 201" fill="none" xmlns="http://www.w3.org/2000/svg">
<g clip-path="url(#clip0_2209_24310)">
<g clip-path="url(#clip1_2209_24310)">
<path d="M239.56 70.8016C239.56 70.8016 232.011 11.7311 187.472 54.2001C130.376 108.639 91.9963 0.440426 49.6408 44.606C26.5011 68.7335 87.6474 122.694 46.8103 151.091C5.97326 179.489 39.3445 200.749 39.3445 200.749H271.228C271.228 200.749 295.233 202.482 297.05 172.107C298.864 141.732 270.96 141.364 288.279 103.352C305.597 65.3403 245.002 94.996 239.56 70.8016Z" fill="#F5FBFF"/>
<g opacity="0.5">
<path opacity="0.5" d="M159.471 102.791C166.567 102.791 172.32 97.0383 172.32 89.9419C172.32 82.8455 166.567 77.0928 159.471 77.0928C152.374 77.0928 146.622 82.8455 146.622 89.9419C146.622 97.0383 152.374 102.791 159.471 102.791Z" fill="white" stroke="#4D6173" stroke-width="0.677341" stroke-miterlimit="10"/>
<g opacity="0.5">
<path d="M159.471 85.4541C159.571 86.2014 159.636 86.951 159.684 87.6984C159.713 88.0732 159.724 88.4457 159.745 88.8205C159.765 89.1953 159.77 89.5678 159.783 89.9426L159.688 89.7191C160.185 90.1774 160.67 90.6493 161.154 91.1189C161.632 91.5953 162.113 92.0717 162.578 92.5617C162.815 92.8032 163.046 93.0493 163.274 93.3C163.504 93.5483 163.732 93.7967 163.955 94.0518C164.407 94.5576 164.847 95.0723 165.265 95.612C164.719 95.2055 164.193 94.7766 163.678 94.3363C163.418 94.1195 163.163 93.896 162.91 93.6702C162.655 93.4467 162.404 93.2209 162.156 92.9906C161.655 92.5368 161.169 92.0672 160.682 91.5998C160.201 91.1257 159.718 90.6516 159.25 90.1639L159.151 90.0623L159.155 89.9404C159.169 89.5656 159.173 89.193 159.194 88.8182C159.214 88.4434 159.225 88.0709 159.255 87.6961C159.307 86.9488 159.372 86.2014 159.471 85.4541Z" fill="#4D6173"/>
</g>
</g>
<g opacity="0.2">
<rect x="224.306" y="89.1396" width="28.9106" height="53.8059" fill="white" stroke="#A4B6C6" stroke-width="1.60615"/>
<rect x="224.306" y="135.718" width="28.9106" height="7.22766" stroke="#A4B6C6" stroke-width="1.60615"/>
<rect x="224.306" y="128.49" width="28.9106" height="7.22766" stroke="#A4B6C6" stroke-width="1.60615"/>
<rect x="224.306" y="121.263" width="28.9106" height="7.22766" stroke="#A4B6C6" stroke-width="1.60615"/>
<rect x="224.306" y="114.035" width="28.9106" height="7.22766" stroke="#A4B6C6" stroke-width="1.60615"/>
<rect x="224.306" y="106.808" width="28.9106" height="7.22766" stroke="#A4B6C6" stroke-width="1.60615"/>
<rect x="224.306" y="99.5791" width="28.9106" height="7.22766" stroke="#A4B6C6" stroke-width="1.60615"/>
<rect x="224.306" y="93.958" width="28.9106" height="5.62151" stroke="#A4B6C6" stroke-width="1.60615"/>
<rect x="195.395" y="89.1396" width="28.9106" height="53.8059" stroke="#A4B6C6" stroke-width="1.60615"/>
<rect x="198.607" y="93.958" width="22.486" height="44.169" fill="white" stroke="#A4B6C6" stroke-width="1.60615"/>
</g>
<g opacity="0.2">
<path d="M83.8467 102.381L83.1655 105.081H94.2279L93.5466 102.381M83.8467 102.381L86.95 90.0813V85.2814H88.6967M83.8467 102.381H93.5466M93.5466 102.381L90.4434 90.0813V85.2814H88.6967M88.6967 85.2814C88.4056 82.8815 88.8131 77.2417 92.7723 73.8818" stroke="#A4B6C6" stroke-width="1.60615"/>
<rect x="100.051" y="92.7822" width="14.5557" height="12.5996" rx="3.21229" fill="white" stroke="#A4B6C6" stroke-width="1.60615"/>
<path d="M100.051 96.3818H114.606" stroke="#A4B6C6" stroke-width="1.60615"/>
<path d="M107.329 92.782C105.582 92.582 101.215 91.2821 101.215 87.6822C104.126 87.9822 105.291 88.5822 107.329 92.782ZM107.329 92.782C106.067 90.5821 104.359 85.3423 107.62 81.9824C110.647 85.3423 108.687 90.5821 107.329 92.782ZM107.329 92.782C107.329 93.082 109.658 87.6822 114.315 87.3822C114.315 90.0221 109.658 92.0821 107.329 92.782Z" stroke="#A4B6C6" stroke-width="1.60615"/>
<rect x="77.3433" y="105.381" width="46.5782" height="5.39981" stroke="#A4B6C6" stroke-width="1.60615"/>
</g>
<path d="M39.05 200.388H260.008" stroke="#A4B6C6" stroke-width="1.60615" stroke-miterlimit="10"/>
<path d="M267.746 200.388H295.054" stroke="#A4B6C6" stroke-width="1.60615" stroke-miterlimit="10"/>
</g>
<path d="M131.54 147.754L123.003 190.593C122.424 193.502 124.352 196.39 127.261 196.97L128.565 197.23L170.1 205.506C173.01 206.086 175.897 204.158 176.477 201.249L186.873 149.079L187.153 147.675C187.733 144.765 185.805 141.878 182.896 141.298L150.791 134.9" fill="#C2CDD6"/>
<path d="M131.54 147.754L123.003 190.593C122.424 193.502 124.352 196.39 127.261 196.97L128.565 197.23L170.1 205.506C173.01 206.086 175.897 204.158 176.477 201.249L186.873 149.079L187.153 147.675C187.733 144.765 185.805 141.878 182.896 141.298L150.791 134.9" stroke="#A4B6C6" stroke-width="1.60615" stroke-miterlimit="10" stroke-linecap="round" stroke-linejoin="round"/>
<path d="M150.792 134.9L147.593 150.953L131.541 147.754L150.792 134.9Z" fill="#A4B6C6" stroke="#A4B6C6" stroke-width="1.60615" stroke-miterlimit="10" stroke-linecap="round" stroke-linejoin="round"/>
<path d="M167.689 145.177L178.248 187.563C178.965 190.441 177.176 193.417 174.298 194.134L173.007 194.456L131.911 204.694C129.033 205.411 126.057 203.622 125.34 200.743L112.481 149.125L112.135 147.736C111.418 144.857 113.207 141.881 116.085 141.164L147.85 133.251" fill="#EAEEF9"/>
<path d="M167.689 145.177L178.248 187.563C178.965 190.441 177.176 193.417 174.298 194.134L173.007 194.456L131.911 204.694C129.033 205.411 126.057 203.622 125.34 200.743L112.481 149.125L112.135 147.736C111.418 144.857 113.207 141.881 116.085 141.164L147.85 133.251" stroke="#A4B6C6" stroke-width="1.60615" stroke-miterlimit="10" stroke-linecap="round" stroke-linejoin="round"/>
<path d="M147.85 133.251L151.806 149.133L167.689 145.177L147.85 133.251Z" fill="#A4B6C6" stroke="#A4B6C6" stroke-width="1.60615" stroke-miterlimit="10" stroke-linecap="round" stroke-linejoin="round"/>
<path d="M178.076 151.281V194.962C178.076 197.929 175.621 200.384 172.654 200.384H171.324H128.973C126.006 200.384 123.551 197.929 123.551 194.962V141.767V140.335C123.551 137.368 126.006 134.913 128.973 134.913H161.708" fill="white"/>
<path d="M178.076 151.281V194.962C178.076 197.929 175.621 200.384 172.654 200.384H171.324H128.973C126.006 200.384 123.551 197.929 123.551 194.962V141.767V140.335C123.551 137.368 126.006 134.913 128.973 134.913H161.708" stroke="#A4B6C6" stroke-width="1.60615" stroke-miterlimit="10" stroke-linecap="round" stroke-linejoin="round"/>
<path d="M161.708 134.913V151.281H178.076L161.708 134.913Z" fill="#A4B6C6" stroke="#A4B6C6" stroke-width="1.60615" stroke-miterlimit="10" stroke-linecap="round" stroke-linejoin="round"/>
<path d="M184.369 193.853L169.83 184.883L171.888 181.55L186.42 190.531L184.369 193.853Z" fill="#C2CDD6" stroke="#A4B6C6" stroke-width="0.923534" stroke-miterlimit="10"/>
<path d="M191.621 198.37L180.471 191.486C179.54 190.911 179.25 189.684 179.825 188.752C180.399 187.821 181.627 187.531 182.558 188.106L193.708 194.991C194.639 195.566 194.929 196.793 194.354 197.724C193.779 198.655 192.552 198.945 191.621 198.37Z" fill="#A4B6C6" stroke="#A4B6C6" stroke-width="0.923534" stroke-miterlimit="10"/>
<path d="M191.116 199.098L176.77 190.24C176.437 190.034 176.334 189.597 176.537 189.255L178.801 185.588C179.007 185.254 179.444 185.151 179.787 185.355L194.132 194.213C194.466 194.419 194.569 194.856 194.365 195.198L192.101 198.865C191.886 199.201 191.449 199.304 191.116 199.098Z" fill="#C2CDD6" stroke="#A4B6C6" stroke-width="0.923534" stroke-miterlimit="10"/>
<path d="M147.563 150.168C135.254 153.078 127.638 165.412 130.549 177.721C133.458 190.02 145.794 197.645 158.093 194.736C170.401 191.825 178.017 179.492 175.106 167.183C172.195 154.875 159.861 147.259 147.563 150.168ZM157.126 190.607C147.244 192.944 137.316 186.702 134.944 176.672C132.572 166.641 138.654 156.623 148.536 154.286C158.418 151.949 168.346 158.19 170.718 168.221C173.091 178.252 166.999 188.272 157.126 190.607Z" fill="#C2CDD6" stroke="#A4B6C6" stroke-width="0.923534" stroke-miterlimit="10"/>
<ellipse cx="152.794" cy="172.31" rx="17.9424" ry="18.0878" transform="rotate(-13.3056 152.794 172.31)" fill="white"/>
<path d="M159.947 172.905C161.308 172.9 162.47 171.729 162.465 170.369C162.46 169.008 161.289 167.846 159.929 167.851C158.568 167.856 157.406 169.027 157.411 170.387C157.416 171.845 158.489 172.91 159.947 172.905Z" fill="#C2CDD6"/>
<path d="M158.469 179.662L157.206 179.667C156.128 177.338 153.307 176.474 151.075 177.648C150.202 178.04 149.428 178.82 149.042 179.696L147.779 179.701C148.837 176.684 152.33 175.117 155.25 176.272C156.612 176.85 157.88 178.012 158.469 179.662Z" fill="#C2CDD6"/>
<path d="M145.492 172.976C146.852 172.971 148.014 171.801 148.009 170.44C148.004 169.079 146.834 167.917 145.473 167.922C144.113 167.927 142.951 169.098 142.956 170.459C143.058 171.916 144.131 172.981 145.492 172.976Z" fill="#C2CDD6"/>
</g>
<defs>
<clipPath id="clip0_2209_24310">
<rect width="321.229" height="200.768" fill="white" transform="translate(0 -0.000976562)"/>
</clipPath>
<clipPath id="clip1_2209_24310">
<rect width="270.884" height="167.123" fill="white" transform="translate(26.5 33.7275)"/>
</clipPath>
</defs>
</svg>
