<svg width="322" height="201" viewBox="0 0 322 201" fill="none" xmlns="http://www.w3.org/2000/svg">
<g clip-path="url(#clip0_2209_23611)">
<g clip-path="url(#clip1_2209_23611)">
<path d="M239.56 70.8025C239.56 70.8025 232.011 11.7321 187.472 54.2011C130.376 108.64 91.9963 0.441403 49.6408 44.607C26.5011 68.7345 87.6474 122.695 46.8103 151.092C5.97326 179.49 39.3445 200.749 39.3445 200.749H271.228C271.228 200.749 295.233 202.483 297.05 172.108C298.864 141.733 270.96 141.364 288.279 103.353C305.597 65.3412 245.002 94.9969 239.56 70.8025Z" fill="#F5FBFF"/>
<g opacity="0.5">
<path opacity="0.5" d="M159.471 102.792C166.567 102.792 172.32 97.0393 172.32 89.9429C172.32 82.8465 166.567 77.0938 159.471 77.0938C152.374 77.0938 146.622 82.8465 146.622 89.9429C146.622 97.0393 152.374 102.792 159.471 102.792Z" fill="white" stroke="#4D6173" stroke-width="0.677341" stroke-miterlimit="10"/>
<g opacity="0.5">
<path d="M159.471 85.4551C159.571 86.2024 159.636 86.952 159.684 87.6993C159.713 88.0741 159.724 88.4467 159.745 88.8215C159.765 89.1963 159.77 89.5688 159.783 89.9436L159.688 89.7201C160.185 90.1784 160.67 90.6503 161.154 91.1199C161.632 91.5963 162.113 92.0727 162.578 92.5626C162.815 92.8042 163.046 93.0503 163.274 93.3009C163.504 93.5493 163.732 93.7977 163.955 94.0528C164.407 94.5585 164.847 95.0733 165.265 95.6129C164.719 95.2065 164.193 94.7775 163.678 94.3373C163.418 94.1205 163.163 93.897 162.91 93.6712C162.655 93.4477 162.404 93.2219 162.156 92.9916C161.655 92.5378 161.169 92.0682 160.682 91.6008C160.201 91.1267 159.718 90.6525 159.25 90.1649L159.151 90.0633L159.155 89.9413C159.169 89.5665 159.173 89.194 159.194 88.8192C159.214 88.4444 159.225 88.0719 159.255 87.6971C159.307 86.9497 159.372 86.2024 159.471 85.4551Z" fill="#4D6173"/>
</g>
</g>
<g opacity="0.2">
<rect x="224.306" y="89.1406" width="28.9106" height="53.8059" fill="white" stroke="#A4B6C6" stroke-width="1.60615"/>
<rect x="224.306" y="135.719" width="28.9106" height="7.22766" stroke="#A4B6C6" stroke-width="1.60615"/>
<rect x="224.306" y="128.491" width="28.9106" height="7.22766" stroke="#A4B6C6" stroke-width="1.60615"/>
<rect x="224.306" y="121.264" width="28.9106" height="7.22766" stroke="#A4B6C6" stroke-width="1.60615"/>
<rect x="224.306" y="114.036" width="28.9106" height="7.22766" stroke="#A4B6C6" stroke-width="1.60615"/>
<rect x="224.306" y="106.809" width="28.9106" height="7.22766" stroke="#A4B6C6" stroke-width="1.60615"/>
<rect x="224.306" y="99.5801" width="28.9106" height="7.22766" stroke="#A4B6C6" stroke-width="1.60615"/>
<rect x="224.306" y="93.959" width="28.9106" height="5.62151" stroke="#A4B6C6" stroke-width="1.60615"/>
<rect x="195.395" y="89.1406" width="28.9106" height="53.8059" stroke="#A4B6C6" stroke-width="1.60615"/>
<rect x="198.607" y="93.959" width="22.486" height="44.169" fill="white" stroke="#A4B6C6" stroke-width="1.60615"/>
</g>
<g opacity="0.2">
<path d="M83.8458 102.382L83.1646 105.082H94.2269L93.5457 102.382M83.8458 102.382L86.949 90.0822V85.2824H88.6957M83.8458 102.382H93.5457M93.5457 102.382L90.4424 90.0822V85.2824H88.6957M88.6957 85.2824C88.4046 82.8825 88.8122 77.2427 92.7713 73.8828" stroke="#A4B6C6" stroke-width="1.60615"/>
<rect x="100.049" y="92.7832" width="14.5557" height="12.5996" rx="3.21229" fill="white" stroke="#A4B6C6" stroke-width="1.60615"/>
<path d="M100.049 96.3828H114.605" stroke="#A4B6C6" stroke-width="1.60615"/>
<path d="M107.327 92.783C105.58 92.583 101.213 91.2831 101.213 87.6832C104.125 87.9832 105.289 88.5832 107.327 92.783ZM107.327 92.783C106.065 90.5831 104.357 85.3433 107.618 81.9834C110.645 85.3433 108.685 90.5831 107.327 92.783ZM107.327 92.783C107.327 93.083 109.656 87.6832 114.314 87.3832C114.314 90.0231 109.656 92.083 107.327 92.783Z" stroke="#A4B6C6" stroke-width="1.60615"/>
<rect x="77.3423" y="105.382" width="46.5782" height="5.39981" stroke="#A4B6C6" stroke-width="1.60615"/>
</g>
<path d="M39.0503 200.389H260.008" stroke="#A4B6C6" stroke-width="1.60615" stroke-miterlimit="10"/>
<path d="M267.747 200.389H295.054" stroke="#A4B6C6" stroke-width="1.60615" stroke-miterlimit="10"/>
</g>
<path d="M131.54 147.754L123.003 190.593C122.424 193.502 124.352 196.39 127.261 196.97L128.565 197.23L170.1 205.506C173.01 206.086 175.897 204.158 176.477 201.249L186.873 149.079L187.153 147.675C187.733 144.765 185.805 141.878 182.896 141.298L150.791 134.9" fill="#C2CDD6"/>
<path d="M131.54 147.754L123.003 190.593C122.424 193.502 124.352 196.39 127.261 196.97L128.565 197.23L170.1 205.506C173.01 206.086 175.897 204.158 176.477 201.249L186.873 149.079L187.153 147.675C187.733 144.765 185.805 141.878 182.896 141.298L150.791 134.9" stroke="#A4B6C6" stroke-width="1.60615" stroke-miterlimit="10" stroke-linecap="round" stroke-linejoin="round"/>
<path d="M150.793 134.9L147.594 150.953L131.542 147.754L150.793 134.9Z" fill="#A4B6C6" stroke="#A4B6C6" stroke-width="1.60615" stroke-miterlimit="10" stroke-linecap="round" stroke-linejoin="round"/>
<path d="M167.689 145.177L178.248 187.563C178.965 190.441 177.176 193.417 174.298 194.134L173.007 194.456L131.911 204.694C129.033 205.411 126.057 203.622 125.34 200.743L112.481 149.125L112.135 147.736C111.418 144.857 113.207 141.881 116.085 141.164L147.85 133.251" fill="#EAEEF9"/>
<path d="M167.689 145.177L178.248 187.563C178.965 190.441 177.176 193.417 174.298 194.134L173.007 194.456L131.911 204.694C129.033 205.411 126.057 203.622 125.34 200.743L112.481 149.125L112.135 147.736C111.418 144.857 113.207 141.881 116.085 141.164L147.85 133.251" stroke="#A4B6C6" stroke-width="1.60615" stroke-miterlimit="10" stroke-linecap="round" stroke-linejoin="round"/>
<path d="M147.85 133.252L151.806 149.134L167.689 145.178L147.85 133.252Z" fill="#A4B6C6" stroke="#A4B6C6" stroke-width="1.60615" stroke-miterlimit="10" stroke-linecap="round" stroke-linejoin="round"/>
<path d="M178.076 151.282V194.963C178.076 197.93 175.621 200.385 172.654 200.385H171.324H128.973C126.006 200.385 123.551 197.93 123.551 194.963V141.768V140.336C123.551 137.369 126.006 134.914 128.973 134.914H161.708" fill="white"/>
<path d="M178.076 151.282V194.963C178.076 197.93 175.621 200.385 172.654 200.385H171.324H128.973C126.006 200.385 123.551 197.93 123.551 194.963V141.768V140.336C123.551 137.369 126.006 134.914 128.973 134.914H161.708" stroke="#A4B6C6" stroke-width="1.60615" stroke-miterlimit="10" stroke-linecap="round" stroke-linejoin="round"/>
<path d="M161.707 134.914V151.282H178.075L161.707 134.914Z" fill="#A4B6C6" stroke="#A4B6C6" stroke-width="1.60615" stroke-miterlimit="10" stroke-linecap="round" stroke-linejoin="round"/>
<path d="M184.368 193.853L169.829 184.883L171.887 181.55L186.419 190.531L184.368 193.853Z" fill="#C2CDD6" stroke="#A4B6C6" stroke-width="0.923534" stroke-miterlimit="10"/>
<path d="M191.622 198.371L180.472 191.487C179.541 190.912 179.25 189.685 179.825 188.753C180.4 187.822 181.627 187.532 182.558 188.107L193.708 194.992C194.639 195.567 194.93 196.794 194.355 197.725C193.78 198.656 192.553 198.946 191.622 198.371Z" fill="#A4B6C6" stroke="#A4B6C6" stroke-width="0.923534" stroke-miterlimit="10"/>
<path d="M191.116 199.098L176.77 190.24C176.437 190.034 176.334 189.597 176.537 189.255L178.801 185.588C179.007 185.254 179.444 185.151 179.787 185.355L194.132 194.213C194.466 194.419 194.569 194.856 194.365 195.198L192.101 198.865C191.886 199.201 191.449 199.304 191.116 199.098Z" fill="#C2CDD6" stroke="#A4B6C6" stroke-width="0.923534" stroke-miterlimit="10"/>
<path d="M147.563 150.168C135.254 153.078 127.638 165.412 130.549 177.721C133.458 190.02 145.794 197.645 158.093 194.736C170.401 191.825 178.017 179.492 175.106 167.183C172.195 154.875 159.861 147.259 147.563 150.168ZM157.126 190.607C147.244 192.944 137.316 186.702 134.944 176.672C132.572 166.641 138.654 156.623 148.536 154.286C158.418 151.949 168.346 158.19 170.718 168.221C173.091 178.252 166.999 188.272 157.126 190.607Z" fill="#C2CDD6" stroke="#A4B6C6" stroke-width="0.923534" stroke-miterlimit="10"/>
<ellipse cx="152.794" cy="172.311" rx="17.9424" ry="18.0878" transform="rotate(-13.3056 152.794 172.311)" fill="white"/>
<path d="M159.948 172.906C161.309 172.901 162.471 171.73 162.466 170.37C162.461 169.009 161.29 167.847 159.929 167.852C158.569 167.857 157.407 169.028 157.412 170.388C157.417 171.846 158.49 172.911 159.948 172.906Z" fill="#C2CDD6"/>
<path d="M158.47 179.663L157.207 179.668C156.129 177.339 153.307 176.475 151.076 177.649C150.203 178.041 149.428 178.821 149.043 179.697L147.779 179.702C148.838 176.685 152.331 175.117 155.251 176.273C156.613 176.851 157.881 178.013 158.47 179.663Z" fill="#C2CDD6"/>
<path d="M145.493 172.976C146.853 172.971 148.015 171.801 148.01 170.44C148.005 169.079 146.835 167.917 145.474 167.922C144.114 167.927 142.952 169.098 142.957 170.459C143.059 171.916 144.132 172.981 145.493 172.976Z" fill="#C2CDD6"/>
</g>
<defs>
<clipPath id="clip0_2209_23611">
<rect width="321.229" height="200.768" fill="white"/>
</clipPath>
<clipPath id="clip1_2209_23611">
<rect width="270.884" height="167.123" fill="white" transform="translate(26.5 33.7285)"/>
</clipPath>
</defs>
</svg>
