<svg width="22" height="22" viewBox="0 0 22 22" fill="none" xmlns="http://www.w3.org/2000/svg">
<path d="M21.0833 20.1667V18.0278C21.0833 16.8932 20.6969 15.8052 20.0093 15.0029C19.3217 14.2007 18.389 13.75 17.4166 13.75H15.5833" stroke="#0763C6" stroke-width="1.375" stroke-linecap="round" stroke-linejoin="round"/>
<mask id="path-2-inside-1_2793_11447" fill="white">
<path d="M15.5834 20.1667V18.0278C15.5834 16.8932 15.1971 15.8052 14.5095 15.0029C13.8218 14.2007 12.8892 13.75 11.9167 13.75H4.58341C3.61095 13.75 2.67832 14.2007 1.99069 15.0029C1.30306 15.8052 0.916748 16.8932 0.916748 18.0278V20.1667"/>
</mask>
<path d="M15.5834 20.1667V18.0278C15.5834 16.8932 15.1971 15.8052 14.5095 15.0029C13.8218 14.2007 12.8892 13.75 11.9167 13.75H4.58341C3.61095 13.75 2.67832 14.2007 1.99069 15.0029C1.30306 15.8052 0.916748 16.8932 0.916748 18.0278V20.1667" fill="#0763C6"/>
<path d="M13.7501 20.1667C13.7501 21.1792 14.5709 22 15.5834 22C16.5959 22 17.4167 21.1792 17.4167 20.1667H13.7501ZM11.9167 13.75V11.9167V13.75ZM4.58341 13.75V11.9167V13.75ZM0.916748 18.0278H-0.916585H0.916748ZM-0.916585 20.1667C-0.916585 21.1792 -0.0957741 22 0.916748 22C1.92927 22 2.75008 21.1792 2.75008 20.1667H-0.916585ZM17.4167 20.1667V18.0278H13.7501V20.1667H17.4167ZM17.4167 18.0278C17.4167 16.4905 16.8958 14.9699 15.9014 13.8098L13.1175 16.1961C13.4984 16.6404 13.7501 17.296 13.7501 18.0278H17.4167ZM15.9014 13.8098C14.8996 12.641 13.4747 11.9167 11.9167 11.9167V15.5833C12.3038 15.5833 12.7441 15.7604 13.1175 16.1961L15.9014 13.8098ZM11.9167 11.9167H4.58341V15.5833H11.9167V11.9167ZM4.58341 11.9167C3.02551 11.9167 1.60057 12.641 0.598719 13.8098L3.38266 16.1961C3.75608 15.7604 4.1964 15.5833 4.58341 15.5833V11.9167ZM0.598719 13.8098C-0.395641 14.9699 -0.916585 16.4905 -0.916585 18.0278H2.75008C2.75008 17.296 3.00175 16.6404 3.38266 16.1961L0.598719 13.8098ZM-0.916585 18.0278V20.1667H2.75008V18.0278H-0.916585Z" fill="#0763C6" mask="url(#path-2-inside-1_2793_11447)"/>
<path d="M13.75 2.75C15.775 2.75 17.4167 4.39162 17.4167 6.41667C17.4167 7.5118 16.9366 8.4948 16.1753 9.16667" stroke="#0763C6" stroke-width="1.375" stroke-linecap="round" stroke-linejoin="round"/>
<path d="M8.24992 10.0833C10.275 10.0833 11.9166 8.44171 11.9166 6.41667C11.9166 4.39162 10.275 2.75 8.24992 2.75C6.22487 2.75 4.58325 4.39162 4.58325 6.41667C4.58325 8.44171 6.22487 10.0833 8.24992 10.0833Z" fill="#0763C6" stroke="#0763C6" stroke-width="1.83333" stroke-linecap="round" stroke-linejoin="round"/>
</svg>
