<svg width="20" height="20" viewBox="0 0 20 20" fill="none" xmlns="http://www.w3.org/2000/svg">
<g clip-path="url(#clip0_2710_7997)">
<path fill-rule="evenodd" clip-rule="evenodd" d="M16.2823 4.38571C16.197 4.3004 15.8873 3.99971 15.8873 3.87907C15.8873 3.75844 15.8753 3.82773 15.9606 3.74241L19.3729 0.330297C19.4149 0.286845 19.4651 0.252185 19.5206 0.228342C19.5761 0.204498 19.6358 0.191948 19.6962 0.191423C19.7566 0.190898 19.8165 0.20241 19.8724 0.225285C19.9283 0.24816 19.9791 0.281941 20.0219 0.324658C20.0646 0.367374 20.0984 0.41817 20.1212 0.474082C20.1441 0.529993 20.1556 0.5899 20.1551 0.650308C20.1546 0.710716 20.142 0.770415 20.1182 0.82592C20.0943 0.881426 20.0597 0.931627 20.0162 0.973595L16.604 4.38571C16.5186 4.471 16.4499 4.32156 16.3292 4.32156C16.2086 4.32156 16.3676 4.471 16.2823 4.38571Z" fill="#0763C6"/>
<path fill-rule="evenodd" clip-rule="evenodd" d="M19.6962 3.47406C19.6335 3.47325 19.5717 3.46011 19.5141 3.43538C19.4566 3.41066 19.4045 3.37485 19.3608 3.32998C19.3171 3.28511 19.2826 3.23206 19.2594 3.17388C19.2362 3.11569 19.2247 3.0535 19.2255 2.99086L19.2493 1.09529L17.3542 1.11914C17.2277 1.12079 17.1058 1.07211 17.0152 0.98382C16.9246 0.895529 16.8728 0.774858 16.8711 0.648351C16.8695 0.521845 16.9182 0.399867 17.0064 0.30925C17.0947 0.218634 17.2153 0.166802 17.3418 0.165158L20.2155 0.128906L20.1792 3.00279C20.1785 3.06547 20.1654 3.12739 20.1407 3.18501C20.116 3.24262 20.0802 3.29481 20.0354 3.33858C19.9905 3.38234 19.9375 3.41684 19.8793 3.44009C19.821 3.46333 19.7588 3.47488 19.6962 3.47406Z" fill="#0763C6"/>
<path d="M16.1855 3.78906L19.0016 1.13375" stroke="#0763C6" stroke-width="1.32748" stroke-linecap="round"/>
<path fill-rule="evenodd" clip-rule="evenodd" d="M5.08398 19.8066V16.2667C5.08398 16.1493 5.14508 16.0368 5.25382 15.9538C5.36257 15.8708 5.51006 15.8242 5.66385 15.8242C5.81764 15.8242 5.96513 15.8708 6.07388 15.9538C6.18262 16.0368 6.24372 16.1493 6.24372 16.2667V19.8066C6.24372 19.9239 6.18262 20.0365 6.07388 20.1195C5.96513 20.2025 5.81764 20.2491 5.66385 20.2491C5.51006 20.2491 5.36257 20.2025 5.25382 20.1195C5.14508 20.0365 5.08398 19.9239 5.08398 19.8066Z" fill="#0763C6"/>
<path fill-rule="evenodd" clip-rule="evenodd" d="M3.88086 18.5244C3.88086 18.3719 3.92785 18.2256 4.0115 18.1177C4.09516 18.0098 4.20861 17.9492 4.32691 17.9492H7.00322C7.12152 17.9492 7.23497 18.0098 7.31862 18.1177C7.40227 18.2256 7.44927 18.3719 7.44927 18.5244C7.44927 18.677 7.40227 18.8233 7.31862 18.9312C7.23497 19.0391 7.12152 19.0997 7.00322 19.0997H4.32691C4.20861 19.0997 4.09516 19.0391 4.0115 18.9312C3.92785 18.8233 3.88086 18.677 3.88086 18.5244Z" fill="#0763C6"/>
<path d="M12.6632 12.2486C15.333 12.5628 17.752 10.6532 18.0662 7.98348C18.3805 5.31374 16.4708 2.8948 13.801 2.58061C11.1311 2.26642 8.71209 4.17597 8.39788 6.8457C8.3136 7.56184 8.18827 8.74234 8.63077 9.62731" stroke="#0763C6" stroke-width="1.76113" stroke-linecap="round"/>
<path d="M6.15046 6.97218C3.49879 6.53012 1.49642 8.09413 1.05434 10.7457C0.612259 13.3973 2.40349 15.9051 5.05516 16.3472C7.70683 16.7893 10.2148 14.9981 10.6569 12.3465C10.7755 11.6353 10.9304 11.2253 10.5752 10.0695" stroke="#0763C6" stroke-width="1.76113" stroke-linecap="round"/>
</g>
<defs>
<clipPath id="clip0_2710_7997">
<rect width="20" height="20" fill="white"/>
</clipPath>
</defs>
</svg>
