<svg width="20" height="20" viewBox="0 0 20 20" fill="none" xmlns="http://www.w3.org/2000/svg">
<g clip-path="url(#clip0_1753_7697)">
<path d="M14.166 1.66797H5.83268C3.5315 1.66797 1.66602 3.53345 1.66602 5.83464V14.168C1.66602 16.4692 3.5315 18.3346 5.83268 18.3346H14.166C16.4672 18.3346 18.3327 16.4692 18.3327 14.168V5.83464C18.3327 3.53345 16.4672 1.66797 14.166 1.66797Z" stroke="#393B3D" stroke-width="2" stroke-linecap="round" stroke-linejoin="round"/>
<path d="M13.3337 9.4772C13.4366 10.1707 13.3181 10.8791 12.9952 11.5014C12.6723 12.1237 12.1614 12.6284 11.5351 12.9436C10.9088 13.2588 10.1991 13.3685 9.5069 13.2571C8.81468 13.1458 8.17521 12.8189 7.67944 12.3232C7.18367 11.8274 6.85685 11.1879 6.74546 10.4957C6.63408 9.8035 6.74379 9.09378 7.05901 8.46752C7.37423 7.84125 7.8789 7.33032 8.50123 7.00741C9.12356 6.68449 9.83187 6.56603 10.5254 6.66887C11.2328 6.77377 11.8878 7.10342 12.3935 7.60913C12.8992 8.11483 13.2288 8.76977 13.3337 9.4772Z" stroke="#393B3D" stroke-width="2" stroke-linecap="round" stroke-linejoin="round"/>
<path d="M14.584 5.41797H14.5923" stroke="#393B3D" stroke-width="2" stroke-linecap="round" stroke-linejoin="round"/>
</g>
<defs>
<clipPath id="clip0_1753_7697">
<rect width="20" height="20" fill="white"/>
</clipPath>
</defs>
</svg>
