<svg width="24" height="24" viewBox="0 0 24 24" fill="none" xmlns="http://www.w3.org/2000/svg">
<path d="M13.9998 9V5C13.9998 4.20435 13.6837 3.44129 13.1211 2.87868C12.5585 2.31607 11.7954 2 10.9998 2L6.99976 11V22H18.2798C18.7621 22.0055 19.2301 21.8364 19.5977 21.524C19.9652 21.2116 20.2074 20.7769 20.2798 20.3L21.6598 11.3C21.7033 11.0134 21.6839 10.7207 21.6031 10.4423C21.5223 10.1638 21.3819 9.90629 21.1916 9.68751C21.0014 9.46873 20.7658 9.29393 20.5013 9.17522C20.2368 9.0565 19.9497 8.99672 19.6598 9H13.9998ZM6.99976 22H3.99976C3.46932 22 2.96062 21.7893 2.58554 21.4142C2.21047 21.0391 1.99976 20.5304 1.99976 20V13C1.99976 12.4696 2.21047 11.9609 2.58554 11.5858C2.96062 11.2107 3.46932 11 3.99976 11H6.99976" fill="#0763C6"/>
<path d="M6.99976 11L10.9998 2C11.7954 2 12.5585 2.31607 13.1211 2.87868C13.6837 3.44129 13.9998 4.20435 13.9998 5V9H19.6598C19.9497 8.99672 20.2368 9.0565 20.5013 9.17522C20.7658 9.29393 21.0014 9.46873 21.1916 9.68751C21.3819 9.90629 21.5223 10.1638 21.6031 10.4423C21.6839 10.7207 21.7033 11.0134 21.6598 11.3L20.2798 20.3C20.2074 20.7769 19.9652 21.2116 19.5977 21.524C19.2301 21.8364 18.7621 22.0055 18.2798 22H6.99976M6.99976 11V22M6.99976 11H3.99976C3.46932 11 2.96062 11.2107 2.58554 11.5858C2.21047 11.9609 1.99976 12.4696 1.99976 13V20C1.99976 20.5304 2.21047 21.0391 2.58554 21.4142C2.96062 21.7893 3.46932 22 3.99976 22H6.99976" stroke="#0763C6" stroke-width="1.5" stroke-linecap="round" stroke-linejoin="round"/>
<line x1="5.875" y1="9" x2="5.875" y2="23" stroke="white" stroke-width="0.75"/>
</svg>
