<svg width="32" height="32" viewBox="0 0 32 32" fill="none" xmlns="http://www.w3.org/2000/svg">
<path d="M24 10.666C24 8.54428 23.1571 6.50945 21.6569 5.00916C20.1566 3.50887 18.1217 2.66602 16 2.66602C13.8783 2.66602 11.8434 3.50887 10.3431 5.00916C8.84286 6.50945 8 8.54428 8 10.666C8 19.9993 4 22.666 4 22.666H28C28 22.666 24 19.9993 24 10.666Z" stroke="#393B3D" stroke-width="2.66667" stroke-linecap="round" stroke-linejoin="round"/>
<path d="M18.3057 28C18.0713 28.4041 17.7348 28.7395 17.33 28.9727C16.9252 29.2059 16.4662 29.3286 15.999 29.3286C15.5319 29.3286 15.0729 29.2059 14.6681 28.9727C14.2633 28.7395 13.9268 28.4041 13.6924 28" stroke="#393B3D" stroke-width="2.66667" stroke-linecap="round" stroke-linejoin="round"/>
<circle cx="26.3593" cy="5.02629" r="3.69231" fill="#DB0000"/>
</svg>
