<svg width="24" height="24" viewBox="0 0 24 24" fill="none" xmlns="http://www.w3.org/2000/svg">
<g clip-path="url(#clip0_1307_14308)">
<path d="M19.9994 9.57031H8.57087C7.30851 9.57031 6.28516 10.5937 6.28516 11.856V18.7132C6.28516 19.9755 7.30851 20.9989 8.57087 20.9989H19.9994C21.2618 20.9989 22.2852 19.9755 22.2852 18.7132V11.856C22.2852 10.5937 21.2618 9.57031 19.9994 9.57031Z" stroke="#393B3D" stroke-width="1.9" stroke-linecap="round" stroke-linejoin="round"/>
<path d="M14.2857 17.5714C15.5481 17.5714 16.5714 16.5481 16.5714 15.2857C16.5714 14.0233 15.5481 13 14.2857 13C13.0233 13 12 14.0233 12 15.2857C12 16.5481 13.0233 17.5714 14.2857 17.5714Z" stroke="#393B3D" stroke-width="1.9" stroke-linecap="round" stroke-linejoin="round"/>
<path d="M17.5 9V5.28571C17.5 4.67951 17.2592 4.09812 16.8305 3.66947C16.4019 3.24082 15.8205 3 15.2143 3H3.78571C3.17951 3 2.59812 3.24082 2.16947 3.66947C1.74082 4.09812 1.5 4.67951 1.5 5.28571V12.1429C1.5 12.7491 1.74082 13.3304 2.16947 13.7591C2.59812 14.1878 3.17951 14.4286 3.78571 14.4286H6.07143" stroke="#393B3D" stroke-width="1.9" stroke-linecap="round" stroke-linejoin="round"/>
</g>
<defs>
<clipPath id="clip0_1307_14308">
<rect width="24" height="24" fill="white"/>
</clipPath>
</defs>
</svg>
