<svg width="24" height="24" viewBox="0 0 24 24" fill="none" xmlns="http://www.w3.org/2000/svg">
<path d="M23 20.9999V18.9999C22.9993 18.1136 22.7044 17.2527 22.1614 16.5522C21.6184 15.8517 20.8581 15.3515 20 15.1299" stroke="#2F3437" stroke-width="2" stroke-linecap="round" stroke-linejoin="round"/>
<mask id="path-2-inside-1_305_26136" fill="white">
<path d="M17 22V19.6667C17 18.429 16.5786 17.242 15.8284 16.3668C15.0783 15.4917 14.0609 15 13 15H5C3.93913 15 2.92172 15.4917 2.17157 16.3668C1.42143 17.242 1 18.429 1 19.6667V22"/>
</mask>
<path d="M15 22C15 23.1046 15.8954 24 17 24C18.1046 24 19 23.1046 19 22H15ZM13 15V13V15ZM5 15V13V15ZM1 19.6667H-1H1ZM-1 22C-1 23.1046 -0.10457 24 1 24C2.10457 24 3 23.1046 3 22H-1ZM19 22V19.6667H15V22H19ZM19 19.6667C19 17.9896 18.4317 16.3308 17.3469 15.0653L14.3099 17.6684C14.7254 18.1532 15 18.8683 15 19.6667H19ZM17.3469 15.0653C16.254 13.7902 14.6995 13 13 13V17C13.4222 17 13.9025 17.1932 14.3099 17.6684L17.3469 15.0653ZM13 13H5V17H13V13ZM5 13C3.30047 13 1.74598 13.7902 0.65306 15.0653L3.69009 17.6684C4.09745 17.1932 4.5778 17 5 17V13ZM0.65306 15.0653C-0.431697 16.3308 -1 17.9896 -1 19.6667H3C3 18.8683 3.27455 18.1532 3.69009 17.6684L0.65306 15.0653ZM-1 19.6667V22H3V19.6667H-1Z" fill="#2F3437" mask="url(#path-2-inside-1_305_26136)"/>
<path d="M16 3.12988C16.8604 3.35018 17.623 3.85058 18.1676 4.55219C18.7122 5.2538 19.0078 6.11671 19.0078 7.00488C19.0078 7.89305 18.7122 8.75596 18.1676 9.45757C17.623 10.1592 16.8604 10.6596 16 10.8799" stroke="#2F3437" stroke-width="2" stroke-linecap="round" stroke-linejoin="round"/>
<path d="M9 11C11.2091 11 13 9.20914 13 7C13 4.79086 11.2091 3 9 3C6.79086 3 5 4.79086 5 7C5 9.20914 6.79086 11 9 11Z" stroke="#2F3437" stroke-width="2" stroke-linecap="round" stroke-linejoin="round"/>
</svg>
