<svg width="60" height="60" viewBox="0 0 60 60" fill="none" xmlns="http://www.w3.org/2000/svg">
<g filter="url(#filter0_d_1307_14272)">
<rect x="9" y="9" width="42" height="42" rx="21" fill="white" shape-rendering="crispEdges"/>
<g clip-path="url(#clip0_1307_14272)">
<mask id="path-3-inside-1_1307_14272" fill="white">
<path fill-rule="evenodd" clip-rule="evenodd" d="M29.9997 39.4512C29.4686 39.4512 28.9485 39.6555 28.5469 40.0031C27.8104 40.6406 26.8499 41.0263 25.7994 41.0263C23.4797 41.0263 21.5991 39.1458 21.5991 36.826C21.5991 34.8802 22.9222 33.2435 24.7178 32.7663C25.0429 32.6799 25.2744 32.3715 25.2744 32.0351C25.2744 29.7515 27.39 27.9004 29.9997 27.9004C32.6094 27.9004 34.725 29.7515 34.725 32.0351C34.725 32.3715 34.9565 32.6799 35.2816 32.7663C37.0772 33.2435 38.4003 34.8802 38.4003 36.826C38.4003 39.1458 36.5198 41.0263 34.2 41.0263C33.1495 41.0263 32.189 40.6406 31.4525 40.0031C31.0509 39.6555 30.5308 39.4512 29.9997 39.4512Z"/>
</mask>
<path d="M28.5469 40.0031L29.7152 41.3529L28.5469 40.0031ZM27.3787 38.6534C26.9542 39.0208 26.4048 39.2412 25.7994 39.2412V42.8114C27.2951 42.8114 28.6666 42.2605 29.7152 41.3529L27.3787 38.6534ZM25.7994 39.2412C24.4656 39.2412 23.3842 38.1599 23.3842 36.826H19.814C19.814 40.1317 22.4938 42.8114 25.7994 42.8114V39.2412ZM23.3842 36.826C23.3842 35.7097 24.1432 34.7661 25.1762 34.4915L24.2593 31.0411C21.7012 31.7209 19.814 34.0508 19.814 36.826H23.3842ZM27.0595 32.0351C27.0595 30.9539 28.1445 29.6855 29.9997 29.6855V26.1153C26.6354 26.1153 23.4893 28.5492 23.4893 32.0351H27.0595ZM29.9997 29.6855C31.8549 29.6855 32.9399 30.9539 32.9399 32.0351H36.5102C36.5102 28.5492 33.364 26.1153 29.9997 26.1153V29.6855ZM34.8232 34.4916C35.8562 34.7661 36.6152 35.7097 36.6152 36.826H40.1854C40.1854 34.0508 38.2982 31.7209 35.7401 31.0411L34.8232 34.4916ZM36.6152 36.826C36.6152 38.1599 35.5339 39.2412 34.2 39.2412V42.8114C37.5056 42.8114 40.1854 40.1317 40.1854 36.826H36.6152ZM34.2 39.2412C33.5946 39.2412 33.0452 39.0208 32.6207 38.6534L30.2842 41.3529C31.3328 42.2605 32.7043 42.8114 34.2 42.8114V39.2412ZM32.9399 32.0351C32.9399 33.1599 33.6959 34.192 34.8232 34.4916L35.7401 31.0411C36.2171 31.1678 36.5102 31.583 36.5102 32.0351H32.9399ZM25.1762 34.4915C26.3035 34.192 27.0595 33.1599 27.0595 32.0351H23.4893C23.4893 31.583 23.7823 31.1678 24.2593 31.0411L25.1762 34.4915ZM32.6207 38.6534C31.9129 38.0407 30.9834 37.6661 29.9997 37.6661V41.2363C30.0783 41.2363 30.1889 41.2704 30.2842 41.3529L32.6207 38.6534ZM29.7152 41.3529C29.8105 41.2704 29.9211 41.2363 29.9997 41.2363V37.6661C29.016 37.6661 28.0865 38.0407 27.3787 38.6534L29.7152 41.3529Z" fill="#0763C6" mask="url(#path-3-inside-1_1307_14272)"/>
<circle cx="20.2341" cy="27.5832" r="1.94263" stroke="#0763C6" stroke-width="1.78512"/>
<circle cx="26.6394" cy="23.384" r="1.94263" stroke="#0763C6" stroke-width="1.78512"/>
<circle cx="33.0442" cy="23.384" r="1.94263" stroke="#0763C6" stroke-width="1.78512"/>
<circle cx="39.4495" cy="27.5832" r="1.94263" stroke="#0763C6" stroke-width="1.78512"/>
</g>
<rect x="9.20309" y="9.20309" width="41.5938" height="41.5938" rx="20.7969" stroke="#0763C6" stroke-opacity="0.15" stroke-width="0.40619" shape-rendering="crispEdges"/>
</g>
<defs>
<filter id="filter0_d_1307_14272" x="0.470019" y="0.876209" width="59.06" height="59.06" filterUnits="userSpaceOnUse" color-interpolation-filters="sRGB">
<feFlood flood-opacity="0" result="BackgroundImageFix"/>
<feColorMatrix in="SourceAlpha" type="matrix" values="0 0 0 0 0 0 0 0 0 0 0 0 0 0 0 0 0 0 127 0" result="hardAlpha"/>
<feOffset dy="0.40619"/>
<feGaussianBlur stdDeviation="4.26499"/>
<feComposite in2="hardAlpha" operator="out"/>
<feColorMatrix type="matrix" values="0 0 0 0 0 0 0 0 0 0 0 0 0 0 0 0 0 0 0.02 0"/>
<feBlend mode="normal" in2="BackgroundImageFix" result="effect1_dropShadow_1307_14272"/>
<feBlend mode="normal" in="SourceGraphic" in2="effect1_dropShadow_1307_14272" result="shape"/>
</filter>
<clipPath id="clip0_1307_14272">
<rect width="25.2017" height="25.2017" fill="white" transform="translate(17.3989 17.3984)"/>
</clipPath>
</defs>
</svg>
