<svg width="24" height="24" viewBox="0 0 24 24" fill="none" xmlns="http://www.w3.org/2000/svg">
<g clip-path="url(#clip0_7022_30929)">
<path d="M22.4704 16.5V13.5H19.5034L18.0053 12L11.998 18L13.4819 19.5C13.4819 21.0795 13.4819 22.4408 13.4819 24C14.2309 24 15.729 24 16.4781 24C16.4781 22.5 16.4781 21.2505 16.4781 19.5H19.4742V24C20.2233 24 21.7213 24 22.4704 24C22.4704 22.5 22.4704 21.2505 22.4704 19.5L23.9685 18L22.4704 16.5Z" fill="#393B3D"/>
<path d="M9.00501 0H9.00351H9.00276C4.26058 0.0135 0.698149 3.567 0.122886 7.67775C0.0464841 8.22 4.35981e-05 8.71875 4.35981e-05 9.2085C-0.00519968 10.7077 0.462202 12.0187 1.5588 13.956C2.65914 15.909 4.42238 18.5925 7.18334 23.0452L7.20057 23.073L7.22079 23.1C7.66123 23.6895 8.33536 24 8.99677 24H9.00426H9.01175C9.67315 24 10.3473 23.6895 10.787 23.1L10.8064 23.0737L10.8237 23.046C11.4274 22.0725 11.9832 21.183 12.4955 20.367L11.2274 19.569C10.7233 20.3722 10.175 21.249 9.58102 22.206C9.43121 22.4002 9.22522 22.4925 9.00351 22.4985C8.78179 22.4925 8.57581 22.4002 8.426 22.206C5.67627 17.7735 3.91303 15.0832 2.86437 13.2195C1.80748 11.3325 1.50337 10.3815 1.49812 9.2085C1.49812 8.8155 1.53558 8.3865 1.60599 7.88625C2.08462 4.48575 5.04783 1.503 9.00351 1.5C12.9592 1.503 15.9224 4.48575 16.4003 7.88625C16.4707 8.3865 16.5081 8.8155 16.5081 9.2085C16.5074 9.738 16.443 10.206 16.2842 10.7408L17.7193 11.1713C17.9193 10.5068 18.007 9.867 18.0062 9.20925C18.0062 8.7195 17.9598 8.22075 17.8834 7.6785C17.3081 3.567 13.7457 0.0135 9.00501 0Z" fill="#393B3D"/>
<path d="M6.02148 9C6.02298 10.656 7.36376 11.9985 9.01765 12C10.6715 11.9985 12.0123 10.656 12.0138 9C12.0123 7.344 10.6715 6.0015 9.01765 6C7.36376 6.0015 6.02298 7.344 6.02148 9ZM10.5157 9C10.5142 9.825 9.84159 10.4985 9.01765 10.5C8.1937 10.4985 7.52106 9.825 7.51956 9C7.52106 8.175 8.1937 7.5015 9.01765 7.5C9.84234 7.5015 10.515 8.175 10.5157 9Z" fill="#393B3D"/>
</g>
<defs>
<clipPath id="clip0_7022_30929">
<rect width="24" height="24" fill="white"/>
</clipPath>
</defs>
</svg>
