<svg width="24" height="24" viewBox="0 0 24 24" fill="none" xmlns="http://www.w3.org/2000/svg">
<g clip-path="url(#clip0_2209_20411)">
<path d="M0.75 1C0.75 0.861929 0.861929 0.75 1 0.75H23C23.1381 0.75 23.25 0.861929 23.25 1V23C23.25 23.1381 23.1381 23.25 23 23.25H1C0.861929 23.25 0.75 23.1381 0.75 23V1Z" stroke="#393939" stroke-width="1.5"/>
<path d="M17.22 9.24C17.22 9.94667 17.0533 10.6133 16.72 11.24C16.3867 11.8667 15.8533 12.38 15.12 12.78C14.3867 13.1667 13.4467 13.36 12.3 13.36H9.78V19H7.5V5.1H12.3C13.3667 5.1 14.2667 5.28667 15 5.66C15.7467 6.02 16.3 6.51333 16.66 7.14C17.0333 7.76667 17.22 8.46667 17.22 9.24ZM12.3 11.5C13.1667 11.5 13.8133 11.3067 14.24 10.92C14.6667 10.52 14.88 9.96 14.88 9.24C14.88 7.72 14.02 6.96 12.3 6.96H9.78V11.5H12.3Z" fill="#393B3D"/>
</g>
<defs>
<clipPath id="clip0_2209_20411">
<rect width="24" height="24" fill="white"/>
</clipPath>
</defs>
</svg>
