<svg width="24" height="24" viewBox="0 0 24 24" fill="none" xmlns="http://www.w3.org/2000/svg">
<path d="M14.2406 1.00238C13.5112 0.843219 12.7445 0.757324 11.9559 0.757324C11.2639 0.757324 10.5907 0.823008 9.94237 0.949324C6.04003 1.68953 3.11328 4.53922 3.11328 7.92448C3.11328 9.66511 4.14185 11.7999 4.98341 13.0883C6.14289 14.8112 9.86133 20.1468 10.9616 21.7336L11.9621 23.1607L12.9252 21.751C12.9661 21.7156 17.4572 15.223 18.9567 13.1085C19.8513 11.8377 20.805 9.59185 20.805 7.92448C20.8047 4.61753 18.0089 1.8209 14.2406 1.00238ZM17.0177 12.2091C16.759 12.5805 16.4099 13.0779 16.0109 13.6491C15.9954 13.6744 15.9767 13.6994 15.958 13.7274C14.7237 15.4959 13.0312 17.9287 11.9559 19.4925C10.8463 17.9186 9.14445 15.458 7.96003 13.7274C7.94133 13.7022 7.92263 13.6769 7.90705 13.6516C7.50809 13.0678 7.17146 12.5727 6.94081 12.2293C6.14289 11.0344 5.32315 9.23311 5.32315 7.92423C5.32315 5.58739 7.1964 3.58655 9.78341 2.85391C10.466 2.65939 11.1985 2.55328 11.959 2.55328C12.7881 2.55328 13.5954 2.6796 14.3496 2.9196C15.1912 3.18486 15.9673 3.59412 16.6284 4.1297C17.8717 5.15539 18.564 6.47918 18.564 7.92423C18.5637 9.21796 17.747 11.1632 17.0177 12.2091Z" fill="black"/>
<path d="M11.9722 11.4565H11.9473V11.4666H11.9722V11.4565Z" fill="black"/>
<path d="M11.9722 11.4565H11.9473V11.4666H11.9722V11.4565Z" fill="black"/>
<path d="M11.9492 11.4565V11.4666H11.9742V11.4565H11.9492Z" fill="black"/>
<path d="M7.96314 13.7276H7.91016V13.6519C7.92574 13.6771 7.94444 13.7024 7.96314 13.7276Z" fill="black"/>
<path d="M16.0139 13.6494V13.7277H15.9609C15.9796 13.6999 15.9983 13.6747 16.0139 13.6494Z" fill="black"/>
<path d="M15.933 9.7007C16.0551 9.82274 16.2152 9.88403 16.3751 9.88403C16.535 9.88403 16.6949 9.82274 16.8169 9.7007C17.061 9.4566 17.061 9.06116 16.8169 8.81707L11.9999 4L7.18307 8.81707C6.93898 9.06116 6.93898 9.4566 7.18307 9.7007C7.42689 9.94505 7.82261 9.94505 8.06643 9.7007L8.24977 9.51736V12.5669H15.7497V9.51736L15.933 9.7007ZM12.7553 11.1618C12.6325 11.1618 12.5331 11.0624 12.5331 10.9398C12.5331 10.8172 12.6325 10.7176 12.7553 10.7176C12.8779 10.7176 12.9773 10.817 12.9773 10.9395C12.9773 11.0621 12.8779 11.1618 12.7553 11.1618ZM15.1254 11.9423H13.2499V9.44195H10.7501V11.9423H8.87465V8.89248L11.9999 5.76753L15.1254 8.89248V11.9423Z" fill="black"/>
</svg>
