<svg width="344" height="215" viewBox="0 0 344 215" fill="none" xmlns="http://www.w3.org/2000/svg">
<g clip-path="url(#clip0_3363_29321)">
<g clip-path="url(#clip1_3363_29321)">
<path d="M255.937 75.6488C255.937 75.6488 247.872 12.5382 200.286 57.9119C139.285 116.074 98.2807 0.475239 53.0282 47.6616C28.3059 73.4393 93.6344 131.09 50.0042 161.43C6.37399 191.77 42.0277 214.484 42.0277 214.484H289.771C289.771 214.484 315.418 216.336 317.359 183.883C319.298 151.43 289.485 151.037 307.988 110.425C326.491 69.814 261.752 101.498 255.937 75.6488Z" fill="#F5FBFF"/>
<g opacity="0.5">
<path opacity="0.5" d="M170.371 109.831C177.952 109.831 184.099 103.685 184.099 96.103C184.099 88.5212 177.952 82.375 170.371 82.375C162.789 82.375 156.643 88.5212 156.643 96.103C156.643 103.685 162.789 109.831 170.371 109.831Z" fill="white" stroke="#4D6173" stroke-width="0.723668" stroke-miterlimit="10"/>
<g opacity="0.5">
<path d="M170.37 91.3125C170.476 92.1109 170.546 92.9118 170.597 93.7103C170.628 94.1107 170.64 94.5087 170.662 94.9091C170.683 95.3096 170.688 95.7076 170.703 96.108L170.601 95.8692C171.132 96.3589 171.651 96.863 172.167 97.3648C172.678 97.8738 173.192 98.3827 173.689 98.9062C173.942 99.1643 174.188 99.4272 174.432 99.695C174.678 99.9603 174.922 100.226 175.161 100.498C175.643 101.039 176.113 101.589 176.56 102.165C175.976 101.731 175.414 101.273 174.864 100.802C174.586 100.571 174.314 100.332 174.044 100.091C173.771 99.8518 173.503 99.6106 173.238 99.3645C172.703 98.8797 172.184 98.3779 171.663 97.8786C171.149 97.372 170.633 96.8654 170.133 96.3444L170.027 96.2359L170.032 96.1056C170.047 95.7052 170.051 95.3071 170.073 94.9067C170.095 94.5063 170.107 94.1083 170.138 93.7078C170.194 92.9094 170.264 92.1109 170.37 91.3125Z" fill="#4D6173"/>
</g>
</g>
<g opacity="0.2">
<rect x="239.639" y="95.2422" width="30.888" height="57.486" fill="white" stroke="#A4B6C6" stroke-width="1.716"/>
<rect x="239.639" y="145.008" width="30.888" height="7.722" stroke="#A4B6C6" stroke-width="1.716"/>
<rect x="239.639" y="137.281" width="30.888" height="7.722" stroke="#A4B6C6" stroke-width="1.716"/>
<rect x="239.639" y="129.562" width="30.888" height="7.722" stroke="#A4B6C6" stroke-width="1.716"/>
<rect x="239.639" y="121.844" width="30.888" height="7.722" stroke="#A4B6C6" stroke-width="1.716"/>
<rect x="239.639" y="114.117" width="30.888" height="7.722" stroke="#A4B6C6" stroke-width="1.716"/>
<rect x="239.639" y="106.398" width="30.888" height="7.722" stroke="#A4B6C6" stroke-width="1.716"/>
<rect x="239.639" y="100.391" width="30.888" height="6.006" stroke="#A4B6C6" stroke-width="1.716"/>
<rect x="208.75" y="95.2422" width="30.888" height="57.486" stroke="#A4B6C6" stroke-width="1.716"/>
<rect x="212.182" y="100.391" width="24.024" height="47.19" fill="white" stroke="#A4B6C6" stroke-width="1.716"/>
</g>
<g opacity="0.2">
<path d="M89.5735 109.386L88.8457 112.27H100.665L99.9369 109.386M89.5735 109.386L92.889 96.2449V91.1168H94.7552M89.5735 109.386H99.9369M99.9369 109.386L96.6213 96.2449V91.1168H94.7552M94.7552 91.1168C94.4442 88.5527 94.8796 82.5272 99.1095 78.9375" stroke="#A4B6C6" stroke-width="1.716"/>
<rect x="106.887" y="99.1328" width="15.5513" height="13.4613" rx="3.432" fill="white" stroke="#A4B6C6" stroke-width="1.716"/>
<path d="M106.887 102.977H122.438" stroke="#A4B6C6" stroke-width="1.716"/>
<path d="M114.662 99.132C112.796 98.9183 108.131 97.5295 108.131 93.6834C111.241 94.0039 112.485 94.6449 114.662 99.132ZM114.662 99.132C113.315 96.7816 111.49 91.1834 114.973 87.5938C118.208 91.1834 116.114 96.7816 114.662 99.132ZM114.662 99.132C114.662 99.4525 117.151 93.6834 122.127 93.3629C122.127 96.1834 117.151 98.3842 114.662 99.132Z" stroke="#A4B6C6" stroke-width="1.716"/>
<rect x="82.625" y="112.594" width="49.764" height="5.76914" stroke="#A4B6C6" stroke-width="1.716"/>
</g>
<path d="M41.7129 214.102H277.784" stroke="#A4B6C6" stroke-width="1.716" stroke-miterlimit="10"/>
<path d="M286.051 214.102H315.226" stroke="#A4B6C6" stroke-width="1.716" stroke-miterlimit="10"/>
</g>
<rect x="153.152" y="151" width="85.5984" height="61.8211" rx="4.57488" fill="#CFD9E2" stroke="#A4B6C6" stroke-width="1.716"/>
<rect x="148.387" y="151" width="77.6727" height="61.8211" rx="4.57488" fill="white" stroke="#A4B6C6" stroke-width="1.716"/>
<path d="M177.999 177.678C175.051 177.678 172.576 175.793 171.632 173.082C171.397 172.493 171.75 171.903 172.34 171.668C172.929 171.432 173.519 171.785 173.755 172.375C174.344 174.143 176.112 175.439 177.999 175.439C179.885 175.439 181.653 174.26 182.243 172.375C182.479 171.785 183.068 171.432 183.658 171.668C184.247 171.903 184.601 172.493 184.365 173.082C183.422 175.91 180.946 177.678 177.999 177.678Z" fill="#CFD9E2"/>
<path d="M195.794 177.678C192.846 177.678 190.371 175.793 189.427 173.082C189.192 172.493 189.545 171.903 190.135 171.668C190.724 171.432 191.314 171.785 191.549 172.375C192.139 174.143 193.907 175.439 195.794 175.439C197.68 175.439 199.448 174.26 200.038 172.375C200.274 171.785 200.863 171.432 201.452 171.668C202.042 171.903 202.396 172.493 202.16 173.082C201.217 175.91 198.741 177.678 195.794 177.678Z" fill="#CFD9E2"/>
<path d="M186.676 190.5C190.805 190.5 194.152 199.29 194.152 195.162C194.152 191.034 190.805 187.688 186.676 187.688C182.547 187.688 179.199 191.034 179.199 195.162C179.199 199.29 182.547 190.5 186.676 190.5Z" fill="#CFD9E2"/>
<rect x="153.146" y="155.758" width="68.1617" height="52.3102" rx="2.28744" stroke="#A4B6C6" stroke-width="0.57186" stroke-dasharray="1.14 1.14"/>
<path d="M85.9979 214.475H73.7959C73.4737 214.475 73.1942 214.261 73.1087 213.952L67.9498 195.279C67.8248 194.825 68.1668 194.375 68.637 194.375H91.1535C91.627 194.375 91.969 194.825 91.8407 195.279L86.6818 213.952C86.5996 214.261 86.3201 214.475 85.9979 214.475Z" fill="white" stroke="#A4B6C6" stroke-width="1.716" stroke-miterlimit="10"/>
<path d="M83.3517 194.37C83.3517 194.37 83.0558 186.357 89.4346 178.344" stroke="#A4B6C6" stroke-width="0.986414" stroke-miterlimit="10"/>
<path d="M67.9238 182.237C75.2496 179.38 76.2294 194.367 76.2294 194.367" stroke="#A4B6C6" stroke-width="0.986414" stroke-miterlimit="10"/>
<path d="M79.6261 194.369L78.4062 183.555" stroke="#A4B6C6" stroke-width="0.986414" stroke-miterlimit="10"/>
<path d="M85.2332 180.331L85.2346 180.33C85.2953 180.241 85.3618 180.153 85.4322 180.059C85.4499 180.036 85.4679 180.012 85.486 179.988C86.9649 178.091 88.6666 176.551 90.9466 175.817C93.205 175.09 96.0552 175.147 99.8567 176.477C98.8029 176.495 97.0407 176.62 95.4553 177.172C93.8129 177.743 92.3141 178.791 92.0482 180.697L92.0482 180.697C91.7956 182.525 91.3002 183.775 90.6669 184.591C90.0369 185.403 89.2645 185.795 88.4324 185.9C85.436 186.275 83.4773 182.816 85.2332 180.331Z" fill="#CFD9E2" stroke="#A4B6C6" stroke-width="0.328805"/>
<path d="M78.1067 166.983C78.1093 167.219 78.1144 167.527 78.1241 167.889C78.1473 168.758 78.1969 169.938 78.3022 171.181C78.4075 172.424 78.5689 173.734 78.8166 174.862C79.0623 175.981 79.3992 176.952 79.8746 177.489C80.2928 177.963 80.5736 178.638 80.7135 179.392C80.8532 180.144 80.8503 180.962 80.7117 181.711C80.5727 182.461 80.2999 183.129 79.9109 183.592C79.5258 184.05 79.0305 184.304 78.4242 184.25C77.8319 184.197 77.1256 183.663 76.4945 182.686C75.8698 181.718 75.3424 180.349 75.0948 178.703C74.6158 175.518 75.186 171.306 78.1067 166.983Z" fill="#CFD9E2" stroke="#A4B6C6" stroke-width="0.328805"/>
<path d="M66.4794 181.278L66.4795 181.278C67.7789 180.874 68.6272 181.121 69.0644 181.675C69.5109 182.241 69.5868 183.194 69.1821 184.323C68.3886 186.538 65.7808 189.299 61.0343 190.612C61.0353 190.575 61.0366 190.534 61.0383 190.488C61.0464 190.271 61.0644 189.957 61.1035 189.575C61.1817 188.81 61.3443 187.772 61.6816 186.682C62.3575 184.497 63.7226 182.134 66.4794 181.278Z" fill="#CFD9E2" stroke="#A4B6C6" stroke-width="0.328805"/>
<path d="M148.543 143.259C141.44 139.867 135.718 133.666 133.027 126.164C130.257 118.723 130.699 110.219 133.871 103.158C134.877 101.011 136.242 98.8417 138.092 97.3091C139.941 95.7765 142.495 94.8392 144.979 95.4624C147.343 95.9264 149.398 98.1326 149.574 100.511C149.61 102.871 147.865 105.203 145.672 106.118C142.303 107.801 138.159 107.309 135.324 105.068C132.489 102.827 133.521 97.9147 131.798 95.3117C130.675 92.5855 130.729 93.5766 131.085 88.1797C130.088 77.9692 132.943 72.598 136.034 63.6287" stroke="#A4B6C6" stroke-width="2" stroke-miterlimit="10" stroke-dasharray="4 4"/>
<path d="M134.865 60.1427C134.924 60.6345 134.86 61.1332 134.679 61.5943C134.498 62.0554 134.206 62.4645 133.828 62.7851C133.451 63.1058 133 63.3279 132.516 63.4318C132.031 63.5356 131.529 63.5179 131.053 63.3803C130.577 63.2427 130.143 62.9894 129.789 62.643C129.435 62.2967 129.172 61.868 129.024 61.3954C128.876 60.9227 128.847 60.4208 128.94 59.9343C129.033 59.4478 129.245 58.992 129.558 58.6074L129.537 58.6345C128.488 58.4654 127.533 57.9309 126.841 57.1256C126.148 56.3203 125.762 55.2959 125.752 54.2338C125.742 53.1716 126.107 52.1399 126.784 51.3213C127.461 50.5026 128.405 49.9496 129.451 49.7601C130.842 49.5103 132.199 49.9292 133.191 50.7864C133.526 50.1765 133.999 49.6528 134.571 49.2563C135.143 48.8599 135.799 48.6015 136.488 48.5016C137.177 48.4016 137.879 48.4629 138.54 48.6804C139.201 48.8979 139.803 49.2659 140.298 49.7553C140.793 50.2447 141.168 50.8422 141.392 51.5009C141.617 52.1596 141.686 52.8614 141.594 53.5513C141.502 54.2412 141.251 54.9003 140.861 55.4767C140.471 56.0532 139.952 56.5313 139.346 56.8735C139.775 57.1333 140.132 57.4964 140.384 57.9297C140.637 58.3629 140.777 58.8526 140.791 59.3538C140.805 59.855 140.694 60.3519 140.467 60.7989C140.239 61.2459 139.904 61.6288 139.49 61.9127C139.077 62.1965 138.599 62.3723 138.1 62.4238C137.602 62.4753 137.098 62.401 136.635 62.2076C136.173 62.0142 135.766 61.708 135.452 61.3169C135.138 60.9257 134.928 60.4622 134.839 59.9686L134.865 60.1427ZM135.016 60.9529L133.249 51.1102L135.016 60.9529ZM129.236 45.7347L132.542 47.1732L135.142 44.6745" fill="#EAEEF9"/>
<path d="M135.016 60.9529L133.249 51.1102M129.236 45.7347L132.542 47.1732L135.142 44.6745M134.865 60.1427C134.924 60.6345 134.86 61.1332 134.679 61.5943C134.498 62.0554 134.206 62.4645 133.828 62.7851C133.451 63.1058 133 63.3279 132.516 63.4318C132.031 63.5356 131.529 63.5179 131.053 63.3803C130.577 63.2427 130.143 62.9894 129.789 62.643C129.435 62.2967 129.172 61.868 129.024 61.3954C128.876 60.9227 128.847 60.4208 128.94 59.9343C129.033 59.4478 129.245 58.992 129.558 58.6074L129.537 58.6345C128.488 58.4654 127.533 57.9309 126.841 57.1256C126.148 56.3203 125.762 55.2959 125.752 54.2338C125.742 53.1716 126.107 52.1399 126.784 51.3213C127.461 50.5026 128.405 49.9496 129.451 49.7601C130.842 49.5103 132.199 49.9292 133.191 50.7864C133.526 50.1765 133.999 49.6528 134.571 49.2563C135.143 48.8599 135.799 48.6015 136.488 48.5016C137.177 48.4016 137.879 48.4629 138.54 48.6804C139.201 48.8979 139.803 49.2659 140.298 49.7553C140.793 50.2447 141.168 50.8422 141.392 51.5009C141.617 52.1596 141.686 52.8614 141.594 53.5513C141.502 54.2412 141.251 54.9003 140.861 55.4767C140.471 56.0532 139.952 56.5313 139.346 56.8735C139.775 57.1333 140.132 57.4964 140.384 57.9297C140.637 58.3629 140.777 58.8526 140.791 59.3538C140.805 59.855 140.694 60.3519 140.467 60.7989C140.239 61.2459 139.904 61.6288 139.49 61.9127C139.077 62.1965 138.599 62.3723 138.1 62.4238C137.602 62.4753 137.098 62.401 136.635 62.2076C136.173 62.0142 135.766 61.708 135.452 61.3169C135.138 60.9257 134.928 60.4622 134.839 59.9686L134.865 60.1427Z" stroke="#A4B6C6" stroke-width="2" stroke-linecap="round" stroke-linejoin="round"/>
<path d="M97.1417 149.94C97.3872 149.808 97.6615 149.739 97.9403 149.738C98.2191 149.738 98.4936 149.807 98.7393 149.939C98.985 150.07 99.1943 150.261 99.3485 150.493C99.5027 150.725 99.597 150.992 99.6229 151.27C99.6489 151.547 99.6057 151.827 99.4973 152.084C99.3888 152.341 99.2185 152.566 99.0014 152.741C98.7844 152.916 98.5274 153.035 98.2534 153.086C97.9794 153.138 97.697 153.121 97.4312 153.036L97.4497 153.042C97.5772 153.626 97.494 154.236 97.215 154.765C96.9359 155.293 96.4789 155.706 95.9247 155.931C95.3705 156.155 94.7548 156.176 94.1866 155.99C93.6183 155.805 93.1341 155.424 92.8195 154.915C92.4018 154.238 92.3418 153.441 92.5863 152.745C92.1978 152.695 91.8261 152.556 91.5006 152.338C91.1751 152.12 90.9046 151.829 90.7103 151.489C90.516 151.149 90.4033 150.768 90.381 150.377C90.3587 149.986 90.4274 149.595 90.5818 149.235C90.7362 148.875 90.9719 148.556 91.2706 148.302C91.5692 148.049 91.9226 147.868 92.3029 147.774C92.6833 147.68 93.0802 147.676 93.4625 147.761C93.8448 147.847 94.202 148.02 94.5061 148.267C94.5538 147.989 94.6704 147.727 94.8453 147.505C95.0203 147.284 95.2479 147.11 95.5075 146.999C95.767 146.888 96.0502 146.844 96.3312 146.871C96.6121 146.898 96.8818 146.995 97.1157 147.153C97.3495 147.311 97.54 147.525 97.6698 147.776C97.7995 148.026 97.8644 148.305 97.8585 148.588C97.8525 148.87 97.7759 149.146 97.6357 149.391C97.4955 149.636 97.2962 149.842 97.0559 149.99L97.1417 149.94ZM97.535 149.694L92.7439 152.648L97.535 149.694ZM90.7554 155.857L90.8275 153.829L88.9832 152.983" fill="#EAEEF9"/>
<path d="M97.535 149.694L92.7439 152.648M90.7554 155.857L90.8275 153.829L88.9832 152.983M97.1417 149.94C97.3872 149.808 97.6615 149.739 97.9403 149.738C98.2191 149.738 98.4936 149.807 98.7393 149.939C98.985 150.07 99.1943 150.261 99.3485 150.493C99.5027 150.725 99.597 150.992 99.6229 151.27C99.6489 151.547 99.6057 151.827 99.4973 152.084C99.3888 152.341 99.2185 152.566 99.0014 152.741C98.7844 152.916 98.5274 153.035 98.2534 153.086C97.9794 153.138 97.697 153.121 97.4312 153.036L97.4497 153.042C97.5772 153.626 97.494 154.236 97.215 154.765C96.9359 155.293 96.4789 155.706 95.9247 155.931C95.3705 156.155 94.7548 156.176 94.1866 155.99C93.6183 155.805 93.1341 155.424 92.8195 154.915C92.4018 154.238 92.3418 153.441 92.5863 152.745C92.1978 152.695 91.8261 152.556 91.5006 152.338C91.1751 152.12 90.9046 151.829 90.7103 151.489C90.516 151.149 90.4033 150.768 90.381 150.377C90.3587 149.986 90.4274 149.595 90.5818 149.235C90.7362 148.875 90.9719 148.556 91.2706 148.302C91.5692 148.049 91.9226 147.868 92.3029 147.774C92.6833 147.68 93.0802 147.676 93.4625 147.761C93.8448 147.847 94.202 148.02 94.5061 148.267C94.5538 147.989 94.6704 147.727 94.8453 147.505C95.0203 147.284 95.2479 147.11 95.5075 146.999C95.767 146.888 96.0502 146.844 96.3312 146.871C96.6121 146.898 96.8818 146.995 97.1157 147.153C97.3495 147.311 97.54 147.525 97.6698 147.776C97.7995 148.026 97.8644 148.305 97.8585 148.588C97.8525 148.87 97.7759 149.146 97.6357 149.391C97.4955 149.636 97.2962 149.842 97.0559 149.99L97.1417 149.94Z" stroke="#A4B6C6" stroke-width="2" stroke-linecap="round" stroke-linejoin="round"/>
<path d="M99.834 147.445C108.191 141.089 127.325 134.199 141.125 151.846" stroke="#A4B6C6" stroke-width="2" stroke-miterlimit="10" stroke-dasharray="4 4"/>
</g>
<defs>
<clipPath id="clip0_3363_29321">
<rect width="343.2" height="214.5" fill="white"/>
</clipPath>
<clipPath id="clip1_3363_29321">
<rect width="289.412" height="178.553" fill="white" transform="translate(28.3047 36.0391)"/>
</clipPath>
</defs>
</svg>
