<svg width="60" height="60" viewBox="0 0 60 60" fill="none" xmlns="http://www.w3.org/2000/svg">
<g filter="url(#filter0_d_1307_14302)">
<rect x="9" y="9" width="42" height="42" rx="21" fill="white" shape-rendering="crispEdges"/>
<g clip-path="url(#clip0_1307_14302)">
<path d="M37.6861 19.752H22.3148C20.1924 19.752 18.4719 21.4725 18.4719 23.5948V36.4042C18.4719 38.5266 20.1924 40.2471 22.3148 40.2471H37.6861C39.8085 40.2471 41.5289 38.5266 41.5289 36.4042V23.5948C41.5289 21.4725 39.8085 19.752 37.6861 19.752Z" stroke="#0763C6" stroke-width="1.92142" stroke-linecap="round" stroke-linejoin="round"/>
<path d="M26.1591 30.0007C27.574 30.0007 28.721 28.8537 28.721 27.4388C28.721 26.024 27.574 24.877 26.1591 24.877C24.7442 24.877 23.5972 26.024 23.5972 27.4388C23.5972 28.8537 24.7442 30.0007 26.1591 30.0007Z" stroke="#0763C6" stroke-width="1.92142" stroke-linecap="round" stroke-linejoin="round"/>
<path d="M33.8435 24.877H36.4054" stroke="#0763C6" stroke-width="1.92142" stroke-linecap="round" stroke-linejoin="round"/>
<path d="M33.8435 30H36.4054" stroke="#0763C6" stroke-width="1.92142" stroke-linecap="round" stroke-linejoin="round"/>
<path d="M24.0955 34.7246H35.9088" stroke="#0763C6" stroke-width="1.772" stroke-linecap="round" stroke-linejoin="round"/>
</g>
<rect x="9.20309" y="9.20309" width="41.5938" height="41.5938" rx="20.7969" stroke="#0763C6" stroke-opacity="0.15" stroke-width="0.40619" shape-rendering="crispEdges"/>
</g>
<defs>
<filter id="filter0_d_1307_14302" x="0.470019" y="0.876209" width="59.06" height="59.06" filterUnits="userSpaceOnUse" color-interpolation-filters="sRGB">
<feFlood flood-opacity="0" result="BackgroundImageFix"/>
<feColorMatrix in="SourceAlpha" type="matrix" values="0 0 0 0 0 0 0 0 0 0 0 0 0 0 0 0 0 0 127 0" result="hardAlpha"/>
<feOffset dy="0.40619"/>
<feGaussianBlur stdDeviation="4.26499"/>
<feComposite in2="hardAlpha" operator="out"/>
<feColorMatrix type="matrix" values="0 0 0 0 0 0 0 0 0 0 0 0 0 0 0 0 0 0 0.02 0"/>
<feBlend mode="normal" in2="BackgroundImageFix" result="effect1_dropShadow_1307_14302"/>
<feBlend mode="normal" in="SourceGraphic" in2="effect1_dropShadow_1307_14302" result="shape"/>
</filter>
<clipPath id="clip0_1307_14302">
<rect width="25.2017" height="25.2017" fill="white" transform="translate(17.3992 17.3984)"/>
</clipPath>
</defs>
</svg>
