<svg width="27" height="27" viewBox="0 0 27 27" fill="none" xmlns="http://www.w3.org/2000/svg">
<mask id="path-1-inside-1_3363_33720" fill="white">
<path fill-rule="evenodd" clip-rule="evenodd" d="M9.71634 14.6323C10.0725 14.6323 10.3614 14.3434 10.3614 13.9872C10.3614 13.3939 10.8431 12.9122 11.4365 12.9122H16.5968C16.9529 12.9122 17.2419 12.6232 17.2419 12.2671V5.38665C17.2419 4.08024 16.1831 3.02148 14.8767 3.02148H2.83587C1.52946 3.02148 0.470703 4.08024 0.470703 5.38665V12.2671C0.470703 13.5735 1.52946 14.6323 2.83587 14.6323H9.71634ZM15.952 11.6221V5.3864C15.952 4.79301 15.4703 4.31133 14.8769 4.31133H2.83611C2.24272 4.31133 1.76104 4.793 1.76104 5.3864V12.2669C1.76104 12.8603 2.24271 13.342 2.83611 13.342H9.16124C9.44152 12.3494 10.3542 11.6218 11.437 11.6218L15.952 11.6221Z"/>
</mask>
<path fill-rule="evenodd" clip-rule="evenodd" d="M9.71634 14.6323C10.0725 14.6323 10.3614 14.3434 10.3614 13.9872C10.3614 13.3939 10.8431 12.9122 11.4365 12.9122H16.5968C16.9529 12.9122 17.2419 12.6232 17.2419 12.2671V5.38665C17.2419 4.08024 16.1831 3.02148 14.8767 3.02148H2.83587C1.52946 3.02148 0.470703 4.08024 0.470703 5.38665V12.2671C0.470703 13.5735 1.52946 14.6323 2.83587 14.6323H9.71634ZM15.952 11.6221V5.3864C15.952 4.79301 15.4703 4.31133 14.8769 4.31133H2.83611C2.24272 4.31133 1.76104 4.793 1.76104 5.3864V12.2669C1.76104 12.8603 2.24271 13.342 2.83611 13.342H9.16124C9.44152 12.3494 10.3542 11.6218 11.437 11.6218L15.952 11.6221Z" fill="#0763C6"/>
<path d="M15.952 11.6221L15.9511 28.0506L32.3806 28.0515V11.6221H15.952ZM9.16124 13.342V29.7705H21.5929L24.9715 17.8068L9.16124 13.342ZM11.437 11.6218L11.4378 -4.80674H11.437V11.6218ZM9.71634 31.0609C19.1457 31.0609 26.79 23.4166 26.79 13.9872H-6.06718C-6.06718 5.27011 0.999214 -1.79628 9.71634 -1.79628V31.0609ZM26.79 13.9872C26.79 22.467 19.9164 29.3407 11.4365 29.3407V-3.5164C1.76971 -3.5164 -6.06718 4.3207 -6.06718 13.9872H26.79ZM11.4365 29.3407H16.5968V-3.5164H11.4365V29.3407ZM16.5968 29.3407C26.0262 29.3407 33.6704 21.6965 33.6704 12.2671H0.813295C0.813295 3.54999 7.87969 -3.5164 16.5968 -3.5164V29.3407ZM33.6704 12.2671V5.38665H0.813295V12.2671H33.6704ZM33.6704 5.38665C33.6704 -4.99301 25.2564 -13.4071 14.8767 -13.4071V19.4501C7.10986 19.4501 0.813295 13.1535 0.813295 5.38665H33.6704ZM14.8767 -13.4071H2.83587V19.4501H14.8767V-13.4071ZM2.83587 -13.4071C-7.54379 -13.4071 -15.9579 -4.99301 -15.9579 5.38665H16.8993C16.8993 13.1535 10.6027 19.4501 2.83587 19.4501V-13.4071ZM-15.9579 5.38665V12.2671H16.8993V5.38665H-15.9579ZM-15.9579 12.2671C-15.9579 22.6468 -7.54379 31.0609 2.83587 31.0609V-1.79628C10.6027 -1.79628 16.8993 4.50028 16.8993 12.2671H-15.9579ZM2.83587 31.0609H9.71634V-1.79628H2.83587V31.0609ZM32.3806 11.6221V5.3864H-0.476548V11.6221H32.3806ZM32.3806 5.3864C32.3806 -4.28014 24.5437 -12.1172 14.8769 -12.1172V20.7399C6.397 20.7399 -0.476548 13.8662 -0.476548 5.3864H32.3806ZM14.8769 -12.1172H2.83611V20.7399H14.8769V-12.1172ZM2.83611 -12.1172C-6.83042 -12.1172 -14.6675 -4.28035 -14.6675 5.3864H18.1896C18.1896 13.8664 11.3159 20.7399 2.83611 20.7399V-12.1172ZM-14.6675 5.3864V12.2669H18.1896V5.3864H-14.6675ZM-14.6675 12.2669C-14.6675 21.9334 -6.83063 29.7705 2.83611 29.7705V-3.08662C11.316 -3.08662 18.1896 3.78711 18.1896 12.2669H-14.6675ZM2.83611 29.7705H9.16124V-3.08662H2.83611V29.7705ZM24.9715 17.8068C23.3054 23.7064 17.8981 28.0504 11.437 28.0504V-4.80674C2.81023 -4.80674 -4.42234 0.992445 -6.64899 8.87712L24.9715 17.8068ZM11.4361 28.0504L15.9511 28.0506L15.9529 -4.80649L11.4378 -4.80674L11.4361 28.0504Z" fill="#0763C6" mask="url(#path-1-inside-1_3363_33720)"/>
<mask id="path-3-inside-2_3363_33720" fill="white">
<path fill-rule="evenodd" clip-rule="evenodd" d="M25.8412 13.9882C25.8412 12.6818 24.7825 11.623 23.4761 11.623H11.4352C10.1288 11.623 9.07007 12.6818 9.07007 13.9882V20.8687C9.07007 22.1751 10.1288 23.2339 11.4352 23.2339H23.4761C24.7825 23.2339 25.8412 22.1751 25.8412 20.8687V13.9882ZM24.5511 13.9882C24.5511 13.3948 24.0695 12.9131 23.4761 12.9131H11.4352C10.8418 12.9131 10.3602 13.3948 10.3602 13.9882V20.8687C10.3602 21.4621 10.8418 21.9438 11.4352 21.9438H23.4761C24.0695 21.9438 24.5511 21.4621 24.5511 20.8687V13.9882Z"/>
</mask>
<path fill-rule="evenodd" clip-rule="evenodd" d="M25.8412 13.9882C25.8412 12.6818 24.7825 11.623 23.4761 11.623H11.4352C10.1288 11.623 9.07007 12.6818 9.07007 13.9882V20.8687C9.07007 22.1751 10.1288 23.2339 11.4352 23.2339H23.4761C24.7825 23.2339 25.8412 22.1751 25.8412 20.8687V13.9882ZM24.5511 13.9882C24.5511 13.3948 24.0695 12.9131 23.4761 12.9131H11.4352C10.8418 12.9131 10.3602 13.3948 10.3602 13.9882V20.8687C10.3602 21.4621 10.8418 21.9438 11.4352 21.9438H23.4761C24.0695 21.9438 24.5511 21.4621 24.5511 20.8687V13.9882Z" fill="#0763C6"/>
<path d="M42.2698 13.9882C42.2698 3.60856 33.8557 -4.80552 23.4761 -4.80552V28.0516C15.7092 28.0516 9.41266 21.7551 9.41266 13.9882H42.2698ZM23.4761 -4.80552H11.4352V28.0516H23.4761V-4.80552ZM11.4352 -4.80552C1.05558 -4.80552 -7.3585 3.60856 -7.3585 13.9882H25.4986C25.4986 21.7551 19.2021 28.0516 11.4352 28.0516V-4.80552ZM-7.3585 13.9882V20.8687H25.4986V13.9882H-7.3585ZM-7.3585 20.8687C-7.3585 31.2483 1.05558 39.6624 11.4352 39.6624V6.80528C19.2021 6.80528 25.4986 13.1018 25.4986 20.8687H-7.3585ZM11.4352 39.6624H23.4761V6.80528H11.4352V39.6624ZM23.4761 39.6624C33.8557 39.6624 42.2698 31.2483 42.2698 20.8687H9.41266C9.41266 13.1018 15.7092 6.80528 23.4761 6.80528V39.6624ZM42.2698 20.8687V13.9882H9.41266V20.8687H42.2698ZM40.9797 13.9882C40.9797 4.32167 33.1428 -3.51543 23.4761 -3.51543V29.3417C14.9961 29.3417 8.12257 22.468 8.12257 13.9882H40.9797ZM23.4761 -3.51543H11.4352V29.3417H23.4761V-3.51543ZM11.4352 -3.51543C1.76869 -3.51543 -6.06841 4.32146 -6.06841 13.9882H26.7887C26.7887 22.4682 19.915 29.3417 11.4352 29.3417V-3.51543ZM-6.06841 13.9882V20.8687H26.7887V13.9882H-6.06841ZM-6.06841 20.8687C-6.06841 30.5352 1.76848 38.3723 11.4352 38.3723V5.51519C19.9152 5.51519 26.7887 12.3889 26.7887 20.8687H-6.06841ZM11.4352 38.3723H23.4761V5.51519H11.4352V38.3723ZM23.4761 38.3723C33.1426 38.3723 40.9797 30.5354 40.9797 20.8687H8.12257C8.12257 12.3887 14.9963 5.51519 23.4761 5.51519V38.3723ZM40.9797 20.8687V13.9882H8.12257V20.8687H40.9797Z" fill="#0763C6" mask="url(#path-3-inside-2_3363_33720)"/>
<mask id="path-5-inside-3_3363_33720" fill="white">
<path fill-rule="evenodd" clip-rule="evenodd" d="M1.11575 7.75103H16.5968C16.9529 7.75103 17.2419 7.4621 17.2419 7.10598C17.2419 6.74986 16.9529 6.46094 16.5968 6.46094H1.11575C0.759629 6.46094 0.470703 6.74986 0.470703 7.10598C0.470703 7.4621 0.759629 7.75103 1.11575 7.75103Z"/>
</mask>
<path fill-rule="evenodd" clip-rule="evenodd" d="M1.11575 7.75103H16.5968C16.9529 7.75103 17.2419 7.4621 17.2419 7.10598C17.2419 6.74986 16.9529 6.46094 16.5968 6.46094H1.11575C0.759629 6.46094 0.470703 6.74986 0.470703 7.10598C0.470703 7.4621 0.759629 7.75103 1.11575 7.75103Z" fill="#0763C6"/>
<path d="M1.11575 24.1796H16.5968V-8.67754H1.11575V24.1796ZM16.5968 24.1796C26.0262 24.1796 33.6704 16.5353 33.6704 7.10598H0.813295C0.813295 -1.61115 7.87969 -8.67754 16.5968 -8.67754V24.1796ZM33.6704 7.10598C33.6704 -2.32339 26.0262 -9.96763 16.5968 -9.96763V22.8895C7.87969 22.8895 0.813295 15.8231 0.813295 7.10598H33.6704ZM16.5968 -9.96763H1.11575V22.8895H16.5968V-9.96763ZM1.11575 -9.96763C-8.31362 -9.96763 -15.9579 -2.32339 -15.9579 7.10598H16.8993C16.8993 15.8231 9.83288 22.8895 1.11575 22.8895V-9.96763ZM-15.9579 7.10598C-15.9579 16.5353 -8.31362 24.1796 1.11575 24.1796V-8.67754C9.83288 -8.67754 16.8993 -1.61115 16.8993 7.10598H-15.9579Z" fill="#0763C6" mask="url(#path-5-inside-3_3363_33720)"/>
<mask id="path-7-inside-4_3363_33720" fill="white">
<path fill-rule="evenodd" clip-rule="evenodd" d="M9.71511 16.3526H25.1962C25.5523 16.3526 25.8412 16.0637 25.8412 15.7075C25.8412 15.3514 25.5523 15.0625 25.1962 15.0625H9.71511C9.35899 15.0625 9.07007 15.3514 9.07007 15.7075C9.07007 16.0637 9.35899 16.3526 9.71511 16.3526Z"/>
</mask>
<path fill-rule="evenodd" clip-rule="evenodd" d="M9.71511 16.3526H25.1962C25.5523 16.3526 25.8412 16.0637 25.8412 15.7075C25.8412 15.3514 25.5523 15.0625 25.1962 15.0625H9.71511C9.35899 15.0625 9.07007 15.3514 9.07007 15.7075C9.07007 16.0637 9.35899 16.3526 9.71511 16.3526Z" fill="#0763C6"/>
<path d="M9.71511 32.7812H25.1962V-0.0759802H9.71511V32.7812ZM25.1962 32.7812C34.6256 32.7812 42.2698 25.1369 42.2698 15.7075H9.41266C9.41266 6.99041 16.4791 -0.0759802 25.1962 -0.0759802V32.7812ZM42.2698 15.7075C42.2698 6.27818 34.6256 -1.36607 25.1962 -1.36607V31.4911C16.4791 31.4911 9.41266 24.4247 9.41266 15.7075H42.2698ZM25.1962 -1.36607H9.71511V31.4911H25.1962V-1.36607ZM9.71511 -1.36607C0.285746 -1.36607 -7.3585 6.27818 -7.3585 15.7075H25.4986C25.4986 24.4247 18.4322 31.4911 9.71511 31.4911V-1.36607ZM-7.3585 15.7075C-7.3585 25.1369 0.285746 32.7812 9.71511 32.7812V-0.0759802C18.4322 -0.0759802 25.4986 6.99041 25.4986 15.7075H-7.3585Z" fill="#0763C6" mask="url(#path-7-inside-4_3363_33720)"/>
<path d="M6.27576 11.1905C6.63188 11.1905 6.92081 10.9016 6.92081 10.5454C6.92081 10.1893 6.63188 9.90039 6.27576 9.90039H3.69558C3.33946 9.90039 3.05054 10.1893 3.05054 10.5454C3.05054 10.9016 3.33946 11.1905 3.69558 11.1905H6.27576Z" fill="#0763C6" stroke="#0763C6" stroke-width="16.4286"/>
<path d="M14.8751 19.792C15.2312 19.792 15.5202 19.5031 15.5202 19.147C15.5202 18.7909 15.2312 18.502 14.8751 18.502H12.2949C11.9388 18.502 11.6499 18.7909 11.6499 19.147C11.6499 19.5031 11.9388 19.792 12.2949 19.792H14.8751Z" fill="#0763C6" stroke="#0763C6" stroke-width="16.4286"/>
<path d="M19.1787 6.49414C18.8226 6.49414 18.5337 6.78307 18.5337 7.13919C18.5337 7.4953 18.8226 7.78423 19.1787 7.78423H23.479C23.8352 7.78423 24.1241 7.4953 24.1241 7.13919C24.1241 6.78307 23.8352 6.49414 23.479 6.49414H19.1787Z" fill="#0763C6" stroke="#0763C6" stroke-width="16.4286"/>
<path d="M7.13626 19.792C7.49238 19.792 7.78131 19.5031 7.78131 19.147C7.78131 18.7909 7.49238 18.502 7.13626 18.502H2.83596C2.47984 18.502 2.19092 18.7909 2.19092 19.147C2.19092 19.5031 2.47984 19.792 2.83596 19.792H7.13626Z" fill="#0763C6" stroke="#0763C6" stroke-width="16.4286"/>
<path d="M21.302 9.31409C21.3021 9.31421 21.3022 9.31433 21.3023 9.31446C21.5535 9.56652 21.9629 9.56652 22.214 9.31446L22.2141 9.31443L22.2144 9.31409L23.4778 8.05068L23.9335 7.59497L23.9342 7.59434C23.9343 7.59421 23.9344 7.59409 23.9345 7.59397C24.1845 7.34381 24.1861 6.93948 23.9394 6.68715C23.9378 6.68551 23.9362 6.68388 23.9345 6.68226C23.9344 6.68213 23.9343 6.68201 23.9342 6.68189L23.4787 6.22639L22.2148 4.96249L22.2144 4.96214L22.214 4.96177M21.302 9.31409C21.051 9.06269 21.0504 8.65604 21.3002 8.40412C21.3008 8.40354 21.3014 8.40296 21.302 8.40238C21.3021 8.40225 21.3022 8.40213 21.3023 8.40201L22.5657 7.1386L22.5654 7.1383L21.3023 5.87422C21.3022 5.87411 21.3021 5.87401 21.302 5.8739L21.7578 5.41802L21.302 5.87385C21.0504 5.62188 21.0504 5.21392 21.302 4.96214C21.3021 4.96201 21.3022 4.96189 21.3023 4.96177C21.3025 4.96156 21.3028 4.96135 21.303 4.96114C21.5541 4.71066 21.9631 4.71087 22.214 4.96177M21.302 9.31409L21.7569 8.8591L21.302 9.31409ZM22.214 4.96177L21.7587 5.41719M22.214 4.96177L21.7587 5.41719M21.7587 5.41719L21.7582 5.41765L21.7587 5.41719Z" fill="#0763C6" stroke="#0763C6" stroke-width="16.4286"/>
<mask id="path-14-inside-5_3363_33720" fill="white">
<path fill-rule="evenodd" clip-rule="evenodd" d="M3.74815 19.1481L5.01155 20.4125C5.26362 20.6636 5.26362 21.0731 5.01155 21.3242C4.76045 21.5763 4.35098 21.5763 4.09984 21.3242L2.37972 19.6041C2.12766 19.352 2.12766 18.9444 2.37972 18.6924L4.09984 16.9723C4.35095 16.7202 4.76042 16.7202 5.01155 16.9723C5.26362 17.2234 5.26362 17.6328 5.01155 17.884L3.74815 19.1484V19.1481Z"/>
</mask>
<path fill-rule="evenodd" clip-rule="evenodd" d="M3.74815 19.1481L5.01155 20.4125C5.26362 20.6636 5.26362 21.0731 5.01155 21.3242C4.76045 21.5763 4.35098 21.5763 4.09984 21.3242L2.37972 19.6041C2.12766 19.352 2.12766 18.9444 2.37972 18.6924L4.09984 16.9723C4.35095 16.7202 4.76042 16.7202 5.01155 16.9723C5.26362 17.2234 5.26362 17.6328 5.01155 17.884L3.74815 19.1484V19.1481Z" fill="#0763C6"/>
<path d="M3.74815 19.1481L15.3694 7.53587L-12.6804 -20.5358V19.1481H3.74815ZM5.01155 20.4125L-6.60971 32.0247L-6.5964 32.0381L-6.58305 32.0513L5.01155 20.4125ZM5.01155 21.3242L-6.58373 9.68603L-6.60556 9.70777L-6.6273 9.7296L5.01155 21.3242ZM4.09984 21.3242L15.738 9.72891L15.7273 9.71817L15.7166 9.70745L4.09984 21.3242ZM2.37972 19.6041L-9.23703 31.2208L-9.23703 31.2208L2.37972 19.6041ZM2.37972 18.6924L-9.23703 7.07562L-9.23714 7.07573L2.37972 18.6924ZM4.09984 16.9723L15.7166 28.589L15.7277 28.5779L15.7387 28.5669L4.09984 16.9723ZM5.01155 16.9723L-6.62662 28.5675L-6.60488 28.5894L-6.58305 28.6111L5.01155 16.9723ZM5.01155 17.884L-6.58373 6.24579L-6.59674 6.25875L-6.60971 6.27173L5.01155 17.884ZM3.74815 19.1484H-12.6804V58.8322L15.3694 30.7606L3.74815 19.1484ZM-7.87312 30.7603L-6.60971 32.0247L16.6328 8.80025L15.3694 7.53587L-7.87312 30.7603ZM-6.58305 32.0513C-12.7766 25.8813 -12.7757 15.8551 -6.58373 9.68603L16.6068 32.9624C23.3029 26.291 23.3039 15.4459 16.6062 8.77363L-6.58305 32.0513ZM-6.6273 9.7296C-0.457253 3.536 9.56891 3.53699 15.738 9.72891L-7.53833 32.9195C-0.866947 39.6156 9.97815 39.6165 16.6504 32.9188L-6.6273 9.7296ZM15.7166 9.70745L13.9965 7.98733L-9.23703 31.2208L-7.51691 32.941L15.7166 9.70745ZM13.9965 7.98733C20.1602 14.1511 20.1601 24.1454 13.9966 30.309L-9.23714 7.07573C-15.9048 13.7435 -15.9049 24.553 -9.23703 31.2208L13.9965 7.98733ZM13.9965 30.3091L15.7166 28.589L-7.51691 5.3555L-9.23703 7.07562L13.9965 30.3091ZM15.7387 28.5669C9.56865 34.7605 -0.45751 34.7595 -6.62662 28.5675L16.6497 5.37696C9.97834 -1.3191 -0.86675 -1.32008 -7.53901 5.37765L15.7387 28.5669ZM-6.58305 28.6111C-12.7766 22.4411 -12.7757 12.4149 -6.58373 6.24579L16.6068 29.5221C23.3029 22.8508 23.3039 12.0057 16.6062 5.33339L-6.58305 28.6111ZM-6.60971 6.27173L-7.87312 7.53612L15.3694 30.7606L16.6328 29.4962L-6.60971 6.27173ZM20.1767 19.1484V19.1481H-12.6804V19.1484H20.1767Z" fill="#0763C6" mask="url(#path-14-inside-5_3363_33720)"/>
</svg>
