<svg width="14" height="15" viewBox="0 0 14 15" fill="none" xmlns="http://www.w3.org/2000/svg">
<path d="M9.91675 6.91667L11.0834 8.08333L13.4167 5.75" stroke="#707173" stroke-width="1.16667" stroke-linecap="round" stroke-linejoin="round"/>
<path d="M9.91675 12.75V11.5833C9.91675 10.9645 9.67092 10.371 9.23333 9.93342C8.79575 9.49583 8.20225 9.25 7.58341 9.25H3.50008C2.88124 9.25 2.28775 9.49583 1.85017 9.93342C1.41258 10.371 1.16675 10.9645 1.16675 11.5833V12.75" stroke="#707173" stroke-width="1.16667" stroke-linecap="round" stroke-linejoin="round"/>
<path d="M5.54159 6.91667C6.83025 6.91667 7.87492 5.872 7.87492 4.58333C7.87492 3.29467 6.83025 2.25 5.54159 2.25C4.25292 2.25 3.20825 3.29467 3.20825 4.58333C3.20825 5.872 4.25292 6.91667 5.54159 6.91667Z" stroke="#707173" stroke-width="1.16667" stroke-linecap="round" stroke-linejoin="round"/>
</svg>
