<svg width="20" height="20" viewBox="0 0 20 20" fill="none" xmlns="http://www.w3.org/2000/svg">
<path fill-rule="evenodd" clip-rule="evenodd" d="M10.8574 3.66894C10.8574 4.16624 10.4543 4.56938 9.95702 4.56938C9.45972 4.56938 9.05658 4.16624 9.05658 3.66894C9.05658 3.17164 9.45972 2.7685 9.95702 2.7685C10.4543 2.7685 10.8574 3.17164 10.8574 3.66894ZM11.6286 4.76924C11.8368 4.45356 11.958 4.0754 11.958 3.66894C11.958 2.56383 11.0621 1.66797 9.95702 1.66797C8.85191 1.66797 7.95605 2.56383 7.95605 3.66894C7.95605 4.0754 8.07724 4.45356 8.28546 4.76924H4.90646C4.48111 4.76924 4.10755 5.05184 3.99184 5.46114L0.866492 16.5165C0.695009 17.1231 1.15074 17.7255 1.78111 17.7255H18.0707C18.7087 17.7255 19.1655 17.1093 18.9801 16.4988L15.6215 5.44342C15.4998 5.04299 15.1306 4.76924 14.7121 4.76924H11.6286ZM1.97949 16.625L5.01999 5.86978H14.6008L17.8682 16.625H1.97949Z" fill="#0763C6"/>
<path d="M9.90538 13.3711L8.16574 10.7805L9.80453 8.95265H8.46828L6.81058 10.8058V8.95265H5.65712V13.3711H6.81058V12.2933L7.37786 11.663L8.52501 13.3711H9.90538ZM13.1798 12.2302C12.915 12.3626 12.6377 12.4382 12.4171 12.4382C11.6985 12.4382 11.1565 11.8899 11.1565 11.165C11.1565 10.4465 11.6922 9.89811 12.4045 9.89811C12.8079 9.89811 13.2554 10.0872 13.5706 10.3834L14.2261 9.57666C13.7723 9.17326 13.0726 8.92114 12.4108 8.92114C11.0115 8.92114 9.97151 9.8792 9.97151 11.165C9.97151 12.4508 10.9863 13.4215 12.3352 13.4215C12.9529 13.4215 13.7029 13.182 14.1756 12.8542V11.1146H13.1798V12.2302Z" fill="#0763C6"/>
</svg>
