<svg width="44" height="44" viewBox="0 0 44 44" fill="none" xmlns="http://www.w3.org/2000/svg">
<g clip-path="url(#clip0_3086_22984)">
<path d="M33.6673 31.8352L22 43.5025L10.3327 31.8352C8.02513 29.5276 6.45368 26.5876 5.81704 23.3869C5.1804 20.1862 5.50716 16.8686 6.75601 13.8536C8.00487 10.8387 10.1197 8.26174 12.8331 6.44871C15.5465 4.63567 18.7366 3.66797 22 3.66797C25.2634 3.66797 28.4535 4.63567 31.1669 6.44871C33.8803 8.26174 35.9951 10.8387 37.244 13.8536C38.4929 16.8686 38.8196 20.1862 38.183 23.3869C37.5463 26.5876 35.9749 29.5276 33.6673 31.8352ZM22 23.8345C22.9725 23.8345 23.9051 23.4482 24.5927 22.7605C25.2804 22.0729 25.6667 21.1403 25.6667 20.1678C25.6667 19.1954 25.2804 18.2627 24.5927 17.5751C23.9051 16.8875 22.9725 16.5012 22 16.5012C21.0275 16.5012 20.0949 16.8875 19.4073 17.5751C18.7196 18.2627 18.3333 19.1954 18.3333 20.1678C18.3333 21.1403 18.7196 22.0729 19.4073 22.7605C20.0949 23.4482 21.0275 23.8345 22 23.8345Z" fill="#3F56B6"/>
</g>
<defs>
<clipPath id="clip0_3086_22984">
<rect width="44" height="44" fill="white"/>
</clipPath>
</defs>
</svg>
