<svg width="24" height="24" viewBox="0 0 24 24" fill="none" xmlns="http://www.w3.org/2000/svg">
<circle cx="12" cy="12" r="10" stroke="#393B3D" stroke-width="2"/>
<path d="M11 10.467C11.3952 10.0832 11.7904 8.93211 12.4227 7.78065C13.7528 4.74124 18.4134 5.83931 17.9704 9.21264C17.9615 9.2805 17.9441 9.34898 17.9208 9.41334C17.5992 10.3026 17.3217 10.6142 16.6282 11.1598C16.565 11.2095 16.497 11.252 16.4242 11.2862C15.5751 11.6843 13.7493 12.4124 13.3711 13" stroke="#393B3D" stroke-width="1.5"/>
<path d="M13.3293 13.1244C12.8884 13.5123 12.3868 14.7378 11.6389 15.9452C10.0147 19.1626 5.24852 17.5915 5.99004 13.9343C6.00306 13.8701 6.02369 13.8056 6.04936 13.7453C6.45705 12.7886 6.76981 12.4704 7.53989 11.9249C7.60674 11.8776 7.67827 11.838 7.75427 11.8073C8.66656 11.4395 10.6256 10.7867 11.0655 10.1741" stroke="#393B3D" stroke-width="1.5"/>
<path d="M12.0009 12.3622C12.1757 11.9777 13.3614 10.2827 15.3613 9.09375" stroke="#393B3D" stroke-width="1.15779"/>
<path d="M8.63953 15.2685C8.8144 14.884 10.0001 13.1889 12 12" stroke="#393B3D" stroke-width="1.15779"/>
<path d="M6 5L19 19" stroke="#393B3D" stroke-width="1.85294" stroke-linecap="round" stroke-linejoin="round"/>
</svg>
