<svg width="101" height="30" viewBox="0 0 101 30" fill="none" xmlns="http://www.w3.org/2000/svg">
<g clip-path="url(#clip0_1307_14345)">
<path d="M13.393 22.9265C13.177 23.0671 12.9661 23.1957 12.7465 23.2129C12.2968 23.2481 11.8424 23.2235 11.3633 23.2235C11.3633 21.7961 11.3633 20.438 11.3633 19.0488C12.0147 19.0488 12.6479 19.0488 13.3941 19.0488C13.3941 20.3034 13.3941 21.5837 13.393 22.9265Z" fill="#CE076A"/>
<path d="M20.497 13.8089C20.6545 14.4663 20.748 15.1214 20.8511 15.8442C19.3571 15.8442 18.0001 15.8442 16.6211 15.8442C16.6211 15.1921 16.6211 14.5379 16.6211 13.8066C17.8912 13.8066 19.1621 13.8066 20.497 13.8089Z" fill="#2E7B55"/>
<path d="M11.3359 7.44409C11.336 7.09084 11.336 6.80782 11.336 6.47461C12.0585 6.47461 12.7143 6.47461 13.4172 6.47461C13.4172 7.85763 13.4172 9.21567 13.4172 10.6193C12.7633 10.6193 12.1039 10.6193 11.3359 10.6193C11.3359 9.60315 11.3359 8.55874 11.3359 7.44409Z" fill="#FBB240"/>
<path d="M7.74986 20.7659C8.30431 19.8101 8.83109 18.9015 9.36732 17.9766C9.95808 18.3163 10.5277 18.6439 11.1554 19.0048C10.478 20.177 9.78877 21.3696 9.08013 22.5959C8.48076 22.2523 7.92537 21.9338 7.32031 21.587C7.46835 21.3019 7.59527 21.0574 7.74986 20.7659Z" fill="#0875BE"/>
<path d="M15.5235 17.9788C15.8508 17.3598 16.178 16.7409 16.5377 16.0605C17.7338 16.7481 18.9075 17.4228 20.1556 18.1402C19.8161 18.7285 19.4903 19.293 19.1302 19.9169C17.933 19.2414 16.7755 18.5885 15.5685 17.9552C15.519 17.975 15.5235 17.9788 15.5235 17.9788Z" fill="#CE076A"/>
<path d="M9.31619 11.7691C9.01292 11.1631 8.72303 10.5499 8.40266 9.95307C8.07571 9.344 7.71881 8.751 7.34375 8.09637C7.94085 7.74922 8.49287 7.42827 9.09848 7.07617C9.80373 8.29102 10.4876 9.46895 11.1716 10.6472C10.5548 10.996 9.95867 11.3332 9.33435 11.7193C9.30614 11.7683 9.31619 11.7691 9.31619 11.7691Z" fill="#2E7B55"/>
<path d="M20.1016 11.476C18.9445 12.2317 17.7803 12.9367 16.5927 13.6558C16.2336 13.0352 15.9051 12.4676 15.543 11.8419C16.7153 11.1651 17.8874 10.4883 19.1391 9.76562C19.481 10.3595 19.7878 10.8925 20.1016 11.476Z" fill="#FBB240"/>
<path d="M9.30351 11.7625C8.94946 12.3485 8.59464 12.9393 8.2035 13.5907C7.05461 12.9302 5.88401 12.2572 4.625 11.5334C4.95961 10.9472 5.28327 10.3801 5.64288 9.75C6.85132 10.4349 8.02955 11.1026 9.26028 11.7693C9.31277 11.7683 9.30273 11.7675 9.30351 11.7625Z" fill="#F15E29"/>
<path d="M15.5182 17.9727C15.5785 18.1772 15.6054 18.4039 15.7085 18.5878C16.2585 19.5683 16.8276 20.5381 17.4232 21.569C16.8577 21.8972 16.3242 22.2069 15.6902 22.5748C14.9982 21.3857 14.3198 20.2198 13.6133 19.0056C14.2565 18.6781 14.856 18.3729 15.49 18.0232C15.5246 17.9788 15.5201 17.975 15.5182 17.9727Z" fill="#0875BE"/>
<path d="M15.1553 11.5819C14.6411 11.2674 14.173 10.9827 13.637 10.6565C14.3015 9.49883 14.9739 8.32742 15.6877 7.08398C16.2792 7.41792 16.8308 7.72935 17.4809 8.09634C16.8718 9.15817 16.2915 10.1907 15.6846 11.2072C15.5829 11.3774 15.3654 11.4785 15.1553 11.5819Z" fill="#FBB240"/>
<path d="M6.33941 19.4828C6.08654 19.623 5.87718 19.7338 5.63522 19.8617C5.30657 19.2968 4.99412 18.7597 4.625 18.1251C5.81292 17.438 6.98693 16.759 8.1911 16.0625C8.52438 16.6397 8.84338 17.1921 9.20533 17.8189C8.28054 18.3544 7.33174 18.9038 6.33941 19.4828Z" fill="#CE076A"/>
<path d="M6.12492 13.7852C6.84075 13.7852 7.48469 13.7852 8.16231 13.7852C8.16231 14.4594 8.16231 15.094 8.16231 15.7829C6.81255 15.7829 5.46026 15.7829 4.0625 15.7829C4.0625 15.1494 4.0625 14.5142 4.0625 13.7852C4.73138 13.7852 5.39221 13.7852 6.12492 13.7852Z" fill="#0875BE"/>
<path d="M57.1751 21.8353C57.1751 22.1154 57.1751 22.3286 57.1751 22.561C56.4665 22.561 55.8193 22.561 55.1094 22.561C55.1094 18.6271 55.1094 14.7003 55.1094 10.7244C55.7091 10.7244 56.3213 10.7244 56.9591 10.7244C57.0314 11.02 57.1045 11.3196 57.2081 11.7433C58.1639 10.6273 59.3453 10.2735 60.7125 10.5274C61.7028 10.7114 62.4964 11.2205 63.1083 12.0125C64.4507 13.75 64.2709 16.5046 62.7211 18.0244C61.25 19.4669 59.0966 19.4969 57.1751 17.9908C57.1751 19.3191 57.1751 20.5438 57.1751 21.8353ZM59.6443 17.2278C60.9663 16.9761 61.6882 16.2509 61.7822 15.08C61.881 13.8499 61.2909 12.8267 60.2614 12.4934C59.3369 12.1942 58.4906 12.3473 57.8165 13.074C57.0889 13.8582 56.9845 14.8058 57.3429 15.7655C57.7066 16.7393 58.4754 17.2228 59.6443 17.2278Z" fill="black"/>
<path d="M93.8275 10.9971C95.2298 10.317 96.6085 10.2435 97.9802 10.8871C99.6234 11.6581 100.49 13.4871 100.085 15.3321C98.0643 15.3321 96.0284 15.3321 93.9451 15.3321C93.9747 16.2243 94.3765 16.8072 95.1089 17.1314C95.8592 17.4636 96.7272 17.5307 97.2491 16.8763C97.7461 16.2531 98.2934 16.3213 98.9004 16.3125C99.2128 16.3079 99.5253 16.3117 99.8407 16.3117C99.6501 17.7333 98.2078 18.9395 96.5162 19.1121C94.4575 19.3222 92.6627 18.2758 92.0141 16.4873C91.2688 14.4322 91.9815 12.2306 93.8275 10.9971ZM94.627 12.7293C94.3847 13.0872 94.1425 13.4452 93.8245 13.9151C95.3255 13.9151 96.6224 13.9151 97.9153 13.9151C97.9256 13.8295 97.9429 13.7807 97.9351 13.7363C97.6876 12.3165 96.1773 11.8123 94.627 12.7293Z" fill="black"/>
<path d="M36.884 10.4635C38.6227 10.692 39.6752 11.6069 39.7719 13.2183C39.8839 15.0823 39.798 16.9582 39.798 18.8763C39.1445 18.8763 38.4627 18.8763 37.7021 18.8763C37.7021 17.6099 37.7033 16.3656 37.7014 15.1213C37.7009 14.7848 37.7109 14.4466 37.6821 14.1121C37.5799 12.9273 37.0777 12.3625 36.1137 12.3224C34.9642 12.2747 34.1255 12.9024 34.0181 14.0439C33.9193 15.0939 33.967 16.1578 33.955 17.2156C33.9491 17.7441 33.954 18.2727 33.954 18.8622C33.2461 18.8622 32.5641 18.8622 31.8281 18.8622C31.8281 16.1765 31.8281 13.4729 31.8281 10.723C32.4412 10.723 33.0513 10.723 33.6782 10.723C33.7307 11.0771 33.7793 11.4052 33.8545 11.9125C34.6473 10.8412 35.6238 10.3969 36.884 10.4635Z" fill="black"/>
<path d="M70.4047 15.5577C70.1305 13.53 70.9299 11.8199 72.5064 10.9702C74.0644 10.1305 76.0293 10.3277 77.37 11.4584C78.7742 12.6425 79.2261 14.8569 78.4355 16.6791C77.7054 18.3618 75.8947 19.3578 74.0195 19.1082C72.0964 18.8523 70.7297 17.5278 70.4047 15.5577ZM75.7267 16.8521C76.6766 16.0026 76.9264 14.3802 76.2558 13.311C75.8414 12.6503 75.2337 12.2913 74.4462 12.3539C73.6348 12.4185 73.0184 12.8521 72.7756 13.6242C72.6155 14.1335 72.5648 14.7094 72.6073 15.2441C72.741 16.9279 74.1203 17.6697 75.7267 16.8521Z" fill="black"/>
<path d="M51.1473 10.6545C54.0744 11.6767 54.5185 14.798 53.5891 16.8043C52.5792 18.9843 49.7322 19.806 47.6066 18.5675C45.806 17.5184 45.0623 15.2415 45.834 13.1405C46.5331 11.2371 48.5451 10.134 50.5987 10.529C50.764 10.5608 50.9282 10.5984 51.1473 10.6545ZM51.7976 14.3539C51.6944 13.4829 51.3153 12.8034 50.4577 12.4753C49.4536 12.0912 48.331 12.6221 47.9448 13.6518C47.3969 15.1126 47.9473 16.7411 49.1701 17.1117C49.5534 17.2278 50.032 17.2188 50.4174 17.1028C51.4307 16.7977 51.8424 15.9523 51.7976 14.3539Z" fill="black"/>
<path d="M82.3751 18.6114C82.1811 18.7577 81.9923 18.8978 81.7949 18.9113C81.2958 18.9454 80.7928 18.9226 80.2225 18.9226C80.2225 16.7656 80.2225 14.6618 80.2225 12.521C79.8254 12.5012 79.4953 12.4847 79.1289 12.4665C79.1289 11.892 79.1289 11.3269 79.1289 10.7054C79.4602 10.6864 79.7843 10.6679 80.1525 10.6468C80.2869 9.52148 80.0118 8.26548 81.1157 7.4702C81.9568 6.86426 82.9266 6.93844 83.9281 6.99771C83.9281 7.58504 83.9281 8.14862 83.9281 8.70947C82.3008 9.05964 82.2329 9.14676 82.4577 10.676C82.7261 10.676 83.0073 10.676 83.2886 10.676C83.5494 10.676 83.8102 10.676 84.1137 10.676C84.1137 11.2957 84.1137 11.8566 84.1137 12.472C83.558 12.472 83.0128 12.472 82.3764 12.472C82.3764 14.532 82.3764 16.5398 82.3751 18.6114Z" fill="black"/>
<path d="M41.3892 9.89545C41.5038 7.49956 42.5104 6.73983 45.1296 7.02012C45.1296 7.58929 45.1296 8.16046 45.1296 8.72785C43.4903 9.00647 43.4588 9.04588 43.6155 10.6569C44.1515 10.6569 44.6949 10.6569 45.2795 10.6569C45.2795 11.275 45.2795 11.843 45.2795 12.4569C44.7469 12.4569 44.2039 12.4569 43.578 12.4569C43.578 14.6214 43.578 16.7431 43.578 18.8862C42.8077 18.8862 42.1208 18.8862 41.3787 18.8862C41.3787 16.7443 41.3787 14.6381 41.3787 12.4911C40.9951 12.4911 40.666 12.4911 40.2969 12.4911C40.2969 11.8862 40.2969 11.3225 40.2969 10.7118C40.6376 10.6922 40.9682 10.6732 41.3892 10.649C41.3892 10.4217 41.3892 10.193 41.3892 9.89545Z" fill="black"/>
<path d="M88.5391 18.3628C88.5391 14.5463 88.5391 10.7968 88.5391 7.00781C89.2586 7.00781 89.9457 7.00781 90.6732 7.00781C90.6732 10.9505 90.6732 14.903 90.6732 18.9214C90.0851 18.9214 89.5112 18.9549 88.9461 18.8989C88.7964 18.884 88.674 18.5937 88.5391 18.3628Z" fill="black"/>
<path d="M67.1994 18.4818C67.0724 18.6715 66.9525 18.8948 66.8174 18.9044C66.2479 18.9448 65.6739 18.9215 65.0625 18.9215C65.0625 16.1695 65.0625 13.4835 65.0625 10.7363C65.659 10.7363 66.27 10.7363 66.9307 10.7363C66.9976 11.1136 67.0702 11.5233 67.1634 12.0496C67.951 10.9964 68.8999 10.4511 70.151 10.4651C70.151 11.2441 70.151 11.9794 70.151 12.7606C69.83 12.7606 69.5423 12.7464 69.2564 12.7631C67.9667 12.8382 67.2614 13.5103 67.2115 14.8084C67.1654 16.0097 67.2004 17.2142 67.1994 18.4818Z" fill="black"/>
<path d="M86.3351 18.9226C85.8866 18.9227 85.5055 18.9227 85.0859 18.9227C85.0859 16.1652 85.0859 13.4595 85.0859 10.7148C85.7703 10.7148 86.4572 10.7148 87.1818 10.7148C87.1818 13.4361 87.1818 16.1418 87.1818 18.9226C86.9198 18.9226 86.6612 18.9226 86.3351 18.9226Z" fill="black"/>
<path d="M28.2617 14.2201C28.2617 13.0207 28.2617 11.8935 28.2617 10.7207C28.9864 10.7207 29.6706 10.7207 30.3821 10.7207C30.3821 13.4463 30.3821 16.1512 30.3821 18.8888C29.6893 18.8888 29.025 18.8888 28.2617 18.8888C28.2617 17.3445 28.2617 15.8184 28.2617 14.2201Z" fill="black"/>
<path d="M85.2647 9.16341C85.1154 8.43159 85.0315 7.70098 84.9414 6.91602C85.7452 6.91602 86.4264 6.91602 87.1529 6.91602C87.1529 7.63677 87.1529 8.34777 87.1529 9.16462C86.5589 9.16462 85.9445 9.16462 85.2647 9.16341Z" fill="black"/>
<path d="M29.2549 6.87306C29.6554 6.87306 29.9868 6.87306 30.364 6.87306C30.364 7.63651 30.364 8.36293 30.364 9.12807C29.6897 9.12807 29.0075 9.12807 28.2812 9.12807C28.2812 8.41123 28.2812 7.68398 28.2812 6.87305C28.5817 6.87305 28.8837 6.87305 29.2549 6.87306Z" fill="black"/>
<path d="M13.2646 3.29852C13.3875 3.98941 13.4489 4.66304 13.5167 5.40736C12.7363 5.40736 12.0626 5.40736 11.3594 5.40736C11.3594 4.72214 11.3594 4.05905 11.3594 3.28125C11.9823 3.28125 12.5927 3.28125 13.2646 3.29852Z" fill="#FBB240"/>
<path d="M11.6927 24.2348C12.2568 24.2344 12.7568 24.2344 13.3104 24.2344C13.3104 24.9588 13.3104 25.6381 13.3104 26.3601C12.67 26.3601 12.014 26.3601 11.2863 26.3601C11.2863 25.7562 11.2678 25.1635 11.3018 24.5737C11.3086 24.455 11.5144 24.3477 11.6927 24.2348Z" fill="#CE076A"/>
<path d="M22.3563 13.8457C22.8984 13.8457 23.3742 13.8457 23.8788 13.8457C23.8788 14.5609 23.8788 15.2017 23.8788 15.8903C23.205 15.8903 22.5424 15.8903 21.7575 15.8903C21.7575 15.3218 21.7295 14.7307 21.7816 14.1467C21.7919 14.0322 22.1125 13.9453 22.3563 13.8457Z" fill="#2E7B55"/>
<path d="M3.23139 8.33916C3.74727 8.64395 4.22029 8.92246 4.73301 9.22434C4.38492 9.8275 4.06436 10.3829 3.71176 10.9939C3.09437 10.6422 2.51684 10.3132 1.85938 9.93871C2.1751 9.39228 2.45864 8.87265 2.77919 8.37693C2.82914 8.29969 3.04786 8.33151 3.23139 8.33916Z" fill="#F15E29"/>
<path d="M4.05299 19.3116C4.26911 19.6869 4.45768 20.0174 4.67805 20.4037C4.0807 20.7523 3.49264 21.0954 2.86394 21.4622C2.5192 20.8684 2.19925 20.3173 1.84375 19.7049C2.44907 19.3528 3.01667 19.0227 3.63988 18.6602C3.77889 18.8789 3.90217 19.0729 4.05299 19.3116Z" fill="#CE076A"/>
<path d="M21.0626 21.1101C20.6898 20.8882 20.3617 20.6967 19.9844 20.4765C20.3275 19.8789 20.6554 19.308 21.0094 18.6914C21.6316 19.0525 22.2013 19.3831 22.8549 19.7625C22.5125 20.3575 22.1878 20.9218 21.8422 21.5223C21.5629 21.3772 21.3351 21.2589 21.0626 21.1101Z" fill="#CE076A"/>
<path d="M7.0392 4.59703C7.32701 4.3942 7.53242 4.31848 7.71233 4.6712C7.96149 5.15969 8.24994 5.62816 8.55426 6.16263C7.95905 6.50594 7.40541 6.82528 6.79543 7.17711C6.44333 6.56996 6.11055 5.99612 5.73828 5.35418C6.17829 5.09929 6.58653 4.86281 7.0392 4.59703Z" fill="#2E7B55"/>
<path d="M6.95208 25.0658C6.51694 24.8135 6.12791 24.5832 5.66797 24.3108C6.0126 23.7082 6.34759 23.1225 6.72146 22.4688C7.33498 22.8203 7.90101 23.1447 8.50777 23.4925C8.20385 24.0255 7.91487 24.488 7.67143 24.9734C7.4807 25.3537 7.26283 25.2886 6.95208 25.0658Z" fill="#0875BE"/>
<path d="M16.4609 5.75495C16.7388 5.27871 16.9886 4.84667 17.2703 4.35938C17.8679 4.69954 18.4204 5.014 19.0471 5.37075C18.7054 5.98011 18.384 6.55334 18.0068 7.22605C17.4629 6.91651 16.9416 6.6455 16.4569 6.32014C16.3709 6.26246 16.4369 5.97857 16.4609 5.75495Z" fill="#FBB240"/>
<path d="M22.4814 9.26943C22.6201 9.52418 22.7361 9.73221 22.8865 10.002C22.2828 10.352 21.6921 10.6946 21.0573 11.0626C20.7095 10.4741 20.3843 9.924 20.0117 9.29368C20.6206 8.93724 21.2041 8.59563 21.8546 8.21484C22.0732 8.57969 22.2659 8.90119 22.4814 9.26943Z" fill="#FBB240"/>
<path d="M18.8457 24.392C18.2992 24.7244 17.7828 25.0191 17.2201 25.3403C16.872 24.7358 16.5432 24.165 16.1875 23.5473C16.7687 23.2078 17.3004 22.8972 17.9402 22.5234C18.2638 23.1569 18.5698 23.7557 18.8457 24.392Z" fill="#0875BE"/>
<path d="M2.88571 15.7627C2.19222 15.8154 1.54432 15.8154 0.796875 15.8154C0.796875 15.4679 0.796875 15.1404 0.796875 14.8128C0.796875 14.5032 0.796875 14.1937 0.796875 13.8359C1.52202 13.8359 2.20213 13.8359 2.93132 13.8359C2.93132 14.4711 2.93132 15.0905 2.88571 15.7627Z" fill="#0875BE"/>
</g>
<defs>
<clipPath id="clip0_1307_14345">
<rect width="100.5" height="29.7778" fill="white" transform="translate(0.25)"/>
</clipPath>
</defs>
</svg>
