<svg width="14" height="15" viewBox="0 0 14 15" fill="none" xmlns="http://www.w3.org/2000/svg">
<g clip-path="url(#clip0_1856_18282)">
<path d="M0.904146 13.2173C0.904146 13.0723 1.02167 12.9548 1.16665 12.9548H12.8333C12.9783 12.9548 13.0958 13.0723 13.0958 13.2173V13.334C13.0958 13.479 12.9783 13.5965 12.8333 13.5965H1.16665C1.02167 13.5965 0.904146 13.479 0.904146 13.334V13.2173ZM2.18748 8.08398C2.18748 7.93901 2.305 7.82148 2.44998 7.82148H2.56665C2.71162 7.82148 2.82915 7.93901 2.82915 8.08398V11.409C2.82915 11.554 2.71162 11.6715 2.56665 11.6715H2.44998C2.305 11.6715 2.18748 11.554 2.18748 11.409V8.08398ZM5.39581 8.08398C5.39581 7.93901 5.51334 7.82148 5.65831 7.82148H5.77498C5.91995 7.82148 6.03748 7.93901 6.03748 8.08398V11.409C6.03748 11.554 5.91995 11.6715 5.77498 11.6715H5.65831C5.51334 11.6715 5.39581 11.554 5.39581 11.409V8.08398ZM7.96248 8.08398C7.96248 7.93901 8.08001 7.82148 8.22498 7.82148H8.34165C8.48662 7.82148 8.60415 7.93901 8.60415 8.08398V11.409C8.60415 11.554 8.48662 11.6715 8.34165 11.6715H8.22498C8.08 11.6715 7.96248 11.554 7.96248 11.409V8.08398ZM11.1708 8.08398C11.1708 7.93901 11.2883 7.82148 11.4333 7.82148H11.55C11.695 7.82148 11.8125 7.93901 11.8125 8.08398V11.409C11.8125 11.554 11.695 11.6715 11.55 11.6715H11.4333C11.2883 11.6715 11.1708 11.554 11.1708 11.409V8.08398ZM0.904146 4.65284C0.904146 4.55341 0.960322 4.46252 1.04925 4.41805L6.88259 1.50138C6.95649 1.46443 7.04347 1.46443 7.11737 1.50138L12.9507 4.41805C13.0396 4.46252 13.0958 4.55341 13.0958 4.65284V6.27565C13.0958 6.42063 12.9783 6.53815 12.8333 6.53815H1.16665C1.02167 6.53815 0.904146 6.42063 0.904146 6.27565V4.65284ZM1.89065 4.71471C1.67931 4.82038 1.54581 5.03639 1.54581 5.27267C1.54581 5.61719 1.8251 5.89648 2.16963 5.89648H11.8303C12.1749 5.89648 12.4541 5.61719 12.4541 5.27267C12.4541 5.03639 12.3206 4.82038 12.1093 4.71471L7.40434 2.36223C7.14979 2.23495 6.85017 2.23495 6.59562 2.36223L1.89065 4.71471ZM6.99998 4.61315C6.91489 4.61315 6.83328 4.57935 6.77312 4.51918C6.71295 4.45901 6.67915 4.37741 6.67915 4.29232C6.67915 4.20723 6.71295 4.12562 6.77312 4.06545C6.83328 4.00529 6.91489 3.97148 6.99998 3.97148C7.08507 3.97148 7.16667 4.00529 7.22684 4.06545C7.28701 4.12562 7.32081 4.20723 7.32081 4.29232C7.32081 4.37741 7.28701 4.45901 7.22684 4.51918C7.16667 4.57935 7.08507 4.61315 6.99998 4.61315Z" fill="#393B3D" stroke="#707173" stroke-width="0.641667"/>
</g>
<defs>
<clipPath id="clip0_1856_18282">
<rect width="14" height="14" fill="white" transform="translate(0 0.5)"/>
</clipPath>
</defs>
</svg>
