<svg width="27" height="28" viewBox="0 0 27 28" fill="none" xmlns="http://www.w3.org/2000/svg">
<path d="M13.5 2V26M13.5 2H22.8333C23.5406 2 24.2189 2.28095 24.719 2.78105C25.219 3.28115 25.5 3.95942 25.5 4.66667V23.3333C25.5 24.0406 25.219 24.7189 24.719 25.219C24.2189 25.719 23.5406 26 22.8333 26H13.5V2ZM13.5 2H4.16667C3.45942 2 2.78115 2.28095 2.28105 2.78105C1.78095 3.28115 1.5 3.95942 1.5 4.66667V23.3333C1.5 24.0406 1.78095 24.7189 2.28105 25.219C2.78115 25.719 3.45942 26 4.16667 26H13.5V2Z" stroke="#0763C6" stroke-width="2.66667" stroke-linecap="round" stroke-linejoin="round"/>
</svg>
