<svg width="150" height="98" viewBox="0 0 150 98" fill="none" xmlns="http://www.w3.org/2000/svg">
<path d="M88.5 22.5V28.5C88.5 29.2957 88.1839 30.0587 87.6213 30.6213C87.0587 31.1839 86.2957 31.5 85.5 31.5H64.5C63.7044 31.5 62.9413 31.1839 62.3787 30.6213C61.8161 30.0587 61.5 29.2957 61.5 28.5V22.5" stroke="#393B3D" stroke-width="3" stroke-linecap="round" stroke-linejoin="round"/>
<path d="M82.5 12L75 4.5L67.5 12" stroke="#393B3D" stroke-width="3" stroke-linecap="round" stroke-linejoin="round"/>
<path d="M75 4.5V22.5" stroke="#393B3D" stroke-width="3" stroke-linecap="round" stroke-linejoin="round"/>
<g filter="url(#filter0_d_2286_20977)">
<rect x="6" y="52" width="138" height="40" rx="10" fill="#0763C6" shape-rendering="crispEdges"/>
<path d="M47.58 71.704C48.052 71.792 48.44 72.028 48.744 72.412C49.048 72.796 49.2 73.236 49.2 73.732C49.2 74.18 49.088 74.576 48.864 74.92C48.648 75.256 48.332 75.52 47.916 75.712C47.5 75.904 47.008 76 46.44 76H42.828V67.624H46.284C46.852 67.624 47.34 67.716 47.748 67.9C48.164 68.084 48.476 68.34 48.684 68.668C48.9 68.996 49.008 69.368 49.008 69.784C49.008 70.272 48.876 70.68 48.612 71.008C48.356 71.336 48.012 71.568 47.58 71.704ZM44.508 71.08H46.044C46.444 71.08 46.752 70.992 46.968 70.816C47.184 70.632 47.292 70.372 47.292 70.036C47.292 69.7 47.184 69.44 46.968 69.256C46.752 69.072 46.444 68.98 46.044 68.98H44.508V71.08ZM46.2 74.632C46.608 74.632 46.924 74.536 47.148 74.344C47.38 74.152 47.496 73.88 47.496 73.528C47.496 73.168 47.376 72.888 47.136 72.688C46.896 72.48 46.572 72.376 46.164 72.376H44.508V74.632H46.2ZM52.2189 70.384C52.4349 70.032 52.7149 69.756 53.0589 69.556C53.4109 69.356 53.8109 69.256 54.2589 69.256V71.02H53.8149C53.2869 71.02 52.8869 71.144 52.6149 71.392C52.3509 71.64 52.2189 72.072 52.2189 72.688V76H50.5389V69.352H52.2189V70.384ZM58.3425 76.108C57.7025 76.108 57.1265 75.968 56.6145 75.688C56.1025 75.4 55.6985 74.996 55.4025 74.476C55.1145 73.956 54.9705 73.356 54.9705 72.676C54.9705 71.996 55.1185 71.396 55.4145 70.876C55.7185 70.356 56.1305 69.956 56.6505 69.676C57.1705 69.388 57.7505 69.244 58.3905 69.244C59.0305 69.244 59.6105 69.388 60.1305 69.676C60.6505 69.956 61.0585 70.356 61.3545 70.876C61.6585 71.396 61.8105 71.996 61.8105 72.676C61.8105 73.356 61.6545 73.956 61.3425 74.476C61.0385 74.996 60.6225 75.4 60.0945 75.688C59.5745 75.968 58.9905 76.108 58.3425 76.108ZM58.3425 74.644C58.6465 74.644 58.9305 74.572 59.1945 74.428C59.4665 74.276 59.6825 74.052 59.8425 73.756C60.0025 73.46 60.0825 73.1 60.0825 72.676C60.0825 72.044 59.9145 71.56 59.5785 71.224C59.2505 70.88 58.8465 70.708 58.3665 70.708C57.8865 70.708 57.4825 70.88 57.1545 71.224C56.8345 71.56 56.6745 72.044 56.6745 72.676C56.6745 73.308 56.8305 73.796 57.1425 74.14C57.4625 74.476 57.8625 74.644 58.3425 74.644ZM72.2588 69.352L70.3148 76H68.5028L67.2908 71.356L66.0788 76H64.2548L62.2988 69.352H64.0028L65.1788 74.416L66.4508 69.352H68.2268L69.4748 74.404L70.6508 69.352H72.2588ZM75.7118 76.108C75.1678 76.108 74.6798 76.012 74.2478 75.82C73.8158 75.62 73.4718 75.352 73.2158 75.016C72.9678 74.68 72.8318 74.308 72.8078 73.9H74.4998C74.5318 74.156 74.6558 74.368 74.8718 74.536C75.0958 74.704 75.3718 74.788 75.6998 74.788C76.0198 74.788 76.2678 74.724 76.4438 74.596C76.6278 74.468 76.7198 74.304 76.7198 74.104C76.7198 73.888 76.6078 73.728 76.3838 73.624C76.1678 73.512 75.8198 73.392 75.3398 73.264C74.8438 73.144 74.4358 73.02 74.1158 72.892C73.8038 72.764 73.5318 72.568 73.2998 72.304C73.0758 72.04 72.9638 71.684 72.9638 71.236C72.9638 70.868 73.0678 70.532 73.2758 70.228C73.4918 69.924 73.7958 69.684 74.1878 69.508C74.5878 69.332 75.0558 69.244 75.5918 69.244C76.3838 69.244 77.0158 69.444 77.4878 69.844C77.9598 70.236 78.2198 70.768 78.2678 71.44H76.6598C76.6358 71.176 76.5238 70.968 76.3238 70.816C76.1318 70.656 75.8718 70.576 75.5438 70.576C75.2398 70.576 75.0038 70.632 74.8358 70.744C74.6758 70.856 74.5958 71.012 74.5958 71.212C74.5958 71.436 74.7078 71.608 74.9318 71.728C75.1558 71.84 75.5038 71.956 75.9758 72.076C76.4558 72.196 76.8518 72.32 77.1638 72.448C77.4758 72.576 77.7438 72.776 77.9678 73.048C78.1998 73.312 78.3198 73.664 78.3278 74.104C78.3278 74.488 78.2198 74.832 78.0038 75.136C77.7958 75.44 77.4918 75.68 77.0918 75.856C76.6998 76.024 76.2398 76.108 75.7118 76.108ZM85.8869 72.532C85.8869 72.772 85.8709 72.988 85.8389 73.18H80.9789C81.0189 73.66 81.1869 74.036 81.4829 74.308C81.7789 74.58 82.1429 74.716 82.5749 74.716C83.1989 74.716 83.6429 74.448 83.9069 73.912H85.7189C85.5269 74.552 85.1589 75.08 84.6149 75.496C84.0709 75.904 83.4029 76.108 82.6109 76.108C81.9709 76.108 81.3949 75.968 80.8829 75.688C80.3789 75.4 79.9829 74.996 79.6949 74.476C79.4149 73.956 79.2749 73.356 79.2749 72.676C79.2749 71.988 79.4149 71.384 79.6949 70.864C79.9749 70.344 80.3669 69.944 80.8709 69.664C81.3749 69.384 81.9549 69.244 82.6109 69.244C83.2429 69.244 83.8069 69.38 84.3029 69.652C84.8069 69.924 85.1949 70.312 85.4669 70.816C85.7469 71.312 85.8869 71.884 85.8869 72.532ZM84.1469 72.052C84.1389 71.62 83.9829 71.276 83.6789 71.02C83.3749 70.756 83.0029 70.624 82.5629 70.624C82.1469 70.624 81.7949 70.752 81.5069 71.008C81.2269 71.256 81.0549 71.604 80.9909 72.052H84.1469ZM93.0205 70.732H91.8565V76H90.1525V70.732H89.3965V69.352H90.1525V69.016C90.1525 68.2 90.3845 67.6 90.8485 67.216C91.3125 66.832 92.0125 66.652 92.9485 66.676V68.092C92.5405 68.084 92.2565 68.152 92.0965 68.296C91.9365 68.44 91.8565 68.7 91.8565 69.076V69.352H93.0205V70.732ZM94.9613 68.56C94.6653 68.56 94.4173 68.468 94.2173 68.284C94.0253 68.092 93.9293 67.856 93.9293 67.576C93.9293 67.296 94.0253 67.064 94.2173 66.88C94.4173 66.688 94.6653 66.592 94.9613 66.592C95.2573 66.592 95.5013 66.688 95.6933 66.88C95.8933 67.064 95.9933 67.296 95.9933 67.576C95.9933 67.856 95.8933 68.092 95.6933 68.284C95.5013 68.468 95.2573 68.56 94.9613 68.56ZM95.7893 69.352V76H94.1093V69.352H95.7893ZM99.1291 67.12V76H97.4491V67.12H99.1291ZM106.969 72.532C106.969 72.772 106.953 72.988 106.921 73.18H102.061C102.101 73.66 102.269 74.036 102.565 74.308C102.861 74.58 103.225 74.716 103.657 74.716C104.281 74.716 104.725 74.448 104.989 73.912H106.801C106.609 74.552 106.241 75.08 105.697 75.496C105.153 75.904 104.485 76.108 103.693 76.108C103.053 76.108 102.477 75.968 101.965 75.688C101.461 75.4 101.065 74.996 100.777 74.476C100.497 73.956 100.357 73.356 100.357 72.676C100.357 71.988 100.497 71.384 100.777 70.864C101.057 70.344 101.449 69.944 101.953 69.664C102.457 69.384 103.037 69.244 103.693 69.244C104.325 69.244 104.889 69.38 105.385 69.652C105.889 69.924 106.277 70.312 106.549 70.816C106.829 71.312 106.969 71.884 106.969 72.532ZM105.229 72.052C105.221 71.62 105.065 71.276 104.761 71.02C104.457 70.756 104.085 70.624 103.645 70.624C103.229 70.624 102.877 70.752 102.589 71.008C102.309 71.256 102.137 71.604 102.073 72.052H105.229Z" fill="white"/>
</g>
<defs>
<filter id="filter0_d_2286_20977" x="0" y="46" width="150" height="52" filterUnits="userSpaceOnUse" color-interpolation-filters="sRGB">
<feFlood flood-opacity="0" result="BackgroundImageFix"/>
<feColorMatrix in="SourceAlpha" type="matrix" values="0 0 0 0 0 0 0 0 0 0 0 0 0 0 0 0 0 0 127 0" result="hardAlpha"/>
<feOffset/>
<feGaussianBlur stdDeviation="3"/>
<feComposite in2="hardAlpha" operator="out"/>
<feColorMatrix type="matrix" values="0 0 0 0 0 0 0 0 0 0 0 0 0 0 0 0 0 0 0.02 0"/>
<feBlend mode="normal" in2="BackgroundImageFix" result="effect1_dropShadow_2286_20977"/>
<feBlend mode="normal" in="SourceGraphic" in2="effect1_dropShadow_2286_20977" result="shape"/>
</filter>
</defs>
</svg>
