<svg width="16" height="16" viewBox="0 0 16 16" fill="none" xmlns="http://www.w3.org/2000/svg">
<g clip-path="url(#clip0_1321_18064)">
<path d="M15.0551 12.4893C15.0551 12.8297 14.9199 13.1561 14.6793 13.3968C14.4386 13.6374 14.1122 13.7727 13.7718 13.7727H2.22181C1.88145 13.7727 1.55503 13.6374 1.31436 13.3968C1.07368 13.1561 0.938477 12.8297 0.938477 12.4893V5.43099C0.938477 5.09063 1.07368 4.76421 1.31436 4.52354C1.55503 4.28286 1.88145 4.14766 2.22181 4.14766H4.78848L6.07181 2.22266H9.92181L11.2051 4.14766H13.7718C14.1122 4.14766 14.4386 4.28286 14.6793 4.52354C14.9199 4.76421 15.0551 5.09063 15.0551 5.43099V12.4893Z" stroke="white" stroke-width="1.28333" stroke-linecap="round" stroke-linejoin="round"/>
<path d="M7.99684 11.2056C9.41437 11.2056 10.5635 10.0565 10.5635 8.63893C10.5635 7.2214 9.41437 6.07227 7.99684 6.07227C6.57931 6.07227 5.43018 7.2214 5.43018 8.63893C5.43018 10.0565 6.57931 11.2056 7.99684 11.2056Z" stroke="white" stroke-width="1.28333" stroke-linecap="round" stroke-linejoin="round"/>
</g>
<defs>
<clipPath id="clip0_1321_18064">
<rect width="15.4" height="15.4" fill="white" transform="translate(0.296875 0.296875)"/>
</clipPath>
</defs>
</svg>
