<svg width="33" height="32" viewBox="0 0 33 32" fill="none" xmlns="http://www.w3.org/2000/svg">
<g clip-path="url(#clip0_2209_22855)">
<path d="M16.5001 29.3346C14.7491 29.3346 13.0153 28.9898 11.3976 28.3197C9.77996 27.6496 8.31011 26.6675 7.07199 25.4294C5.83388 24.1913 4.85175 22.7214 4.18169 21.1037C3.51163 19.4861 3.16675 17.7523 3.16675 16.0013C3.16675 14.2503 3.51163 12.5165 4.18169 10.8989C4.85175 9.28118 5.83388 7.81133 7.07199 6.57321C8.31011 5.3351 9.77996 4.35297 11.3976 3.68291C13.0153 3.01285 14.7491 2.66797 16.5001 2.66797C20.0363 2.66797 23.4277 3.91664 25.9282 6.1393C28.4287 8.36195 29.8334 11.3765 29.8334 14.5198C29.8334 16.0915 29.131 17.5988 27.8808 18.7101C26.6306 19.8214 24.9349 20.4457 23.1667 20.4457H19.463C18.8021 20.4351 18.1566 20.6458 17.6291 21.0443C17.1017 21.4428 16.7227 22.0062 16.5524 22.6449C16.3821 23.2836 16.4302 23.9609 16.6892 24.5691C16.9482 25.1773 17.4031 25.6814 17.9816 26.0013C18.2774 26.2742 18.4802 26.633 18.5616 27.0272C18.643 27.4213 18.5989 27.8311 18.4354 28.1989C18.272 28.5667 17.9974 28.874 17.6503 29.0778C17.3031 29.2815 16.9009 29.3713 16.5001 29.3346Z" stroke="white" stroke-width="2.96296" stroke-linecap="round" stroke-linejoin="round"/>
<path d="M9.83449 14.5166C10.2436 14.5166 10.5752 14.185 10.5752 13.7759C10.5752 13.3668 10.2436 13.0352 9.83449 13.0352C9.42539 13.0352 9.09375 13.3668 9.09375 13.7759C9.09375 14.185 9.42539 14.5166 9.83449 14.5166Z" fill="white" stroke="white" stroke-width="2.96296" stroke-linecap="round" stroke-linejoin="round"/>
<path d="M16.5012 10.0752C16.9103 10.0752 17.242 9.74359 17.242 9.33449C17.242 8.92539 16.9103 8.59375 16.5012 8.59375C16.0921 8.59375 15.7605 8.92539 15.7605 9.33449C15.7605 9.74359 16.0921 10.0752 16.5012 10.0752Z" fill="white" stroke="white" stroke-width="2.96296" stroke-linecap="round" stroke-linejoin="round"/>
<path d="M23.1677 14.5166C23.5768 14.5166 23.9085 14.185 23.9085 13.7759C23.9085 13.3668 23.5768 13.0352 23.1677 13.0352C22.7586 13.0352 22.427 13.3668 22.427 13.7759C22.427 14.185 22.7586 14.5166 23.1677 14.5166Z" fill="white" stroke="white" stroke-width="2.96296" stroke-linecap="round" stroke-linejoin="round"/>
</g>
<defs>
<clipPath id="clip0_2209_22855">
<rect width="32" height="32" fill="white" transform="translate(0.5)"/>
</clipPath>
</defs>
</svg>
