<svg width="24" height="24" viewBox="0 0 24 24" fill="none" xmlns="http://www.w3.org/2000/svg">
<g clip-path="url(#clip0_1321_17951)">
<path d="M22.6614 11.41C22.6655 12.9743 22.3 14.5174 21.5948 15.9137C20.7585 17.5869 19.473 18.9942 17.8821 19.9781C16.2912 20.9619 14.4579 21.4834 12.5874 21.4841C11.0231 21.4882 9.47995 21.1227 8.08367 20.4174L1.32812 22.6693L3.57997 15.9137C2.87471 14.5174 2.50923 12.9743 2.51331 11.41C2.51403 9.53952 3.03551 7.70616 4.01934 6.11528C5.00317 4.52441 6.41049 3.23886 8.08367 2.40264C9.47995 1.69737 11.0231 1.33189 12.5874 1.33597H13.18C15.6503 1.47226 17.9836 2.51495 19.733 4.26439C21.4825 6.01384 22.5251 8.3471 22.6614 10.8174V11.41Z" stroke="#393939" stroke-width="2.4" stroke-linecap="round" stroke-linejoin="round"/>
<circle cx="9.14844" cy="11.5508" r="0.75" fill="#393939"/>
<circle cx="12.1484" cy="11.5508" r="0.75" fill="#393939"/>
<circle cx="15.1484" cy="11.5508" r="0.75" fill="#393939"/>
</g>
<defs>
<clipPath id="clip0_1321_17951">
<rect width="24" height="24" fill="white"/>
</clipPath>
</defs>
</svg>
