<svg width="44" height="44" viewBox="0 0 44 44" fill="none" xmlns="http://www.w3.org/2000/svg">
<g clip-path="url(#clip0_3086_22979)">
<path d="M5.5013 5.5H38.5013C38.9875 5.5 39.4538 5.69315 39.7977 6.03697C40.1415 6.38079 40.3346 6.8471 40.3346 7.33333V36.6667C40.3346 37.1529 40.1415 37.6192 39.7977 37.963C39.4538 38.3068 38.9875 38.5 38.5013 38.5H5.5013C5.01507 38.5 4.54876 38.3068 4.20494 37.963C3.86112 37.6192 3.66797 37.1529 3.66797 36.6667V7.33333C3.66797 6.8471 3.86112 6.38079 4.20494 6.03697C4.54876 5.69315 5.01507 5.5 5.5013 5.5ZM22.1113 21.4188L10.356 11.4363L7.9818 14.2303L22.1351 26.2478L36.0336 14.2212L33.6356 11.4473L22.1113 21.4188Z" fill="#3F56B6"/>
</g>
<defs>
<clipPath id="clip0_3086_22979">
<rect width="44" height="44" fill="white"/>
</clipPath>
</defs>
</svg>
