<svg width="14" height="15" viewBox="0 0 14 15" fill="none" xmlns="http://www.w3.org/2000/svg">
<path d="M13.4167 12.7503V11.5837C13.4164 11.0667 13.2443 10.5645 12.9275 10.1559C12.6108 9.74726 12.1673 9.45542 11.6667 9.32617" stroke="#707173" stroke-width="1.16667" stroke-linecap="round" stroke-linejoin="round"/>
<mask id="path-2-inside-1_1321_17662" fill="white">
<path d="M9.91658 13.3333V11.9722C9.91658 11.2502 9.67075 10.5578 9.23317 10.0473C8.79558 9.53681 8.20209 9.25 7.58325 9.25H2.91659C2.29775 9.25 1.70425 9.53681 1.26667 10.0473C0.829085 10.5578 0.583252 11.2502 0.583252 11.9722V13.3333"/>
</mask>
<path d="M8.74992 13.3333C8.74992 13.9777 9.27225 14.5 9.91658 14.5C10.5609 14.5 11.0833 13.9777 11.0833 13.3333H8.74992ZM7.58325 9.25V8.08333V9.25ZM2.91659 9.25V8.08333V9.25ZM0.583252 11.9722H-0.583415H0.583252ZM-0.583415 13.3333C-0.583415 13.9777 -0.0610802 14.5 0.583252 14.5C1.22758 14.5 1.74992 13.9777 1.74992 13.3333H-0.583415ZM11.0833 13.3333V11.9722H8.74992V13.3333H11.0833ZM11.0833 11.9722C11.0833 10.994 10.7517 10.0263 10.119 9.28806L8.34737 10.8066C8.58976 11.0894 8.74992 11.5065 8.74992 11.9722H11.0833ZM10.119 9.28806C9.48143 8.54427 8.57465 8.08333 7.58325 8.08333L7.58325 10.4167C7.82953 10.4167 8.10974 10.5293 8.34737 10.8066L10.119 9.28806ZM7.58325 8.08333H2.91659V10.4167H7.58325V8.08333ZM2.91659 8.08333C1.92519 8.08333 1.01841 8.54427 0.38087 9.28806L2.15247 10.8066C2.3901 10.5293 2.6703 10.4167 2.91659 10.4167V8.08333ZM0.38087 9.28806C-0.251904 10.0263 -0.583415 10.994 -0.583415 11.9722H1.74992C1.74992 11.5065 1.91007 11.0894 2.15247 10.8066L0.38087 9.28806ZM-0.583415 11.9722V13.3333H1.74992V11.9722H-0.583415Z" fill="#707173" mask="url(#path-2-inside-1_1321_17662)"/>
<path d="M9.33325 2.32617C9.83516 2.45468 10.28 2.74658 10.5977 3.15585C10.9154 3.56513 11.0878 4.06849 11.0878 4.58659C11.0878 5.10469 10.9154 5.60805 10.5977 6.01732C10.28 6.4266 9.83516 6.7185 9.33325 6.84701" stroke="#707173" stroke-width="1.16667" stroke-linecap="round" stroke-linejoin="round"/>
<path d="M5.25008 6.91667C6.53875 6.91667 7.58341 5.872 7.58341 4.58333C7.58341 3.29467 6.53875 2.25 5.25008 2.25C3.96142 2.25 2.91675 3.29467 2.91675 4.58333C2.91675 5.872 3.96142 6.91667 5.25008 6.91667Z" stroke="#707173" stroke-width="1.16667" stroke-linecap="round" stroke-linejoin="round"/>
</svg>
