<svg width="33" height="32" viewBox="0 0 33 32" fill="none" xmlns="http://www.w3.org/2000/svg">
<g clip-path="url(#clip0_2209_22859)">
<path d="M1.5 1.33333C1.5 1.14924 1.64924 1 1.83333 1H31.1667C31.3508 1 31.5 1.14924 31.5 1.33333V30.6667C31.5 30.8508 31.3508 31 31.1667 31H1.83333C1.64924 31 1.5 30.8508 1.5 30.6667V1.33333Z" stroke="#0763C6" stroke-width="2"/>
<path d="M21.9804 19.7511L21.8128 19.332H21.3614H12.7054H12.2541L12.0864 19.7511L9.58739 25.9987H8.15144L16.1514 5.9987H17.9154L25.9154 25.9987H24.4794L21.9804 19.7511ZM20.2947 17.9987H21.2794L20.9137 17.0844L17.6524 8.9311L17.0334 7.38364L16.4144 8.9311L13.1531 17.0844L12.7874 17.9987H13.7721H20.2947Z" fill="#393B3D" stroke="#0763C6" stroke-width="1.33333"/>
</g>
<defs>
<clipPath id="clip0_2209_22859">
<rect width="32" height="32" fill="white" transform="translate(0.5)"/>
</clipPath>
</defs>
</svg>
