<svg width="21" height="20" viewBox="0 0 21 20" fill="none" xmlns="http://www.w3.org/2000/svg">
<path d="M1.66479 7.22335H19.1648M1.66479 7.22335C2.08146 12.2237 3.74813 14.307 6.24813 14.7234M1.66479 7.22335C2.08146 6.39036 2.91479 3.89002 6.24813 3.89002C7.0569 3.89011 9.0431 -0.819315 13.3494 3.47369C13.3557 3.47995 13.362 3.48623 13.3683 3.49252C13.6158 3.74045 13.9478 3.88604 14.2978 3.90114C15.2284 3.94127 16.1442 4.10193 16.9704 4.57043C17.8257 5.05548 18.5849 5.87049 19.1648 7.22335M19.1648 7.22335C18.7481 12.6404 16.9704 14.307 14.9981 14.7234M14.9981 14.7234H6.24813M14.9981 14.7234V16.8067C14.9981 17.497 14.4385 18.0567 13.7481 18.0567H7.49813C6.80777 18.0567 6.24813 17.497 6.24813 16.8067V14.7234" stroke="#393B3D" stroke-width="1.78"/>
</svg>
