<svg width="24" height="24" viewBox="0 0 24 24" fill="none" xmlns="http://www.w3.org/2000/svg">
<g clip-path="url(#clip0_1321_21321)">
<path d="M19.5944 4.91368C19.5888 4.91368 19.5828 4.91378 19.5765 4.91404C19.541 4.87685 19.5039 4.83673 19.4684 4.79604C19.4259 4.74743 19.3902 4.70289 19.3642 4.66563L23.4398 0.590164L23.4399 0.590193L23.4432 0.58678C23.4683 0.560709 23.4985 0.539913 23.5318 0.525606C23.5651 0.5113 23.6009 0.503769 23.6372 0.503454C23.6734 0.503139 23.7093 0.510046 23.7429 0.523772C23.7764 0.537498 23.8069 0.557768 23.8326 0.583397C23.8582 0.609026 23.8785 0.639502 23.8922 0.673049C23.9059 0.706594 23.9128 0.742536 23.9125 0.778779C23.9122 0.815027 23.9047 0.850843 23.8904 0.88414C23.876 0.917441 23.8552 0.947562 23.8292 0.972743L23.8291 0.972713L23.8258 0.976068L19.8266 4.9751C19.8235 4.97344 19.8203 4.97178 19.8171 4.97013C19.7649 4.94338 19.6889 4.91368 19.5944 4.91368Z" fill="#0763C6" stroke="#0763C6" stroke-width="0.54595"/>
<path d="M23.6392 3.88429L23.6391 3.88429C23.6016 3.88381 23.5645 3.87593 23.5299 3.8611C23.4954 3.84627 23.4641 3.82478 23.4379 3.79786C23.4117 3.77093 23.391 3.7391 23.3771 3.70419C23.3632 3.66927 23.3563 3.63194 23.3567 3.59434L23.3567 3.5942L23.3854 1.31951L23.389 1.02608L23.0956 1.02978L20.8215 1.0584L20.8214 1.0584C20.7455 1.05938 20.6723 1.03019 20.618 0.97721C20.5636 0.92423 20.5325 0.851806 20.5315 0.775865C20.5305 0.699923 20.5597 0.626713 20.6127 0.572338C20.6657 0.517991 20.738 0.486906 20.8138 0.485891C20.8138 0.48589 20.8139 0.48589 20.8139 0.485889L23.9688 0.446091L23.929 3.6013L23.929 3.6015C23.9285 3.63912 23.9207 3.67629 23.9059 3.71087C23.891 3.74544 23.8696 3.77676 23.8426 3.80302C23.8157 3.82928 23.7839 3.84997 23.749 3.86392C23.7141 3.87786 23.6767 3.88478 23.6392 3.88429Z" fill="#0763C6" stroke="#0763C6" stroke-width="0.572324"/>
<path d="M19.4219 4.55078L22.8012 1.3644" stroke="#0763C6" stroke-width="1.59298" stroke-linecap="round"/>
<path fill-rule="evenodd" clip-rule="evenodd" d="M6.10101 23.7671V19.5193C6.10101 19.3784 6.17432 19.2434 6.30482 19.1438C6.43532 19.0442 6.6123 18.9883 6.79685 18.9883C6.9814 18.9883 7.15839 19.0442 7.28889 19.1438C7.41938 19.2434 7.49269 19.3784 7.49269 19.5193V23.7671C7.49269 23.9079 7.41938 24.043 7.28889 24.1426C7.15839 24.2422 6.9814 24.2981 6.79685 24.2981C6.6123 24.2981 6.43532 24.2422 6.30482 24.1426C6.17432 24.043 6.10101 23.9079 6.10101 23.7671Z" fill="#0763C6"/>
<path fill-rule="evenodd" clip-rule="evenodd" d="M4.6557 22.2293C4.6557 22.0463 4.71209 21.8707 4.81248 21.7412C4.91286 21.6118 5.049 21.5391 5.19096 21.5391H8.40253C8.54449 21.5391 8.68064 21.6118 8.78102 21.7412C8.8814 21.8707 8.93779 22.0463 8.93779 22.2293C8.93779 22.4124 8.8814 22.588 8.78102 22.7174C8.68064 22.8469 8.54449 22.9196 8.40253 22.9196H5.19096C5.049 22.9196 4.91286 22.8469 4.81248 22.7174C4.71209 22.588 4.6557 22.4124 4.6557 22.2293Z" fill="#0763C6"/>
<path d="M15.195 14.7022C18.3988 15.0792 21.3017 12.7878 21.6787 9.58408C22.0558 6.3804 19.7642 3.47766 16.5604 3.10063C13.3566 2.72361 10.4537 5.01506 10.0767 8.21875C9.97557 9.07812 9.82516 10.4947 10.3562 11.5567" stroke="#0763C6" stroke-width="2.11335" stroke-linecap="round"/>
<path d="M7.38174 8.37052C4.19973 7.84005 1.79689 9.71687 1.26639 12.8987C0.735895 16.0806 2.88537 19.0901 6.06737 19.6205C9.24938 20.151 12.259 18.0016 12.7895 14.8198C12.9318 13.9662 13.1176 13.4743 12.6914 12.0873" stroke="#0763C6" stroke-width="2.11335" stroke-linecap="round"/>
</g>
<defs>
<clipPath id="clip0_1321_21321">
<rect width="24" height="24" fill="white"/>
</clipPath>
</defs>
</svg>
