<svg width="28" height="29" viewBox="0 0 28 29" fill="none" xmlns="http://www.w3.org/2000/svg">
<path d="M26.32 14.5415C26.32 13.6315 26.2383 12.7565 26.0867 11.9165H14V16.8807H20.9067C20.6092 18.4848 19.705 19.844 18.3458 20.754V23.974H22.4933C24.92 21.7398 26.32 18.4498 26.32 14.5415Z" fill="#4285F4"/>
<path d="M14.0015 27.0835C17.4665 27.0835 20.3715 25.9343 22.4949 23.9743L18.3474 20.7543C17.1982 21.5243 15.7282 21.9793 14.0015 21.9793C10.659 21.9793 7.82987 19.7218 6.8207 16.6885H2.5332V20.0135C4.64487 24.2076 8.98487 27.0835 14.0015 27.0835Z" fill="#34A853"/>
<path d="M6.81852 16.6885C6.56185 15.9185 6.41602 15.096 6.41602 14.2502C6.41602 13.4043 6.56185 12.5818 6.81852 11.8118V8.48682H2.53102C1.63268 10.2752 1.16522 12.2489 1.16602 14.2502C1.16602 16.321 1.66185 18.281 2.53102 20.0135L6.81852 16.6885Z" fill="#FBBC05"/>
<path d="M14.0015 6.52067C15.8857 6.52067 17.5774 7.16817 18.9074 8.43984L22.5882 4.759C20.3657 2.68817 17.4607 1.4165 14.0015 1.4165C8.98487 1.4165 4.64487 4.29234 2.5332 8.4865L6.8207 11.8115C7.82987 8.77817 10.659 6.52067 14.0015 6.52067Z" fill="#EA4335"/>
</svg>
