<svg width="20" height="20" viewBox="0 0 20 20" fill="none" xmlns="http://www.w3.org/2000/svg">
<path d="M15.8333 2.5H4.16667C3.24619 2.5 2.5 3.24619 2.5 4.16667V15.8333C2.5 16.7538 3.24619 17.5 4.16667 17.5H15.8333C16.7538 17.5 17.5 16.7538 17.5 15.8333V4.16667C17.5 3.24619 16.7538 2.5 15.8333 2.5Z" stroke="#393B3D" stroke-width="1.66667" stroke-linecap="round" stroke-linejoin="round"/>
<path d="M17.5 12.5007L13.3333 8.33398L4.16663 17.5007" stroke="#393B3D" stroke-width="1.66667" stroke-linecap="round" stroke-linejoin="round"/>
<path d="M7.08337 8.33398C7.77373 8.33398 8.33337 7.77434 8.33337 7.08398C8.33337 6.39363 7.77373 5.83398 7.08337 5.83398C6.39302 5.83398 5.83337 6.39363 5.83337 7.08398C5.83337 7.77434 6.39302 8.33398 7.08337 8.33398Z" stroke="#393B3D" stroke-width="1.66667" stroke-linecap="round" stroke-linejoin="round"/>
</svg>
