<svg width="14" height="15" viewBox="0 0 14 15" fill="none" xmlns="http://www.w3.org/2000/svg">
<g clip-path="url(#clip0_1321_17667)">
<path d="M12.25 6.33398C12.25 10.4173 7 13.9173 7 13.9173C7 13.9173 1.75 10.4173 1.75 6.33398C1.75 4.9416 2.30312 3.60624 3.28769 2.62167C4.27226 1.63711 5.60761 1.08398 7 1.08398C8.39239 1.08398 9.72774 1.63711 10.7123 2.62167C11.6969 3.60624 12.25 4.9416 12.25 6.33398Z" stroke="#707173" stroke-width="1.16667" stroke-linecap="round" stroke-linejoin="round"/>
<path d="M7 8.08398C7.9665 8.08398 8.75 7.30048 8.75 6.33398C8.75 5.36749 7.9665 4.58398 7 4.58398C6.0335 4.58398 5.25 5.36749 5.25 6.33398C5.25 7.30048 6.0335 8.08398 7 8.08398Z" stroke="#707173" stroke-width="1.16667" stroke-linecap="round" stroke-linejoin="round"/>
</g>
<defs>
<clipPath id="clip0_1321_17667">
<rect width="14" height="14" fill="white" transform="translate(0 0.5)"/>
</clipPath>
</defs>
</svg>
