<svg width="24" height="24" viewBox="0 0 24 24" fill="none" xmlns="http://www.w3.org/2000/svg">
<path d="M20.173 19.9742H16.665V14.5345C16.665 13.2374 16.6416 11.5676 14.8405 11.5676C13.0134 11.5676 12.7338 12.9809 12.7338 14.4401V19.9738H9.22576V8.78771H12.5935V10.3164H12.6406C12.9777 9.74583 13.4647 9.27645 14.0498 8.95825C14.6349 8.64005 15.2963 8.48495 15.9634 8.50947C19.5189 8.50947 20.1745 10.8251 20.1745 13.8377L20.173 19.9742ZM5.26753 7.25865C4.8649 7.25873 4.47127 7.14058 4.13645 6.91915C3.80163 6.69772 3.54067 6.38295 3.38652 6.01466C3.23237 5.64636 3.19197 5.24108 3.27045 4.85006C3.34893 4.45903 3.54276 4.09983 3.82742 3.81788C4.11207 3.53593 4.47477 3.34389 4.86966 3.26604C5.26454 3.18819 5.67387 3.22804 6.04588 3.38054C6.41789 3.53303 6.73588 3.79133 6.95963 4.12278C7.18338 4.45422 7.30286 4.84392 7.30293 5.24259C7.30298 5.50729 7.25036 5.76941 7.1481 6.01399C7.04584 6.25856 6.89594 6.4808 6.70693 6.66801C6.51793 6.85522 6.29352 7.00374 6.04655 7.10508C5.79958 7.20642 5.53487 7.25861 5.26753 7.25865ZM7.02155 19.9742H3.50986V8.78771H7.02155V19.9742ZM21.9219 0.00159714H1.74708C1.28917 -0.00351951 0.847913 0.171579 0.520319 0.488416C0.192724 0.805253 0.00558857 1.23791 0 1.6913V21.7503C0.0053973 22.204 0.192423 22.6369 0.520006 22.9541C0.847589 23.2712 1.28894 23.4467 1.74708 23.4419H21.9219C22.381 23.4476 22.8236 23.2726 23.1525 22.9555C23.4813 22.6383 23.6696 22.2049 23.676 21.7503V1.68986C23.6694 1.23556 23.481 0.802415 23.1521 0.485585C22.8232 0.168756 22.3808 -0.00584236 21.9219 0.000149269" fill="#0A66C2"/>
</svg>
