<svg width="240" height="290" viewBox="0 0 240 290" fill="none" xmlns="http://www.w3.org/2000/svg">
<path d="M131.19 222.043C129.104 223.392 127.066 224.626 124.945 224.791C120.6 225.129 116.211 224.892 111.582 224.892C111.582 211.197 111.582 198.168 111.582 184.84C117.875 184.84 123.992 184.84 131.201 184.84C131.201 196.876 131.201 209.16 131.19 222.043Z" fill="#CE076A"/>
<path d="M199.809 134.558C201.331 140.865 202.234 147.15 203.23 154.084C188.797 154.084 175.687 154.084 162.365 154.084C162.365 147.828 162.365 141.552 162.365 134.536C174.636 134.536 186.913 134.536 199.809 134.558Z" fill="#2E7B55"/>
<path d="M111.295 73.5024C111.295 70.1132 111.295 67.3978 111.295 64.2009C118.275 64.2009 124.611 64.2009 131.401 64.2009C131.401 77.4699 131.401 90.4993 131.401 103.966C125.084 103.966 118.714 103.966 111.295 103.966C111.295 94.2169 111.295 84.1965 111.295 73.5024Z" fill="#FBB240"/>
<path d="M76.6751 201.303C82.0315 192.134 87.1205 183.416 92.3008 174.542C98.008 177.802 103.511 180.944 109.575 184.408C103.031 195.653 96.3723 207.096 89.5264 218.861C83.7361 215.564 78.3707 212.509 72.5254 209.181C73.9556 206.446 75.1816 204.1 76.6751 201.303Z" fill="#0875BE"/>
<path d="M151.778 174.575C154.94 168.637 158.101 162.699 161.576 156.171C173.131 162.767 184.47 169.24 196.527 176.123C193.247 181.768 190.1 187.184 186.622 193.17C175.055 186.689 163.873 180.424 152.213 174.349C151.734 174.539 151.778 174.575 151.778 174.575Z" fill="#CE076A"/>
<path d="M91.7934 114.984C88.8636 109.17 86.0631 103.287 82.968 97.5606C79.8095 91.7171 76.3616 86.0276 72.7383 79.747C78.5066 76.4164 83.8395 73.3371 89.6901 69.959C96.5034 81.6145 103.11 92.9158 109.718 104.22C103.759 107.567 98.0002 110.801 91.9688 114.506C91.6963 114.977 91.7934 114.984 91.7934 114.984Z" fill="#3AB54A"/>
<path d="M195.993 112.179C184.814 119.429 173.567 126.193 162.095 133.092C158.625 127.138 155.451 121.692 151.953 115.69C163.278 109.196 174.602 102.703 186.694 95.769C189.997 101.467 192.961 106.58 195.993 112.179Z" fill="#FBB240"/>
<path d="M91.7053 114.929C88.285 120.551 84.8572 126.22 81.0785 132.469C69.9795 126.132 58.6707 119.675 46.5078 112.731C49.7404 107.106 52.8671 101.666 56.3413 95.6206C68.0156 102.191 79.3981 108.598 91.2877 114.994C91.7949 114.984 91.6978 114.977 91.7053 114.929Z" fill="#F15E29"/>
<path d="M151.714 174.517C152.295 176.48 152.555 178.654 153.552 180.419C158.865 189.826 164.363 199.131 170.117 209.021C164.654 212.17 159.5 215.141 153.375 218.672C146.69 207.262 140.136 196.076 133.311 184.428C139.524 181.286 145.316 178.357 151.441 175.002C151.776 174.576 151.732 174.54 151.714 174.517Z" fill="#0875BE"/>
<path d="M148.211 113.196C143.244 110.18 138.722 107.447 133.543 104.318C139.963 93.2111 146.459 81.9723 153.354 70.0425C159.069 73.2464 164.398 76.2343 170.678 79.7553C164.793 89.9427 159.188 99.8486 153.324 109.602C152.342 111.235 150.241 112.204 148.211 113.196Z" fill="#8CC63E"/>
<path d="M63.0702 189.008C60.6273 190.354 58.6047 191.416 56.2672 192.644C53.0923 187.224 50.0738 182.071 46.5078 175.983C57.9839 169.391 69.3256 162.876 80.9588 156.193C84.1784 161.731 87.2602 167.031 90.7569 173.045C81.8228 178.183 72.6567 183.454 63.0702 189.008Z" fill="#CE076A"/>
<path d="M60.9556 134.338C67.871 134.338 74.0919 134.338 80.6382 134.338C80.6382 140.807 80.6382 146.895 80.6382 153.505C67.5986 153.505 54.5346 153.505 41.0312 153.505C41.0312 147.428 41.0312 141.333 41.0312 134.338C47.4931 134.338 53.8772 134.338 60.9556 134.338Z" fill="#0875BE"/>
<path d="M129.974 33.7233C131.161 40.3519 131.754 46.8148 132.41 53.956C124.87 53.956 118.362 53.956 111.568 53.956C111.568 47.3819 111.568 41.02 111.568 33.5576C117.586 33.5576 123.483 33.5576 129.974 33.7233Z" fill="#FBB240"/>
<path d="M114.752 234.601C120.202 234.597 125.032 234.597 130.38 234.597C130.38 241.547 130.38 248.065 130.38 254.992C124.194 254.992 117.856 254.992 110.826 254.992C110.826 249.198 110.647 243.511 110.975 237.853C111.041 236.714 113.03 235.685 114.752 234.601Z" fill="#CE076A"/>
<path d="M217.759 134.917C222.997 134.918 227.593 134.918 232.468 134.918C232.468 141.779 232.468 147.927 232.468 154.533C225.958 154.533 219.557 154.533 211.975 154.533C211.975 149.08 211.704 143.408 212.208 137.806C212.307 136.706 215.404 135.873 217.759 134.917Z" fill="#2E7B55"/>
<path d="M33.0105 82.0822C37.9942 85.0063 42.5639 87.6785 47.5171 90.5748C44.1543 96.3616 41.0575 101.691 37.6512 107.552C31.6868 104.178 26.1075 101.022 19.7559 97.4285C22.806 92.186 25.5452 87.2005 28.6419 82.4445C29.1244 81.7035 31.2374 82.0087 33.0105 82.0822Z" fill="#F15E29"/>
<path d="M40.9482 187.35C43.036 190.95 44.8578 194.122 46.9867 197.828C41.2159 201.172 35.5348 204.464 29.4612 207.984C26.1307 202.286 23.0399 196.999 19.6055 191.123C25.4532 187.746 30.9367 184.578 36.9573 181.1C38.3003 183.199 39.4912 185.06 40.9482 187.35Z" fill="#CE076A"/>
<path d="M205.272 204.606C201.67 202.477 198.501 200.639 194.855 198.526C198.171 192.793 201.338 187.316 204.758 181.4C210.769 184.864 216.272 188.037 222.587 191.677C219.279 197.385 216.142 202.799 212.804 208.56C210.105 207.168 207.904 206.033 205.272 204.606Z" fill="#CE076A"/>
<path d="M69.808 46.1694C72.5885 44.2233 74.5728 43.4969 76.3109 46.8809C78.718 51.5677 81.5045 56.0623 84.4445 61.1901C78.6944 64.4839 73.3458 67.5477 67.453 70.9233C64.0515 65.0981 60.8366 59.5925 57.2402 53.4336C61.491 50.9882 65.4349 48.7193 69.808 46.1694Z" fill="#3AB54A"/>
<path d="M68.9757 242.557C64.772 240.136 61.0137 237.926 56.5703 235.313C59.8997 229.531 63.1359 223.912 66.7478 217.64C72.6748 221.013 78.143 224.125 84.0048 227.461C81.0686 232.575 78.2769 237.013 75.9251 241.67C74.0825 245.318 71.9778 244.694 68.9757 242.557Z" fill="#0875BE"/>
<path d="M160.816 57.2852C163.501 52.7161 165.914 48.5709 168.635 43.8958C174.409 47.1594 179.746 50.1764 185.8 53.5991C182.5 59.4455 179.395 64.9452 175.751 71.3993C170.496 68.4295 165.46 65.8293 160.777 62.7078C159.947 62.1544 160.584 59.4307 160.816 57.2852Z" fill="#8CC63E"/>
<path d="M218.986 91.0227C220.326 93.4669 221.446 95.4627 222.899 98.0515C217.067 101.41 211.361 104.696 205.228 108.227C201.868 102.581 198.726 97.3029 195.127 91.2553C201.009 87.8356 206.646 84.5581 212.93 80.9048C215.043 84.4052 216.904 87.4897 218.986 91.0227Z" fill="#FBB240"/>
<path d="M183.848 236.094C178.569 239.283 173.58 242.11 168.144 245.192C164.781 239.393 161.605 233.916 158.168 227.99C163.783 224.732 168.919 221.752 175.1 218.167C178.227 224.244 181.182 229.989 183.848 236.094Z" fill="#0875BE"/>
<path d="M29.6698 153.299C22.9702 153.805 16.7111 153.805 9.49023 153.805C9.49023 150.472 9.49023 147.329 9.49023 144.186C9.49023 141.216 9.49023 138.246 9.49023 134.814C16.4956 134.814 23.0659 134.814 30.1104 134.814C30.1104 140.907 30.1104 146.851 29.6698 153.299Z" fill="#0875BE"/>
</svg>
