<svg width="132" height="150" viewBox="0 0 132 150" fill="none" xmlns="http://www.w3.org/2000/svg">
<path opacity="0.1" d="M65.8537 131.707C102.224 131.707 131.707 102.224 131.707 65.8537C131.707 29.4837 102.224 0 65.8537 0C29.4837 0 0 29.4837 0 65.8537C0 102.224 29.4837 131.707 65.8537 131.707Z" fill="#5B798B"/>
<rect x="28.2012" y="25.6094" width="77.7439" height="124.39" rx="12" fill="#5B798B"/>
<rect x="33.7542" y="31.1621" width="66.6376" height="114.395" rx="6" fill="white"/>
<rect x="53.1011" y="28.584" width="27.2283" height="6.12636" rx="1.22581" fill="#5B798B"/>
<circle cx="67.6542" cy="73.4723" r="13.8805" fill="#C1D32F"/>
<path d="M99.8059 70.2943V79.1218H91.0242C89.3673 79.1218 88.0242 80.465 88.0242 82.1218V93.4877C88.0242 95.1445 89.3673 96.4877 91.0242 96.4877H99.8059V105.315C99.8059 107.901 102.858 109.275 104.794 107.562L122.888 91.549C125.136 89.5591 125.136 86.0503 122.888 84.0605L104.794 68.0477C102.858 66.3342 99.8059 67.7088 99.8059 70.2943Z" fill="#C1D32F" stroke="white" stroke-width="2" stroke-linejoin="round"/>
<path d="M46.4688 106.347C46.9502 99.1263 51.0995 94.714 54.1808 92.7022C55.2695 91.9914 56.6365 92.0305 57.8558 92.4824C60.1914 93.3482 64.2314 94.6585 67.2896 94.6585C70.4317 94.6585 74.6102 93.2754 76.9117 92.4122C78.0159 91.9982 79.2509 91.9095 80.3116 92.4246C87.3834 95.8588 87.4305 103.83 88.1104 109.27C88.6949 113.945 85.4317 115.114 83.7271 115.114H58.1577C49.391 115.114 45.7383 117.306 46.4688 106.347Z" fill="#5B798B"/>
</svg>
