<svg width="20" height="20" viewBox="0 0 20 20" fill="none" xmlns="http://www.w3.org/2000/svg">
<g clip-path="url(#clip0_305_16880)">
<path d="M14.168 9.16699H5.83464C4.91416 9.16699 4.16797 9.91318 4.16797 10.8337V15.8337C4.16797 16.7541 4.91416 17.5003 5.83464 17.5003H14.168C15.0884 17.5003 15.8346 16.7541 15.8346 15.8337V10.8337C15.8346 9.91318 15.0884 9.16699 14.168 9.16699Z" stroke="#393B3D" stroke-width="1.25" stroke-linecap="round" stroke-linejoin="round"/>
<path d="M10.0013 14.1667C10.4615 14.1667 10.8346 13.7936 10.8346 13.3333C10.8346 12.8731 10.4615 12.5 10.0013 12.5C9.54106 12.5 9.16797 12.8731 9.16797 13.3333C9.16797 13.7936 9.54106 14.1667 10.0013 14.1667Z" stroke="#393B3D" stroke-width="1.25" stroke-linecap="round" stroke-linejoin="round"/>
<path d="M6.66797 9.16667V5.83333C6.66797 4.94928 7.01916 4.10143 7.64428 3.47631C8.2694 2.85119 9.11725 2.5 10.0013 2.5C10.8854 2.5 11.7332 2.85119 12.3583 3.47631C12.9834 4.10143 13.3346 4.94928 13.3346 5.83333V9.16667" stroke="#393B3D" stroke-width="1.25" stroke-linecap="round" stroke-linejoin="round"/>
</g>
<defs>
<clipPath id="clip0_305_16880">
<rect width="20" height="20" fill="white"/>
</clipPath>
</defs>
</svg>
