<svg width="20" height="20" viewBox="0 0 20 20" fill="none" xmlns="http://www.w3.org/2000/svg">
<mask id="path-1-inside-1_2455_21158" fill="white">
<path fill-rule="evenodd" clip-rule="evenodd" d="M13.7449 11.6162C13.7449 11.8832 13.9286 12.128 14.1866 12.1965C15.6116 12.5752 16.6616 13.8741 16.6616 15.4183C16.6616 17.2592 15.1692 18.7516 13.3282 18.7516C12.493 18.7516 11.7295 18.4444 11.1446 17.9369C10.828 17.6622 10.4178 17.5007 9.9986 17.5007C9.57652 17.5007 9.16322 17.6631 8.84411 17.9394C8.25958 18.4455 7.49725 18.7516 6.66341 18.7516C4.82246 18.7516 3.33008 17.2592 3.33008 15.4183C3.33008 13.8748 4.37909 12.5764 5.80304 12.1971C6.06118 12.1283 6.24488 11.8833 6.24488 11.6162C6.24488 9.80403 7.92382 8.33496 9.99488 8.33496C12.066 8.33496 13.7449 9.80403 13.7449 11.6162Z"/>
</mask>
<path d="M8.84411 17.9394L7.91686 16.8684L8.84411 17.9394ZM11.1446 17.9369L12.0731 16.8669L11.1446 17.9369ZM14.1866 12.1965L13.8228 13.5657L14.1866 12.1965ZM18.0782 15.4183C18.0782 13.2159 16.5806 11.3669 14.5505 10.8274L13.8228 13.5657C14.6426 13.7835 15.2449 14.5324 15.2449 15.4183H18.0782ZM13.3282 20.1683C15.9516 20.1683 18.0782 18.0416 18.0782 15.4183H15.2449C15.2449 16.4768 14.3868 17.335 13.3282 17.335V20.1683ZM10.2161 19.0069C11.0489 19.7295 12.1391 20.1683 13.3282 20.1683V17.335C12.8469 17.335 12.4102 17.1594 12.0731 16.8669L10.2161 19.0069ZM6.66341 20.1683C7.85057 20.1683 8.93914 19.7309 9.77136 19.0105L7.91686 16.8684C7.58001 17.16 7.14392 17.335 6.66341 17.335V20.1683ZM1.91341 15.4183C1.91341 18.0416 4.04006 20.1683 6.66341 20.1683V17.335C5.60487 17.335 4.74674 16.4768 4.74674 15.4183H1.91341ZM5.43835 10.8281C3.40968 11.3686 1.91341 13.2169 1.91341 15.4183H4.74674C4.74674 14.5328 5.3485 13.7842 6.16774 13.566L5.43835 10.8281ZM9.99488 6.91829C7.32502 6.91829 4.82822 8.84985 4.82822 11.6162H7.66155C7.66155 10.7582 8.52261 9.75163 9.99488 9.75163V6.91829ZM15.1616 11.6162C15.1616 8.84985 12.6647 6.91829 9.99488 6.91829V9.75163C11.4672 9.75163 12.3282 10.7582 12.3282 11.6162H15.1616ZM9.9986 16.084C9.21728 16.084 8.479 16.3817 7.91686 16.8684L9.77136 19.0105C9.84744 18.9446 9.93575 18.9174 9.9986 18.9174V16.084ZM6.16774 13.566C7.06204 13.3277 7.66155 12.5087 7.66155 11.6162H4.82822C4.82822 11.258 5.06032 10.9288 5.43835 10.8281L6.16774 13.566ZM12.0731 16.8669C11.5132 16.3811 10.7774 16.084 9.9986 16.084V18.9174C10.0581 18.9174 10.1428 18.9433 10.2161 19.0069L12.0731 16.8669ZM12.3282 11.6162C12.3282 12.5089 12.9281 13.3279 13.8228 13.5657L14.5505 10.8274C14.929 10.928 15.1616 11.2575 15.1616 11.6162H12.3282Z" fill="#393B3D" mask="url(#path-1-inside-1_2455_21158)"/>
<circle cx="2.25" cy="8.08154" r="1.54167" stroke="#393B3D" stroke-width="1.41667"/>
<circle cx="7.33398" cy="4.74902" r="1.54167" stroke="#393B3D" stroke-width="1.41667"/>
<circle cx="12.418" cy="4.74902" r="1.54167" stroke="#393B3D" stroke-width="1.41667"/>
<circle cx="17.502" cy="8.08154" r="1.54167" stroke="#393B3D" stroke-width="1.41667"/>
</svg>
