<svg width="44" height="44" viewBox="0 0 44 44" fill="none" xmlns="http://www.w3.org/2000/svg">
<g clip-path="url(#clip0_3086_22974)">
<path d="M38.5 30.1033V36.586C38.5002 37.0502 38.3244 37.4971 38.0079 37.8367C37.6915 38.1763 37.258 38.3832 36.795 38.4157C35.9938 38.4707 35.3393 38.5 34.8333 38.5C18.6322 38.5 5.5 25.3678 5.5 9.16667C5.5 8.66067 5.5275 8.00617 5.58433 7.205C5.61682 6.74198 5.82373 6.30852 6.16331 5.99208C6.50288 5.67565 6.94984 5.49979 7.414 5.5H13.8967C14.1241 5.49977 14.3434 5.58407 14.5122 5.73654C14.6809 5.889 14.7869 6.09874 14.8097 6.325C14.8518 6.74667 14.8903 7.08217 14.927 7.337C15.2913 9.87969 16.038 12.3527 17.1417 14.6722C17.3158 15.0388 17.2022 15.477 16.8722 15.7117L12.9158 18.5387C15.3348 24.1752 19.8267 28.667 25.4632 31.086L28.2865 27.137C28.4019 26.9757 28.5703 26.86 28.7622 26.81C28.9542 26.7601 29.1576 26.7792 29.337 26.8638C31.6562 27.9654 34.1286 28.7102 36.6703 29.073C36.9252 29.1097 37.2607 29.15 37.6787 29.1903C37.9046 29.2135 38.1139 29.3197 38.266 29.4884C38.4181 29.6571 38.5003 29.8762 38.5 30.1033Z" fill="#3F56B6"/>
</g>
<defs>
<clipPath id="clip0_3086_22974">
<rect width="44" height="44" fill="white"/>
</clipPath>
</defs>
</svg>
