<svg width="20" height="20" viewBox="0 0 20 20" fill="none" xmlns="http://www.w3.org/2000/svg">
<path d="M17.3668 3.84123C16.9412 3.41541 16.4359 3.07761 15.8796 2.84714C15.3234 2.61667 14.7273 2.49805 14.1252 2.49805C13.5231 2.49805 12.9269 2.61667 12.3707 2.84714C11.8145 3.07761 11.3091 3.41541 10.8835 3.84123L10.0002 4.72457L9.11685 3.84123C8.2571 2.98149 7.09104 2.49849 5.87518 2.49849C4.65932 2.49849 3.49326 2.98149 2.63351 3.84123C1.77377 4.70098 1.29077 5.86704 1.29077 7.0829C1.29077 8.29876 1.77377 9.46482 2.63351 10.3246L3.51685 11.2079L10.0002 17.6912L16.4835 11.2079L17.3668 10.3246C17.7927 9.89894 18.1305 9.39358 18.3609 8.83736C18.5914 8.28115 18.71 7.68497 18.71 7.0829C18.71 6.48083 18.5914 5.88465 18.3609 5.32844C18.1305 4.77222 17.7927 4.26686 17.3668 3.84123V3.84123Z" stroke="#393B3D" stroke-width="1.66667" stroke-linecap="round" stroke-linejoin="round"/>
</svg>
