<svg width="33" height="32" viewBox="0 0 33 32" fill="none" xmlns="http://www.w3.org/2000/svg">
<g clip-path="url(#clip0_2209_22863)">
<path d="M16.1132 19.7511L15.9456 19.332H15.4942H6.83823H6.38687L6.21924 19.7511L3.72021 25.9987H2.28425L10.2842 5.9987H12.0482L20.0482 25.9987H18.6122L16.1132 19.7511ZM29.1662 16.712V16.6654H30.4996V25.9987H29.1662V25.952V24.7979L28.1665 25.3745C27.457 25.7837 26.6524 25.999 25.8334 25.9987C25.0144 25.9984 24.2099 25.7826 23.5007 25.373C22.7916 24.9633 22.2027 24.3742 21.7933 23.6649C21.3838 22.9556 21.1683 22.151 21.1683 21.332C21.1683 20.513 21.3838 19.7085 21.7933 18.9992C22.2027 18.2898 22.7916 17.7008 23.5007 17.2911C24.2099 16.8814 25.0144 16.6656 25.8334 16.6654C26.6524 16.6651 27.457 16.8804 28.1665 17.2895L29.1662 17.8661V16.712ZM14.4276 17.9987H15.4122L15.0465 17.0844L11.7852 8.9311L11.1662 7.38364L10.5472 8.9311L7.28591 17.0844L6.92021 17.9987H7.90489H14.4276ZM25.8329 24.6654C26.7169 24.6654 27.5648 24.3142 28.1899 23.6891C28.815 23.0639 29.1662 22.2161 29.1662 21.332C29.1662 20.448 28.815 19.6001 28.1899 18.975C27.5648 18.3499 26.7169 17.9987 25.8329 17.9987C24.9488 17.9987 24.101 18.3499 23.4759 18.975C22.8508 19.6001 22.4996 20.448 22.4996 21.332C22.4996 22.2161 22.8508 23.0639 23.4759 23.6891C24.101 24.3142 24.9488 24.6654 25.8329 24.6654Z" fill="#393B3D" stroke="#0763C6" stroke-width="1.33333"/>
</g>
<defs>
<clipPath id="clip0_2209_22863">
<rect width="32" height="32" fill="white" transform="translate(0.5)"/>
</clipPath>
</defs>
</svg>
