<svg width="20" height="20" viewBox="0 0 20 20" fill="none" xmlns="http://www.w3.org/2000/svg">
<g clip-path="url(#clip0_1656_8171)">
<path d="M10 12.5C11.3807 12.5 12.5 11.3807 12.5 10C12.5 8.61929 11.3807 7.5 10 7.5C8.61929 7.5 7.5 8.61929 7.5 10C7.5 11.3807 8.61929 12.5 10 12.5Z" stroke="#393B3D" stroke-width="2" stroke-linecap="round" stroke-linejoin="round"/>
<path d="M16.1666 12.5006C16.0557 12.752 16.0226 13.0308 16.0716 13.3011C16.1207 13.5715 16.2495 13.8209 16.4416 14.0173L16.4916 14.0673C16.6466 14.2221 16.7695 14.4059 16.8534 14.6082C16.9373 14.8106 16.9805 15.0275 16.9805 15.2465C16.9805 15.4655 16.9373 15.6824 16.8534 15.8847C16.7695 16.087 16.6466 16.2709 16.4916 16.4256C16.3369 16.5806 16.153 16.7035 15.9507 16.7874C15.7484 16.8713 15.5315 16.9145 15.3125 16.9145C15.0935 16.9145 14.8766 16.8713 14.6742 16.7874C14.4719 16.7035 14.2881 16.5806 14.1333 16.4256L14.0833 16.3756C13.8869 16.1835 13.6375 16.0547 13.3671 16.0056C13.0968 15.9566 12.818 15.9897 12.5666 16.1006C12.3202 16.2063 12.11 16.3817 11.9619 16.6053C11.8138 16.8288 11.7344 17.0908 11.7333 17.359V17.5006C11.7333 17.9427 11.5577 18.3666 11.2452 18.6792C10.9326 18.9917 10.5087 19.1673 10.0666 19.1673C9.62462 19.1673 9.2007 18.9917 8.88813 18.6792C8.57557 18.3666 8.39998 17.9427 8.39998 17.5006V17.4256C8.39353 17.1498 8.30424 16.8823 8.14374 16.6579C7.98323 16.4335 7.75893 16.2626 7.49998 16.1673C7.24863 16.0564 6.96982 16.0233 6.69949 16.0723C6.42916 16.1213 6.17971 16.2502 5.98331 16.4423L5.93331 16.4923C5.77852 16.6473 5.59471 16.7702 5.39238 16.8541C5.19005 16.938 4.97317 16.9811 4.75415 16.9811C4.53512 16.9811 4.31824 16.938 4.11591 16.8541C3.91358 16.7702 3.72977 16.6473 3.57498 16.4923C3.42002 16.3375 3.29709 16.1537 3.21321 15.9514C3.12934 15.7491 3.08617 15.5322 3.08617 15.3131C3.08617 15.0941 3.12934 14.8772 3.21321 14.6749C3.29709 14.4726 3.42002 14.2888 3.57498 14.134L3.62498 14.084C3.81709 13.8876 3.94597 13.6381 3.99498 13.3678C4.044 13.0975 4.01091 12.8187 3.89998 12.5673C3.79434 12.3208 3.61894 12.1106 3.39537 11.9626C3.17179 11.8145 2.9098 11.7351 2.64165 11.734H2.49998C2.05795 11.734 1.63403 11.5584 1.32147 11.2458C1.00891 10.9333 0.833313 10.5093 0.833313 10.0673C0.833313 9.62529 1.00891 9.20137 1.32147 8.88881C1.63403 8.57625 2.05795 8.40065 2.49998 8.40065H2.57498C2.85081 8.3942 3.11832 8.30492 3.34273 8.14441C3.56714 7.9839 3.73808 7.7596 3.83331 7.50065C3.94424 7.2493 3.97733 6.97049 3.92832 6.70016C3.8793 6.42983 3.75043 6.18038 3.55831 5.98398L3.50831 5.93398C3.35335 5.7792 3.23042 5.59538 3.14655 5.39305C3.06267 5.19072 3.0195 4.97384 3.0195 4.75482C3.0195 4.53579 3.06267 4.31891 3.14655 4.11658C3.23042 3.91425 3.35335 3.73044 3.50831 3.57565C3.6631 3.42069 3.84692 3.29776 4.04925 3.21388C4.25158 3.13001 4.46845 3.08684 4.68748 3.08684C4.90651 3.08684 5.12338 3.13001 5.32571 3.21388C5.52804 3.29776 5.71186 3.42069 5.86665 3.57565L5.91665 3.62565C6.11305 3.81776 6.36249 3.94664 6.63282 3.99565C6.90315 4.04467 7.18197 4.01158 7.43331 3.90065H7.49998C7.74645 3.79501 7.95666 3.61961 8.10472 3.39604C8.25279 3.17246 8.33224 2.91047 8.33331 2.64232V2.50065C8.33331 2.05862 8.50891 1.6347 8.82147 1.32214C9.13403 1.00958 9.55795 0.833984 9.99998 0.833984C10.442 0.833984 10.8659 1.00958 11.1785 1.32214C11.4911 1.6347 11.6666 2.05862 11.6666 2.50065V2.57565C11.6677 2.84381 11.7472 3.1058 11.8952 3.32937C12.0433 3.55295 12.2535 3.72835 12.5 3.83398C12.7513 3.94491 13.0301 3.978 13.3005 3.92899C13.5708 3.87997 13.8202 3.7511 14.0166 3.55898L14.0666 3.50898C14.2214 3.35402 14.4052 3.23109 14.6076 3.14722C14.8099 3.06334 15.0268 3.02017 15.2458 3.02017C15.4648 3.02017 15.6817 3.06334 15.884 3.14722C16.0864 3.23109 16.2702 3.35402 16.425 3.50898C16.5799 3.66377 16.7029 3.84759 16.7867 4.04992C16.8706 4.25225 16.9138 4.46912 16.9138 4.68815C16.9138 4.90718 16.8706 5.12405 16.7867 5.32638C16.7029 5.52871 16.5799 5.71253 16.425 5.86732L16.375 5.91732C16.1829 6.11372 16.054 6.36316 16.005 6.63349C15.956 6.90382 15.989 7.18264 16.1 7.43398V7.50065C16.2056 7.74712 16.381 7.95733 16.6046 8.10539C16.8282 8.25346 17.0902 8.33291 17.3583 8.33398H17.5C17.942 8.33398 18.3659 8.50958 18.6785 8.82214C18.991 9.1347 19.1666 9.55862 19.1666 10.0007C19.1666 10.4427 18.991 10.8666 18.6785 11.1792C18.3659 11.4917 17.942 11.6673 17.5 11.6673H17.425C17.1568 11.6684 16.8948 11.7478 16.6713 11.8959C16.4477 12.044 16.2723 12.2542 16.1666 12.5006V12.5006Z" stroke="#393B3D" stroke-width="2" stroke-linecap="round" stroke-linejoin="round"/>
</g>
<defs>
<clipPath id="clip0_1656_8171">
<rect width="20" height="20" fill="white"/>
</clipPath>
</defs>
</svg>
