<svg width="24" height="24" viewBox="0 0 24 24" fill="none" xmlns="http://www.w3.org/2000/svg">
<path fill-rule="evenodd" clip-rule="evenodd" d="M8.87014 13.36C9.19529 13.36 9.45909 13.0962 9.45909 12.771C9.45909 12.2292 9.89888 11.7894 10.4407 11.7894H15.1523C15.4775 11.7894 15.7413 11.5256 15.7413 11.2005V4.91829C15.7413 3.72548 14.7746 2.75879 13.5818 2.75879H2.58796C1.39516 2.75879 0.428467 3.72548 0.428467 4.91829V11.2005C0.428467 12.3933 1.39516 13.36 2.58796 13.36H8.87014ZM14.5636 10.6115V4.91806C14.5636 4.37627 14.1238 3.93647 13.582 3.93647H2.58819C2.0464 3.93647 1.6066 4.37626 1.6066 4.91806V11.2002C1.6066 11.742 2.04639 12.1818 2.58819 12.1818H8.3633C8.61922 11.2756 9.4525 10.6113 10.4411 10.6113L14.5636 10.6115Z" fill="#0763C6"/>
<path fill-rule="evenodd" clip-rule="evenodd" d="M23.5938 12.7708C23.5938 11.578 22.6271 10.6113 21.4343 10.6113H10.4405C9.2477 10.6113 8.28101 11.578 8.28101 12.7708V19.053C8.28101 20.2458 9.2477 21.2125 10.4405 21.2125H21.4343C22.6271 21.2125 23.5938 20.2458 23.5938 19.053V12.7708ZM22.4159 12.7708C22.4159 12.229 21.9761 11.7892 21.4343 11.7892H10.4405C9.89871 11.7892 9.45891 12.229 9.45891 12.7708V19.053C9.45891 19.5948 9.8987 20.0346 10.4405 20.0346H21.4343C21.9761 20.0346 22.4159 19.5948 22.4159 19.053V12.7708Z" fill="#0763C6"/>
<path fill-rule="evenodd" clip-rule="evenodd" d="M1.01742 7.07732H15.1523C15.4775 7.07732 15.7413 6.81352 15.7413 6.48837C15.7413 6.16322 15.4775 5.89941 15.1523 5.89941H1.01742C0.692269 5.89941 0.428467 6.16322 0.428467 6.48837C0.428467 6.81352 0.692269 7.07732 1.01742 7.07732Z" fill="#0763C6"/>
<path fill-rule="evenodd" clip-rule="evenodd" d="M8.8702 14.9308H23.0051C23.3302 14.9308 23.5941 14.667 23.5941 14.3419C23.5941 14.0167 23.3302 13.7529 23.0051 13.7529H8.8702C8.54505 13.7529 8.28125 14.0167 8.28125 14.3419C8.28125 14.667 8.54505 14.9308 8.8702 14.9308Z" fill="#0763C6"/>
<path fill-rule="evenodd" clip-rule="evenodd" d="M3.37313 10.2189H5.72895C6.0541 10.2189 6.3179 9.95512 6.3179 9.62997C6.3179 9.30482 6.0541 9.04102 5.72895 9.04102H3.37313C3.04798 9.04102 2.78418 9.30482 2.78418 9.62997C2.78418 9.95512 3.04798 10.2189 3.37313 10.2189Z" fill="#0763C6"/>
<path fill-rule="evenodd" clip-rule="evenodd" d="M11.2259 18.0715H13.5817C13.9069 18.0715 14.1707 17.8077 14.1707 17.4825C14.1707 17.1574 13.9069 16.8936 13.5817 16.8936H11.2259C10.9008 16.8936 10.637 17.1574 10.637 17.4825C10.637 17.8077 10.9008 18.0715 11.2259 18.0715Z" fill="#0763C6"/>
<path fill-rule="evenodd" clip-rule="evenodd" d="M21.4345 5.92773H17.5081C17.183 5.92773 16.9192 6.19154 16.9192 6.51669C16.9192 6.84184 17.183 7.10564 17.5081 7.10564H21.4345C21.7597 7.10564 22.0235 6.84184 22.0235 6.51669C22.0235 6.19154 21.7597 5.92773 21.4345 5.92773Z" fill="#0763C6"/>
<path fill-rule="evenodd" clip-rule="evenodd" d="M2.58798 18.0715H6.51434C6.83949 18.0715 7.10329 17.8077 7.10329 17.4825C7.10329 17.1574 6.83949 16.8936 6.51434 16.8936H2.58798C2.26283 16.8936 1.99902 17.1574 1.99902 17.4825C1.99902 17.8077 2.26283 18.0715 2.58798 18.0715Z" fill="#0763C6"/>
<path fill-rule="evenodd" clip-rule="evenodd" d="M20.6013 6.51692L19.4478 5.36248C19.2176 5.13234 19.2176 4.75935 19.4478 4.52938C19.677 4.3001 20.0509 4.3001 20.2802 4.52938L21.8507 6.09992C22.0809 6.33007 22.0809 6.70305 21.8507 6.93303L20.2802 8.50357C20.0509 8.73372 19.6771 8.73372 19.4478 8.50357C19.2176 8.27342 19.2176 7.90044 19.4478 7.67046L20.6013 6.51692Z" fill="#0763C6"/>
<path fill-rule="evenodd" clip-rule="evenodd" d="M3.42131 17.4825L4.57486 18.6369C4.805 18.8662 4.805 19.2401 4.57486 19.4694C4.34558 19.6995 3.97172 19.6995 3.74242 19.4694L2.17188 17.8988C1.94173 17.6687 1.94173 17.2965 2.17188 17.0664L3.74242 15.4959C3.97169 15.2657 4.34556 15.2657 4.57486 15.4959C4.805 15.7251 4.805 16.099 4.57486 16.3283L3.42131 17.4827V17.4825Z" fill="#0763C6"/>
</svg>
