<svg width="355" height="355" viewBox="0 0 355 355" fill="none" xmlns="http://www.w3.org/2000/svg">
<path d="M186.58 193.233C184.98 194.267 183.418 195.213 181.791 195.34C178.461 195.599 175.096 195.417 171.547 195.417C171.547 184.918 171.547 174.928 171.547 164.71C176.372 164.71 181.061 164.71 186.588 164.71C186.588 173.939 186.588 183.356 186.58 193.233Z" fill="#CE076A"/>
<path d="M239.187 126.161C240.354 130.996 241.046 135.815 241.81 141.131C230.745 141.131 220.694 141.131 210.48 141.131C210.48 136.335 210.48 131.523 210.48 126.144C219.888 126.144 229.3 126.144 239.187 126.161Z" fill="#2E7B55"/>
<path d="M171.326 79.3518C171.326 76.7535 171.326 74.6716 171.326 72.2207C176.678 72.2207 181.535 72.2207 186.741 72.2207C186.741 82.3936 186.741 92.3828 186.741 102.708C181.898 102.708 177.014 102.708 171.326 102.708C171.326 95.2329 171.326 87.5507 171.326 79.3518Z" fill="#FBB240"/>
<path d="M144.785 177.332C148.892 170.302 152.793 163.619 156.765 156.815C161.14 159.314 165.359 161.724 170.008 164.379C164.991 173.001 159.886 181.773 154.638 190.793C150.198 188.266 146.085 185.924 141.604 183.372C142.7 181.275 143.64 179.477 144.785 177.332Z" fill="#0875BE"/>
<path d="M202.364 156.84C204.788 152.288 207.211 147.736 209.876 142.731C218.735 147.788 227.428 152.751 236.671 158.028C234.157 162.355 231.744 166.507 229.077 171.097C220.209 166.128 211.636 161.325 202.697 156.667C202.33 156.813 202.364 156.84 202.364 156.84Z" fill="#CE076A"/>
<path d="M156.375 111.155C154.128 106.697 151.981 102.187 149.608 97.7965C147.187 93.3164 144.543 88.9546 141.766 84.1394C146.188 81.5859 150.277 79.2252 154.762 76.6353C159.986 85.5712 165.05 94.2355 170.116 102.902C165.548 105.468 161.133 107.948 156.509 110.788C156.3 111.149 156.375 111.155 156.375 111.155Z" fill="#3AB54A"/>
<path d="M236.262 109.004C227.691 114.562 219.069 119.748 210.273 125.037C207.613 120.472 205.18 116.297 202.498 111.695C211.181 106.717 219.862 101.739 229.133 96.4229C231.665 100.791 233.937 104.711 236.262 109.004Z" fill="#FBB240"/>
<path d="M156.308 111.113C153.685 115.422 151.057 119.768 148.16 124.559C139.651 119.701 130.981 114.751 121.656 109.427C124.135 105.115 126.532 100.944 129.195 96.3091C138.146 101.347 146.872 106.258 155.988 111.162C156.376 111.155 156.302 111.149 156.308 111.113Z" fill="#F15E29"/>
<path d="M202.314 156.796C202.76 158.301 202.959 159.968 203.723 161.321C207.797 168.533 212.012 175.667 216.423 183.25C212.235 185.664 208.283 187.942 203.588 190.648C198.463 181.901 193.438 173.325 188.205 164.395C192.969 161.986 197.409 159.741 202.105 157.168C202.362 156.841 202.328 156.814 202.314 156.796Z" fill="#0875BE"/>
<path d="M199.628 109.784C195.82 107.471 192.353 105.376 188.383 102.977C193.305 94.4618 198.285 85.8454 203.571 76.6992C207.952 79.1555 212.038 81.4463 216.853 84.1457C212.341 91.9561 208.044 99.5506 203.548 107.028C202.796 108.28 201.184 109.023 199.628 109.784Z" fill="#8CC63E"/>
<path d="M134.354 167.906C132.481 168.938 130.931 169.752 129.138 170.694C126.704 166.538 124.39 162.587 121.656 157.92C130.455 152.866 139.15 147.871 148.069 142.748C150.537 146.993 152.9 151.057 155.581 155.668C148.731 159.606 141.704 163.648 134.354 167.906Z" fill="#CE076A"/>
<path d="M132.732 125.993C138.034 125.993 142.804 125.993 147.822 125.993C147.822 130.952 147.822 135.62 147.822 140.687C137.825 140.687 127.81 140.687 117.457 140.687C117.457 136.028 117.457 131.355 117.457 125.993C122.411 125.993 127.306 125.993 132.732 125.993Z" fill="#0875BE"/>
<path d="M185.646 48.8546C186.556 53.9365 187.011 58.8914 187.513 64.3663C181.733 64.3663 176.743 64.3663 171.535 64.3663C171.535 59.3261 171.535 54.4487 171.535 48.7275C176.149 48.7275 180.67 48.7275 185.646 48.8546Z" fill="#FBB240"/>
<path d="M173.977 202.861C178.155 202.858 181.858 202.858 185.959 202.858C185.959 208.186 185.959 213.183 185.959 218.494C181.215 218.494 176.357 218.494 170.967 218.494C170.967 214.052 170.83 209.692 171.082 205.354C171.132 204.481 172.656 203.692 173.977 202.861Z" fill="#CE076A"/>
<path d="M252.949 126.437C256.965 126.437 260.489 126.437 264.226 126.437C264.226 131.697 264.226 136.411 264.226 141.475C259.235 141.475 254.328 141.475 248.515 141.475C248.515 137.294 248.307 132.946 248.693 128.651C248.769 127.808 251.144 127.169 252.949 126.437Z" fill="#2E7B55"/>
<path d="M111.308 85.9295C115.129 88.1714 118.633 90.22 122.43 92.4406C119.852 96.8771 117.478 100.963 114.866 105.457C110.294 102.87 106.016 100.45 101.146 97.6951C103.485 93.6758 105.585 89.8536 107.959 86.2074C108.329 85.6392 109.949 85.8732 111.308 85.9295Z" fill="#F15E29"/>
<path d="M117.394 166.635C118.995 169.395 120.391 171.827 122.024 174.668C117.599 177.232 113.244 179.756 108.587 182.454C106.034 178.086 103.664 174.032 101.031 169.528C105.515 166.938 109.718 164.51 114.334 161.843C115.364 163.452 116.277 164.88 117.394 166.635Z" fill="#CE076A"/>
<path d="M243.374 179.864C240.613 178.232 238.183 176.823 235.389 175.203C237.93 170.808 240.358 166.609 242.981 162.073C247.589 164.729 251.808 167.161 256.649 169.952C254.113 174.329 251.708 178.479 249.149 182.896C247.08 181.829 245.393 180.958 243.374 179.864Z" fill="#CE076A"/>
<path d="M139.52 58.3963C141.652 56.9044 143.173 56.3474 144.506 58.9419C146.351 62.535 148.487 65.9809 150.741 69.9122C146.333 72.4375 142.232 74.7864 137.715 77.3743C135.107 72.9084 132.642 68.6874 129.885 63.9656C133.144 62.0908 136.167 60.3513 139.52 58.3963Z" fill="#3AB54A"/>
<path d="M138.882 208.96C135.659 207.104 132.778 205.41 129.371 203.406C131.924 198.974 134.405 194.665 137.174 189.857C141.718 192.443 145.91 194.829 150.404 197.387C148.153 201.308 146.013 204.71 144.21 208.28C142.797 211.077 141.183 210.598 138.882 208.96Z" fill="#0875BE"/>
<path d="M209.292 66.9186C211.351 63.4156 213.201 60.2376 215.287 56.6533C219.713 59.1555 223.805 61.4685 228.447 64.0925C225.916 68.5748 223.536 72.7912 220.742 77.7393C216.713 75.4625 212.853 73.4691 209.262 71.0759C208.626 70.6516 209.115 68.5634 209.292 66.9186Z" fill="#8CC63E"/>
<path d="M253.889 92.7839C254.917 94.6578 255.775 96.1879 256.889 98.1727C252.419 100.747 248.043 103.267 243.342 105.974C240.766 101.645 238.357 97.5987 235.598 92.9623C240.107 90.3405 244.429 87.8277 249.247 85.0269C250.866 87.7105 252.293 90.0753 253.889 92.7839Z" fill="#FBB240"/>
<path d="M226.95 204.005C222.902 206.45 219.077 208.618 214.91 210.98C212.332 206.534 209.896 202.335 207.262 197.792C211.566 195.295 215.504 193.01 220.243 190.261C222.64 194.92 224.906 199.325 226.95 204.005Z" fill="#0875BE"/>
<path d="M108.746 140.53C103.61 140.917 98.8114 140.917 93.2754 140.917C93.2754 138.362 93.2754 135.952 93.2754 133.543C93.2754 131.266 93.2754 128.989 93.2754 126.357C98.6462 126.357 103.683 126.357 109.084 126.357C109.084 131.029 109.084 135.585 108.746 140.53Z" fill="#0875BE"/>
<path d="M150.208 330.971C150.208 332.057 150.208 332.884 150.208 333.785C147.462 333.785 144.955 333.785 142.205 333.785C142.205 318.535 142.205 303.312 142.205 287.899C144.528 287.899 146.9 287.899 149.371 287.899C149.651 289.045 149.934 290.206 150.335 291.849C154.038 287.522 158.615 286.151 163.911 287.135C167.748 287.848 170.822 289.822 173.193 292.892C178.393 299.628 177.696 310.306 171.692 316.198C165.994 321.79 157.651 321.906 150.208 316.068C150.208 321.217 150.208 325.965 150.208 330.971ZM159.773 313.11C164.895 312.134 167.691 309.323 168.055 304.784C168.438 300.015 166.152 296.049 162.164 294.757C158.582 293.597 155.304 294.19 152.692 297.007C149.874 300.047 149.469 303.721 150.858 307.441C152.267 311.216 155.245 313.091 159.773 313.11Z" fill="black"/>
<path d="M292.189 288.954C297.622 286.317 302.963 286.032 308.277 288.527C314.642 291.516 317.998 298.606 316.429 305.759C308.602 305.759 300.716 305.759 292.645 305.759C292.759 309.217 294.316 311.477 297.153 312.734C300.06 314.022 303.422 314.282 305.444 311.745C307.37 309.329 309.49 309.593 311.841 309.559C313.051 309.541 314.262 309.556 315.484 309.556C314.746 315.067 309.158 319.743 302.605 320.412C294.63 321.227 287.677 317.17 285.164 310.237C282.277 302.27 285.038 293.735 292.189 288.954ZM295.286 295.669C294.348 297.056 293.41 298.444 292.178 300.265C297.993 300.265 303.017 300.265 308.025 300.265C308.065 299.934 308.132 299.745 308.102 299.572C307.143 294.068 301.292 292.114 295.286 295.669Z" fill="black"/>
<path d="M71.5939 286.884C78.3299 287.769 82.4069 291.316 82.7818 297.563C83.2154 304.789 82.8827 312.061 82.8827 319.497C80.3512 319.497 77.7097 319.497 74.7634 319.497C74.7634 314.587 74.7679 309.764 74.7605 304.94C74.7585 303.635 74.7976 302.324 74.6858 301.027C74.29 296.434 72.3446 294.245 68.6101 294.09C64.1567 293.905 60.9079 296.338 60.4917 300.763C60.1089 304.834 60.2937 308.958 60.2473 313.059C60.2242 315.107 60.2433 317.157 60.2433 319.442C57.5011 319.442 54.8589 319.442 52.0078 319.442C52.0078 309.03 52.0078 298.55 52.0078 287.89C54.383 287.89 56.7463 287.89 59.175 287.89C59.3783 289.262 59.5667 290.534 59.8581 292.501C62.9291 288.348 66.7121 286.625 71.5939 286.884Z" fill="black"/>
<path d="M201.464 306.632C200.401 298.771 203.498 292.142 209.605 288.848C215.641 285.593 223.253 286.357 228.447 290.74C233.887 295.331 235.638 303.915 232.575 310.979C229.746 317.502 222.732 321.363 215.467 320.396C208.017 319.403 202.723 314.269 201.464 306.632ZM222.081 311.65C225.761 308.356 226.728 302.067 224.131 297.922C222.525 295.361 220.171 293.969 217.12 294.212C213.977 294.462 211.589 296.143 210.648 299.136C210.028 301.111 209.832 303.343 209.996 305.416C210.514 311.943 215.858 314.819 222.081 311.65Z" fill="black"/>
<path d="M126.852 287.624C138.192 291.587 139.912 303.687 136.311 311.464C132.399 319.915 121.37 323.101 113.136 318.3C106.16 314.233 103.279 305.406 106.269 297.261C108.977 289.883 116.771 285.606 124.727 287.138C125.367 287.261 126.003 287.407 126.852 287.624ZM129.371 301.965C128.972 298.589 127.503 295.954 124.181 294.683C120.291 293.194 115.942 295.252 114.446 299.244C112.323 304.907 114.455 311.22 119.192 312.656C120.677 313.106 122.531 313.072 124.025 312.622C127.95 311.439 129.545 308.162 129.371 301.965Z" fill="black"/>
<path d="M247.831 318.472C247.08 319.039 246.349 319.582 245.584 319.635C243.65 319.767 241.702 319.679 239.492 319.679C239.492 311.316 239.492 303.161 239.492 294.862C237.954 294.785 236.675 294.721 235.256 294.651C235.256 292.423 235.256 290.233 235.256 287.824C236.539 287.75 237.795 287.678 239.221 287.596C239.742 283.234 238.676 278.365 242.953 275.282C246.211 272.933 249.968 273.221 253.848 273.45C253.848 275.727 253.848 277.912 253.848 280.086C247.543 281.444 247.281 281.781 248.152 287.71C249.191 287.71 250.281 287.71 251.37 287.71C252.381 287.71 253.391 287.71 254.567 287.71C254.567 290.112 254.567 292.286 254.567 294.672C252.414 294.672 250.302 294.672 247.837 294.672C247.837 302.658 247.837 310.441 247.831 318.472Z" fill="black"/>
<path d="M89.0558 284.684C89.4997 275.396 93.3994 272.451 103.546 273.537C103.546 275.744 103.546 277.958 103.546 280.157C97.1953 281.238 97.0733 281.39 97.6804 287.636C99.7569 287.636 101.862 287.636 104.127 287.636C104.127 290.032 104.127 292.234 104.127 294.614C102.063 294.614 99.96 294.614 97.5352 294.614C97.5352 303.004 97.5352 311.23 97.5352 319.537C94.551 319.537 91.8899 319.537 89.0152 319.537C89.0152 311.234 89.0152 303.069 89.0152 294.746C87.5289 294.746 86.2541 294.746 84.8242 294.746C84.8242 292.401 84.8242 290.216 84.8242 287.849C86.1442 287.773 87.4249 287.699 89.0557 287.605C89.0557 286.724 89.0557 285.837 89.0558 284.684Z" fill="black"/>
<path d="M271.701 317.513C271.701 302.717 271.701 288.182 271.701 273.494C274.488 273.494 277.15 273.494 279.969 273.494C279.969 288.778 279.969 304.1 279.969 319.678C277.691 319.678 275.467 319.808 273.278 319.591C272.698 319.533 272.224 318.408 271.701 317.513Z" fill="black"/>
<path d="M189.038 317.973C188.546 318.708 188.081 319.574 187.558 319.611C185.352 319.768 183.128 319.678 180.76 319.678C180.76 309.009 180.76 298.597 180.76 287.947C183.07 287.947 185.437 287.947 187.997 287.947C188.256 289.41 188.537 290.998 188.899 293.038C191.95 288.955 195.626 286.841 200.472 286.896C200.472 289.915 200.472 292.766 200.472 295.794C199.229 295.794 198.114 295.739 197.007 295.804C192.011 296.095 189.278 298.701 189.085 303.733C188.906 308.39 189.042 313.059 189.038 317.973Z" fill="black"/>
<path d="M263.162 319.679C261.424 319.679 259.948 319.679 258.322 319.679C258.322 308.989 258.322 298.5 258.322 287.86C260.973 287.86 263.634 287.86 266.442 287.86C266.442 298.41 266.442 308.898 266.442 319.679C265.427 319.679 264.425 319.679 263.162 319.679Z" fill="black"/>
<path d="M38.1875 301.454C38.1875 296.804 38.1875 292.434 38.1875 287.888C40.9948 287.888 43.6455 287.888 46.4016 287.888C46.4016 298.454 46.4016 308.94 46.4016 319.552C43.7181 319.552 41.1443 319.552 38.1875 319.552C38.1875 313.566 38.1875 307.65 38.1875 301.454Z" fill="black"/>
<path d="M259.008 281.85C258.43 279.013 258.105 276.181 257.756 273.138C260.87 273.138 263.509 273.138 266.323 273.138C266.323 275.932 266.323 278.689 266.323 281.855C264.022 281.855 261.642 281.855 259.008 281.85Z" fill="black"/>
<path d="M42.0356 272.968C43.5872 272.968 44.8711 272.968 46.3323 272.968C46.3323 275.928 46.3323 278.744 46.3323 281.71C43.7201 281.71 41.077 281.71 38.2637 281.71C38.2637 278.931 38.2637 276.112 38.2637 272.968C39.4275 272.968 40.5976 272.968 42.0356 272.968Z" fill="black"/>
</svg>
