<svg width="20" height="20" viewBox="0 0 20 20" fill="none" xmlns="http://www.w3.org/2000/svg">
<path d="M14.166 9.16667L15.8327 10.8333L19.166 7.5" stroke="#393B3D" stroke-width="1.66667" stroke-linecap="round" stroke-linejoin="round"/>
<path d="M14.166 17.5V15.8333C14.166 14.9493 13.8148 14.1014 13.1897 13.4763C12.5646 12.8512 11.7167 12.5 10.8327 12.5H4.99935C4.11529 12.5 3.26745 12.8512 2.64233 13.4763C2.01721 14.1014 1.66602 14.9493 1.66602 15.8333V17.5" stroke="#393B3D" stroke-width="1.66667" stroke-linecap="round" stroke-linejoin="round"/>
<path d="M7.91732 9.16667C9.75827 9.16667 11.2507 7.67428 11.2507 5.83333C11.2507 3.99238 9.75827 2.5 7.91732 2.5C6.07637 2.5 4.58398 3.99238 4.58398 5.83333C4.58398 7.67428 6.07637 9.16667 7.91732 9.16667Z" stroke="#393B3D" stroke-width="1.66667" stroke-linecap="round" stroke-linejoin="round"/>
</svg>
