<svg width="387" height="387" viewBox="0 0 387 387" fill="none" xmlns="http://www.w3.org/2000/svg">
<path d="M317.257 202.448C248.463 162.726 137.286 162.726 68.9341 202.448C0.582161 242.169 0.945942 306.574 69.7391 346.288C138.532 386.002 249.717 386.009 318.069 346.288C386.421 306.566 386.057 242.169 317.257 202.448Z" fill="#F5F5F5"/>
<path d="M266.582 246.457C244.678 233.81 209.306 233.81 187.51 246.457C168.284 257.634 166.148 274.94 181.016 287.541C169.019 286.767 156.581 289.089 147.417 294.414C131.333 303.756 131.418 318.911 147.611 328.261C163.803 337.611 189.956 337.603 206.04 328.261C218.842 320.823 221.388 309.685 213.78 300.776C232.216 303.439 252.48 300.606 266.876 292.262C288.602 279.615 288.494 259.104 266.582 246.457Z" fill="#E6E6E6"/>
<path d="M307.535 319.019L269.431 297.022C269.175 296.873 268.964 296.659 268.816 296.403C268.669 296.146 268.592 295.855 268.592 295.559C268.592 295.264 268.669 294.973 268.816 294.716C268.964 294.46 269.175 294.246 269.431 294.097L303.014 274.584C303.272 274.434 303.564 274.354 303.862 274.354C304.16 274.354 304.452 274.434 304.709 274.584L343.657 297.069C343.913 297.217 344.125 297.43 344.272 297.686C344.419 297.942 344.497 298.232 344.497 298.528C344.497 298.823 344.419 299.113 344.272 299.369C344.125 299.625 343.913 299.838 343.657 299.987L310.917 319.012C310.404 319.311 309.821 319.47 309.227 319.471C308.633 319.472 308.049 319.317 307.535 319.019Z" fill="#E6E6E6"/>
<path d="M51.1776 272.835C49.3587 273.887 49.351 275.59 51.1776 276.643L58.5925 280.962C59.61 281.481 60.7359 281.752 61.8782 281.752C63.0204 281.752 64.1464 281.481 65.1638 280.962L146.697 233.887C148.516 232.842 148.531 231.132 146.697 230.079L139.267 225.791C138.248 225.276 137.122 225.008 135.981 225.008C134.839 225.008 133.714 225.276 132.695 225.791L51.1776 272.835Z" fill="#E6E6E6"/>
<path d="M74.0497 279.6C72.223 280.653 72.223 282.356 74.0497 283.401L81.4878 287.696C82.5052 288.215 83.6312 288.486 84.7734 288.486C85.9157 288.486 87.0416 288.215 88.0591 287.696L157.719 247.448C159.538 246.396 159.553 244.693 157.719 243.64L150.281 239.352C149.265 238.833 148.14 238.562 146.999 238.562C145.858 238.562 144.733 238.833 143.717 239.352L74.0497 279.6Z" fill="#E6E6E6"/>
<path d="M206.359 69.0028L209.246 67.3232L239.765 84.8776V88.2135L206.359 69.0028Z" fill="#F5F5F5"/>
<path d="M206.359 69.002L239.765 88.2126V92.0285L206.352 72.8333L206.359 69.002Z" fill="#E0E0E0"/>
<path d="M257.211 98.2597L260.098 96.5801L290.617 114.134V117.47L257.211 98.2597Z" fill="#F5F5F5"/>
<path d="M257.211 98.2588L290.617 117.469V121.285L257.203 102.09L257.211 98.2588Z" fill="#E0E0E0"/>
<path d="M308.064 127.509L310.951 125.829L341.47 143.383V146.727L308.064 127.509Z" fill="#F5F5F5"/>
<path d="M308.062 127.509L341.468 146.727V150.543L308.055 131.34L308.062 127.509Z" fill="#E0E0E0"/>
<path d="M206.522 36.9266L209.409 35.2471L209.239 121.664L206.352 123.336L206.522 36.9266Z" fill="#F0F0F0"/>
<path d="M206.352 123.337L209.239 121.665L242.482 140.744L239.595 142.424L206.352 123.337Z" fill="#F5F5F5"/>
<path d="M203.209 31.1924L243.101 54.1105L242.908 148.159L203.023 125.241L203.209 31.1924ZM239.587 142.424L239.757 56.0068L206.522 36.9277L206.352 123.345L239.595 142.416" fill="#E0E0E0"/>
<path d="M203.209 31.1923L206.096 29.5127L245.988 52.4308L243.101 54.1104L203.209 31.1923Z" fill="#F5F5F5"/>
<path d="M243.102 54.1112L245.989 52.4316L245.795 146.48L242.908 148.16L243.102 54.1112Z" fill="#F0F0F0"/>
<path d="M257.373 66.1845L260.26 64.5049L260.09 150.914L257.203 152.594L257.373 66.1845Z" fill="#F0F0F0"/>
<path d="M257.203 152.595L260.09 150.915L293.333 170.002L290.446 171.681L257.203 152.595Z" fill="#F5F5F5"/>
<path d="M254.061 60.4502L293.945 83.3683L293.759 177.417L253.875 154.499L254.061 60.4502ZM290.439 171.682L290.609 85.2646L257.327 66.1855L257.157 152.595L290.4 171.682" fill="#E0E0E0"/>
<path d="M254.061 60.4501L256.948 58.7705L296.832 81.6886L293.945 83.3682L254.061 60.4501Z" fill="#F5F5F5"/>
<path d="M293.946 83.3671L296.833 81.6875L296.647 175.736L293.76 177.416L293.946 83.3671Z" fill="#F0F0F0"/>
<path d="M308.225 95.4336L311.112 93.7617L310.942 180.171L308.055 181.851L308.225 95.4336Z" fill="#F0F0F0"/>
<path d="M308.055 181.851L310.942 180.172L344.185 199.251L341.298 200.931L308.055 181.851Z" fill="#F5F5F5"/>
<path d="M304.914 89.6992L344.798 112.617L344.613 206.658L304.721 183.748L304.914 89.6992ZM341.339 200.931L341.47 114.552L308.227 95.4346L308.057 181.89L341.339 200.931Z" fill="#E0E0E0"/>
<path d="M304.914 89.6981L307.801 88.0186L347.685 110.944L344.798 112.616L304.914 89.6981Z" fill="#F5F5F5"/>
<path d="M344.797 112.617L347.684 110.945L347.498 204.986L344.611 206.666L344.797 112.617Z" fill="#F0F0F0"/>
<path d="M276.388 108.546C275.929 107.721 275.255 107.036 274.437 106.565L247.68 91.2008C245.358 89.8618 239.785 91.6807 239.785 95.4501V110.93C239.785 111.852 240.029 112.757 240.491 113.555C240.953 114.353 241.617 115.015 242.417 115.473L263.083 127.277L259.514 125.241L261.225 130.094C261.25 130.164 261.301 130.222 261.367 130.255C261.433 130.288 261.51 130.295 261.581 130.272C261.883 130.11 263.23 129.39 263.996 128.887H264.05C264.05 128.887 264.104 128.887 264.12 128.825L264.538 128.144L269.182 130.799C269.954 131.281 270.84 131.55 271.75 131.579C272.659 131.609 273.561 131.397 274.362 130.965C275.164 130.534 275.837 129.898 276.314 129.123C276.79 128.347 277.054 127.459 277.076 126.549V111.1C277.072 110.204 276.834 109.324 276.388 108.546Z" fill="#0763C6"/>
<path opacity="0.2" d="M264.093 128.763C264.093 128.763 264.047 128.763 264.024 128.825H263.97C263.196 129.328 261.857 130.048 261.555 130.21C261.589 130.203 261.622 130.189 261.652 130.17C261.681 130.15 261.706 130.124 261.725 130.094L263.381 127.401L263.056 127.215L264.511 128.051L264.093 128.763Z" fill="white"/>
<path opacity="0.4" d="M271.186 111.495C270.855 110.818 270.379 110.221 269.793 109.746C269.592 109.587 269.38 109.442 269.158 109.312L242.378 93.9486C242.113 93.7966 241.813 93.7169 241.508 93.7175C241.203 93.718 240.903 93.7988 240.639 93.9516C240.375 94.1045 240.155 94.3241 240.003 94.5885C239.85 94.8528 239.77 95.1526 239.77 95.4579C239.77 91.6885 245.319 89.8696 247.664 91.2086L274.445 106.573C275.262 107.044 275.937 107.729 276.395 108.554L271.186 111.495Z" fill="white"/>
<path opacity="0.2" d="M271.773 129.258V113.84C271.775 113.633 271.762 113.426 271.734 113.221C271.652 112.618 271.466 112.034 271.184 111.495L276.386 108.546C276.829 109.324 277.064 110.204 277.067 111.1V126.487C277.044 127.397 276.781 128.285 276.304 129.06C275.827 129.836 275.154 130.472 274.353 130.903C273.551 131.335 272.65 131.546 271.74 131.517C270.83 131.488 269.944 131.219 269.172 130.736C269.434 130.888 269.731 130.968 270.033 130.969C270.335 130.97 270.633 130.892 270.896 130.742C271.159 130.593 271.378 130.377 271.532 130.117C271.685 129.857 271.769 129.561 271.773 129.258Z" fill="white"/>
<path d="M262.657 109.521C263.142 109.823 263.542 110.244 263.818 110.744C264.453 111.851 264.453 113.066 263.818 113.398L254.871 118.499C254.684 118.585 254.478 118.619 254.274 118.599C254.07 118.578 253.875 118.504 253.71 118.383C253.227 118.084 252.83 117.665 252.556 117.168L249.553 111.936C248.911 110.829 248.918 109.614 249.553 109.273C249.739 109.189 249.943 109.155 250.145 109.176C250.348 109.196 250.542 109.27 250.706 109.389C251.191 109.691 251.591 110.112 251.867 110.612L253.717 113.847L261.504 109.405C261.689 109.322 261.893 109.289 262.096 109.31C262.298 109.33 262.491 109.403 262.657 109.521Z" fill="white"/>
<path d="M141.109 47.2836C140.537 45.2867 136.465 41.4941 132.448 41.5715C132.062 41.5819 131.68 41.6578 131.318 41.7959L52.943 86.3783C51.8023 87.0413 50.8532 87.9889 50.1884 89.1285C49.5236 90.2681 49.166 91.5607 49.1504 92.8799V262.44C49.1504 266.759 54.135 270.877 58.8099 268.895C58.9144 268.864 59.0155 268.823 59.1118 268.771L137.495 224.104C138.644 223.449 139.6 222.503 140.264 221.359C140.929 220.216 141.279 218.917 141.28 217.595V48.0886C141.286 47.8107 141.227 47.5352 141.109 47.2836Z" fill="#455A64"/>
<path d="M60.0859 110.814C60.092 110.157 60.2703 109.513 60.6031 108.947C60.9358 108.38 61.4114 107.911 61.9822 107.586L134.738 66.185C135.023 66.0224 135.346 65.9374 135.673 65.9385C136.001 65.9396 136.323 66.0268 136.607 66.1914C136.891 66.3559 137.126 66.5921 137.29 66.8762C137.454 67.1603 137.54 67.4824 137.54 67.8104V204.491C137.539 205.153 137.364 205.803 137.031 206.376C136.698 206.948 136.219 207.422 135.644 207.75L62.8878 249.228C62.603 249.391 62.2806 249.476 61.9526 249.475C61.6247 249.474 61.3028 249.386 61.0191 249.222C60.7355 249.057 60.5 248.821 60.3362 248.537C60.1724 248.253 60.0861 247.931 60.0859 247.603V110.814Z" fill="#0763C6"/>
<path opacity="0.2" d="M60.0859 110.814C60.092 110.157 60.2703 109.513 60.6031 108.947C60.9358 108.38 61.4114 107.911 61.9822 107.586L134.738 66.185C135.023 66.0224 135.346 65.9374 135.673 65.9385C136.001 65.9396 136.323 66.0268 136.607 66.1914C136.891 66.3559 137.126 66.5921 137.29 66.8762C137.454 67.1603 137.54 67.4824 137.54 67.8104V204.491C137.539 205.153 137.364 205.803 137.031 206.376C136.698 206.948 136.219 207.422 135.644 207.75L62.8878 249.228C62.603 249.391 62.2806 249.476 61.9526 249.475C61.6247 249.474 61.3028 249.386 61.0191 249.222C60.7355 249.057 60.5 248.821 60.3362 248.537C60.1724 248.253 60.0861 247.931 60.0859 247.603V110.814Z" fill="black"/>
<path opacity="0.3" d="M49.1504 92.8797V262.44C49.1504 266.759 54.135 270.876 58.8099 268.895C58.5286 268.997 58.2269 269.029 57.9303 268.99C57.6337 268.951 57.351 268.841 57.1058 268.669C56.8607 268.498 56.6604 268.27 56.5219 268.005C56.3834 267.74 56.3107 267.445 56.3099 267.146V97.6398C56.3166 96.1659 56.7552 94.7262 57.5715 93.4989L49.9012 89.6289C49.4085 90.6419 49.1518 91.7533 49.1504 92.8797Z" fill="black"/>
<path opacity="0.1" d="M132.457 41.5637C132.071 41.5741 131.689 41.65 131.327 41.7881L52.9445 86.3783C51.6389 87.1266 50.5895 88.2515 49.9336 89.6058L57.6039 93.4758C58.2501 92.4995 59.1138 91.6861 60.1272 91.0997L138.549 46.4399C138.771 46.3138 139.017 46.2348 139.271 46.2076C139.525 46.1805 139.782 46.2058 140.025 46.282C140.269 46.3582 140.495 46.4836 140.688 46.6506C140.882 46.8175 141.039 47.0224 141.149 47.2526C140.546 45.2789 136.49 41.4863 132.457 41.5637Z" fill="white"/>
<path d="M108.487 74.466C109.037 74.1487 109.493 74.3964 109.493 75.0311C109.473 75.3777 109.372 75.7149 109.199 76.0158C109.026 76.3167 108.785 76.5732 108.495 76.7648L93.1156 85.6426C92.5661 85.9599 92.1172 85.689 92.1172 85.0621C92.1349 84.7178 92.2339 84.3826 92.4061 84.0839C92.5783 83.7852 92.8188 83.5316 93.1079 83.3438L108.487 74.466Z" fill="#263238"/>
<path d="M89.1585 85.6281C89.7081 85.3108 90.1493 85.5585 90.157 86.1932C90.138 86.5393 90.0386 86.8762 89.8666 87.1772C89.6947 87.4782 89.4549 87.7349 89.1663 87.9269C88.6167 88.2443 88.1601 87.9811 88.1523 87.3464C88.1742 87.0013 88.2766 86.6661 88.4513 86.3678C88.6261 86.0694 88.8683 85.8161 89.1585 85.6281Z" fill="#263238"/>
<path d="M99.0027 73.1732C100.102 72.5385 100.984 73.0493 100.992 74.311C100.955 75.0014 100.757 75.6735 100.413 76.2731C100.068 76.8728 99.5881 77.3831 99.0104 77.763C97.9114 78.3977 96.998 77.8791 96.998 76.6175C97.0385 75.9263 97.2411 75.2544 97.5893 74.6561C97.9376 74.0577 98.4218 73.5497 99.0027 73.1732Z" fill="#263238"/>
<path d="M99.0029 232.788C101.247 231.495 103.051 232.525 103.059 235.11C102.988 236.517 102.587 237.887 101.888 239.109C101.188 240.332 100.211 241.372 99.0338 242.146C96.7892 243.438 94.9394 242.378 94.9316 239.824C95.0066 238.413 95.4145 237.04 96.1222 235.817C96.8298 234.594 97.817 233.556 99.0029 232.788Z" fill="#263238"/>
<path d="M155.46 76.3707C154.949 74.5595 151.265 71.1075 147.604 71.1849C147.252 71.1941 146.904 71.2621 146.575 71.3861L75.4287 111.851C74.3895 112.453 73.5254 113.316 72.9214 114.355C72.3174 115.393 71.9945 116.571 71.9844 117.772V271.674C71.9844 275.598 76.5045 279.337 80.7461 277.541C80.8394 277.513 80.93 277.477 81.017 277.433L152.202 236.844C153.246 236.25 154.113 235.389 154.717 234.351C155.321 233.312 155.639 232.132 155.638 230.931V77.106C155.637 76.8503 155.576 76.5985 155.46 76.3707Z" fill="#0763C6"/>
<path opacity="0.2" d="M71.9845 117.772V271.674C71.9845 275.598 76.5047 279.337 80.7462 277.541C80.4936 277.633 80.2228 277.664 79.9559 277.631C79.6891 277.597 79.434 277.501 79.2117 277.35C78.9894 277.199 78.8063 276.997 78.6774 276.761C78.5486 276.525 78.4777 276.262 78.4707 275.993V122.021C78.4764 120.683 78.8776 119.377 79.6239 118.267L72.6579 114.784C72.2078 115.715 71.9774 116.738 71.9845 117.772Z" fill="white"/>
<path opacity="0.4" d="M147.607 71.2076C147.255 71.2168 146.907 71.2848 146.578 71.4088L75.4314 111.85C74.2464 112.531 73.2943 113.553 72.6992 114.784L79.6652 118.267C80.2563 117.372 81.0524 116.632 81.9872 116.107L153.133 75.6271C153.336 75.5216 153.558 75.458 153.785 75.4399C154.013 75.4218 154.242 75.4497 154.458 75.5219C154.675 75.5941 154.875 75.7092 155.046 75.8602C155.217 76.0113 155.357 76.1952 155.455 76.4011C154.952 74.5512 151.268 71.0992 147.607 71.2076Z" fill="white"/>
<path opacity="0.3" d="M155.46 76.3707C154.949 74.5595 151.265 71.1075 147.604 71.1849C147.252 71.1941 146.904 71.2621 146.575 71.3861L75.4287 111.851C74.3895 112.453 73.5254 113.316 72.9214 114.355C72.3174 115.393 71.9945 116.571 71.9844 117.772V271.674C71.9844 275.598 76.5045 279.337 80.7461 277.541C80.8394 277.513 80.93 277.477 81.017 277.433L152.202 236.844C153.246 236.25 154.113 235.389 154.717 234.351C155.321 233.312 155.639 232.132 155.638 230.931V77.106C155.637 76.8503 155.576 76.5985 155.46 76.3707Z" fill="white"/>
<path d="M149.383 187.487C150.057 187.1 150.622 187.409 150.622 188.199V202.997C150.595 203.422 150.469 203.834 150.254 204.201C150.039 204.568 149.741 204.88 149.383 205.111L84.3673 242.487C83.6862 242.882 83.1289 242.572 83.1289 241.783V226.976C83.1517 226.548 83.275 226.132 83.4888 225.761C83.7026 225.39 84.0009 225.074 84.3596 224.84L149.383 187.487Z" fill="#0763C6"/>
<g opacity="0.7">
<path d="M149.385 187.487C150.059 187.1 150.624 187.409 150.624 188.199V202.997C150.597 203.422 150.471 203.834 150.256 204.201C150.041 204.568 149.743 204.88 149.385 205.111L84.3693 242.487C83.6881 242.882 83.1309 242.572 83.1309 241.783V226.976C83.1536 226.548 83.2769 226.132 83.4907 225.761C83.7046 225.39 84.0029 225.074 84.3615 224.84L149.385 187.487Z" fill="white"/>
</g>
<path d="M149.383 209.12C150.057 208.725 150.622 209.043 150.622 209.824V224.631C150.6 225.062 150.476 225.482 150.261 225.856C150.046 226.23 149.745 226.547 149.383 226.783L84.3673 264.159C83.6862 264.554 83.1289 264.244 83.1289 263.455V248.648C83.1517 248.22 83.275 247.804 83.4888 247.433C83.7026 247.062 84.0009 246.746 84.3596 246.512L149.383 209.12Z" fill="#0763C6"/>
<g opacity="0.2">
<path d="M149.385 209.12C150.059 208.725 150.624 209.043 150.624 209.824V224.631C150.602 225.062 150.478 225.482 150.263 225.856C150.048 226.23 149.747 226.547 149.385 226.783L84.3693 264.159C83.6881 264.554 83.1309 264.244 83.1309 263.455V248.648C83.1536 248.22 83.2769 247.804 83.4907 247.433C83.7046 247.062 84.0029 246.746 84.3615 246.512L149.385 209.12Z" fill="black"/>
</g>
<path d="M149.383 99.7141C150.057 99.3271 150.622 99.6367 150.622 100.426V174.513C150.598 174.941 150.473 175.356 150.258 175.726C150.042 176.096 149.743 176.41 149.383 176.642L84.3673 214.018C83.6862 214.421 83.1289 214.104 83.1289 213.314V139.227C83.1523 138.799 83.2758 138.383 83.4896 138.012C83.7034 137.641 84.0014 137.325 84.3596 137.091L149.383 99.7141Z" fill="#0763C6"/>
<g opacity="0.2">
<path d="M149.385 99.7141C150.059 99.3271 150.624 99.6367 150.624 100.426V174.513C150.599 174.941 150.475 175.356 150.259 175.726C150.044 176.096 149.745 176.41 149.385 176.642L84.3693 214.018C83.6881 214.421 83.1309 214.104 83.1309 213.314V139.227C83.1542 138.799 83.2778 138.383 83.4915 138.012C83.7053 137.641 84.0033 137.325 84.3615 137.091L149.385 99.7141Z" fill="black"/>
</g>
<path d="M133.222 184.213C133.077 181.999 132.936 179.788 132.796 177.58L108.663 176.604V180.351C104.568 186.125 103.152 192.975 102.904 203.354L133.57 185.761C133.452 185.245 133.335 184.729 133.222 184.213Z" fill="#37474F"/>
<path d="M136.172 136.31C135.831 137.084 134.895 137.494 134.438 138.237C134.311 138.452 134.229 138.69 134.196 138.937C134.163 139.184 134.18 139.435 134.246 139.675C134.312 139.915 134.426 140.14 134.581 140.335C134.736 140.531 134.928 140.693 135.147 140.812C135.365 140.932 135.606 141.006 135.854 141.031C136.102 141.055 136.352 141.03 136.59 140.955C136.828 140.881 137.048 140.76 137.239 140.599C137.429 140.438 137.584 140.24 137.696 140.017C137.843 140.719 137.843 141.444 137.696 142.146C137.63 142.497 137.472 142.824 137.24 143.096C137.008 143.367 136.709 143.574 136.373 143.694C136.872 144.206 137.216 144.849 137.365 145.549C137.513 146.249 137.46 146.976 137.211 147.647C136.962 148.317 136.528 148.903 135.959 149.337C135.39 149.77 134.709 150.033 133.997 150.095C134.268 152.038 132.998 154.135 131.396 155.265C129.741 156.355 127.751 156.819 125.785 156.573C123.835 156.33 121.937 155.773 120.165 154.925C117.451 155.955 114.548 156.39 111.651 156.202C109.809 156.024 107.882 155.528 106.605 154.189C105.328 152.85 105.057 150.466 106.396 149.213C105.957 149.475 105.456 149.614 104.945 149.614C104.433 149.614 103.932 149.475 103.493 149.213C103.063 148.984 102.71 148.634 102.48 148.205C102.249 147.776 102.15 147.289 102.197 146.804C102.243 146.319 102.432 145.859 102.74 145.482C103.048 145.105 103.461 144.827 103.927 144.685C103.603 144.477 103.341 144.187 103.168 143.844C102.995 143.501 102.918 143.118 102.944 142.734C103.004 142.368 103.163 142.026 103.405 141.745C103.647 141.464 103.961 141.254 104.314 141.14C104.216 141.455 104.21 141.792 104.294 142.11C104.379 142.429 104.552 142.718 104.794 142.943C105.051 143.13 105.357 143.237 105.675 143.253C105.993 143.268 106.308 143.19 106.582 143.028C106.837 142.851 107.051 142.621 107.21 142.354C107.369 142.087 107.469 141.789 107.503 141.48C107.58 140.866 107.58 140.245 107.503 139.63C107.206 137.499 107.416 135.327 108.114 133.291C108.476 132.281 109.084 131.377 109.885 130.662C110.685 129.946 111.651 129.443 112.696 129.197C113.524 126.706 115.237 124.604 117.51 123.291C119.786 121.996 122.461 121.591 125.018 122.154C127.139 122.626 129.213 123.895 130.065 125.9C130.98 125.708 131.916 125.627 132.851 125.66C133.776 125.648 134.671 125.979 135.367 126.589C135.704 126.9 135.937 127.308 136.035 127.756C136.134 128.205 136.092 128.672 135.916 129.096C135.638 129.669 135.042 130.188 135.181 130.815C135.32 131.442 135.916 131.589 136.21 132.076C136.328 132.306 136.39 132.561 136.39 132.819C136.39 133.078 136.328 133.332 136.21 133.562C135.978 134.027 135.676 134.453 135.312 134.824C135.003 135.18 134.678 135.652 134.848 136.093C135.018 136.534 135.932 136.743 136.172 136.31Z" fill="#263238"/>
<path d="M128.1 153.09L129.733 152.873C131.289 152.668 132.87 152.962 134.249 153.713C135.627 154.464 136.732 155.634 137.403 157.053L144.454 171.937C144.454 171.937 151.776 165.899 153.572 163.67C154.137 162.966 154.005 161.913 154.098 161.008C154.126 160.098 154.373 159.209 154.818 158.415C155.441 157.408 155.8 156.261 155.863 155.079C155.87 154.978 155.901 154.881 155.954 154.795C156.007 154.709 156.08 154.637 156.167 154.586C156.254 154.535 156.352 154.506 156.453 154.502C156.554 154.497 156.654 154.517 156.745 154.56L156.869 154.622C157.165 154.756 157.406 154.989 157.55 155.28C157.661 155.584 157.696 155.911 157.651 156.232C157.59 157.065 157.448 157.889 157.225 158.693C158.463 157.484 159.41 156.01 159.996 154.382C160.17 153.741 160.43 153.126 160.77 152.556C160.948 152.279 161.201 152.058 161.5 151.921C161.799 151.784 162.132 151.735 162.457 151.782C162.594 152.344 162.623 152.927 162.543 153.5C162.752 153.499 162.959 153.54 163.152 153.621C163.345 153.702 163.519 153.822 163.665 153.972C163.784 154.132 163.866 154.316 163.905 154.512C163.944 154.707 163.938 154.909 163.889 155.102C164.315 155.365 164.664 155.733 164.904 156.171C165.145 156.609 165.267 157.102 165.259 157.602C165.247 158.577 165.003 159.535 164.547 160.396C163.17 163.285 160.977 165.706 158.239 167.362C154.594 172.293 150.824 177.989 146.838 181.999C146.376 182.455 145.82 182.804 145.208 183.022C144.596 183.24 143.944 183.321 143.298 183.26C142.652 183.198 142.027 182.996 141.467 182.667C140.907 182.338 140.426 181.891 140.058 181.356C136.37 175.995 132.96 170.449 129.841 164.738L128.1 153.09Z" fill="#FFA8A7"/>
<path d="M128.1 153.09L129.733 152.873C131.289 152.668 132.87 152.962 134.249 153.713C135.627 154.465 136.732 155.634 137.403 157.053L142.953 168.771C140.29 172.912 134.826 174.344 134.826 174.344L129.833 164.708L128.1 153.09Z" fill="#E0E0E0"/>
<path opacity="0.2" d="M141.268 176.651C141.936 174.846 143.03 173.229 144.456 171.937L144.085 171.163C143.264 171.635 141.461 173.09 141.268 176.651Z" fill="black"/>
<path opacity="0.2" d="M156.002 164.862C156.852 164.452 157.511 163.73 157.843 162.846C158.174 161.963 158.153 160.985 157.782 160.117C158.153 160.479 158.415 160.938 158.538 161.442C158.661 161.945 158.641 162.473 158.479 162.966C158.271 163.473 157.932 163.915 157.497 164.248C157.061 164.582 156.546 164.793 156.002 164.862Z" fill="black"/>
<path d="M106.814 153.778L114.206 153.136C115.528 154.861 117.229 156.257 119.178 157.217C121.128 158.177 123.272 158.674 125.445 158.67C126.332 158.743 127.218 158.508 127.952 158.004C128.378 157.588 128.672 157.056 128.797 156.473C128.922 155.891 128.874 155.285 128.657 154.73C128.414 154.047 128.056 153.411 127.596 152.85H129.756C132.338 155.21 134.358 158.12 135.669 161.364C136.326 162.773 136.654 164.313 136.629 165.868C136.6 166.64 136.387 167.393 136.009 168.066C135.631 168.739 135.098 169.312 134.454 169.738C134.607 171.545 134.547 173.363 134.276 175.156C134.08 176.943 133.234 178.596 131.9 179.8C130.565 180.771 128.998 181.372 127.356 181.542C123.214 182.243 118.977 182.164 114.864 181.31C112.496 180.814 110.027 179.971 108.556 178.051C107.178 176.263 106.915 173.864 106.962 171.611C107.008 169.359 106.814 153.778 106.814 153.778Z" fill="#EBEBEB"/>
<path d="M127.955 158.028C127.221 158.532 126.335 158.767 125.448 158.694C123.277 158.692 121.136 158.189 119.191 157.225C117.246 156.262 115.549 154.863 114.232 153.137L116.725 152.92V144.909L125.394 148.245V152.889H127.607C128.066 153.45 128.425 154.087 128.668 154.77C128.88 155.323 128.926 155.927 128.799 156.506C128.673 157.085 128.379 157.614 127.955 158.028Z" fill="#FFA8A7"/>
<path opacity="0.2" d="M117.334 145.141C119.927 150.172 121.537 150.28 125.384 150.729V148.244L117.334 145.141Z" fill="black"/>
<path d="M133.024 133.499C133.782 137.297 133.83 141.202 133.163 145.016C132.916 146.448 132.498 147.965 131.36 148.886C129.967 150.009 127.962 149.846 126.19 149.614C124.237 149.464 122.316 149.034 120.485 148.337C119.572 147.983 118.743 147.44 118.054 146.744C117.364 146.048 116.829 145.214 116.484 144.297C115.995 144.564 115.431 144.66 114.882 144.57C114.332 144.481 113.828 144.21 113.45 143.801C112.705 142.963 112.304 141.873 112.327 140.752C112.268 140.251 112.337 139.743 112.53 139.277C112.722 138.811 113.031 138.402 113.426 138.089C113.731 137.928 114.067 137.837 114.411 137.823C114.756 137.808 115.099 137.87 115.416 138.004C116.048 138.279 116.613 138.689 117.072 139.204C117.297 139.464 117.557 139.691 117.846 139.877C117.996 139.966 118.167 140.014 118.341 140.014C118.516 140.014 118.687 139.966 118.837 139.877C118.99 139.726 119.108 139.543 119.182 139.341C119.255 139.139 119.283 138.923 119.262 138.708C119.232 136.949 119.631 135.209 120.423 133.639C121.314 132.137 123.125 131.03 124.812 131.487C125.586 131.696 126.29 132.215 127.088 132.261C127.733 132.23 128.358 132.027 128.899 131.673C129.27 131.409 129.703 131.246 130.156 131.201C130.608 131.155 131.065 131.228 131.481 131.412C131.897 131.596 132.258 131.886 132.529 132.252C132.799 132.618 132.97 133.048 133.024 133.499Z" fill="#FFA8A7"/>
<path d="M127.564 138.221L129.871 142.098L127.123 142.609L127.564 138.221Z" fill="#F28F8F"/>
<path d="M124.477 143.965L126.566 144.979C126.387 145.216 126.134 145.388 125.848 145.469C125.562 145.55 125.257 145.535 124.98 145.428C124.742 145.277 124.563 145.05 124.472 144.784C124.38 144.519 124.382 144.23 124.477 143.965Z" fill="#F28F8F"/>
<path opacity="0.3" d="M124.477 143.965L126.566 144.979C126.387 145.216 126.134 145.388 125.848 145.469C125.562 145.55 125.257 145.535 124.98 145.428C124.742 145.277 124.563 145.05 124.472 144.784C124.38 144.519 124.382 144.23 124.477 143.965Z" fill="black"/>
<path d="M125.707 145.512C125.463 145.56 125.21 145.536 124.979 145.443C124.788 145.336 124.633 145.174 124.534 144.978C124.434 144.782 124.396 144.562 124.422 144.344C124.723 144.343 125.015 144.444 125.25 144.63C125.513 144.852 125.678 145.17 125.707 145.512Z" fill="#F28F8F"/>
<path opacity="0.1" d="M125.707 145.512C125.463 145.56 125.21 145.536 124.979 145.443C124.788 145.336 124.633 145.174 124.534 144.978C124.434 144.782 124.396 144.562 124.422 144.344C124.723 144.343 125.015 144.444 125.25 144.63C125.513 144.852 125.678 145.17 125.707 145.512Z" fill="black"/>
<path d="M123.596 138.375C123.585 138.477 123.595 138.58 123.625 138.677C123.654 138.775 123.703 138.866 123.768 138.945C123.832 139.024 123.912 139.09 124.002 139.138C124.092 139.186 124.191 139.217 124.292 139.227C124.394 139.237 124.497 139.227 124.594 139.197C124.692 139.168 124.783 139.119 124.862 139.055C124.941 138.99 125.007 138.91 125.055 138.82C125.103 138.73 125.133 138.632 125.144 138.53C125.154 138.428 125.144 138.326 125.114 138.228C125.085 138.13 125.036 138.039 124.972 137.96C124.907 137.881 124.827 137.815 124.737 137.767C124.647 137.719 124.549 137.689 124.447 137.679C124.345 137.669 124.243 137.678 124.145 137.708C124.047 137.737 123.956 137.786 123.877 137.851C123.798 137.915 123.732 137.995 123.684 138.085C123.636 138.175 123.606 138.274 123.596 138.375Z" fill="#263238"/>
<path d="M130.205 138.786C130.194 138.937 130.228 139.088 130.302 139.22C130.376 139.353 130.487 139.46 130.621 139.53C130.756 139.599 130.908 139.628 131.058 139.612C131.209 139.596 131.351 139.537 131.468 139.44C131.585 139.344 131.672 139.216 131.716 139.071C131.761 138.927 131.763 138.772 131.72 138.627C131.678 138.481 131.594 138.351 131.479 138.253C131.364 138.155 131.222 138.093 131.072 138.074C130.968 138.061 130.862 138.07 130.761 138.099C130.661 138.128 130.567 138.178 130.486 138.244C130.405 138.311 130.338 138.393 130.29 138.486C130.242 138.58 130.213 138.682 130.205 138.786Z" fill="#263238"/>
<path d="M131.281 135.737L132.907 137.114C133.002 136.907 133.033 136.675 132.994 136.45C132.955 136.225 132.849 136.016 132.69 135.853C132.49 135.701 132.252 135.61 132.003 135.589C131.753 135.569 131.503 135.62 131.281 135.737Z" fill="#263238"/>
<path d="M124.618 134.962L122.753 135.992C122.7 135.768 122.716 135.534 122.799 135.32C122.882 135.106 123.028 134.922 123.217 134.792C123.444 134.688 123.695 134.649 123.942 134.679C124.189 134.709 124.423 134.807 124.618 134.962Z" fill="#263238"/>
<path d="M105.671 174.73L103.202 183.778L112.791 191.812C113.472 192.386 114.34 192.686 115.23 192.656C116.211 192.591 117.196 192.648 118.163 192.826C118.937 192.996 119.641 193.244 120.392 193.414C120.919 193.547 121.459 193.614 122.002 193.615C122.113 193.61 122.224 193.633 122.323 193.682C122.423 193.731 122.508 193.805 122.571 193.897C122.634 193.988 122.672 194.095 122.682 194.205C122.692 194.316 122.674 194.427 122.629 194.529C122.546 194.69 122.436 194.837 122.304 194.962C121.901 195.273 121.418 195.461 120.911 195.504C120.11 195.614 119.296 195.572 118.511 195.38C119.301 196.262 120.327 196.898 121.468 197.215C122.544 197.571 123.674 197.78 124.742 198.159C125.155 198.266 125.524 198.502 125.795 198.832C125.863 198.913 125.914 199.007 125.945 199.109C125.975 199.21 125.985 199.317 125.972 199.422C125.96 199.527 125.926 199.629 125.873 199.72C125.82 199.812 125.748 199.892 125.663 199.955C125.206 200.241 124.58 199.815 124.115 200.016C124.177 200.307 124.177 200.608 124.115 200.899C124.029 201.193 123.839 201.446 123.581 201.611C123.447 201.685 123.297 201.723 123.144 201.723C122.991 201.723 122.84 201.685 122.706 201.611C122.479 201.965 122.182 202.269 121.834 202.505C121.485 202.74 121.092 202.902 120.679 202.981C119.856 203.147 119.009 203.147 118.186 202.981C114.773 202.346 112.613 199.374 109.928 197.16C109.564 196.859 100.121 191.588 95.2836 188.902C94.4838 188.458 93.8538 187.761 93.4924 186.921C93.131 186.08 93.0587 185.144 93.2867 184.258L96.3827 172.269L105.671 174.73Z" fill="#FFA8A7"/>
<path opacity="0.2" d="M97.3086 183.577C98.3458 183.089 101.658 182.695 103.199 183.778L103.454 182.849C102.478 182.329 101.366 182.119 100.267 182.249C99.1686 182.38 98.1362 182.843 97.3086 183.577Z" fill="black"/>
<path d="M106.862 153.817L105.507 154.197C104.129 154.591 102.867 155.312 101.829 156.3C100.792 157.289 100.008 158.513 99.5472 159.87L95.2051 172.602C99.0751 176.712 106.126 175.451 106.126 175.451L107.519 168.965C112.427 160.435 107.922 155.203 106.862 153.817Z" fill="#E0E0E0"/>
<g opacity="0.6">
<path d="M87.7924 122.308L87.8001 123.755L85.4394 125.117L85.4472 126.092L87.5137 124.901V126.348L85.4472 127.54L85.4549 129.366L83.7831 130.326L83.7676 124.63L87.7924 122.308Z" fill="white"/>
<path d="M92.0493 123.794L93.1019 124.955L91.3372 125.985L90.4858 125.033L90.0369 125.296V126.728L88.3418 127.711V122.014L90.7257 120.636C92.1112 119.862 92.9935 120.164 93.0013 121.48C92.9723 122.341 92.6344 123.162 92.0493 123.794ZM90.6174 123.5C90.8155 123.402 90.983 123.251 91.1017 123.064C91.2204 122.877 91.2857 122.661 91.2907 122.44C91.2907 122.03 91.074 121.898 90.6096 122.169L90.0059 122.517V123.841L90.6174 123.492" fill="white"/>
<path d="M95.2754 117.988L95.2909 123.685L93.6191 124.645L93.6113 118.948L95.2754 117.988Z" fill="white"/>
<path d="M100.113 115.195L100.12 116.643L97.7364 118.02V118.686L99.8262 117.479L99.834 118.864L97.7364 120.072L97.7442 120.822L100.213 119.39L100.221 120.838L96.0956 123.222L96.0801 117.525L100.113 115.195Z" fill="white"/>
<path d="M105.734 111.952L105.757 117.649L104.379 118.438L102.491 116.937L102.498 119.53L100.873 120.466L100.857 114.77L102.227 113.98L104.116 115.474L104.108 112.889L105.734 111.952Z" fill="white"/>
<path d="M108.993 110.071C110.649 109.111 111.795 109.537 111.795 111.309C111.753 112.229 111.474 113.123 110.986 113.903C110.498 114.684 109.817 115.326 109.008 115.767L106.57 117.176V111.479L108.993 110.071ZM108.931 114.312C109.292 114.109 109.592 113.813 109.8 113.456C110.009 113.098 110.117 112.691 110.115 112.276C110.115 111.402 109.628 111.201 108.923 111.603L108.227 112.013V114.715L108.923 114.312" fill="white"/>
<path d="M118.243 108.671L119.295 109.832L117.508 110.862L116.664 109.91L116.207 110.173V111.612L114.559 112.572V106.875L116.881 105.498C118.258 104.724 119.141 105.026 119.148 106.341C119.136 107.201 118.815 108.028 118.243 108.671ZM116.811 108.377C117.011 108.28 117.181 108.13 117.301 107.943C117.421 107.756 117.487 107.539 117.492 107.317C117.492 106.899 117.275 106.775 116.811 107.046L116.199 107.394V108.725L116.811 108.377Z" fill="white"/>
<path d="M123.829 101.503L123.837 102.95L121.445 104.328V105.001L123.543 103.786L123.551 105.172L121.453 106.379V107.13L123.938 105.698V107.145L119.812 109.522L119.797 103.833L123.829 101.503Z" fill="white"/>
<path d="M129.526 103.655L130.253 104.212C129.928 104.856 129.426 105.393 128.806 105.76C128.469 106.014 128.057 106.147 127.636 106.137C127.214 106.127 126.809 105.975 126.484 105.706C125.238 106.124 124.371 105.49 124.371 104.027C124.422 103.09 124.703 102.181 125.189 101.379C125.675 100.577 126.351 99.9074 127.157 99.4291C128.767 98.5003 129.959 99.073 129.967 100.799C129.906 102.168 129.337 103.464 128.373 104.437C128.441 104.484 128.522 104.509 128.605 104.509C128.688 104.509 128.769 104.484 128.837 104.437C129.129 104.238 129.365 103.969 129.526 103.655ZM127.204 103.849C127.547 103.625 127.829 103.318 128.022 102.957C128.215 102.596 128.315 102.192 128.311 101.782C128.311 100.892 127.815 100.644 127.196 101.008C126.851 101.232 126.568 101.54 126.373 101.902C126.178 102.265 126.078 102.671 126.082 103.082C126.082 103.965 126.585 104.212 127.204 103.856" fill="white"/>
<path d="M135.363 94.8457V97.9417C135.365 98.775 135.142 99.5934 134.718 100.311C134.295 101.029 133.686 101.619 132.956 102.021C131.408 102.903 130.541 102.439 130.533 100.728V97.6321L132.205 96.6646V99.7606C132.205 100.627 132.499 100.79 132.979 100.535C133.249 100.363 133.465 100.119 133.602 99.8298C133.739 99.5408 133.791 99.219 133.753 98.9015V95.8055L135.363 94.8457Z" fill="white"/>
<path d="M140.159 92.0752V93.5226L137.776 94.9003V95.5737L139.873 94.3662V95.744L137.783 96.9514V97.7022L140.26 96.2703L140.268 97.7177L136.15 100.094L136.127 94.3972L140.159 92.0752Z" fill="white"/>
<path d="M142.97 90.3255C143.527 89.9589 144.176 89.7552 144.843 89.7373L144.348 91.4169C143.86 91.4178 143.382 91.5488 142.962 91.7961C142.474 92.0748 142.312 92.3302 142.312 92.5237C142.312 93.2048 145.06 91.0608 145.06 93.1584C144.983 93.8525 144.729 94.5152 144.322 95.0831C143.915 95.6509 143.37 96.1049 142.738 96.4014C142.097 96.8278 141.347 97.059 140.578 97.0671L141.112 95.3565C141.687 95.3805 142.256 95.2322 142.745 94.9308C143.225 94.6599 143.395 94.451 143.395 94.2575C143.395 93.5376 140.648 95.6971 140.648 93.5686C140.723 92.8738 140.976 92.2101 141.383 91.6419C141.789 91.0737 142.336 90.6203 142.97 90.3255Z" fill="white"/>
<path d="M149.682 86.5801V88.0662L148.234 88.9021L148.242 93.1126L146.57 94.0801L146.563 89.8696L145.107 90.7055V89.2194L149.682 86.5801Z" fill="white"/>
</g>
<path d="M111.933 216.148C112.776 215.66 113.442 215.621 113.86 216.016L112.947 217.495C112.812 217.392 112.648 217.337 112.478 217.337C112.309 217.337 112.145 217.392 112.01 217.495C111.701 217.684 111.447 217.951 111.272 218.269C111.097 218.586 111.007 218.943 111.012 219.306C111.012 220.08 111.414 220.312 112.018 219.964C112.433 219.689 112.759 219.299 112.954 218.841L113.875 219.252C113.457 220.128 112.786 220.858 111.948 221.349C110.563 222.123 109.557 221.666 109.549 220.149C109.579 219.336 109.813 218.543 110.229 217.844C110.646 217.145 111.232 216.561 111.933 216.148Z" fill="#0763C6"/>
<path d="M107.659 218.726L109.547 222.596L108.053 223.462L107.759 222.766L106.134 223.71L105.847 224.74L104.369 225.591L106.234 219.569L107.659 218.726ZM106.521 222.263L107.365 221.775L106.939 220.777L106.521 222.263Z" fill="#0763C6"/>
<path d="M116.403 213.562C117.247 213.074 117.951 213.043 118.338 213.43L117.425 214.893C117.29 214.789 117.124 214.732 116.953 214.732C116.782 214.732 116.616 214.789 116.481 214.893C116.174 215.085 115.921 215.352 115.746 215.669C115.571 215.986 115.48 216.342 115.482 216.704C115.482 217.478 115.893 217.71 116.489 217.362C116.906 217.09 117.232 216.699 117.425 216.24L118.346 216.65C117.928 217.526 117.257 218.257 116.419 218.747C115.033 219.521 114.02 219.065 114.02 217.548C114.053 216.737 114.288 215.948 114.705 215.252C115.121 214.555 115.705 213.974 116.403 213.562Z" fill="#0763C6"/>
<path d="M122.241 210.304L122.248 211.558L120.182 212.75V213.322L121.993 212.277L122.001 213.477L120.182 214.53L120.19 215.18L122.334 213.942V215.195L118.765 217.254L118.75 212.316L122.241 210.304Z" fill="#0763C6"/>
<path d="M124.951 208.74C126.151 208.051 126.91 208.33 126.91 209.468C126.873 210.093 126.674 210.699 126.332 211.224C125.99 211.749 125.517 212.176 124.959 212.463L124.348 212.819V214.026L122.9 214.87V209.932L124.951 208.74ZM124.866 211.232C125.04 211.148 125.187 211.017 125.29 210.855C125.394 210.692 125.451 210.504 125.455 210.311C125.455 209.955 125.261 209.839 124.866 210.071L124.34 210.373V211.534L124.866 211.232Z" fill="#0763C6"/>
<path d="M130.934 205.288V206.573L129.672 207.308L129.68 210.954L128.24 211.782L128.225 208.136L126.971 208.864L126.963 207.571L130.934 205.288Z" fill="#0763C6"/>
<g opacity="0.3">
<path d="M111.935 216.148C112.778 215.66 113.444 215.621 113.862 216.016L112.949 217.495C112.814 217.392 112.65 217.337 112.48 217.337C112.311 217.337 112.147 217.392 112.012 217.495C111.703 217.684 111.449 217.951 111.274 218.269C111.099 218.586 111.009 218.943 111.014 219.306C111.014 220.08 111.416 220.312 112.02 219.964C112.435 219.689 112.761 219.299 112.956 218.841L113.877 219.252C113.459 220.128 112.788 220.858 111.95 221.349C110.565 222.123 109.559 221.666 109.551 220.149C109.581 219.336 109.815 218.543 110.231 217.844C110.648 217.145 111.234 216.561 111.935 216.148Z" fill="white"/>
<path d="M107.661 218.725L109.549 222.595L108.055 223.461L107.761 222.765L106.136 223.709L105.849 224.739L104.371 225.59L106.236 219.568L107.661 218.725ZM106.523 222.262L107.366 221.774L106.941 220.776L106.523 222.262Z" fill="white"/>
<path d="M116.405 213.562C117.249 213.074 117.953 213.043 118.34 213.43L117.427 214.893C117.292 214.789 117.126 214.732 116.955 214.732C116.784 214.732 116.618 214.789 116.483 214.893C116.176 215.085 115.923 215.352 115.748 215.669C115.573 215.986 115.482 216.342 115.484 216.704C115.484 217.478 115.895 217.71 116.491 217.362C116.908 217.09 117.234 216.699 117.427 216.24L118.348 216.65C117.93 217.526 117.259 218.257 116.421 218.747C115.035 219.521 114.021 219.065 114.021 217.548C114.055 216.737 114.29 215.948 114.707 215.252C115.123 214.555 115.707 213.974 116.405 213.562Z" fill="white"/>
<path d="M122.241 210.304L122.248 211.558L120.182 212.75V213.322L121.993 212.277L122.001 213.477L120.182 214.53L120.19 215.18L122.334 213.942V215.195L118.765 217.254L118.75 212.316L122.241 210.304Z" fill="white"/>
<path d="M124.953 208.74C126.153 208.051 126.912 208.33 126.912 209.468C126.875 210.093 126.676 210.699 126.334 211.224C125.992 211.749 125.519 212.176 124.961 212.463L124.35 212.819V214.026L122.902 214.87V209.932L124.953 208.74ZM124.868 211.232C125.042 211.148 125.189 211.017 125.292 210.855C125.396 210.692 125.453 210.504 125.457 210.311C125.457 209.955 125.263 209.839 124.868 210.071L124.342 210.373V211.534L124.868 211.232Z" fill="white"/>
<path d="M130.937 205.288V206.573L129.676 207.308L129.684 210.954L128.244 211.782L128.228 208.136L126.975 208.864L126.967 207.571L130.937 205.288Z" fill="white"/>
</g>
<g opacity="0.5">
<path d="M106.76 239.799C108.191 238.971 109.182 239.342 109.19 240.867C109.154 241.666 108.912 242.442 108.487 243.12C108.063 243.798 107.47 244.355 106.767 244.737L104.654 245.96V241.022L106.76 239.799ZM106.705 243.475C107.015 243.296 107.273 243.039 107.452 242.73C107.631 242.42 107.726 242.069 107.727 241.711C107.727 240.937 107.309 240.782 106.698 241.138L106.094 241.486V243.808L106.698 243.46" fill="white"/>
<path d="M113.2 236.077L113.208 237.339L111.141 238.531V239.111L112.952 238.059L112.96 239.258L111.141 240.303L111.149 240.953L113.293 239.715V240.969L109.725 243.028L109.717 238.097L113.2 236.077Z" fill="white"/>
<path d="M116.103 234.312C116.946 233.832 117.604 233.801 118.03 234.196L117.116 235.659C116.986 235.551 116.824 235.489 116.655 235.482C116.486 235.475 116.319 235.523 116.18 235.62C115.87 235.811 115.614 236.079 115.438 236.397C115.261 236.716 115.17 237.075 115.174 237.439C115.174 238.213 115.584 238.438 116.188 238.089C116.605 237.817 116.931 237.426 117.124 236.967L118.038 237.377C117.623 238.258 116.947 238.99 116.103 239.475C114.725 240.249 113.703 239.792 113.703 238.275C113.742 237.467 113.982 236.682 114.401 235.99C114.82 235.298 115.405 234.721 116.103 234.312Z" fill="white"/>
<path d="M119.856 232.237L119.871 235.883L121.806 234.761L121.814 236.053L118.424 238.004L118.408 233.073L119.856 232.237Z" fill="white"/>
<path d="M123.643 230.048L123.658 234.986L122.211 235.822L122.203 230.884L123.643 230.048Z" fill="white"/>
<path d="M128.579 227.199L128.595 232.137L127.403 232.826L125.762 231.526L125.77 233.763L124.361 234.583L124.346 229.645L125.538 228.956L127.171 230.264L127.163 228.02L128.579 227.199Z" fill="white"/>
<path d="M132.772 224.784V226.038L130.705 227.23L130.713 227.81L132.524 226.766V227.958L130.713 229.002V229.653L132.857 228.414L132.865 229.668L129.289 231.735L129.273 226.797L132.772 224.784Z" fill="white"/>
</g>
<path d="M198.095 202.882C190.619 208.067 182.205 211.659 175.967 218.617C164.357 231.605 164.047 252.511 173.196 267.379C182.345 282.248 199.373 291.164 216.702 293.207C234.884 295.351 253.971 290.328 268.235 278.85C282.5 267.371 291.579 249.438 291.571 231.125C291.564 212.812 282.191 194.584 266.85 184.584C252.856 175.459 232.794 172.85 218.715 183.292C211.617 188.57 206.88 196.365 199.806 201.659C199.241 202.069 198.668 202.479 198.095 202.882Z" fill="#0763C6"/>
<path opacity="0.2" d="M198.095 202.882C190.619 208.067 182.205 211.659 175.967 218.617C164.357 231.605 164.047 252.511 173.196 267.379C182.345 282.248 199.373 291.164 216.702 293.207C234.884 295.351 253.971 290.328 268.235 278.85C282.5 267.371 291.579 249.438 291.571 231.125C291.564 212.812 282.191 194.584 266.85 184.584C252.856 175.459 232.794 172.85 218.715 183.292C211.617 188.57 206.88 196.365 199.806 201.659C199.241 202.069 198.668 202.479 198.095 202.882Z" fill="black"/>
<path opacity="0.1" d="M198.095 202.882C190.619 208.067 182.205 211.659 175.967 218.617C164.357 231.605 164.047 252.511 173.196 267.379C182.345 282.248 199.373 291.164 216.702 293.207C234.884 295.351 253.971 290.328 268.235 278.85C282.5 267.371 291.579 249.438 291.571 231.125C291.564 212.812 282.191 194.584 266.85 184.584C252.856 175.459 232.794 172.85 218.715 183.292C211.617 188.57 206.88 196.365 199.806 201.659C199.241 202.069 198.668 202.479 198.095 202.882Z" fill="white"/>
<path d="M281.812 228.609C281.572 215.97 276.861 203.825 268.514 194.331C260.168 184.837 248.727 178.608 236.223 176.751C234.487 176.923 232.765 177.213 231.069 177.618C244.22 178.318 256.619 183.971 265.772 193.441C274.924 202.911 280.152 215.495 280.403 228.663C280.736 245.691 272.4 263.075 258.104 275.103C246.897 284.554 232.013 290.815 215.658 293.068L216.703 293.207C218.174 293.377 219.649 293.501 221.13 293.579C235.666 290.761 248.824 284.77 259.01 276.179C273.631 263.849 282.153 246.07 281.812 228.609Z" fill="white"/>
<path opacity="0.1" d="M201.139 278.996C201.139 278.872 201.139 278.748 201.193 278.625C201.809 274.575 203.675 270.819 206.532 267.882C209.388 264.945 213.091 262.975 217.122 262.247C224.333 260.864 231.243 258.217 237.532 254.429C241.998 251.728 246.209 248.423 251.217 246.96C256.074 245.572 261.259 245.875 265.923 247.819C261.72 243.4 254.514 241.457 248.748 243.454C252.741 237.355 256.248 230.776 257.618 223.616C258.988 216.457 258.02 208.601 253.701 202.718C251.861 200.213 249.488 198.148 246.753 196.67C244.018 195.192 240.99 194.339 237.886 194.173C234.782 194.006 231.68 194.53 228.803 195.707C225.926 196.883 223.345 198.683 221.247 200.977C216.975 205.66 214.56 212.239 211.75 217.92C209.738 221.999 207.648 226.178 204.328 229.29C199.312 233.98 192.091 235.675 186.889 240.126C180.999 245.219 178.453 253.353 178.422 261.148C178.521 266.404 179.289 271.627 180.705 276.69C186.806 282.506 194.079 286.953 202.037 289.731C200.898 286.273 200.59 282.595 201.139 278.996Z" fill="black"/>
<path d="M182.09 273.307C182.63 276.115 182.935 278.963 183.003 281.821L185.023 281.047C185.98 280.688 187.021 280.617 188.017 280.844C189.013 281.071 189.921 281.586 190.627 282.324L190.728 282.425C191.088 282.803 191.58 283.028 192.102 283.053C192.624 283.077 193.136 282.9 193.53 282.556C193.74 282.371 193.91 282.146 194.029 281.893C194.149 281.64 194.216 281.365 194.226 281.086L194.497 272.502L182.09 273.307Z" fill="#FFA8A7"/>
<path d="M189.877 305.22C185.698 309.693 177.989 313.61 172.385 309.786L173.012 311.218C178.615 315.034 186.325 311.117 190.512 306.644C194.699 302.17 191.982 299.059 195.744 295.088C197.167 293.73 198.278 292.079 199.003 290.25C198.832 289.825 198.678 289.267 198.476 288.625C197.663 290.49 196.526 292.196 195.117 293.664C191.348 297.634 194.065 300.738 189.877 305.22Z" fill="#263238"/>
<path d="M196.418 283.95C195.771 283.034 195.322 281.993 195.103 280.893C195.062 280.638 194.967 280.394 194.824 280.179C194.681 279.964 194.494 279.782 194.274 279.646L194.228 281.086C194.218 281.366 194.151 281.64 194.031 281.893C193.911 282.146 193.741 282.372 193.531 282.557C193.137 282.9 192.626 283.078 192.104 283.053C191.582 283.029 191.09 282.804 190.729 282.425L190.629 282.325C189.922 281.586 189.015 281.072 188.019 280.845C187.022 280.618 185.982 280.688 185.025 281.047L182.974 281.821C182.666 281.933 182.401 282.139 182.217 282.41C182.034 282.681 181.941 283.003 181.952 283.331C182.084 289.198 179.344 297 176.465 301.288C173.508 302.51 170.954 306.543 172.254 309.492L172.386 309.786C177.989 313.61 185.698 309.693 189.878 305.219C194.058 300.746 191.349 297.634 195.118 293.664C196.527 292.196 197.664 290.49 198.477 288.625C198.011 286.979 197.318 285.405 196.418 283.95Z" fill="#37474F"/>
<path d="M188.228 292.425C188.396 292.513 188.592 292.529 188.773 292.472C188.954 292.415 189.104 292.288 189.191 292.12C189.279 291.951 189.296 291.755 189.238 291.574C189.181 291.394 189.054 291.243 188.886 291.156C187.659 290.463 186.274 290.1 184.865 290.1C183.456 290.1 182.071 290.463 180.844 291.156C180.72 291.62 180.581 292.085 180.441 292.541C181.618 291.85 182.954 291.476 184.319 291.455C185.684 291.435 187.031 291.769 188.228 292.425Z" fill="white"/>
<path d="M189.259 289.252C189.428 289.332 189.621 289.343 189.798 289.283C189.974 289.222 190.12 289.094 190.203 288.927C190.247 288.846 190.274 288.757 190.283 288.666C190.292 288.575 190.283 288.483 190.256 288.395C190.23 288.307 190.186 288.226 190.128 288.155C190.069 288.084 189.998 288.026 189.917 287.982C188.633 287.279 187.19 286.915 185.725 286.926C184.261 286.937 182.824 287.322 181.55 288.044C181.465 288.524 181.364 289.004 181.256 289.484C183.702 288.199 186.163 287.681 189.259 289.252Z" fill="white"/>
<path d="M187.089 295.582C187.258 295.664 187.452 295.676 187.63 295.617C187.808 295.558 187.955 295.431 188.041 295.265C188.085 295.183 188.111 295.094 188.12 295.002C188.129 294.909 188.119 294.816 188.092 294.728C188.064 294.64 188.02 294.558 187.961 294.486C187.902 294.415 187.829 294.356 187.747 294.313C186.549 293.638 185.2 293.277 183.825 293.263C182.45 293.25 181.094 293.584 179.883 294.236C179.705 294.731 179.512 295.219 179.326 295.698C180.5 295.009 181.832 294.636 183.192 294.616C184.553 294.595 185.896 294.928 187.089 295.582Z" fill="white"/>
<path d="M176.47 301.288C173.514 302.511 170.96 306.544 172.26 309.493L172.391 309.787C177.91 313.556 185.464 309.787 189.69 305.414C186.161 298.502 178.792 300.228 176.47 301.288Z" fill="white"/>
<path d="M185.851 298.671C186.021 298.752 186.215 298.764 186.393 298.703C186.571 298.642 186.718 298.514 186.803 298.346C186.846 298.265 186.873 298.176 186.881 298.085C186.89 297.993 186.88 297.901 186.853 297.813C186.825 297.725 186.781 297.644 186.722 297.573C186.663 297.503 186.59 297.445 186.509 297.402C185.309 296.725 183.957 296.363 182.579 296.349C181.201 296.335 179.842 296.671 178.629 297.325C178.374 297.874 178.119 298.401 177.855 298.873C180.34 297.619 182.755 297.1 185.851 298.671Z" fill="white"/>
<path d="M173.29 290.375C172.651 293.158 171.784 295.884 170.697 298.525L172.849 298.641C173.874 298.693 174.862 299.046 175.688 299.656C176.513 300.266 177.141 301.106 177.493 302.07L177.539 302.209C177.717 302.702 178.078 303.106 178.547 303.338C179.015 303.57 179.556 303.612 180.055 303.456C180.322 303.373 180.569 303.236 180.781 303.053C180.992 302.871 181.164 302.647 181.286 302.395L184.993 294.655L173.29 290.375Z" fill="#FFA8A7"/>
<path d="M167.54 322.759C161.905 325.166 153.267 325.63 149.684 319.879V321.427C153.267 327.186 161.905 326.714 167.54 324.307C173.174 321.899 171.944 317.96 176.99 315.847C178.84 315.182 180.525 314.126 181.928 312.751C181.928 312.294 182.021 311.721 182.099 311.056C180.604 312.436 178.874 313.537 176.99 314.306C171.944 316.373 173.174 320.313 167.54 322.759Z" fill="#263238"/>
<path d="M182.098 305.893C181.87 304.798 181.87 303.668 182.098 302.572C182.173 302.324 182.194 302.063 182.157 301.806C182.121 301.55 182.03 301.304 181.89 301.086L181.27 302.387C181.097 302.747 180.82 303.049 180.476 303.253C180.132 303.458 179.735 303.556 179.336 303.536C178.936 303.516 178.551 303.379 178.229 303.142C177.906 302.904 177.661 302.577 177.524 302.201L177.478 302.062C177.126 301.097 176.498 300.257 175.672 299.648C174.846 299.038 173.859 298.685 172.834 298.633L170.643 298.517C170.316 298.493 169.99 298.574 169.712 298.748C169.433 298.922 169.217 299.18 169.095 299.484C166.843 304.902 161.185 310.939 156.827 313.695C153.631 313.625 149.66 316.28 149.66 319.508V319.833C153.244 325.583 161.882 325.119 167.516 322.712C173.151 320.305 171.92 316.365 176.967 314.252C178.85 313.482 180.58 312.381 182.075 311.001C182.325 309.308 182.333 307.588 182.098 305.893Z" fill="#37474F"/>
<path d="M171.187 310.374C171.306 310.522 171.479 310.617 171.667 310.637C171.856 310.657 172.045 310.602 172.193 310.483C172.341 310.364 172.435 310.191 172.456 310.002C172.476 309.813 172.42 309.624 172.301 309.476C171.457 308.349 170.335 307.46 169.046 306.894C167.756 306.329 166.342 306.106 164.941 306.249C164.639 306.62 164.337 306.984 164.02 307.348C165.374 307.188 166.747 307.383 168.003 307.914C169.26 308.444 170.357 309.292 171.187 310.374Z" fill="white"/>
<path d="M173.413 307.859C173.536 308 173.709 308.088 173.895 308.104C174.081 308.12 174.267 308.062 174.411 307.944C174.554 307.827 174.647 307.659 174.668 307.476C174.69 307.293 174.639 307.108 174.528 306.961C173.636 305.798 172.462 304.882 171.116 304.301C169.771 303.72 168.3 303.493 166.842 303.641C166.571 304.043 166.292 304.415 165.998 304.848C168.73 304.655 171.207 305.173 173.413 307.859Z" fill="white"/>
<path d="M168.876 312.774C168.994 312.922 169.166 313.016 169.354 313.038C169.542 313.059 169.731 313.004 169.879 312.886C170.026 312.768 170.121 312.596 170.142 312.408C170.163 312.22 170.109 312.032 169.991 311.884C169.167 310.781 168.078 309.905 166.825 309.337C165.572 308.769 164.195 308.526 162.824 308.633C162.46 309.02 162.05 309.407 161.717 309.747C163.07 309.591 164.44 309.788 165.695 310.318C166.949 310.849 168.045 311.695 168.876 312.774Z" fill="white"/>
<path d="M156.851 313.703C153.654 313.633 149.684 316.288 149.684 319.515V319.84C153.213 325.506 161.642 325.134 167.284 322.82C166.843 315.072 159.444 313.672 156.851 313.703Z" fill="white"/>
<path d="M166.501 315.104C166.626 315.229 166.794 315.304 166.971 315.313C167.148 315.322 167.323 315.266 167.461 315.155C167.599 315.043 167.691 314.885 167.72 314.71C167.748 314.535 167.711 314.355 167.615 314.206C166.788 313.102 165.695 312.225 164.438 311.656C163.181 311.088 161.8 310.847 160.425 310.955C159.976 311.357 159.527 311.729 159.086 312.093C161.841 311.922 164.295 312.418 166.501 315.104Z" fill="white"/>
<path d="M206.412 217.046L178.199 232.766C175.637 234.187 173.586 236.377 172.336 239.027C171.086 241.677 170.7 244.653 171.233 247.534L176.706 277.031L172.216 291.303C176.086 296.497 184.987 296.76 184.987 296.76C189.949 286.807 193.586 282.58 196.412 274.244C199.237 265.909 201.11 260.15 201.11 260.15L224.539 253.741C229.899 252.289 234.701 249.261 238.322 245.049C241.942 240.838 244.216 235.637 244.848 230.119C245.251 226.574 245.266 224.151 245.266 224.151L206.412 217.046Z" fill="#455A64"/>
<path opacity="0.2" d="M206.657 224.971C206.642 228.115 207.738 231.163 209.753 233.578L189.838 246.039C186.916 247.869 184.753 250.691 183.746 253.988L176.695 277.03L183.05 251.364C183.783 248.413 185.642 245.866 188.228 244.267L206.657 232.904C204.768 228.206 206.657 224.971 206.657 224.971Z" fill="black"/>
<path d="M189.055 190.141C191.926 197.881 201.702 195.877 201.702 195.877C202.197 185.505 189.055 190.141 189.055 190.141Z" fill="#0763C6"/>
<path opacity="0.3" d="M189.055 190.141C191.926 197.881 201.702 195.877 201.702 195.877C202.197 185.505 189.055 190.141 189.055 190.141Z" fill="black"/>
<path d="M209.467 168.562H208.739C203.863 168.617 197.694 171.937 194.683 180.443L182.973 203.122L196.34 209.05L203.654 187.642L209.467 168.562Z" fill="#FFA8A7"/>
<path opacity="0.2" d="M200.077 183.616C199.14 186.294 199.086 189.181 198.939 192.014C198.792 194.846 198.459 198.268 197.167 200.791C195.737 199.802 194.026 199.302 192.289 199.366C190.552 199.43 188.883 200.055 187.53 201.147C186.56 201.959 185.814 203.006 185.363 204.189L196.339 209.057L203.653 187.648L207.252 175.845C205.6 176.598 204.114 177.674 202.882 179.008C201.65 180.342 200.697 181.909 200.077 183.616Z" fill="black"/>
<path d="M196.463 204.963C195.953 203.699 195.128 202.587 194.068 201.733C193.007 200.878 191.745 200.308 190.402 200.079C189.006 199.934 187.595 200.136 186.296 200.668C184.997 201.2 183.85 202.046 182.956 203.128C181.501 204.893 181.726 207.277 182.647 209.367C183.404 211.007 184.712 212.331 186.344 213.109C187.975 213.886 189.827 214.069 191.579 213.624C195.046 212.633 197.763 208.306 196.463 204.963Z" fill="#FFA8A7"/>
<path d="M209.465 168.563C203.645 167.921 196.307 170.606 189.055 190.142C198.497 190.382 201.702 195.877 201.702 195.877C205.967 185.041 210.773 169.933 210.773 169.933L209.465 168.563Z" fill="#0763C6"/>
<path opacity="0.1" d="M209.465 168.563C203.645 167.921 196.307 170.606 189.055 190.142C198.497 190.382 201.702 195.877 201.702 195.877C205.967 185.041 210.773 169.933 210.773 169.933L209.465 168.563Z" fill="white"/>
<path d="M245.737 226.358C240.73 231.164 216.689 232.047 204.421 220.367C205.598 212.124 205.195 203.292 204.421 194.562C203.647 185.831 198.531 170.568 208.291 168.772C221.31 166.226 227.889 168.563 238.477 171.334C247.796 186.806 246.527 209.964 245.737 226.358Z" fill="#0763C6"/>
<path opacity="0.2" d="M245.737 226.358C240.73 231.164 216.689 232.047 204.421 220.367C205.598 212.124 205.195 203.292 204.421 194.562C203.647 185.831 198.531 170.568 208.291 168.772C221.31 166.226 227.889 168.563 238.477 171.334C247.796 186.806 246.527 209.964 245.737 226.358Z" fill="white"/>
<path d="M201.937 155.226C199.778 154.181 198.086 152.369 197.191 150.144C196.295 147.919 196.26 145.44 197.092 143.19C195.932 142.9 194.906 142.223 194.182 141.271C193.864 140.805 193.694 140.255 193.693 139.691C193.693 139.128 193.863 138.577 194.181 138.111C194.498 137.646 194.949 137.287 195.474 137.081C195.999 136.876 196.574 136.833 197.123 136.96C196.697 136.189 196.541 135.297 196.682 134.427C196.822 133.557 197.25 132.759 197.897 132.161C198.559 131.618 199.39 131.322 200.246 131.322C201.102 131.322 201.932 131.618 202.595 132.161C202.486 131.63 202.55 131.077 202.779 130.585C203.007 130.093 203.388 129.688 203.864 129.429C204.861 128.97 205.98 128.845 207.053 129.073C208.129 129.243 209.174 129.584 210.25 129.723C212.088 129.858 213.935 129.772 215.753 129.467C217.571 129.173 219.433 129.338 221.171 129.947C222.866 130.659 224.615 132.726 224.143 134.854C224.34 134.473 224.615 134.137 224.951 133.87C225.288 133.603 225.677 133.411 226.094 133.306C226.507 133.224 226.934 133.231 227.345 133.325C227.756 133.42 228.142 133.601 228.478 133.856C227.464 134.762 226.504 135.706 225.498 136.604C226.543 135.892 228.385 136.395 229.19 137.378C229.921 138.421 230.352 139.644 230.436 140.915C231.118 145.688 231.1 150.536 230.382 155.304C230.018 157.765 229.058 160.923 227.038 162.386L201.937 155.226Z" fill="#37474F"/>
<path d="M213.956 164.314L214.467 169.964C214.491 170.403 214.377 170.839 214.142 171.21C213.83 171.8 213.711 172.472 213.801 173.133C213.891 173.794 214.186 174.41 214.645 174.894C215.372 175.443 216.257 175.745 217.168 175.753C218.889 175.844 220.609 175.57 222.216 174.95C223.823 174.33 225.281 173.377 226.495 172.154C226.747 171.9 226.945 171.598 227.078 171.265C227.211 170.933 227.276 170.577 227.269 170.219L226.897 155.9L213.956 164.314Z" fill="#FFA8A7"/>
<path opacity="0.3" d="M226.867 155.9L213.957 164.314L214.406 169.322C217.146 168.679 219.894 167.89 222.061 166.133C224.816 163.888 227.239 161.674 226.867 155.9Z" fill="black"/>
<path d="M199.281 143.879C199.568 150.478 201.146 156.958 203.925 162.95C204.493 164.279 205.243 165.521 206.154 166.642C207.075 167.77 208.348 168.555 209.769 168.871C211.51 169.197 213.275 168.585 214.947 167.981C217.997 166.875 221.139 165.721 223.562 163.593C225.984 161.464 227.656 158.082 226.828 154.947C227.69 155.293 228.625 155.417 229.547 155.308C230.47 155.198 231.35 154.859 232.107 154.32C232.837 153.737 233.411 152.98 233.776 152.12C234.14 151.259 234.285 150.321 234.196 149.39C234.003 147.586 232.648 145.775 230.814 145.729C230.258 145.748 229.713 145.884 229.214 146.13C228.714 146.375 228.273 146.724 227.919 147.153C227.223 148.019 226.655 148.981 226.232 150.009C226.039 150.502 225.746 150.95 225.373 151.325C225.182 151.508 224.94 151.629 224.679 151.672C224.417 151.715 224.149 151.678 223.91 151.565C223.686 151.375 223.506 151.138 223.386 150.87C223.265 150.602 223.206 150.31 223.213 150.017L222.695 145.946C222.652 145.633 222.52 145.339 222.314 145.1C222.108 144.861 221.837 144.687 221.534 144.599C220.622 144.287 219.851 143.662 219.359 142.834C218.936 142.11 218.62 141.327 218.422 140.512C218.384 140.358 218.31 140.215 218.206 140.095C218.102 139.975 217.971 139.881 217.823 139.822C217.676 139.762 217.517 139.738 217.359 139.752C217.2 139.766 217.048 139.817 216.913 139.901C211.859 143.051 205.109 144.336 199.281 143.879Z" fill="#FFA8A7"/>
<path d="M209.876 152.115L207.322 158.865L211.788 158.919L209.876 152.115Z" fill="#F28F8F"/>
<path d="M216.331 160.288L213.32 162.463C213.668 162.788 214.112 162.991 214.586 163.042C215.059 163.092 215.536 162.987 215.944 162.742C216.28 162.439 216.502 162.03 216.572 161.583C216.642 161.137 216.557 160.68 216.331 160.288Z" fill="#F28F8F"/>
<path opacity="0.3" d="M216.331 160.288L213.32 162.463C213.668 162.788 214.112 162.991 214.586 163.042C215.059 163.092 215.536 162.987 215.944 162.742C216.28 162.439 216.502 162.03 216.572 161.583C216.642 161.137 216.557 160.68 216.331 160.288Z" fill="black"/>
<path d="M214.823 163.044C215.218 163.054 215.608 162.949 215.945 162.742C216.215 162.518 216.414 162.22 216.515 161.884C216.617 161.548 216.618 161.19 216.518 160.854C216.008 160.932 215.549 161.203 215.233 161.611C214.918 162.018 214.771 162.531 214.823 163.044Z" fill="#F28F8F"/>
<path d="M216.195 151.256C216.262 151.496 216.257 151.751 216.18 151.989C216.102 152.227 215.956 152.436 215.759 152.59C215.563 152.744 215.325 152.837 215.076 152.856C214.827 152.875 214.577 152.819 214.36 152.696C214.142 152.573 213.966 152.389 213.854 152.165C213.741 151.942 213.698 151.691 213.728 151.443C213.759 151.195 213.863 150.961 214.026 150.772C214.19 150.583 214.406 150.447 214.647 150.381C214.968 150.295 215.31 150.339 215.599 150.502C215.889 150.666 216.103 150.936 216.195 151.256Z" fill="#263238"/>
<path d="M205.882 153.733C205.927 153.891 205.94 154.057 205.921 154.221C205.901 154.384 205.85 154.542 205.769 154.686C205.689 154.83 205.581 154.956 205.451 155.058C205.322 155.16 205.174 155.236 205.015 155.281C204.775 155.35 204.519 155.346 204.281 155.27C204.043 155.193 203.833 155.048 203.677 154.852C203.522 154.656 203.428 154.418 203.408 154.169C203.388 153.92 203.443 153.67 203.565 153.452C203.687 153.234 203.872 153.057 204.095 152.943C204.318 152.83 204.569 152.786 204.818 152.816C205.066 152.846 205.3 152.949 205.489 153.112C205.679 153.276 205.816 153.491 205.882 153.733Z" fill="#263238"/>
<path d="M203.335 149.228L201.167 151.844C200.958 151.543 200.846 151.185 200.846 150.819C200.846 150.452 200.958 150.094 201.167 149.793C201.441 149.508 201.789 149.305 202.171 149.205C202.554 149.105 202.956 149.113 203.335 149.228Z" fill="#263238"/>
<path d="M213.699 146.156L216.919 147.262C216.942 146.896 216.853 146.532 216.663 146.218C216.474 145.904 216.193 145.656 215.859 145.505C215.474 145.402 215.068 145.407 214.686 145.522C214.305 145.637 213.963 145.857 213.699 146.156Z" fill="#263238"/>
<path opacity="0.15" d="M210.255 225.769C210.255 225.769 210.255 225.769 210.255 225.722C210.255 225.676 210.255 225.722 210.255 225.683C210.255 225.645 210.255 225.683 210.255 225.637C210.252 225.622 210.252 225.606 210.255 225.59V225.544L201.501 209.29L200.193 210.528L208.978 226.829C209.034 226.919 209.073 227.019 209.094 227.123C209.101 227.154 209.101 227.186 209.095 227.216C209.088 227.247 209.075 227.276 209.056 227.301L210.255 225.931C210.26 225.911 210.26 225.89 210.255 225.869C210.259 225.849 210.259 225.828 210.255 225.807C210.255 225.807 210.255 225.784 210.255 225.769Z" fill="white"/>
<path opacity="0.2" d="M201.369 209.119V209.065V209.018C201.368 209 201.368 208.982 201.369 208.964L201.33 208.918L201.292 208.864L201.253 208.809V208.755L201.214 208.709L201.176 208.662V208.624L201.044 208.508H200.998H200.959H200.912H200.858H200.804L200.742 208.469L190.68 202.811H190.626H190.564H190.51H190.456H190.402H190.347H190.301H190.247H190.193H190.007C189.978 202.809 189.949 202.814 189.922 202.824C189.896 202.835 189.872 202.852 189.852 202.873L188.652 204.243C188.694 204.211 188.742 204.19 188.793 204.182C188.845 204.174 188.897 204.179 188.946 204.196C189.139 204.249 189.324 204.327 189.496 204.429L199.558 210.087C199.744 210.195 199.937 210.327 200.131 210.466C200.323 210.613 200.506 210.771 200.68 210.938C200.848 211.096 201.005 211.264 201.152 211.441C201.279 211.59 201.39 211.751 201.485 211.921L202.685 210.543L201.369 209.119Z" fill="white"/>
<path d="M244.949 175.698C243.525 173.252 241.334 171.526 238.509 171.317L236.845 173.918C235.082 177.141 234.179 180.763 234.221 184.437L234.523 211.62L232.526 212.448C226.914 214.86 221.049 216.633 215.041 217.734C211.907 215.25 208.01 213.927 204.012 213.988L205.498 216.751C202.688 218.555 196.334 215.312 196.334 215.312C195.869 219.274 198.431 223.384 201.837 225.466C205.243 227.548 237.743 224.491 244.631 220.048C249.167 217.115 248.091 189.088 248.091 189.088C248.406 184.411 247.312 179.747 244.949 175.698Z" fill="#FFA8A7"/>
<path d="M189.438 207.107C189.221 208.178 189.1 209.266 189.074 210.358C189.32 212.963 190.423 215.413 192.209 217.324C192.577 217.742 193.039 218.068 193.556 218.276C193.812 218.377 194.091 218.406 194.363 218.363C194.635 218.319 194.891 218.204 195.104 218.029C195.486 217.57 195.682 216.984 195.653 216.388C195.732 215.508 195.683 214.622 195.506 213.756C195.32 212.886 194.828 212.112 194.121 211.573C193.567 211.244 192.974 210.984 192.356 210.799C191.763 210.538 191.234 210.15 190.808 209.662L189.438 207.107Z" fill="#FFA8A7"/>
<path d="M238.507 171.333C246.317 172.068 250.659 177.486 248.739 201.418C243.182 205.017 233.383 201.952 233.383 201.952C231.711 175.737 235.96 172.858 238.507 171.333Z" fill="#0763C6"/>
<path opacity="0.1" d="M238.507 171.333C246.317 172.068 250.659 177.486 248.739 201.418C243.182 205.017 233.383 201.952 233.383 201.952C231.711 175.737 235.96 172.858 238.507 171.333Z" fill="white"/>
<path d="M210.256 225.769C210.256 225.769 210.256 225.769 210.256 225.723C210.256 225.676 210.256 225.723 210.256 225.684C210.256 225.645 210.256 225.684 210.256 225.638C210.253 225.622 210.253 225.607 210.256 225.591V225.545L201.502 209.291V209.252V209.198V209.152C201.501 209.134 201.501 209.115 201.502 209.097L201.464 209.051L201.425 208.997L201.386 208.943V208.888L201.348 208.842L201.309 208.796V208.757L201.177 208.641H201.131H201.092H201.046H200.991H200.937L200.875 208.602L190.813 202.944H190.759H190.697H190.643H190.589H190.535H190.481H190.434H190.38H190.326H190.14C190.111 202.942 190.082 202.947 190.056 202.958C190.029 202.968 190.005 202.985 189.985 203.006L188.785 204.376C188.685 204.446 188.677 204.608 188.824 204.879L197.57 221.133C198.061 221.889 198.724 222.518 199.505 222.967L209.567 228.625C210.094 228.92 210.403 228.927 210.442 228.711C210.45 228.741 210.45 228.773 210.442 228.803L211.642 227.433C211.646 227.413 211.646 227.392 211.642 227.372C211.646 227.351 211.646 227.33 211.642 227.31C211.642 227.31 210.256 225.785 210.256 225.769ZM187.57 202.789C187.57 202.789 187.57 202.789 187.64 202.789C187.617 202.788 187.594 202.788 187.57 202.789ZM209.026 227.124C209.018 227.008 208.981 226.896 208.917 226.799C208.973 226.889 209.012 226.989 209.033 227.093C209.033 227.093 209.049 227.139 209.049 227.155L209.026 227.124Z" fill="#455A64"/>
<path d="M277.915 294.244L274.656 296.133L274.672 292.371L277.915 294.244Z" fill="#E6E6E6"/>
<path d="M274.799 255.831L306.463 274.121L274.799 255.831Z" fill="#CFCFCF"/>
<path d="M277.912 294.245L306.396 310.693V314.454L309.786 316.412L309.91 272.163L271.395 249.934L271.271 294.183L274.662 296.134V292.372L277.912 294.245ZM306.427 288.471L274.77 270.181L274.816 255.831L306.504 274.121L306.427 288.471ZM306.38 306.745L274.708 288.463L274.77 274.152V274.113L306.442 292.395L306.38 306.745Z" fill="#E0E0E0"/>
<path d="M274.709 288.463L274.748 274.152V274.113L306.42 292.395L306.373 306.745L274.709 288.463Z" fill="#E0E0E0"/>
<path d="M274.756 270.181L274.802 255.831L306.467 274.121L306.428 288.471L274.756 270.181Z" fill="#E0E0E0"/>
<path d="M309.903 272.164L343.526 252.628L343.394 296.877L309.779 316.413L309.903 272.164Z" fill="#EBEBEB"/>
<path d="M309.901 272.162L271.387 249.933L305.009 230.397L343.524 252.627L309.901 272.162Z" fill="#F5F5F5"/>
<path opacity="0.2" d="M277.915 294.244L274.656 296.133L274.672 292.371L277.915 294.244Z" fill="white"/>
<path d="M274.799 255.831L306.463 274.121L274.799 255.831Z" fill="#CFCFCF"/>
<path opacity="0.8" d="M274.709 288.463L274.748 274.152V274.113L306.42 292.395L306.373 306.745L274.709 288.463Z" fill="white"/>
<path opacity="0.8" d="M274.756 270.181L274.802 255.831L306.467 274.121L306.428 288.471L274.756 270.181Z" fill="white"/>
<path d="M285.125 267.132L285.133 265.15L296.1 271.482L296.093 273.463L285.125 267.132Z" fill="#E0E0E0"/>
<path d="M285.125 285.158L285.133 283.169L296.1 289.508L296.093 291.489L285.125 285.158Z" fill="#E0E0E0"/>
<path opacity="0.05" d="M317.34 241.807C313.06 239.338 306.156 239.338 301.907 241.807C297.658 244.276 297.681 248.278 301.953 250.747C306.226 253.216 313.145 253.216 317.387 250.747C321.628 248.278 321.644 244.276 317.34 241.807Z" fill="black"/>
<path d="M321.08 226.271L309.346 226.612L297.62 226.271C297.109 234.197 298.657 242.27 300.793 246.21C301.3 247.211 302.114 248.024 303.115 248.532C306.575 250.536 312.171 250.536 315.607 248.532C316.628 248.004 317.445 247.152 317.929 246.109C320.05 242.185 321.583 234.159 321.08 226.271Z" fill="white"/>
<path d="M317.611 221.466C322.208 224.121 322.255 228.432 317.665 231.079C313.075 233.726 305.675 233.734 301.078 231.079C296.48 228.424 296.434 224.113 301.024 221.466C305.614 218.819 313.021 218.819 317.611 221.466Z" fill="#EBEBEB"/>
<path d="M315.792 222.526C319.376 224.593 319.391 227.944 315.831 230.019C312.271 232.093 306.473 232.093 302.89 230.019C299.306 227.944 299.283 224.601 302.843 222.526C306.404 220.452 312.209 220.452 315.792 222.526Z" fill="#E0E0E0"/>
<g opacity="0.15">
<path d="M315.79 222.526C319.374 224.593 319.39 227.944 315.829 230.019C312.269 232.093 306.471 232.093 302.888 230.019C299.304 227.944 299.281 224.601 302.841 222.526C306.402 220.452 312.207 220.452 315.79 222.526Z" fill="black"/>
</g>
<path d="M308.369 226.605C309.311 227.39 310.427 227.939 311.623 228.208C312.819 228.478 314.062 228.459 315.25 228.153C316.395 227.805 317.436 227.177 318.278 226.325C319.12 225.474 319.737 224.426 320.072 223.277C318.682 222.618 317.409 221.737 316.303 220.669C318.062 220.223 319.911 220.288 321.635 220.854C322.115 220.105 322.402 219.249 322.473 218.362C322.543 217.475 322.393 216.585 322.038 215.769C320.035 214.879 317.782 214.723 315.676 215.328C316.551 214.567 317.574 213.994 318.681 213.645C319.787 213.297 320.954 213.179 322.108 213.3C322.268 209.937 321.741 206.576 320.56 203.424C316.186 203.648 311.945 205.537 310.498 206.891C310.433 208.455 310.597 210.019 310.985 211.535C310.419 211.248 309.936 210.822 309.58 210.297C309.223 209.771 309.007 209.164 308.95 208.532C306.21 209.221 305.041 210.583 304.615 211.628C305.01 213.573 305.904 215.381 307.208 216.876C304.638 216.102 303.593 213.238 303.593 213.238C301.086 219.244 301.573 226.009 308.369 226.605Z" fill="#0763C6"/>
<path opacity="0.2" d="M308.369 226.605C309.311 227.39 310.427 227.939 311.623 228.208C312.819 228.478 314.062 228.459 315.25 228.153C316.395 227.805 317.436 227.177 318.278 226.325C319.12 225.474 319.737 224.426 320.072 223.277C318.682 222.618 317.409 221.737 316.303 220.669C318.062 220.223 319.911 220.288 321.635 220.854C322.115 220.105 322.402 219.249 322.473 218.362C322.543 217.475 322.393 216.585 322.038 215.769C320.035 214.879 317.782 214.723 315.676 215.328C316.551 214.567 317.574 213.994 318.681 213.645C319.787 213.297 320.954 213.179 322.108 213.3C322.268 209.937 321.741 206.576 320.56 203.424C316.186 203.648 311.945 205.537 310.498 206.891C310.433 208.455 310.597 210.019 310.985 211.535C310.419 211.248 309.936 210.822 309.58 210.297C309.223 209.771 309.007 209.164 308.95 208.532C306.21 209.221 305.041 210.583 304.615 211.628C305.01 213.573 305.904 215.381 307.208 216.876C304.638 216.102 303.593 213.238 303.593 213.238C301.086 219.244 301.573 226.009 308.369 226.605Z" fill="black"/>
<path opacity="0.3" d="M308.369 226.605C309.311 227.39 310.427 227.939 311.623 228.208C312.819 228.478 314.062 228.459 315.25 228.153C316.395 227.805 317.436 227.177 318.278 226.325C319.12 225.474 319.737 224.426 320.072 223.277C318.682 222.618 317.409 221.737 316.303 220.669C318.062 220.223 319.911 220.288 321.635 220.854C322.115 220.105 322.402 219.249 322.473 218.362C322.543 217.475 322.393 216.585 322.038 215.769C320.035 214.879 317.782 214.723 315.676 215.328C316.551 214.567 317.574 213.994 318.681 213.645C319.787 213.297 320.954 213.179 322.108 213.3C322.268 209.937 321.741 206.576 320.56 203.424C316.186 203.648 311.945 205.537 310.498 206.891C310.433 208.455 310.597 210.019 310.985 211.535C310.419 211.248 309.936 210.822 309.58 210.297C309.223 209.771 309.007 209.164 308.95 208.532C306.21 209.221 305.041 210.583 304.615 211.628C305.01 213.573 305.904 215.381 307.208 216.876C304.638 216.102 303.593 213.238 303.593 213.238C301.086 219.244 301.573 226.009 308.369 226.605Z" fill="white"/>
<path d="M308.215 227.256C308.149 227.248 308.089 227.216 308.046 227.166C308.003 227.115 307.98 227.051 307.983 226.985C308.401 221.459 311.566 212.341 319.097 204.825C319.146 204.79 319.206 204.774 319.266 204.779C319.326 204.784 319.383 204.811 319.425 204.853C319.468 204.896 319.494 204.952 319.499 205.012C319.504 205.072 319.488 205.132 319.453 205.181C312.015 212.604 308.904 221.582 308.493 227.024C308.491 227.057 308.481 227.09 308.465 227.12C308.45 227.15 308.428 227.176 308.402 227.198C308.377 227.219 308.347 227.236 308.314 227.246C308.282 227.255 308.248 227.259 308.215 227.256Z" fill="#F5F5F5"/>
<path d="M310.281 229.562C309.404 230.278 308.37 230.776 307.263 231.015C306.156 231.255 305.009 231.23 303.914 230.941C302.819 230.653 301.807 230.11 300.962 229.357C300.117 228.603 299.462 227.66 299.051 226.605C300.307 226.03 301.456 225.245 302.449 224.283C300.786 223.883 299.046 223.933 297.41 224.43C296.914 223.798 296.588 223.049 296.465 222.255C296.342 221.46 296.424 220.648 296.705 219.895C298.613 219.113 300.726 218.988 302.712 219.539C300.944 218.155 298.717 217.494 296.481 217.689C296.104 214.724 296.392 211.713 297.325 208.873C301.489 209.121 305.614 210.847 307.046 212.07C307.21 213.445 307.155 214.837 306.884 216.195C307.388 215.957 307.817 215.584 308.122 215.116C308.427 214.649 308.595 214.106 308.61 213.548C311.218 214.175 312.394 215.398 312.859 216.327C312.616 218.044 311.885 219.656 310.754 220.971C311.487 220.711 312.152 220.288 312.699 219.735C313.246 219.181 313.661 218.511 313.911 217.774C316.628 223.076 316.566 229.051 310.281 229.562Z" fill="#0763C6"/>
<path opacity="0.3" d="M310.281 229.562C309.404 230.278 308.37 230.776 307.263 231.015C306.156 231.255 305.009 231.23 303.914 230.941C302.819 230.653 301.807 230.11 300.962 229.357C300.117 228.603 299.462 227.66 299.051 226.605C300.307 226.03 301.456 225.245 302.449 224.283C300.786 223.883 299.046 223.933 297.41 224.43C296.914 223.798 296.588 223.049 296.465 222.255C296.342 221.46 296.424 220.648 296.705 219.895C298.613 219.113 300.726 218.988 302.712 219.539C300.944 218.155 298.717 217.494 296.481 217.689C296.104 214.724 296.392 211.713 297.325 208.873C301.489 209.121 305.614 210.847 307.046 212.07C307.21 213.445 307.155 214.837 306.884 216.195C307.388 215.957 307.817 215.584 308.122 215.116C308.427 214.649 308.595 214.106 308.61 213.548C311.218 214.175 312.394 215.398 312.859 216.327C312.616 218.044 311.885 219.656 310.754 220.971C311.487 220.711 312.152 220.288 312.699 219.735C313.246 219.181 313.661 218.511 313.911 217.774C316.628 223.076 316.566 229.051 310.281 229.562Z" fill="white"/>
<path d="M310.453 230.166C310.392 230.165 310.333 230.143 310.287 230.103C310.24 230.064 310.209 230.009 310.198 229.949C309.486 225.143 305.988 217.155 298.503 210.483C298.454 210.439 298.424 210.377 298.42 210.311C298.417 210.245 298.439 210.18 298.484 210.131C298.528 210.082 298.59 210.052 298.656 210.048C298.722 210.045 298.786 210.067 298.836 210.111C306.429 216.869 309.974 224.98 310.701 229.872C310.707 229.904 310.706 229.938 310.698 229.97C310.69 230.002 310.676 230.032 310.657 230.059C310.638 230.086 310.613 230.108 310.585 230.125C310.556 230.142 310.525 230.153 310.492 230.158L310.453 230.166Z" fill="white"/>
</svg>
