<svg width="12" height="13" viewBox="0 0 12 13" fill="none" xmlns="http://www.w3.org/2000/svg">
<g clip-path="url(#clip0_1856_18278)">
<path d="M8.26392 5.84722L9.23614 6.81944L11.1806 4.875" stroke="#707173" stroke-width="0.972222" stroke-linecap="round" stroke-linejoin="round"/>
<path d="M8.26426 10.7077V9.73546C8.26426 9.21976 8.0594 8.72518 7.69475 8.36053C7.33009 7.99588 6.83552 7.79102 6.31982 7.79102H2.91704C2.40134 7.79102 1.90676 7.99588 1.54211 8.36053C1.17746 8.72518 0.972595 9.21976 0.972595 9.73546V10.7077" stroke="#707173" stroke-width="0.972222" stroke-linecap="round" stroke-linejoin="round"/>
<path d="M4.61846 5.84787C5.69234 5.84787 6.5629 4.97732 6.5629 3.90343C6.5629 2.82954 5.69234 1.95898 4.61846 1.95898C3.54457 1.95898 2.67401 2.82954 2.67401 3.90343C2.67401 4.97732 3.54457 5.84787 4.61846 5.84787Z" stroke="#707173" stroke-width="0.972222" stroke-linecap="round" stroke-linejoin="round"/>
</g>
<defs>
<clipPath id="clip0_1856_18278">
<rect width="11.6667" height="11.6667" fill="white" transform="translate(0 0.5)"/>
</clipPath>
</defs>
</svg>
