<svg width="20" height="20" viewBox="0 0 20 20" fill="none" xmlns="http://www.w3.org/2000/svg">
<path fill-rule="evenodd" clip-rule="evenodd" d="M10.8574 3.66943C10.8574 4.16673 10.4543 4.56987 9.95702 4.56987C9.45972 4.56987 9.05658 4.16673 9.05658 3.66943C9.05658 3.17213 9.45972 2.76899 9.95702 2.76899C10.4543 2.76899 10.8574 3.17213 10.8574 3.66943ZM11.6286 4.76973C11.8368 4.45405 11.958 4.07589 11.958 3.66943C11.958 2.56432 11.0621 1.66846 9.95702 1.66846C8.85191 1.66846 7.95605 2.56432 7.95605 3.66943C7.95605 4.07589 8.07724 4.45405 8.28546 4.76973H4.90646C4.48111 4.76973 4.10755 5.05233 3.99184 5.46163L0.866492 16.517C0.695009 17.1236 1.15074 17.726 1.78111 17.726H18.0707C18.7087 17.726 19.1655 17.1098 18.9801 16.4993L15.6215 5.44391C15.4998 5.04348 15.1306 4.76973 14.7121 4.76973H11.6286ZM1.97949 16.6255L5.01999 5.87026H14.6008L17.8682 16.6255H1.97949Z" fill="black"/>
<path d="M9.81083 13.3687L8.03968 10.797L9.69738 8.95652H8.54392L6.70973 10.9609V8.95652H5.71385V13.3687H6.70973V12.2782L7.34634 11.5723L8.61325 13.3687H9.81083ZM13.1881 12.3034C12.9045 12.4484 12.5893 12.543 12.3246 12.543C11.543 12.543 10.9316 11.9442 10.9316 11.1626C10.9316 10.3873 11.5367 9.78852 12.3183 9.78852C12.7469 9.78852 13.2007 9.97761 13.5285 10.2802L14.0895 9.56791C13.642 9.17712 12.9738 8.925 12.3183 8.925C10.9443 8.925 9.91055 9.88937 9.91055 11.1626C9.91055 12.4421 10.9253 13.4128 12.2616 13.4128C12.873 13.4128 13.5852 13.1796 14.0517 12.8392V11.1437H13.1881V12.3034Z" fill="black"/>
</svg>
