<svg width="20" height="21" viewBox="0 0 20 21" fill="none" xmlns="http://www.w3.org/2000/svg">
<g clip-path="url(#clip0_7009_29981)">
<path d="M20.0117 10.5016C20.0117 4.97941 15.5346 0.50281 10.0117 0.50281C4.48887 0.50281 0.0117188 4.97941 0.0117188 10.5016C0.0117188 15.4923 3.66857 19.6288 8.44922 20.3789V13.3919H5.91016V10.5016H8.44922V8.29874C8.44922 5.79279 9.94215 4.40858 12.2264 4.40858C13.3204 4.40858 14.4648 4.60387 14.4648 4.60387V7.06451H13.2039C11.9616 7.06451 11.5742 7.83526 11.5742 8.62598V10.5016H14.3477L13.9043 13.3919H11.5742V20.3789C16.3549 19.6288 20.0117 15.4923 20.0117 10.5016Z" fill="#1877F2"/>
<path d="M13.9043 13.3915L14.3477 10.5012H11.5742V8.62561C11.5742 7.83488 11.9616 7.06414 13.2039 7.06414H14.4648V4.6035C14.4648 4.6035 13.3204 4.40821 12.2264 4.40821C9.94215 4.40821 8.44922 5.79242 8.44922 8.29836V10.5012H5.91016V13.3915H8.44922V20.3785C8.95834 20.4584 9.48016 20.5 10.0117 20.5C10.5433 20.5 11.0651 20.4584 11.5742 20.3785V13.3915H13.9043Z" fill="white"/>
</g>
<defs>
<clipPath id="clip0_7009_29981">
<rect width="20" height="19.9976" fill="white" transform="translate(0 0.500977)"/>
</clipPath>
</defs>
</svg>
