<svg width="20" height="21" viewBox="0 0 20 21" fill="none" xmlns="http://www.w3.org/2000/svg">
<g clip-path="url(#clip0_7009_29996)">
<path d="M17.0189 17.4683H14.0593V12.8797C14.0593 11.7855 14.0396 10.3769 12.5201 10.3769C10.9787 10.3769 10.7428 11.5691 10.7428 12.8V17.468H7.78326V8.03199H10.6244V9.32151H10.6642C10.9485 8.84021 11.3594 8.44426 11.853 8.17584C12.3467 7.90743 12.9046 7.7766 13.4674 7.79728C16.4671 7.79728 17.0201 9.75064 17.0201 12.2919L17.0189 17.4683ZM4.44392 6.74216C4.10424 6.74222 3.77216 6.64255 3.4897 6.45577C3.20723 6.26898 2.98707 6.00346 2.85702 5.69279C2.72697 5.38211 2.69289 5.04024 2.7591 4.71039C2.82531 4.38054 2.98883 4.07754 3.22898 3.8397C3.46913 3.60186 3.77512 3.43987 4.10826 3.3742C4.4414 3.30853 4.78673 3.34214 5.10057 3.47078C5.41442 3.59942 5.68269 3.81731 5.87146 4.0969C6.06022 4.37648 6.16101 4.70521 6.16108 5.04151C6.16112 5.2648 6.11673 5.48591 6.03045 5.69222C5.94418 5.89853 5.81772 6.086 5.65827 6.24392C5.49882 6.40184 5.30949 6.52712 5.10114 6.61261C4.89278 6.69809 4.66946 6.74212 4.44392 6.74216ZM5.92369 17.4683H2.96107V8.03199H5.92369V17.4683ZM18.4943 0.620488H1.47391C1.0876 0.616172 0.715337 0.763876 0.438964 1.03114C0.162591 1.29841 0.00471477 1.66337 0 2.04583V18.9666C0.0045534 19.3492 0.162337 19.7144 0.438701 19.982C0.715064 20.2495 1.08741 20.3975 1.47391 20.3934H18.4943C18.8816 20.3983 19.255 20.2507 19.5324 19.9831C19.8099 19.7156 19.9687 19.35 19.9741 18.9666V2.04461C19.9686 1.66139 19.8096 1.29601 19.5322 1.02875C19.2547 0.761494 18.8814 0.614212 18.4943 0.619267" fill="#0A66C2"/>
</g>
<defs>
<clipPath id="clip0_7009_29996">
<rect width="20" height="19.7615" fill="white" transform="translate(0 0.619141)"/>
</clipPath>
</defs>
</svg>
