<svg width="20" height="20" viewBox="0 0 20 20" fill="none" xmlns="http://www.w3.org/2000/svg">
<path d="M8.3335 10.833C8.69137 11.3114 9.14796 11.7073 9.67229 11.9938C10.1966 12.2802 10.7764 12.4506 11.3724 12.4933C11.9683 12.5359 12.5665 12.45 13.1263 12.2411C13.6861 12.0323 14.1944 11.7055 14.6168 11.283L17.1168 8.78298C17.8758 7.99714 18.2958 6.94463 18.2863 5.85214C18.2768 4.75965 17.8386 3.7146 17.0661 2.94207C16.2935 2.16953 15.2485 1.73133 14.156 1.72184C13.0635 1.71234 12.011 2.13232 11.2252 2.89131L9.79183 4.31631" stroke="#393B3D" stroke-width="1.33333" stroke-linecap="round" stroke-linejoin="round"/>
<path d="M11.6673 9.16702C11.3094 8.68858 10.8529 8.2927 10.3285 8.00623C9.8042 7.71977 9.2244 7.54942 8.62845 7.50674C8.03249 7.46406 7.43433 7.55004 6.87453 7.75887C6.31473 7.96769 5.80639 8.29446 5.38399 8.71702L2.88399 11.217C2.125 12.0029 1.70502 13.0554 1.71451 14.1479C1.72401 15.2403 2.16221 16.2854 2.93474 17.0579C3.70728 17.8305 4.75233 18.2687 5.84482 18.2782C6.9373 18.2877 7.98981 17.8677 8.77565 17.1087L10.2007 15.6837" stroke="#393B3D" stroke-width="1.33333" stroke-linecap="round" stroke-linejoin="round"/>
</svg>
