<svg width="20" height="21" viewBox="0 0 20 21" fill="none" xmlns="http://www.w3.org/2000/svg">
<g clip-path="url(#clip0_7009_30011)">
<path d="M16.8147 0.501455C18.5744 0.501455 20.0015 1.92805 20.0015 3.68813V17.3126C20.0015 19.0721 18.5744 20.499 16.8147 20.499H3.18852C1.42853 20.499 0.00146484 19.0721 0.00146484 17.3126V3.68813C0.00146484 1.92805 1.42853 0.501455 3.18852 0.501455H16.8147Z" fill="#FFFC00"/>
<path d="M16.7436 13.9264C16.6846 13.7313 16.4025 13.5938 16.4025 13.5938C16.3759 13.5798 16.352 13.5671 16.3324 13.5573C15.8622 13.33 15.4454 13.0564 15.0946 12.7463C14.8125 12.4965 14.5711 12.2215 14.3775 11.9296C14.1403 11.5732 14.0294 11.2757 13.9817 11.1143C13.955 11.0091 13.9593 10.967 13.9817 10.9123C14 10.866 14.0547 10.8225 14.0799 10.8014C14.2385 10.6891 14.4939 10.5236 14.6511 10.4225C14.7872 10.3341 14.9037 10.2584 14.9725 10.2107C15.1928 10.0563 15.3444 9.89914 15.4328 9.72936C15.5479 9.51046 15.5619 9.2691 15.4721 9.03196C15.3514 8.71203 15.0525 8.52119 14.6722 8.52119C14.588 8.52119 14.501 8.53102 14.4139 8.54926C14.1964 8.59697 13.9901 8.67414 13.8175 8.7415C13.8049 8.74711 13.7908 8.73729 13.7923 8.72326C13.8105 8.29528 13.8315 7.71996 13.7838 7.17411C13.7417 6.68018 13.6393 6.26343 13.4737 5.9C13.3067 5.53517 13.0892 5.26575 12.9193 5.0707C12.758 4.88548 12.4731 4.61185 12.0436 4.36629C11.4402 4.0211 10.7525 3.8457 10.0003 3.8457C9.24951 3.8457 8.56326 4.0211 7.95841 4.36629C7.50371 4.62589 7.21321 4.91916 7.08129 5.0707C6.91148 5.26575 6.69396 5.53517 6.52696 5.9C6.35996 6.26343 6.25891 6.67878 6.21681 7.17411C6.1691 7.72277 6.18874 8.25178 6.20839 8.72326C6.20839 8.73729 6.19576 8.74711 6.18173 8.7415C6.00911 8.67414 5.80281 8.59697 5.58529 8.54926C5.49969 8.53102 5.41268 8.52119 5.32707 8.52119C4.94816 8.52119 4.64924 8.71203 4.52714 9.03196C4.43733 9.2691 4.45136 9.51046 4.56644 9.72936C4.65625 9.89914 4.80642 10.0563 5.02675 10.2107C5.09411 10.2584 5.21199 10.3341 5.34812 10.4225C5.50109 10.5222 5.74949 10.6835 5.90947 10.7944C5.92912 10.8084 5.99648 10.8589 6.01753 10.9123C6.03999 10.9684 6.0442 11.0105 6.01473 11.1227C5.96561 11.2855 5.85474 11.5802 5.62178 11.9296C5.42811 12.2229 5.18673 12.4965 4.90465 12.7463C4.55381 13.0564 4.137 13.33 3.66687 13.5573C3.64442 13.5685 3.61775 13.5812 3.58969 13.598C3.58969 13.598 3.30901 13.7411 3.25568 13.9264C3.17709 14.2 3.3862 14.4568 3.59811 14.5943C3.94614 14.8188 4.36997 14.9395 4.61556 15.0054C4.68432 15.0237 4.74607 15.0405 4.80221 15.0573C4.83729 15.0686 4.9257 15.1022 4.96359 15.1514C5.01131 15.2131 5.01692 15.2889 5.03376 15.3745C5.06043 15.519 5.12077 15.6972 5.299 15.8207C5.49547 15.9554 5.74387 15.9652 6.05963 15.9778C6.38943 15.9905 6.79921 16.0059 7.26935 16.1617C7.48687 16.2332 7.68475 16.3553 7.91209 16.4956C8.38924 16.7889 8.98287 17.1537 9.99611 17.1537C11.0108 17.1537 11.6086 16.7875 12.0885 16.4928C12.3159 16.3539 12.511 16.2332 12.7243 16.1631C13.1944 16.0073 13.6042 15.9919 13.934 15.9792C14.2498 15.9666 14.4982 15.9582 14.6946 15.8221C14.8855 15.6902 14.9402 15.4937 14.9655 15.3464C14.9795 15.2734 14.9879 15.2075 15.03 15.1542C15.0665 15.1079 15.1479 15.0756 15.1858 15.0629C15.2433 15.0447 15.3079 15.0279 15.3795 15.0082C15.6251 14.9423 15.9338 14.8651 16.3085 14.6532C16.7604 14.3964 16.7913 14.0821 16.7436 13.9264Z" fill="white"/>
<path d="M17.1385 13.7749C17.0388 13.5026 16.848 13.3581 16.6318 13.2374C16.5911 13.2136 16.5533 13.1939 16.5224 13.1799C16.4578 13.1462 16.3919 13.114 16.3259 13.0803C15.6509 12.7225 15.1232 12.2706 14.7583 11.736C14.6348 11.555 14.5492 11.3922 14.4889 11.2589C14.458 11.1691 14.4594 11.1186 14.4819 11.0723C14.4987 11.0372 14.5436 11.0007 14.5689 10.9825C14.6854 10.9053 14.8046 10.8281 14.886 10.7762C15.0306 10.6822 15.1457 10.6078 15.2186 10.5573C15.4965 10.3637 15.6902 10.1574 15.8109 9.92727C15.9821 9.60313 16.0031 9.23268 15.8712 8.88469C15.6888 8.40198 15.2313 8.1017 14.6783 8.1017C14.5633 8.1017 14.4468 8.11433 14.3317 8.13958C14.3008 8.1466 14.2714 8.15362 14.2419 8.16063C14.2475 7.83228 14.2391 7.48148 14.2096 7.1391C14.1058 5.93234 13.6833 5.29949 13.2427 4.79574C13.0588 4.58526 12.7389 4.27796 12.2589 4.00293C11.5895 3.61845 10.8317 3.4248 10.0051 3.4248C9.18131 3.4248 8.42348 3.61845 7.75407 4.00152C7.27131 4.27655 6.95134 4.58526 6.7689 4.79434C6.32824 5.29809 5.90582 5.93093 5.80197 7.13769C5.7725 7.48008 5.76548 7.83088 5.76969 8.15923C5.74022 8.15221 5.70935 8.1452 5.67988 8.13818C5.5648 8.11292 5.44692 8.10029 5.33324 8.10029C4.78031 8.10029 4.32281 8.40058 4.14037 8.88328C4.00845 9.23128 4.0295 9.60173 4.20071 9.92587C4.32141 10.156 4.51648 10.3623 4.79294 10.5559C4.86732 10.6078 4.98099 10.6822 5.12554 10.7748C5.20413 10.8253 5.3178 10.8997 5.43007 10.9741C5.44692 10.9853 5.50726 11.0302 5.52831 11.0723C5.55217 11.12 5.55217 11.1719 5.51708 11.2673C5.45814 11.3978 5.37254 11.5578 5.25185 11.7346C4.89398 12.258 4.38175 12.7014 3.72918 13.055C3.38255 13.2388 3.02328 13.3609 2.87172 13.7735C2.75664 14.085 2.83242 14.44 3.12292 14.7389C3.21835 14.8413 3.33904 14.9325 3.49061 15.0167C3.84706 15.2132 4.15019 15.31 4.38877 15.3759C4.43087 15.3886 4.5277 15.4194 4.5698 15.4573C4.67646 15.5499 4.66102 15.6902 4.80276 15.8951C4.88837 16.0228 4.98661 16.1098 5.068 16.1659C5.36412 16.3708 5.69812 16.3834 6.05177 16.3975C6.37034 16.4101 6.73241 16.4241 7.145 16.5602C7.31622 16.6164 7.49444 16.7258 7.69934 16.8521C8.19333 17.1566 8.87116 17.5719 10.0037 17.5719C11.1376 17.5719 11.8183 17.1538 12.3165 16.8493C12.5213 16.7244 12.6982 16.615 12.8638 16.5602C13.2764 16.4241 13.6384 16.4101 13.957 16.3975C14.3107 16.3834 14.6433 16.3708 14.9408 16.1659C15.0334 16.1014 15.1513 15.9961 15.2439 15.8362C15.3449 15.6636 15.3435 15.5415 15.439 15.4587C15.4783 15.425 15.5639 15.3956 15.6102 15.3815C15.8502 15.3156 16.1575 15.2188 16.521 15.0181C16.6824 14.9297 16.8073 14.8329 16.9069 14.722C16.9083 14.7206 16.9097 14.7192 16.9111 14.7178C17.182 14.4231 17.2507 14.0794 17.1385 13.7749ZM16.1322 14.3151C15.5176 14.6547 15.1092 14.6182 14.792 14.8217C14.5226 14.9957 14.6811 15.3703 14.4861 15.505C14.2447 15.672 13.5332 15.4938 12.614 15.7969C11.8561 16.0481 11.372 16.7679 10.0065 16.7679C8.6382 16.7679 8.16807 16.0509 7.39901 15.7969C6.4798 15.4938 5.76689 15.672 5.52691 15.505C5.33184 15.3703 5.49042 14.9957 5.22097 14.8217C4.90381 14.6168 4.49542 14.6533 3.88074 14.3151C3.4892 14.099 3.71094 13.9657 3.84145 13.9026C6.06721 12.8263 6.42086 11.1621 6.4377 11.0372C6.45735 10.8885 6.4784 10.7706 6.3142 10.6176C6.15562 10.4703 5.44972 10.0339 5.25465 9.8978C4.93047 9.67189 4.78873 9.44597 4.89398 9.16814C4.96696 8.9759 5.14659 8.90433 5.33605 8.90433C5.39499 8.90433 5.45534 8.91135 5.51287 8.92398C5.86793 9.00115 6.21316 9.17936 6.41244 9.22707C6.44051 9.23409 6.46437 9.23689 6.48542 9.23689C6.59207 9.23689 6.62856 9.18357 6.62154 9.06149C6.59909 8.6728 6.54295 7.91507 6.6047 7.20645C6.68891 6.23262 7.00326 5.74992 7.37656 5.32194C7.55619 5.11707 8.39822 4.22744 10.0079 4.22744C11.6218 4.22744 12.4596 5.11707 12.6392 5.32194C13.0125 5.74852 13.3269 6.23122 13.4111 7.20645C13.4728 7.91507 13.4195 8.6728 13.3942 9.06149C13.3858 9.18918 13.4251 9.23689 13.5304 9.23689C13.5514 9.23689 13.5767 9.23409 13.6034 9.22707C13.8026 9.17936 14.1479 9.00115 14.5029 8.92398C14.5605 8.91135 14.6208 8.90433 14.6797 8.90433C14.8692 8.90433 15.0488 8.9773 15.1218 9.16814C15.2271 9.44597 15.0839 9.67189 14.7611 9.8978C14.5661 10.0339 13.8602 10.4703 13.7016 10.6176C13.5374 10.7692 13.5584 10.8871 13.5781 11.0372C13.5935 11.1621 13.9486 12.8263 16.1743 13.9026C16.3006 13.9657 16.5238 14.099 16.1322 14.3151Z" fill="black"/>
</g>
<defs>
<clipPath id="clip0_7009_30011">
<rect y="0.500977" width="20" height="19.9976" rx="7.46621" fill="white"/>
</clipPath>
</defs>
</svg>
