<svg width="20" height="21" viewBox="0 0 20 21" fill="none" xmlns="http://www.w3.org/2000/svg">
<g clip-path="url(#clip0_7009_30006)">
<path d="M19.9788 10.5C19.9788 16.0125 15.5095 20.4813 9.99634 20.4813C4.48317 20.4813 0.0138704 16.0125 0.0138704 10.5C0.0138704 4.98752 4.48317 0.518753 9.99634 0.518753C15.5095 0.518753 19.9788 4.98752 19.9788 10.5Z" fill="black" stroke="#BCBCBD" stroke-width="0.0355534"/>
<path d="M8.60397 8.81297V8.26722C8.41684 8.24164 8.22671 8.22559 8.03257 8.22559C5.69479 8.22559 3.79297 10.1272 3.79297 12.4647C3.79297 13.8988 4.50985 15.1678 5.60299 15.9353C4.89714 15.1779 4.4642 14.1631 4.4642 13.049C4.4642 10.7452 6.31235 8.86614 8.60397 8.81247V8.81297Z" fill="#25F4EE"/>
<path d="M8.70056 14.986C9.74353 14.986 10.5944 14.1563 10.633 13.123L10.6365 3.89297H12.3231C12.288 3.70336 12.2689 3.50823 12.2689 3.30859H9.96527L9.96176 12.5387C9.92313 13.5725 9.0723 14.4016 8.02933 14.4016C7.70526 14.4016 7.39974 14.3204 7.13135 14.1794C7.48352 14.667 8.05492 14.9865 8.70107 14.9865L8.70056 14.986Z" fill="#25F4EE"/>
<path d="M15.4772 7.02497V6.51183C14.8341 6.51183 14.2346 6.32071 13.7319 5.99316C14.1794 6.50681 14.7874 6.8775 15.4772 7.02497Z" fill="#25F4EE"/>
<path d="M13.7338 5.99331C13.2437 5.4305 12.9457 4.69565 12.9457 3.89258H12.3286C12.4912 4.76989 13.0119 5.5228 13.7338 5.99331Z" fill="#FE2C55"/>
<path d="M8.03605 10.5286C6.9685 10.5286 6.09961 11.3969 6.09961 12.4648C6.09961 13.2082 6.52151 13.8542 7.13756 14.1783C6.9078 13.8603 6.77084 13.4705 6.77084 13.0492C6.77084 11.9817 7.63973 11.113 8.70728 11.113C8.90644 11.113 9.09758 11.1461 9.27868 11.2022V8.8512C9.09156 8.82562 8.90142 8.80957 8.70728 8.80957C8.67367 8.80957 8.64056 8.81158 8.60695 8.81208V10.6179C8.42635 10.5612 8.23471 10.5286 8.03555 10.5286H8.03605Z" fill="#FE2C55"/>
<path d="M15.4769 7.02539V8.81563C14.2824 8.81563 13.1757 8.4334 12.2722 7.78532V12.4658C12.2722 14.8033 10.3704 16.7049 8.03261 16.7049C7.1291 16.7049 6.29132 16.42 5.60303 15.9364C6.3776 16.7676 7.48077 17.2893 8.70434 17.2893C11.0421 17.2893 12.9439 15.3877 12.9439 13.0502V8.3697C13.8474 9.01827 14.9541 9.4 16.1486 9.4V7.09662C15.9183 7.09662 15.6936 7.07154 15.4774 7.02539H15.4769Z" fill="#FE2C55"/>
<path d="M12.2723 12.4655V7.78505C13.1758 8.43363 14.2825 8.81535 15.477 8.81535V7.02511C14.7872 6.87764 14.1792 6.50695 13.7317 5.99331C13.0098 5.5228 12.489 4.76989 12.3265 3.89258H10.6399L10.6364 13.1226C10.5977 14.1565 9.74692 14.9856 8.70395 14.9856C8.0578 14.9856 7.4864 14.6666 7.13423 14.1785C6.51768 13.854 6.09628 13.2084 6.09628 12.465C6.09628 11.3976 6.96517 10.5288 8.03272 10.5288C8.23188 10.5288 8.42302 10.5619 8.60412 10.6181V8.81234C6.3125 8.86601 4.46436 10.745 4.46436 13.0489C4.46436 14.1635 4.89729 15.1777 5.60314 15.9352C6.29193 16.4187 7.12922 16.7036 8.03272 16.7036C10.3705 16.7036 12.2723 14.802 12.2723 12.4645V12.4655Z" fill="white"/>
</g>
<defs>
<clipPath id="clip0_7009_30006">
<rect width="20" height="19.9976" fill="white" transform="translate(0 0.500977)"/>
</clipPath>
</defs>
</svg>
