<svg width="20" height="21" viewBox="0 0 20 21" fill="none" xmlns="http://www.w3.org/2000/svg">
<g clip-path="url(#clip0_7009_29991)">
<path d="M7.47549 0.520706H12.5431C16.6567 0.520706 19.9915 3.85548 19.9915 7.96914V13.0343C19.9915 17.1479 16.6567 20.4827 12.5431 20.4827H7.47549C3.36183 20.4827 0.027054 17.1479 0.027054 13.0343V7.96914C0.027054 3.85549 3.36183 0.520706 7.47549 0.520706Z" fill="#1D9BF0" stroke="#393B3D" stroke-width="0.0355534"/>
<path d="M7.69111 15.5816C12.4061 15.5816 14.9861 11.6721 14.9861 8.2875C14.9861 8.17752 14.9861 8.06753 14.9811 7.95754C15.4811 7.59759 15.9161 7.14264 16.2611 6.6277C15.8011 6.83268 15.3061 6.96766 14.7861 7.03266C15.3161 6.71769 15.7211 6.21276 15.9161 5.61283C15.4211 5.90779 14.8711 6.11777 14.2861 6.23275C13.8161 5.73281 13.1511 5.42285 12.4161 5.42285C11.0011 5.42285 9.85111 6.57271 9.85111 7.98754C9.85111 8.18751 9.87611 8.38249 9.91611 8.57247C7.78611 8.46748 5.89611 7.44261 4.63111 5.89279C4.41111 6.27275 4.28611 6.71269 4.28611 7.18264C4.28611 8.07253 4.74111 8.85743 5.42611 9.31738C5.00611 9.30238 4.61111 9.18739 4.26611 8.99742C4.26611 9.00741 4.26611 9.01741 4.26611 9.03241C4.26611 10.2723 5.15111 11.3121 6.32111 11.5471C6.10611 11.6071 5.88111 11.6371 5.64611 11.6371C5.48111 11.6371 5.32111 11.6221 5.16611 11.5921C5.49111 12.612 6.44111 13.3519 7.56111 13.3719C6.68111 14.0618 5.57611 14.4717 4.37611 14.4717C4.17111 14.4717 3.96611 14.4618 3.76611 14.4368C4.89611 15.1567 6.24611 15.5816 7.69111 15.5816Z" fill="white"/>
</g>
<defs>
<clipPath id="clip0_7009_29991">
<rect width="20" height="19.9976" fill="white" transform="translate(0 0.500977)"/>
</clipPath>
</defs>
</svg>
