<svg width="20" height="15" viewBox="0 0 20 15" fill="none" xmlns="http://www.w3.org/2000/svg">
<g clip-path="url(#clip0_7009_30001)">
<path d="M19.5781 2.66882C19.3481 1.80573 18.6705 1.12608 17.81 0.895419C16.2503 0.476216 9.99609 0.476216 9.99609 0.476216C9.99609 0.476216 3.74192 0.476216 2.18222 0.895419C1.32173 1.12608 0.643998 1.80573 0.414018 2.66882C-0.00390625 4.23311 -0.00390625 7.4969 -0.00390625 7.4969C-0.00390625 7.4969 -0.00390625 10.7606 0.414018 12.3251C0.643998 13.1881 1.32173 13.8677 2.18222 14.0985C3.74192 14.5176 9.99609 14.5176 9.99609 14.5176C9.99609 14.5176 16.2503 14.5176 17.81 14.0985C18.6705 13.8677 19.3481 13.1881 19.5781 12.3251C19.9961 10.7606 19.9961 7.4969 19.9961 7.4969C19.9961 7.4969 19.9961 4.23311 19.5781 2.66882Z" fill="#ED1D24"/>
<path d="M7.94775 10.459L13.175 7.49586L7.94775 4.53245V10.459Z" fill="white"/>
</g>
<defs>
<clipPath id="clip0_7009_30001">
<rect width="20" height="14.0414" fill="white" transform="translate(0 0.479492)"/>
</clipPath>
</defs>
</svg>
